G04 PROTEUS GERBER X2 FILE*
%TF.GenerationSoftware,Labcenter,Proteus,8.12-SP0-Build30713*%
%TF.CreationDate,2021-08-03T17:06:19+00:00*%
%TF.FileFunction,Legend,Bot*%
%TF.FilePolarity,Positive*%
%TF.Part,Single*%
%TF.SameCoordinates,{e442dea6-d824-4b69-b240-5084a1d61555}*%
%FSLAX45Y45*%
%MOMM*%
G01*
%TA.AperFunction,Material*%
%ADD30C,0.203200*%
%ADD32C,0.200000*%
%ADD34C,0.508000*%
%TD.AperFunction*%
D30*
X+6166000Y+50000D02*
X+6926000Y+50000D01*
X+6926000Y+5130000D01*
X+6166000Y+5130000D01*
X+6166000Y+50000D01*
X+6704750Y+5185880D02*
X+6720625Y+5170640D01*
X+6768250Y+5170640D01*
X+6800000Y+5201120D01*
X+6800000Y+5231600D01*
X+6768250Y+5262080D01*
X+6720625Y+5262080D01*
X+6704750Y+5246840D01*
X+6673000Y+5170640D02*
X+6673000Y+5262080D01*
X+6577750Y+5170640D01*
X+6577750Y+5262080D01*
X+6514250Y+5231600D02*
X+6482500Y+5262080D01*
X+6482500Y+5170640D01*
X+6419000Y+5185880D02*
X+6419000Y+5246840D01*
X+6403125Y+5262080D01*
X+6339625Y+5262080D01*
X+6323750Y+5246840D01*
X+6323750Y+5185880D01*
X+6339625Y+5170640D01*
X+6403125Y+5170640D01*
X+6419000Y+5185880D01*
X+6419000Y+5170640D02*
X+6323750Y+5262080D01*
D32*
X+5395000Y+3526327D02*
X+5425000Y+3526327D01*
X+5395000Y+3386327D02*
X+5425000Y+3386327D01*
D30*
X+5524300Y+3312267D02*
X+5524300Y+3357987D01*
X+5476675Y+3357987D01*
X+5467150Y+3350367D01*
X+5467150Y+3342747D01*
X+5476675Y+3335127D01*
X+5524300Y+3335127D01*
X+5476675Y+3335127D02*
X+5467150Y+3327507D01*
X+5467150Y+3312267D01*
X+5429050Y+3342747D02*
X+5410000Y+3357987D01*
X+5410000Y+3312267D01*
X+5362375Y+3350367D02*
X+5352850Y+3357987D01*
X+5324275Y+3357987D01*
X+5314750Y+3350367D01*
X+5314750Y+3342747D01*
X+5324275Y+3335127D01*
X+5314750Y+3327507D01*
X+5314750Y+3319887D01*
X+5324275Y+3312267D01*
X+5352850Y+3312267D01*
X+5362375Y+3319887D01*
X+5343325Y+3335127D02*
X+5324275Y+3335127D01*
D32*
X+5395000Y+3281327D02*
X+5425000Y+3281327D01*
X+5395000Y+3141327D02*
X+5425000Y+3141327D01*
D30*
X+5529300Y+3047267D02*
X+5529300Y+3092987D01*
X+5481675Y+3092987D01*
X+5472150Y+3085367D01*
X+5472150Y+3077747D01*
X+5481675Y+3070127D01*
X+5529300Y+3070127D01*
X+5481675Y+3070127D02*
X+5472150Y+3062507D01*
X+5472150Y+3047267D01*
X+5434050Y+3077747D02*
X+5415000Y+3092987D01*
X+5415000Y+3047267D01*
X+5367375Y+3092987D02*
X+5319750Y+3092987D01*
X+5319750Y+3085367D01*
X+5367375Y+3047267D01*
D32*
X+5395000Y+4016327D02*
X+5425000Y+4016327D01*
X+5395000Y+3876327D02*
X+5425000Y+3876327D01*
D30*
X+5524300Y+3808071D02*
X+5524300Y+3853791D01*
X+5476675Y+3853791D01*
X+5467150Y+3846171D01*
X+5467150Y+3838551D01*
X+5476675Y+3830931D01*
X+5524300Y+3830931D01*
X+5476675Y+3830931D02*
X+5467150Y+3823311D01*
X+5467150Y+3808071D01*
X+5438575Y+3846171D02*
X+5429050Y+3853791D01*
X+5400475Y+3853791D01*
X+5390950Y+3846171D01*
X+5390950Y+3838551D01*
X+5400475Y+3830931D01*
X+5429050Y+3830931D01*
X+5438575Y+3823311D01*
X+5438575Y+3808071D01*
X+5390950Y+3808071D01*
X+5314750Y+3838551D02*
X+5324275Y+3830931D01*
X+5352850Y+3830931D01*
X+5362375Y+3838551D01*
X+5362375Y+3846171D01*
X+5352850Y+3853791D01*
X+5324275Y+3853791D01*
X+5314750Y+3846171D01*
X+5314750Y+3815691D01*
X+5324275Y+3808071D01*
X+5352850Y+3808071D01*
D32*
X+5395000Y+3776327D02*
X+5425000Y+3776327D01*
X+5395000Y+3636327D02*
X+5425000Y+3636327D01*
D30*
X+5529300Y+3557267D02*
X+5529300Y+3602987D01*
X+5481675Y+3602987D01*
X+5472150Y+3595367D01*
X+5472150Y+3587747D01*
X+5481675Y+3580127D01*
X+5529300Y+3580127D01*
X+5481675Y+3580127D02*
X+5472150Y+3572507D01*
X+5472150Y+3557267D01*
X+5443575Y+3595367D02*
X+5434050Y+3602987D01*
X+5405475Y+3602987D01*
X+5395950Y+3595367D01*
X+5395950Y+3587747D01*
X+5405475Y+3580127D01*
X+5395950Y+3572507D01*
X+5395950Y+3564887D01*
X+5405475Y+3557267D01*
X+5434050Y+3557267D01*
X+5443575Y+3564887D01*
X+5424525Y+3580127D02*
X+5405475Y+3580127D01*
X+5376900Y+3564887D02*
X+5376900Y+3595367D01*
X+5367375Y+3602987D01*
X+5329275Y+3602987D01*
X+5319750Y+3595367D01*
X+5319750Y+3564887D01*
X+5329275Y+3557267D01*
X+5367375Y+3557267D01*
X+5376900Y+3564887D01*
X+5376900Y+3557267D02*
X+5319750Y+3602987D01*
D32*
X+5855000Y+4016327D02*
X+5885000Y+4016327D01*
X+5855000Y+3876327D02*
X+5885000Y+3876327D01*
D30*
X+5980692Y+3805875D02*
X+5980692Y+3851595D01*
X+5933067Y+3851595D01*
X+5923542Y+3843975D01*
X+5923542Y+3836355D01*
X+5933067Y+3828735D01*
X+5980692Y+3828735D01*
X+5933067Y+3828735D02*
X+5923542Y+3821115D01*
X+5923542Y+3805875D01*
X+5885442Y+3836355D02*
X+5866392Y+3851595D01*
X+5866392Y+3805875D01*
X+5809242Y+3828735D02*
X+5818767Y+3836355D01*
X+5818767Y+3843975D01*
X+5809242Y+3851595D01*
X+5780667Y+3851595D01*
X+5771142Y+3843975D01*
X+5771142Y+3836355D01*
X+5780667Y+3828735D01*
X+5809242Y+3828735D01*
X+5818767Y+3821115D01*
X+5818767Y+3813495D01*
X+5809242Y+3805875D01*
X+5780667Y+3805875D01*
X+5771142Y+3813495D01*
X+5771142Y+3821115D01*
X+5780667Y+3828735D01*
D32*
X+5855000Y+3781327D02*
X+5885000Y+3781327D01*
X+5855000Y+3641327D02*
X+5885000Y+3641327D01*
D30*
X+5984300Y+3557267D02*
X+5984300Y+3602987D01*
X+5936675Y+3602987D01*
X+5927150Y+3595367D01*
X+5927150Y+3587747D01*
X+5936675Y+3580127D01*
X+5984300Y+3580127D01*
X+5936675Y+3580127D02*
X+5927150Y+3572507D01*
X+5927150Y+3557267D01*
X+5898575Y+3595367D02*
X+5889050Y+3602987D01*
X+5860475Y+3602987D01*
X+5850950Y+3595367D01*
X+5850950Y+3587747D01*
X+5860475Y+3580127D01*
X+5889050Y+3580127D01*
X+5898575Y+3572507D01*
X+5898575Y+3557267D01*
X+5850950Y+3557267D01*
X+5831900Y+3564887D02*
X+5831900Y+3595367D01*
X+5822375Y+3602987D01*
X+5784275Y+3602987D01*
X+5774750Y+3595367D01*
X+5774750Y+3564887D01*
X+5784275Y+3557267D01*
X+5822375Y+3557267D01*
X+5831900Y+3564887D01*
X+5831900Y+3557267D02*
X+5774750Y+3602987D01*
D32*
X+5855000Y+3526327D02*
X+5885000Y+3526327D01*
X+5855000Y+3386327D02*
X+5885000Y+3386327D01*
D30*
X+5984300Y+3312267D02*
X+5984300Y+3357987D01*
X+5936675Y+3357987D01*
X+5927150Y+3350367D01*
X+5927150Y+3342747D01*
X+5936675Y+3335127D01*
X+5984300Y+3335127D01*
X+5936675Y+3335127D02*
X+5927150Y+3327507D01*
X+5927150Y+3312267D01*
X+5898575Y+3350367D02*
X+5889050Y+3357987D01*
X+5860475Y+3357987D01*
X+5850950Y+3350367D01*
X+5850950Y+3342747D01*
X+5860475Y+3335127D01*
X+5850950Y+3327507D01*
X+5850950Y+3319887D01*
X+5860475Y+3312267D01*
X+5889050Y+3312267D01*
X+5898575Y+3319887D01*
X+5879525Y+3335127D02*
X+5860475Y+3335127D01*
X+5812850Y+3342747D02*
X+5793800Y+3357987D01*
X+5793800Y+3312267D01*
D32*
X+5855000Y+3286327D02*
X+5885000Y+3286327D01*
X+5855000Y+3146327D02*
X+5885000Y+3146327D01*
D30*
X+5984300Y+3057267D02*
X+5984300Y+3102987D01*
X+5936675Y+3102987D01*
X+5927150Y+3095367D01*
X+5927150Y+3087747D01*
X+5936675Y+3080127D01*
X+5984300Y+3080127D01*
X+5936675Y+3080127D02*
X+5927150Y+3072507D01*
X+5927150Y+3057267D01*
X+5898575Y+3095367D02*
X+5889050Y+3102987D01*
X+5860475Y+3102987D01*
X+5850950Y+3095367D01*
X+5850950Y+3087747D01*
X+5860475Y+3080127D01*
X+5850950Y+3072507D01*
X+5850950Y+3064887D01*
X+5860475Y+3057267D01*
X+5889050Y+3057267D01*
X+5898575Y+3064887D01*
X+5879525Y+3080127D02*
X+5860475Y+3080127D01*
X+5822375Y+3095367D02*
X+5812850Y+3102987D01*
X+5784275Y+3102987D01*
X+5774750Y+3095367D01*
X+5774750Y+3087747D01*
X+5784275Y+3080127D01*
X+5812850Y+3080127D01*
X+5822375Y+3072507D01*
X+5822375Y+3057267D01*
X+5774750Y+3057267D01*
D34*
X+1443100Y+5064500D02*
X+1442969Y+5067658D01*
X+1441903Y+5073976D01*
X+1439672Y+5080294D01*
X+1436027Y+5086612D01*
X+1430452Y+5092851D01*
X+1424134Y+5097447D01*
X+1417816Y+5100380D01*
X+1411498Y+5102042D01*
X+1405180Y+5102600D01*
X+1405000Y+5102600D01*
X+1366900Y+5064500D02*
X+1367031Y+5067658D01*
X+1368097Y+5073976D01*
X+1370328Y+5080294D01*
X+1373973Y+5086612D01*
X+1379548Y+5092851D01*
X+1385866Y+5097447D01*
X+1392184Y+5100380D01*
X+1398502Y+5102042D01*
X+1404820Y+5102600D01*
X+1405000Y+5102600D01*
X+1366900Y+5064500D02*
X+1367031Y+5061342D01*
X+1368097Y+5055024D01*
X+1370328Y+5048706D01*
X+1373973Y+5042388D01*
X+1379548Y+5036149D01*
X+1385866Y+5031553D01*
X+1392184Y+5028620D01*
X+1398502Y+5026958D01*
X+1404820Y+5026400D01*
X+1405000Y+5026400D01*
X+1443100Y+5064500D02*
X+1442969Y+5061342D01*
X+1441903Y+5055024D01*
X+1439672Y+5048706D01*
X+1436027Y+5042388D01*
X+1430452Y+5036149D01*
X+1424134Y+5031553D01*
X+1417816Y+5028620D01*
X+1411498Y+5026958D01*
X+1405180Y+5026400D01*
X+1405000Y+5026400D01*
D30*
X+4976340Y+2638420D02*
X+4907760Y+2638420D01*
X+4976340Y+2516500D02*
X+4905220Y+2516500D01*
X+4975070Y+2694300D02*
X+4990945Y+2679060D01*
X+5038570Y+2679060D01*
X+5070320Y+2709540D01*
X+5070320Y+2740020D01*
X+5038570Y+2770500D01*
X+4990945Y+2770500D01*
X+4975070Y+2755260D01*
X+4927445Y+2755260D02*
X+4911570Y+2770500D01*
X+4863945Y+2770500D01*
X+4848070Y+2755260D01*
X+4848070Y+2740020D01*
X+4863945Y+2724780D01*
X+4911570Y+2724780D01*
X+4927445Y+2709540D01*
X+4927445Y+2679060D01*
X+4848070Y+2679060D01*
X+5539700Y+2638420D02*
X+5471120Y+2638420D01*
X+5539700Y+2516500D02*
X+5468580Y+2516500D01*
X+5538430Y+2694300D02*
X+5554305Y+2679060D01*
X+5601930Y+2679060D01*
X+5633680Y+2709540D01*
X+5633680Y+2740020D01*
X+5601930Y+2770500D01*
X+5554305Y+2770500D01*
X+5538430Y+2755260D01*
X+5490805Y+2755260D02*
X+5474930Y+2770500D01*
X+5427305Y+2770500D01*
X+5411430Y+2755260D01*
X+5411430Y+2740020D01*
X+5427305Y+2724780D01*
X+5411430Y+2709540D01*
X+5411430Y+2694300D01*
X+5427305Y+2679060D01*
X+5474930Y+2679060D01*
X+5490805Y+2694300D01*
X+5459055Y+2724780D02*
X+5427305Y+2724780D01*
X+1109700Y+2448420D02*
X+1041120Y+2448420D01*
X+1109700Y+2326500D02*
X+1038580Y+2326500D01*
X+1108430Y+2504300D02*
X+1124305Y+2489060D01*
X+1171930Y+2489060D01*
X+1203680Y+2519540D01*
X+1203680Y+2550020D01*
X+1171930Y+2580500D01*
X+1124305Y+2580500D01*
X+1108430Y+2565260D01*
X+1060805Y+2580500D02*
X+981430Y+2580500D01*
X+981430Y+2565260D01*
X+1060805Y+2489060D01*
D34*
X+1096656Y+3629056D02*
X+1096525Y+3632214D01*
X+1095459Y+3638532D01*
X+1093228Y+3644850D01*
X+1089583Y+3651168D01*
X+1084008Y+3657407D01*
X+1077690Y+3662003D01*
X+1071372Y+3664936D01*
X+1065054Y+3666598D01*
X+1058736Y+3667156D01*
X+1058556Y+3667156D01*
X+1020456Y+3629056D02*
X+1020587Y+3632214D01*
X+1021653Y+3638532D01*
X+1023884Y+3644850D01*
X+1027529Y+3651168D01*
X+1033104Y+3657407D01*
X+1039422Y+3662003D01*
X+1045740Y+3664936D01*
X+1052058Y+3666598D01*
X+1058376Y+3667156D01*
X+1058556Y+3667156D01*
X+1020456Y+3629056D02*
X+1020587Y+3625898D01*
X+1021653Y+3619580D01*
X+1023884Y+3613262D01*
X+1027529Y+3606944D01*
X+1033104Y+3600705D01*
X+1039422Y+3596109D01*
X+1045740Y+3593176D01*
X+1052058Y+3591514D01*
X+1058376Y+3590956D01*
X+1058556Y+3590956D01*
X+1096656Y+3629056D02*
X+1096525Y+3625898D01*
X+1095459Y+3619580D01*
X+1093228Y+3613262D01*
X+1089583Y+3606944D01*
X+1084008Y+3600705D01*
X+1077690Y+3596109D01*
X+1071372Y+3593176D01*
X+1065054Y+3591514D01*
X+1058736Y+3590956D01*
X+1058556Y+3590956D01*
D30*
X+70000Y+46000D02*
X+830000Y+46000D01*
X+830000Y+5126000D01*
X+70000Y+5126000D01*
X+70000Y+46000D01*
X+545250Y+5181880D02*
X+561125Y+5166640D01*
X+608750Y+5166640D01*
X+640500Y+5197120D01*
X+640500Y+5227600D01*
X+608750Y+5258080D01*
X+561125Y+5258080D01*
X+545250Y+5242840D01*
X+513500Y+5166640D02*
X+513500Y+5258080D01*
X+418250Y+5166640D01*
X+418250Y+5258080D01*
X+370625Y+5258080D02*
X+291250Y+5258080D01*
X+291250Y+5242840D01*
X+370625Y+5166640D01*
D34*
X+1683600Y+1210000D02*
X+1683469Y+1213158D01*
X+1682403Y+1219476D01*
X+1680172Y+1225794D01*
X+1676527Y+1232112D01*
X+1670952Y+1238351D01*
X+1664634Y+1242947D01*
X+1658316Y+1245880D01*
X+1651998Y+1247542D01*
X+1645680Y+1248100D01*
X+1645500Y+1248100D01*
X+1607400Y+1210000D02*
X+1607531Y+1213158D01*
X+1608597Y+1219476D01*
X+1610828Y+1225794D01*
X+1614473Y+1232112D01*
X+1620048Y+1238351D01*
X+1626366Y+1242947D01*
X+1632684Y+1245880D01*
X+1639002Y+1247542D01*
X+1645320Y+1248100D01*
X+1645500Y+1248100D01*
X+1607400Y+1210000D02*
X+1607531Y+1206842D01*
X+1608597Y+1200524D01*
X+1610828Y+1194206D01*
X+1614473Y+1187888D01*
X+1620048Y+1181649D01*
X+1626366Y+1177053D01*
X+1632684Y+1174120D01*
X+1639002Y+1172458D01*
X+1645320Y+1171900D01*
X+1645500Y+1171900D01*
X+1683600Y+1210000D02*
X+1683469Y+1206842D01*
X+1682403Y+1200524D01*
X+1680172Y+1194206D01*
X+1676527Y+1187888D01*
X+1670952Y+1181649D01*
X+1664634Y+1177053D01*
X+1658316Y+1174120D01*
X+1651998Y+1172458D01*
X+1645680Y+1171900D01*
X+1645500Y+1171900D01*
X+5393100Y+5379500D02*
X+5392969Y+5382658D01*
X+5391903Y+5388976D01*
X+5389672Y+5395294D01*
X+5386027Y+5401612D01*
X+5380452Y+5407851D01*
X+5374134Y+5412447D01*
X+5367816Y+5415380D01*
X+5361498Y+5417042D01*
X+5355180Y+5417600D01*
X+5355000Y+5417600D01*
X+5316900Y+5379500D02*
X+5317031Y+5382658D01*
X+5318097Y+5388976D01*
X+5320328Y+5395294D01*
X+5323973Y+5401612D01*
X+5329548Y+5407851D01*
X+5335866Y+5412447D01*
X+5342184Y+5415380D01*
X+5348502Y+5417042D01*
X+5354820Y+5417600D01*
X+5355000Y+5417600D01*
X+5316900Y+5379500D02*
X+5317031Y+5376342D01*
X+5318097Y+5370024D01*
X+5320328Y+5363706D01*
X+5323973Y+5357388D01*
X+5329548Y+5351149D01*
X+5335866Y+5346553D01*
X+5342184Y+5343620D01*
X+5348502Y+5341958D01*
X+5354820Y+5341400D01*
X+5355000Y+5341400D01*
X+5393100Y+5379500D02*
X+5392969Y+5376342D01*
X+5391903Y+5370024D01*
X+5389672Y+5363706D01*
X+5386027Y+5357388D01*
X+5380452Y+5351149D01*
X+5374134Y+5346553D01*
X+5367816Y+5343620D01*
X+5361498Y+5341958D01*
X+5355180Y+5341400D01*
X+5355000Y+5341400D01*
X+1862600Y+2445000D02*
X+1862469Y+2448158D01*
X+1861403Y+2454476D01*
X+1859172Y+2460794D01*
X+1855527Y+2467112D01*
X+1849952Y+2473351D01*
X+1843634Y+2477947D01*
X+1837316Y+2480880D01*
X+1830998Y+2482542D01*
X+1824680Y+2483100D01*
X+1824500Y+2483100D01*
X+1786400Y+2445000D02*
X+1786531Y+2448158D01*
X+1787597Y+2454476D01*
X+1789828Y+2460794D01*
X+1793473Y+2467112D01*
X+1799048Y+2473351D01*
X+1805366Y+2477947D01*
X+1811684Y+2480880D01*
X+1818002Y+2482542D01*
X+1824320Y+2483100D01*
X+1824500Y+2483100D01*
X+1786400Y+2445000D02*
X+1786531Y+2441842D01*
X+1787597Y+2435524D01*
X+1789828Y+2429206D01*
X+1793473Y+2422888D01*
X+1799048Y+2416649D01*
X+1805366Y+2412053D01*
X+1811684Y+2409120D01*
X+1818002Y+2407458D01*
X+1824320Y+2406900D01*
X+1824500Y+2406900D01*
X+1862600Y+2445000D02*
X+1862469Y+2441842D01*
X+1861403Y+2435524D01*
X+1859172Y+2429206D01*
X+1855527Y+2422888D01*
X+1849952Y+2416649D01*
X+1843634Y+2412053D01*
X+1837316Y+2409120D01*
X+1830998Y+2407458D01*
X+1824680Y+2406900D01*
X+1824500Y+2406900D01*
X+3563100Y+2869500D02*
X+3562969Y+2872658D01*
X+3561903Y+2878976D01*
X+3559672Y+2885294D01*
X+3556027Y+2891612D01*
X+3550452Y+2897851D01*
X+3544134Y+2902447D01*
X+3537816Y+2905380D01*
X+3531498Y+2907042D01*
X+3525180Y+2907600D01*
X+3525000Y+2907600D01*
X+3486900Y+2869500D02*
X+3487031Y+2872658D01*
X+3488097Y+2878976D01*
X+3490328Y+2885294D01*
X+3493973Y+2891612D01*
X+3499548Y+2897851D01*
X+3505866Y+2902447D01*
X+3512184Y+2905380D01*
X+3518502Y+2907042D01*
X+3524820Y+2907600D01*
X+3525000Y+2907600D01*
X+3486900Y+2869500D02*
X+3487031Y+2866342D01*
X+3488097Y+2860024D01*
X+3490328Y+2853706D01*
X+3493973Y+2847388D01*
X+3499548Y+2841149D01*
X+3505866Y+2836553D01*
X+3512184Y+2833620D01*
X+3518502Y+2831958D01*
X+3524820Y+2831400D01*
X+3525000Y+2831400D01*
X+3563100Y+2869500D02*
X+3562969Y+2866342D01*
X+3561903Y+2860024D01*
X+3559672Y+2853706D01*
X+3556027Y+2847388D01*
X+3550452Y+2841149D01*
X+3544134Y+2836553D01*
X+3537816Y+2833620D01*
X+3531498Y+2831958D01*
X+3525180Y+2831400D01*
X+3525000Y+2831400D01*
D32*
X+1655000Y+4075000D02*
X+1655000Y+4205000D01*
D30*
X+1681750Y+3933320D02*
X+1697625Y+3918080D01*
X+1745250Y+3918080D01*
X+1777000Y+3948560D01*
X+1777000Y+3979040D01*
X+1745250Y+4009520D01*
X+1697625Y+4009520D01*
X+1681750Y+3994280D01*
X+1554750Y+3948560D02*
X+1650000Y+3948560D01*
X+1586500Y+4009520D01*
X+1586500Y+3918080D01*
M02*
