G04 PROTEUS GERBER X2 FILE*
%TF.GenerationSoftware,Labcenter,Proteus,8.12-SP0-Build30713*%
%TF.CreationDate,2021-08-05T01:58:47+00:00*%
%TF.FileFunction,Soldermask,Top*%
%TF.FilePolarity,Negative*%
%TF.Part,Single*%
%TF.SameCoordinates,{c268b761-3c90-48aa-9c34-52fb7bb1cfd9}*%
%FSLAX45Y45*%
%MOMM*%
G01*
%TA.AperFunction,Material*%
%ADD36C,0.812800*%
%ADD37C,1.270000*%
%AMPPAD032*
4,1,36,
0.762000,-0.635000,
0.762000,0.635000,
0.759470,0.660970,
0.752200,0.684980,
0.740650,0.706580,
0.725290,0.725290,
0.706570,0.740650,
0.684980,0.752200,
0.660970,0.759470,
0.635000,0.762000,
-0.635000,0.762000,
-0.660970,0.759470,
-0.684980,0.752200,
-0.706570,0.740650,
-0.725290,0.725290,
-0.740650,0.706580,
-0.752200,0.684980,
-0.759470,0.660970,
-0.762000,0.635000,
-0.762000,-0.635000,
-0.759470,-0.660970,
-0.752200,-0.684980,
-0.740650,-0.706580,
-0.725290,-0.725290,
-0.706570,-0.740650,
-0.684980,-0.752200,
-0.660970,-0.759470,
-0.635000,-0.762000,
0.635000,-0.762000,
0.660970,-0.759470,
0.684980,-0.752200,
0.706570,-0.740650,
0.725290,-0.725290,
0.740650,-0.706580,
0.752200,-0.684980,
0.759470,-0.660970,
0.762000,-0.635000,
0*%
%TA.AperFunction,Material*%
%ADD38PPAD032*%
%ADD39C,1.778000*%
%AMPPAD034*
4,1,36,
0.762000,0.635000,
0.762000,-0.635000,
0.759470,-0.660970,
0.752200,-0.684980,
0.740650,-0.706580,
0.725290,-0.725290,
0.706570,-0.740650,
0.684980,-0.752200,
0.660970,-0.759470,
0.635000,-0.762000,
-0.635000,-0.762000,
-0.660970,-0.759470,
-0.684980,-0.752200,
-0.706570,-0.740650,
-0.725290,-0.725290,
-0.740650,-0.706580,
-0.752200,-0.684980,
-0.759470,-0.660970,
-0.762000,-0.635000,
-0.762000,0.635000,
-0.759470,0.660970,
-0.752200,0.684980,
-0.740650,0.706580,
-0.725290,0.725290,
-0.706570,0.740650,
-0.684980,0.752200,
-0.660970,0.759470,
-0.635000,0.762000,
0.635000,0.762000,
0.660970,0.759470,
0.684980,0.752200,
0.706570,0.740650,
0.725290,0.725290,
0.740650,0.706580,
0.752200,0.684980,
0.759470,0.660970,
0.762000,0.635000,
0*%
%TA.AperFunction,Material*%
%ADD40PPAD034*%
%ADD41C,1.524000*%
%AMPPAD036*
4,1,4,
-0.304800,0.469900,
0.304800,0.469900,
0.304800,-0.469900,
-0.304800,-0.469900,
-0.304800,0.469900,
0*%
%TA.AperFunction,Material*%
%ADD42PPAD036*%
%AMPPAD037*
4,1,4,
-0.723900,-0.469900,
-0.723900,0.469900,
0.723900,0.469900,
0.723900,-0.469900,
-0.723900,-0.469900,
0*%
%TA.AperFunction,Material*%
%ADD43PPAD037*%
%AMPPAD038*
4,1,4,
0.228600,-0.520700,
-0.228600,-0.520700,
-0.228600,0.520700,
0.228600,0.520700,
0.228600,-0.520700,
0*%
%TA.AperFunction,Material*%
%ADD44PPAD038*%
%AMPPAD039*
4,1,4,
0.304800,-0.774700,
-0.304800,-0.774700,
-0.304800,0.774700,
0.304800,0.774700,
0.304800,-0.774700,
0*%
%TA.AperFunction,Material*%
%ADD45PPAD039*%
%AMPPAD040*
4,1,4,
-1.574800,-1.219200,
-1.574800,1.219200,
1.574800,1.219200,
1.574800,-1.219200,
-1.574800,-1.219200,
0*%
%ADD46PPAD040*%
%TA.AperFunction,Material*%
%ADD47C,1.651000*%
%AMPPAD042*
4,1,4,
-0.469900,0.723900,
0.469900,0.723900,
0.469900,-0.723900,
-0.469900,-0.723900,
-0.469900,0.723900,
0*%
%TA.AperFunction,Material*%
%ADD48PPAD042*%
%AMPPAD043*
4,1,36,
-0.635000,0.762000,
0.635000,0.762000,
0.660970,0.759470,
0.684980,0.752200,
0.706580,0.740650,
0.725290,0.725290,
0.740650,0.706570,
0.752200,0.684980,
0.759470,0.660970,
0.762000,0.635000,
0.762000,-0.635000,
0.759470,-0.660970,
0.752200,-0.684980,
0.740650,-0.706570,
0.725290,-0.725290,
0.706580,-0.740650,
0.684980,-0.752200,
0.660970,-0.759470,
0.635000,-0.762000,
-0.635000,-0.762000,
-0.660970,-0.759470,
-0.684980,-0.752200,
-0.706580,-0.740650,
-0.725290,-0.725290,
-0.740650,-0.706570,
-0.752200,-0.684980,
-0.759470,-0.660970,
-0.762000,-0.635000,
-0.762000,0.635000,
-0.759470,0.660970,
-0.752200,0.684980,
-0.740650,0.706570,
-0.725290,0.725290,
-0.706580,0.740650,
-0.684980,0.752200,
-0.660970,0.759470,
-0.635000,0.762000,
0*%
%TA.AperFunction,Material*%
%ADD49PPAD043*%
%TA.AperFunction,Material*%
%ADD50C,3.302000*%
%AMPPAD045*
4,1,36,
-0.762000,-0.508000,
-0.762000,0.508000,
-0.759470,0.533970,
-0.752200,0.557980,
-0.740650,0.579580,
-0.725290,0.598290,
-0.706570,0.613650,
-0.684980,0.625200,
-0.660970,0.632470,
-0.635000,0.635000,
0.635000,0.635000,
0.660970,0.632470,
0.684980,0.625200,
0.706570,0.613650,
0.725290,0.598290,
0.740650,0.579580,
0.752200,0.557980,
0.759470,0.533970,
0.762000,0.508000,
0.762000,-0.508000,
0.759470,-0.533970,
0.752200,-0.557980,
0.740650,-0.579580,
0.725290,-0.598290,
0.706570,-0.613650,
0.684980,-0.625200,
0.660970,-0.632470,
0.635000,-0.635000,
-0.635000,-0.635000,
-0.660970,-0.632470,
-0.684980,-0.625200,
-0.706570,-0.613650,
-0.725290,-0.598290,
-0.740650,-0.579580,
-0.752200,-0.557980,
-0.759470,-0.533970,
-0.762000,-0.508000,
0*%
%ADD51PPAD045*%
%AMPPAD046*
4,1,4,
-0.571500,0.723900,
0.571500,0.723900,
0.571500,-0.723900,
-0.571500,-0.723900,
-0.571500,0.723900,
0*%
%ADD52PPAD046*%
%AMPPAD047*
4,1,4,
0.723900,0.571500,
0.723900,-0.571500,
-0.723900,-0.571500,
-0.723900,0.571500,
0.723900,0.571500,
0*%
%ADD53PPAD047*%
%AMPPAD048*
4,1,4,
-0.469900,-0.304800,
-0.469900,0.304800,
0.469900,0.304800,
0.469900,-0.304800,
-0.469900,-0.304800,
0*%
%TA.AperFunction,Material*%
%ADD54PPAD048*%
%TA.AperFunction,Material*%
%ADD55C,2.286000*%
%AMPPAD050*
4,1,36,
-0.508000,0.762000,
0.508000,0.762000,
0.533970,0.759470,
0.557980,0.752200,
0.579580,0.740650,
0.598290,0.725290,
0.613650,0.706570,
0.625200,0.684980,
0.632470,0.660970,
0.635000,0.635000,
0.635000,-0.635000,
0.632470,-0.660970,
0.625200,-0.684980,
0.613650,-0.706570,
0.598290,-0.725290,
0.579580,-0.740650,
0.557980,-0.752200,
0.533970,-0.759470,
0.508000,-0.762000,
-0.508000,-0.762000,
-0.533970,-0.759470,
-0.557980,-0.752200,
-0.579580,-0.740650,
-0.598290,-0.725290,
-0.613650,-0.706570,
-0.625200,-0.684980,
-0.632470,-0.660970,
-0.635000,-0.635000,
-0.635000,0.635000,
-0.632470,0.660970,
-0.625200,0.684980,
-0.613650,0.706570,
-0.598290,0.725290,
-0.579580,0.740650,
-0.557980,0.752200,
-0.533970,0.759470,
-0.508000,0.762000,
0*%
%TA.AperFunction,Material*%
%ADD56PPAD050*%
%AMPPAD051*
4,1,4,
-0.901700,1.130300,
0.901700,1.130300,
0.901700,-1.130300,
-0.901700,-1.130300,
-0.901700,1.130300,
0*%
%ADD57PPAD051*%
%TD.AperFunction*%
D36*
X+3975000Y+2410000D03*
X+2248473Y+538991D03*
X+5030000Y+535000D03*
X+640000Y+1454682D03*
X+6045000Y+2060000D03*
X+5873646Y+3218160D03*
X+5863063Y+3466868D03*
X+6568019Y+3528460D03*
X+6568019Y+2497373D03*
X+6343584Y+4253300D03*
X+6519308Y+3998418D03*
X+6515000Y+3605000D03*
X+6514740Y+2589969D03*
X+6511320Y+1823177D03*
D37*
X+5967810Y+2889306D03*
D36*
X+1261942Y+1551886D03*
X+5760000Y+4515000D03*
X+5375000Y+4515000D03*
X+6105000Y+2800000D03*
X+1220000Y+5040000D03*
X+2893587Y+828904D03*
D37*
X+2406671Y+1313311D03*
D36*
X+4097083Y+730914D03*
X+3019851Y+568384D03*
X+2808185Y+566686D03*
X+2721250Y+1679634D03*
X+2400000Y+1900000D03*
D37*
X+6775000Y+5815000D03*
D36*
X+5870081Y+3946698D03*
X+6213656Y+3520168D03*
D37*
X+5839545Y+2738637D03*
X+4594367Y+2308458D03*
D36*
X+5562705Y+1772965D03*
X+5515000Y+2155000D03*
X+5852655Y+1342166D03*
X+3743848Y+995800D03*
X+4233969Y+605861D03*
X+5900000Y+525000D03*
X+5792917Y+700000D03*
X+5362947Y+1150658D03*
X+4326529Y+1136449D03*
X+5137455Y+1088483D03*
X+4756869Y+699624D03*
D37*
X+6280000Y+125000D03*
X+750087Y+142651D03*
D36*
X+875000Y+1056168D03*
X+1227746Y+989777D03*
X+2170612Y+808466D03*
D37*
X+1475494Y+1818235D03*
D36*
X+1850264Y+483591D03*
X+1260000Y+465000D03*
D37*
X+5993993Y+1877360D03*
X+6244015Y+1952651D03*
X+5170000Y+5070000D03*
D36*
X+6103527Y+4531143D03*
X+5423540Y+361688D03*
D37*
X+5210530Y+2814148D03*
X+6240000Y+970000D03*
X+4979473Y+693780D03*
D36*
X+2394949Y+2162980D03*
X+2810000Y+2320000D03*
D37*
X+1605114Y+5058055D03*
X+4547116Y+952889D03*
X+5633621Y+4060070D03*
X+1315000Y+2550000D03*
D36*
X+986767Y+3991061D03*
X+1132194Y+3842828D03*
X+528012Y+755553D03*
X+985000Y+3225126D03*
X+2128723Y+3417429D03*
X+5145000Y+4455000D03*
D38*
X+6356000Y+4880000D03*
D39*
X+6737000Y+4880000D03*
X+6356000Y+4626000D03*
X+6737000Y+4626000D03*
X+6356000Y+4372000D03*
X+6737000Y+4372000D03*
X+6356000Y+4118000D03*
X+6737000Y+4118000D03*
X+6356000Y+3864000D03*
X+6737000Y+3864000D03*
X+6356000Y+3610000D03*
X+6737000Y+3610000D03*
X+6356000Y+3356000D03*
X+6737000Y+3356000D03*
X+6356000Y+3102000D03*
X+6737000Y+3102000D03*
X+6356000Y+2848000D03*
X+6737000Y+2848000D03*
X+6356000Y+2594000D03*
X+6737000Y+2594000D03*
X+6356000Y+2340000D03*
X+6737000Y+2340000D03*
X+6356000Y+2086000D03*
X+6737000Y+2086000D03*
X+6356000Y+1832000D03*
X+6737000Y+1832000D03*
X+6356000Y+1578000D03*
X+6737000Y+1578000D03*
X+6356000Y+1324000D03*
X+6737000Y+1324000D03*
X+6356000Y+1070000D03*
X+6737000Y+1070000D03*
X+6356000Y+816000D03*
X+6737000Y+816000D03*
X+6356000Y+562000D03*
X+6737000Y+562000D03*
X+6356000Y+308000D03*
X+6737000Y+308000D03*
D40*
X+2547768Y+1750944D03*
D41*
X+2547768Y+1496944D03*
X+2547768Y+1242944D03*
X+2547768Y+988944D03*
X+2547768Y+734944D03*
X+2547768Y+480944D03*
X+2547768Y+226944D03*
X+2547768Y-27056D03*
X+3309768Y-27056D03*
X+3309768Y+226944D03*
X+3309768Y+480944D03*
X+3309768Y+734944D03*
X+3309768Y+988944D03*
X+3309768Y+1242944D03*
X+3309768Y+1496944D03*
X+3309768Y+1750944D03*
D40*
X+3559768Y+1750944D03*
D41*
X+3559768Y+1496944D03*
X+3559768Y+1242944D03*
X+3559768Y+988944D03*
X+3559768Y+734944D03*
X+3559768Y+480944D03*
X+3559768Y+226944D03*
X+3559768Y-27056D03*
X+4321768Y-27056D03*
X+4321768Y+226944D03*
X+4321768Y+480944D03*
X+4321768Y+734944D03*
X+4321768Y+988944D03*
X+4321768Y+1242944D03*
X+4321768Y+1496944D03*
X+4321768Y+1750944D03*
D42*
X+1065000Y+745000D03*
X+875000Y+745000D03*
X+970000Y+515000D03*
X+5725000Y+725000D03*
X+5535000Y+725000D03*
X+5630000Y+495000D03*
X+5330000Y+1545000D03*
X+5140000Y+1545000D03*
X+5235000Y+1315000D03*
D43*
X+5625000Y+125000D03*
X+5625000Y+325000D03*
X+970000Y+145000D03*
X+970000Y+345000D03*
X+1360000Y+145000D03*
X+1360000Y+345000D03*
D44*
X+975000Y+2280000D03*
X+1040000Y+2280000D03*
X+1105000Y+2280000D03*
X+1170000Y+2280000D03*
X+1170000Y+2540000D03*
X+1105000Y+2540000D03*
X+1040000Y+2540000D03*
X+975000Y+2540000D03*
D43*
X+970000Y+2090000D03*
X+970000Y+1890000D03*
X+1170000Y+1890000D03*
X+1170000Y+2090000D03*
X+5622301Y+950000D03*
X+5622301Y+1150000D03*
X+2140000Y+145000D03*
X+2140000Y+345000D03*
X+5235000Y+949000D03*
X+5235000Y+1149000D03*
X+1750000Y+145000D03*
X+1750000Y+345000D03*
X+6010000Y+945000D03*
X+6010000Y+1145000D03*
X+5240000Y+125000D03*
X+5240000Y+325000D03*
X+6020000Y+125000D03*
X+6020000Y+325000D03*
D42*
X+6105000Y+1545000D03*
X+5915000Y+1545000D03*
X+6010000Y+1315000D03*
X+5335000Y+725000D03*
X+5145000Y+725000D03*
X+5240000Y+495000D03*
X+6115000Y+725000D03*
X+5925000Y+725000D03*
X+6020000Y+495000D03*
X+1455000Y+745000D03*
X+1265000Y+745000D03*
X+1360000Y+515000D03*
D45*
X+5309500Y+2310000D03*
X+5436500Y+2310000D03*
X+5563500Y+2310000D03*
X+5690500Y+2310000D03*
X+5690500Y+2850000D03*
X+5563500Y+2850000D03*
X+5436500Y+2850000D03*
X+5309500Y+2850000D03*
D46*
X+5500000Y+2580000D03*
D45*
X+4759500Y+2310000D03*
X+4886500Y+2310000D03*
X+5013500Y+2310000D03*
X+5140500Y+2310000D03*
X+5140500Y+2850000D03*
X+5013500Y+2850000D03*
X+4886500Y+2850000D03*
X+4759500Y+2850000D03*
D46*
X+4950000Y+2580000D03*
D47*
X+1405000Y+5255000D03*
X+1405000Y+5455000D03*
X+1605000Y+5255000D03*
X+1605000Y+5455000D03*
X+1805000Y+5255000D03*
X+1805000Y+5455000D03*
D48*
X+1675000Y+5660000D03*
X+1875000Y+5660000D03*
X+1525000Y+5660000D03*
X+1325000Y+5660000D03*
X+970000Y+1690000D03*
X+1170000Y+1690000D03*
D49*
X+2555768Y+1984944D03*
D41*
X+2809768Y+1984944D03*
X+3063768Y+1984944D03*
X+3317768Y+1984944D03*
X+3571768Y+1984944D03*
X+3825768Y+1984944D03*
X+4079768Y+1984944D03*
X+4333768Y+1984944D03*
X+4333768Y+2746944D03*
X+4079768Y+2746944D03*
X+3825768Y+2746944D03*
X+3571768Y+2746944D03*
X+3317768Y+2746944D03*
X+3063768Y+2746944D03*
X+2809768Y+2746944D03*
X+2555768Y+2746944D03*
D43*
X+5700000Y+2080000D03*
X+5700000Y+1880000D03*
X+5150000Y+2080000D03*
X+5150000Y+1880000D03*
D50*
X+1139620Y+4455000D03*
X+1640000Y+4455000D03*
D51*
X+1664768Y+2449944D03*
X+1664768Y+2663304D03*
D52*
X+959318Y+2799318D03*
X+1139318Y+2799318D03*
D53*
X+905000Y+3625000D03*
X+905000Y+3445000D03*
D47*
X+1249056Y+3629056D03*
X+1249056Y+3429056D03*
D43*
X+1449056Y+3429056D03*
X+1449056Y+3629056D03*
D51*
X+1649056Y+3642416D03*
X+1649056Y+3429056D03*
D42*
X+1845000Y+745000D03*
X+1655000Y+745000D03*
X+1750000Y+515000D03*
X+2235000Y+745000D03*
X+2045000Y+745000D03*
X+2140000Y+515000D03*
X+4940000Y+1545000D03*
X+4750000Y+1545000D03*
X+4845000Y+1315000D03*
D43*
X+4845000Y+950000D03*
X+4845000Y+1150000D03*
D42*
X+5720000Y+1545000D03*
X+5530000Y+1545000D03*
X+5625000Y+1315000D03*
D54*
X+950000Y+1490000D03*
X+950000Y+1300000D03*
X+1180000Y+1395000D03*
D48*
X+5170000Y+4725000D03*
X+5370000Y+4725000D03*
D54*
X+5150000Y+4530000D03*
X+5150000Y+4340000D03*
X+5380000Y+4435000D03*
X+5530000Y+4530000D03*
X+5530000Y+4340000D03*
X+5760000Y+4435000D03*
X+5915000Y+4530000D03*
X+5915000Y+4340000D03*
X+6145000Y+4435000D03*
D42*
X+6580000Y+5090000D03*
X+6770000Y+5090000D03*
X+6675000Y+5320000D03*
D48*
X+5550000Y+4725000D03*
X+5750000Y+4725000D03*
X+5930000Y+4725000D03*
X+6130000Y+4725000D03*
X+6775000Y+5510000D03*
X+6575000Y+5510000D03*
D38*
X+260000Y+4876000D03*
D39*
X+641000Y+4876000D03*
X+260000Y+4622000D03*
X+641000Y+4622000D03*
X+260000Y+4368000D03*
X+641000Y+4368000D03*
X+260000Y+4114000D03*
X+641000Y+4114000D03*
X+260000Y+3860000D03*
X+641000Y+3860000D03*
X+260000Y+3606000D03*
X+641000Y+3606000D03*
X+260000Y+3352000D03*
X+641000Y+3352000D03*
X+260000Y+3098000D03*
X+641000Y+3098000D03*
X+260000Y+2844000D03*
X+641000Y+2844000D03*
X+260000Y+2590000D03*
X+641000Y+2590000D03*
X+260000Y+2336000D03*
X+641000Y+2336000D03*
X+260000Y+2082000D03*
X+641000Y+2082000D03*
X+260000Y+1828000D03*
X+641000Y+1828000D03*
X+260000Y+1574000D03*
X+641000Y+1574000D03*
X+260000Y+1320000D03*
X+641000Y+1320000D03*
X+260000Y+1066000D03*
X+641000Y+1066000D03*
X+260000Y+812000D03*
X+641000Y+812000D03*
X+260000Y+558000D03*
X+641000Y+558000D03*
X+260000Y+304000D03*
X+641000Y+304000D03*
D47*
X+1455000Y+1210000D03*
X+1455000Y+1410000D03*
D55*
X+1615000Y+1990000D03*
X+230000Y+5405000D03*
D51*
X+2765000Y+1238360D03*
X+2765000Y+1025000D03*
X+3740000Y+1520000D03*
X+3740000Y+1306640D03*
D56*
X+2696640Y+2545000D03*
X+2910000Y+2545000D03*
D47*
X+5355000Y+5570000D03*
X+5355000Y+5770000D03*
X+5555000Y+5570000D03*
X+5555000Y+5770000D03*
X+5755000Y+5570000D03*
X+5755000Y+5770000D03*
X+5955000Y+5570000D03*
X+5955000Y+5770000D03*
X+2015000Y+2445000D03*
X+2215000Y+2445000D03*
X+2015000Y+2245000D03*
X+2215000Y+2245000D03*
X+2015000Y+2045000D03*
X+2215000Y+2045000D03*
X+2015000Y+1845000D03*
X+2215000Y+1845000D03*
X+2015000Y+1645000D03*
X+2215000Y+1645000D03*
D55*
X+230000Y+5740000D03*
X+595000Y+5740000D03*
X+960000Y+5740000D03*
D47*
X+3525000Y+3060000D03*
X+3525000Y+3260000D03*
X+3725000Y+3060000D03*
X+3725000Y+3260000D03*
X+3925000Y+3060000D03*
X+3925000Y+3260000D03*
X+4125000Y+3060000D03*
X+4125000Y+3260000D03*
X+4325000Y+3060000D03*
X+4325000Y+3260000D03*
X+4525000Y+3060000D03*
X+4525000Y+3260000D03*
D57*
X+2905000Y+3275000D03*
X+3195000Y+3275000D03*
X+2380000Y+3275000D03*
X+2670000Y+3275000D03*
D55*
X+1645000Y+2925000D03*
X+2020000Y+2925000D03*
D52*
X+960000Y+2995000D03*
X+1140000Y+2995000D03*
M02*
