G04 PROTEUS GERBER X2 FILE*
%TF.GenerationSoftware,Labcenter,Proteus,8.12-SP0-Build30713*%
%TF.CreationDate,2021-08-03T17:06:19+00:00*%
%TF.FileFunction,Copper,L2,Bot*%
%TF.FilePolarity,Positive*%
%TF.Part,Single*%
%TF.SameCoordinates,{e442dea6-d824-4b69-b240-5084a1d61555}*%
%FSLAX45Y45*%
%MOMM*%
G01*
%TA.AperFunction,Conductor*%
%ADD10C,0.203200*%
%ADD73C,0.152400*%
%ADD11C,0.381000*%
%TA.AperFunction,ViaPad*%
%ADD12C,0.508000*%
%ADD13C,1.016000*%
%TA.AperFunction,Conductor*%
%ADD14C,0.254000*%
%TA.AperFunction,ComponentPad*%
%ADD16C,1.524000*%
%TA.AperFunction,ComponentPad*%
%ADD15R,1.270000X1.270000*%
%ADD17C,1.270000*%
%TA.AperFunction,SMDPad,CuDef*%
%ADD22R,0.939800X1.447800*%
%TA.AperFunction,WasherPad*%
%ADD21C,1.397000*%
%TA.AperFunction,ComponentPad*%
%ADD23C,3.048000*%
%TA.AperFunction,SMDPad,CuDef*%
%ADD29R,1.016000X1.270000*%
%TA.AperFunction,ComponentPad*%
%ADD28C,2.032000*%
%TA.AperFunction,SMDPad,CuDef*%
%ADD25R,1.143000X1.447800*%
%TD.AperFunction*%
G36*
X+1939040Y+3674750D02*
X+2140482Y+3473308D01*
X+2105577Y+3473308D01*
X+2072844Y+3440575D01*
X+2072844Y+3401112D01*
X+1201835Y+4272121D01*
X+1215371Y+4272121D01*
X+1232117Y+4288867D01*
X+1433052Y+4087932D01*
X+1477371Y+4087932D01*
X+1477371Y+4037131D01*
X+1652629Y+4037131D01*
X+1652629Y+4242869D01*
X+1477371Y+4242869D01*
X+1477371Y+4192068D01*
X+1476188Y+4192068D01*
X+1305753Y+4362503D01*
X+1322499Y+4379249D01*
X+1322499Y+4530751D01*
X+1215371Y+4637879D01*
X+1063869Y+4637879D01*
X+1047123Y+4621133D01*
X+910664Y+4757592D01*
X+910664Y+5125110D01*
X+928059Y+5101088D01*
X+976815Y+5063626D01*
X+1030976Y+5041652D01*
X+1087000Y+5034501D01*
X+1143024Y+5041652D01*
X+1164121Y+5050211D01*
X+1164121Y+5016854D01*
X+1196854Y+4984121D01*
X+1243146Y+4984121D01*
X+1255846Y+4996821D01*
X+1352109Y+4996821D01*
X+1536700Y+5181412D01*
X+1563442Y+5154671D01*
X+1646558Y+5154671D01*
X+1705000Y+5213113D01*
X+1763442Y+5154671D01*
X+1846558Y+5154671D01*
X+1905329Y+5213442D01*
X+1905329Y+5296558D01*
X+1846887Y+5355000D01*
X+1905329Y+5413442D01*
X+1905329Y+5496558D01*
X+1846558Y+5555329D01*
X+1763442Y+5555329D01*
X+1705000Y+5496887D01*
X+1646558Y+5555329D01*
X+1563442Y+5555329D01*
X+1505000Y+5496887D01*
X+1446558Y+5555329D01*
X+1363442Y+5555329D01*
X+1304671Y+5496558D01*
X+1304671Y+5413442D01*
X+1363113Y+5355000D01*
X+1304671Y+5296558D01*
X+1304671Y+5282150D01*
X+1286556Y+5356825D01*
X+1245941Y+5412912D01*
X+1197185Y+5450374D01*
X+1143024Y+5472348D01*
X+1087000Y+5479499D01*
X+1030976Y+5472348D01*
X+976815Y+5450374D01*
X+928059Y+5412912D01*
X+887444Y+5356825D01*
X+863228Y+5257000D01*
X+887444Y+5157175D01*
X+890024Y+5153612D01*
X+360212Y+5683424D01*
X+362079Y+5685291D01*
X+362079Y+5794709D01*
X+284709Y+5872079D01*
X+175291Y+5872079D01*
X+97921Y+5794709D01*
X+97921Y+5685291D01*
X+175291Y+5607921D01*
X+284709Y+5607921D01*
X+286576Y+5609788D01*
X+806526Y+5089838D01*
X+806526Y+4714458D01*
X+973487Y+4547497D01*
X+956741Y+4530751D01*
X+956741Y+4379249D01*
X+1017931Y+4318059D01*
X+1017931Y+4038922D01*
X+1009913Y+4046940D01*
X+991952Y+4046940D01*
X+776292Y+4262600D01*
X+686467Y+4262600D01*
X+747679Y+4323812D01*
X+747679Y+4412188D01*
X+685188Y+4474679D01*
X+596812Y+4474679D01*
X+534321Y+4412188D01*
X+534321Y+4408743D01*
X+365966Y+4577098D01*
X+366679Y+4577812D01*
X+366679Y+4666188D01*
X+304188Y+4728679D01*
X+215812Y+4728679D01*
X+153321Y+4666188D01*
X+153321Y+4577812D01*
X+215812Y+4515321D01*
X+304188Y+4515321D01*
X+304902Y+4516034D01*
X+494881Y+4326055D01*
X+494881Y+4305701D01*
X+588358Y+4212224D01*
X+534321Y+4158188D01*
X+534321Y+4069812D01*
X+596812Y+4007321D01*
X+685188Y+4007321D01*
X+747679Y+4069812D01*
X+747679Y+4158188D01*
X+729625Y+4176242D01*
X+740522Y+4176242D01*
X+930888Y+3985876D01*
X+930888Y+3967915D01*
X+963621Y+3935182D01*
X+1009913Y+3935182D01*
X+1017931Y+3943200D01*
X+1017931Y+3271220D01*
X+1008146Y+3281005D01*
X+961854Y+3281005D01*
X+949154Y+3268305D01*
X+708172Y+3268305D01*
X+747679Y+3307812D01*
X+747679Y+3396188D01*
X+685188Y+3458679D01*
X+596812Y+3458679D01*
X+534321Y+3396188D01*
X+534321Y+3307812D01*
X+584740Y+3257393D01*
X+487027Y+3159680D01*
X+487027Y+2624091D01*
X+304902Y+2441966D01*
X+304188Y+2442679D01*
X+215812Y+2442679D01*
X+153321Y+2380188D01*
X+153321Y+2291812D01*
X+215812Y+2229321D01*
X+304188Y+2229321D01*
X+366679Y+2291812D01*
X+366679Y+2380188D01*
X+365966Y+2380902D01*
X+534321Y+2549257D01*
X+534321Y+2545812D01*
X+596812Y+2483321D01*
X+685188Y+2483321D01*
X+747679Y+2545812D01*
X+747679Y+2634188D01*
X+685188Y+2696679D01*
X+596812Y+2696679D01*
X+573385Y+2673252D01*
X+573385Y+2760748D01*
X+596812Y+2737321D01*
X+685188Y+2737321D01*
X+747679Y+2799812D01*
X+747679Y+2888188D01*
X+685188Y+2950679D01*
X+596812Y+2950679D01*
X+573385Y+2927252D01*
X+573385Y+3014748D01*
X+596812Y+2991321D01*
X+685188Y+2991321D01*
X+747679Y+3053812D01*
X+747679Y+3142188D01*
X+707920Y+3181947D01*
X+949154Y+3181947D01*
X+961854Y+3169247D01*
X+1008146Y+3169247D01*
X+1017931Y+3179032D01*
X+1017931Y+2773433D01*
X+1233721Y+2557643D01*
X+1233721Y+2516333D01*
X+1234889Y+2515165D01*
X+1203703Y+2483979D01*
X+1102081Y+2483979D01*
X+1102081Y+2296021D01*
X+1264639Y+2296021D01*
X+1264639Y+2397643D01*
X+1335717Y+2468721D01*
X+1348667Y+2468721D01*
X+1396279Y+2516333D01*
X+1396279Y+2583667D01*
X+1348667Y+2631279D01*
X+1307357Y+2631279D01*
X+1122069Y+2816567D01*
X+1122069Y+3494979D01*
X+1148727Y+3468321D01*
X+1148727Y+3387498D01*
X+1207498Y+3328727D01*
X+1290614Y+3328727D01*
X+1349385Y+3387498D01*
X+1349385Y+3470614D01*
X+1290943Y+3529056D01*
X+1349385Y+3587498D01*
X+1349385Y+3670614D01*
X+1290614Y+3729385D01*
X+1207498Y+3729385D01*
X+1175373Y+3697260D01*
X+1175373Y+3806982D01*
X+1188073Y+3819682D01*
X+1188073Y+3865974D01*
X+1155340Y+3898707D01*
X+1122069Y+3898707D01*
X+1122069Y+4204615D01*
X+2501301Y+2825383D01*
X+2461789Y+2785871D01*
X+2461789Y+2708017D01*
X+2516841Y+2652965D01*
X+2594695Y+2652965D01*
X+2649747Y+2708017D01*
X+2649747Y+2785871D01*
X+2640448Y+2795170D01*
X+2725088Y+2795170D01*
X+2715789Y+2785871D01*
X+2715789Y+2708017D01*
X+2766589Y+2657217D01*
X+2766589Y+2445547D01*
X+2923958Y+2288178D01*
X+2857203Y+2288178D01*
X+2865879Y+2296854D01*
X+2865879Y+2343146D01*
X+2833146Y+2375879D01*
X+2815185Y+2375879D01*
X+2604333Y+2586731D01*
X+2044333Y+2586731D01*
X+1768926Y+2862138D01*
X+1777079Y+2870291D01*
X+1777079Y+2979709D01*
X+1699709Y+3057079D01*
X+1590291Y+3057079D01*
X+1512921Y+2979709D01*
X+1512921Y+2870291D01*
X+1590291Y+2792921D01*
X+1699709Y+2792921D01*
X+1707862Y+2801074D01*
X+1968524Y+2540412D01*
X+1914671Y+2486558D01*
X+1914671Y+2403442D01*
X+1973113Y+2345000D01*
X+1914671Y+2286558D01*
X+1914671Y+2203442D01*
X+1973113Y+2145000D01*
X+1914671Y+2086558D01*
X+1914671Y+2003442D01*
X+1973113Y+1945000D01*
X+1914671Y+1886558D01*
X+1914671Y+1803442D01*
X+1973113Y+1745000D01*
X+1914671Y+1686558D01*
X+1914671Y+1603442D01*
X+1973442Y+1544671D01*
X+2054265Y+1544671D01*
X+2145171Y+1453765D01*
X+2458041Y+1453765D01*
X+2508841Y+1402965D01*
X+2586695Y+1402965D01*
X+2600323Y+1416593D01*
X+2600323Y+1323295D01*
X+2586695Y+1336923D01*
X+2508841Y+1336923D01*
X+2453789Y+1281871D01*
X+2453789Y+1210029D01*
X+2411391Y+1167631D01*
X+2411391Y+762973D01*
X+2243288Y+594870D01*
X+2225327Y+594870D01*
X+2192594Y+562137D01*
X+2192594Y+528864D01*
X+1884016Y+528864D01*
X+1873410Y+539470D01*
X+1827118Y+539470D01*
X+1794385Y+506737D01*
X+1794385Y+460445D01*
X+1827118Y+427712D01*
X+1873410Y+427712D01*
X+1888204Y+442506D01*
X+2316394Y+442506D01*
X+2514853Y+640965D01*
X+2586695Y+640965D01*
X+2600323Y+654593D01*
X+2600323Y+594563D01*
X+2580683Y+574923D01*
X+2508841Y+574923D01*
X+2453789Y+519871D01*
X+2453789Y+442017D01*
X+2508841Y+386965D01*
X+2586695Y+386965D01*
X+2641747Y+442017D01*
X+2641747Y+513859D01*
X+2686681Y+558793D01*
X+2686681Y+627126D01*
X+2752306Y+561501D01*
X+2752306Y+543540D01*
X+2785039Y+510807D01*
X+2831331Y+510807D01*
X+2864064Y+543540D01*
X+2864064Y+573004D01*
X+3215789Y+221279D01*
X+3215789Y+188017D01*
X+3246489Y+157317D01*
X+2678459Y+157317D01*
X+2641747Y+194029D01*
X+2641747Y+265871D01*
X+2586695Y+320923D01*
X+2508841Y+320923D01*
X+2453789Y+265871D01*
X+2453789Y+188017D01*
X+2508841Y+132965D01*
X+2580683Y+132965D01*
X+2596910Y+116738D01*
X+1669326Y+116738D01*
X+1315879Y+470185D01*
X+1315879Y+488146D01*
X+1283146Y+520879D01*
X+1236854Y+520879D01*
X+1204121Y+488146D01*
X+1204121Y+441854D01*
X+1236854Y+409121D01*
X+1254815Y+409121D01*
X+1602976Y+60960D01*
X+60960Y+60960D01*
X+60960Y+5939040D01*
X+1939040Y+5939040D01*
X+1939040Y+3674750D01*
G37*
%LPC*%
G36*
X+1686393Y+5091722D02*
X+1686393Y+5024388D01*
X+1657183Y+4995178D01*
X+1657183Y+4637879D01*
X+1715751Y+4637879D01*
X+1822879Y+4530751D01*
X+1822879Y+4379249D01*
X+1797068Y+4353438D01*
X+1797068Y+4242869D01*
X+1832629Y+4242869D01*
X+1832629Y+4037131D01*
X+1657371Y+4037131D01*
X+1657371Y+4242869D01*
X+1692932Y+4242869D01*
X+1692932Y+4272121D01*
X+1564249Y+4272121D01*
X+1457121Y+4379249D01*
X+1457121Y+4530751D01*
X+1553045Y+4626675D01*
X+1553045Y+4995178D01*
X+1523835Y+5024388D01*
X+1523835Y+5091722D01*
X+1571447Y+5139334D01*
X+1638781Y+5139334D01*
X+1686393Y+5091722D01*
G37*
G36*
X+1051279Y+2296021D02*
X+888721Y+2296021D01*
X+888721Y+2337931D01*
X+747679Y+2337931D01*
X+747679Y+2291812D01*
X+685188Y+2229321D01*
X+596812Y+2229321D01*
X+534321Y+2291812D01*
X+534321Y+2380188D01*
X+596812Y+2442679D01*
X+685188Y+2442679D01*
X+685798Y+2442069D01*
X+888721Y+2442069D01*
X+888721Y+2483979D01*
X+1051279Y+2483979D01*
X+1051279Y+2296021D01*
G37*
G36*
X+231594Y+4944579D02*
X+288406Y+4944579D01*
X+328579Y+4904406D01*
X+328579Y+4847594D01*
X+288406Y+4807421D01*
X+231594Y+4807421D01*
X+191421Y+4847594D01*
X+191421Y+4904406D01*
X+231594Y+4944579D01*
G37*
G36*
X+596812Y+4982679D02*
X+685188Y+4982679D01*
X+747679Y+4920188D01*
X+747679Y+4831812D01*
X+685188Y+4769321D01*
X+596812Y+4769321D01*
X+534321Y+4831812D01*
X+534321Y+4920188D01*
X+596812Y+4982679D01*
G37*
G36*
X+596812Y+4728679D02*
X+685188Y+4728679D01*
X+747679Y+4666188D01*
X+747679Y+4577812D01*
X+685188Y+4515321D01*
X+596812Y+4515321D01*
X+534321Y+4577812D01*
X+534321Y+4666188D01*
X+596812Y+4728679D01*
G37*
G36*
X+215812Y+4474679D02*
X+304188Y+4474679D01*
X+366679Y+4412188D01*
X+366679Y+4323812D01*
X+304188Y+4261321D01*
X+215812Y+4261321D01*
X+153321Y+4323812D01*
X+153321Y+4412188D01*
X+215812Y+4474679D01*
G37*
G36*
X+215812Y+4220679D02*
X+304188Y+4220679D01*
X+366679Y+4158188D01*
X+366679Y+4069812D01*
X+304188Y+4007321D01*
X+215812Y+4007321D01*
X+153321Y+4069812D01*
X+153321Y+4158188D01*
X+215812Y+4220679D01*
G37*
G36*
X+215812Y+3966679D02*
X+304188Y+3966679D01*
X+366679Y+3904188D01*
X+366679Y+3815812D01*
X+304188Y+3753321D01*
X+215812Y+3753321D01*
X+153321Y+3815812D01*
X+153321Y+3904188D01*
X+215812Y+3966679D01*
G37*
G36*
X+596812Y+3966679D02*
X+685188Y+3966679D01*
X+747679Y+3904188D01*
X+747679Y+3815812D01*
X+685188Y+3753321D01*
X+596812Y+3753321D01*
X+534321Y+3815812D01*
X+534321Y+3904188D01*
X+596812Y+3966679D01*
G37*
G36*
X+215812Y+3712679D02*
X+304188Y+3712679D01*
X+366679Y+3650188D01*
X+366679Y+3561812D01*
X+304188Y+3499321D01*
X+215812Y+3499321D01*
X+153321Y+3561812D01*
X+153321Y+3650188D01*
X+215812Y+3712679D01*
G37*
G36*
X+596812Y+3712679D02*
X+685188Y+3712679D01*
X+747679Y+3650188D01*
X+747679Y+3561812D01*
X+685188Y+3499321D01*
X+596812Y+3499321D01*
X+534321Y+3561812D01*
X+534321Y+3650188D01*
X+596812Y+3712679D01*
G37*
G36*
X+215812Y+3458679D02*
X+304188Y+3458679D01*
X+366679Y+3396188D01*
X+366679Y+3307812D01*
X+304188Y+3245321D01*
X+215812Y+3245321D01*
X+153321Y+3307812D01*
X+153321Y+3396188D01*
X+215812Y+3458679D01*
G37*
G36*
X+215812Y+3204679D02*
X+304188Y+3204679D01*
X+366679Y+3142188D01*
X+366679Y+3053812D01*
X+304188Y+2991321D01*
X+215812Y+2991321D01*
X+153321Y+3053812D01*
X+153321Y+3142188D01*
X+215812Y+3204679D01*
G37*
G36*
X+215812Y+2950679D02*
X+304188Y+2950679D01*
X+366679Y+2888188D01*
X+366679Y+2799812D01*
X+304188Y+2737321D01*
X+215812Y+2737321D01*
X+153321Y+2799812D01*
X+153321Y+2888188D01*
X+215812Y+2950679D01*
G37*
G36*
X+215812Y+2696679D02*
X+304188Y+2696679D01*
X+366679Y+2634188D01*
X+366679Y+2545812D01*
X+304188Y+2483321D01*
X+215812Y+2483321D01*
X+153321Y+2545812D01*
X+153321Y+2634188D01*
X+215812Y+2696679D01*
G37*
G36*
X+215812Y+2188679D02*
X+304188Y+2188679D01*
X+366679Y+2126188D01*
X+366679Y+2037812D01*
X+304188Y+1975321D01*
X+215812Y+1975321D01*
X+153321Y+2037812D01*
X+153321Y+2126188D01*
X+215812Y+2188679D01*
G37*
G36*
X+596812Y+2188679D02*
X+685188Y+2188679D01*
X+747679Y+2126188D01*
X+747679Y+2037812D01*
X+685188Y+1975321D01*
X+596812Y+1975321D01*
X+534321Y+2037812D01*
X+534321Y+2126188D01*
X+596812Y+2188679D01*
G37*
G36*
X+215812Y+1934679D02*
X+304188Y+1934679D01*
X+366679Y+1872188D01*
X+366679Y+1783812D01*
X+304188Y+1721321D01*
X+215812Y+1721321D01*
X+153321Y+1783812D01*
X+153321Y+1872188D01*
X+215812Y+1934679D01*
G37*
G36*
X+596812Y+1934679D02*
X+685188Y+1934679D01*
X+747679Y+1872188D01*
X+747679Y+1783812D01*
X+685188Y+1721321D01*
X+596812Y+1721321D01*
X+534321Y+1783812D01*
X+534321Y+1872188D01*
X+596812Y+1934679D01*
G37*
G36*
X+215812Y+1680679D02*
X+304188Y+1680679D01*
X+366679Y+1618188D01*
X+366679Y+1529812D01*
X+304188Y+1467321D01*
X+215812Y+1467321D01*
X+153321Y+1529812D01*
X+153321Y+1618188D01*
X+215812Y+1680679D01*
G37*
G36*
X+747679Y+1618188D02*
X+747679Y+1529812D01*
X+746966Y+1529098D01*
X+1230408Y+1045656D01*
X+1250892Y+1045656D01*
X+1283625Y+1012923D01*
X+1283625Y+966631D01*
X+1250892Y+933898D01*
X+1204600Y+933898D01*
X+1171867Y+966631D01*
X+1171867Y+982069D01*
X+695879Y+1458057D01*
X+695879Y+1431536D01*
X+688105Y+1423762D01*
X+747679Y+1364188D01*
X+747679Y+1275812D01*
X+685188Y+1213321D01*
X+596812Y+1213321D01*
X+534321Y+1275812D01*
X+534321Y+1299963D01*
X+407299Y+1172941D01*
X+407299Y+390235D01*
X+365966Y+348902D01*
X+366679Y+348188D01*
X+366679Y+259812D01*
X+304188Y+197321D01*
X+215812Y+197321D01*
X+153321Y+259812D01*
X+153321Y+348188D01*
X+215812Y+410679D01*
X+304188Y+410679D01*
X+304902Y+409966D01*
X+320941Y+426005D01*
X+320941Y+468074D01*
X+304188Y+451321D01*
X+215812Y+451321D01*
X+153321Y+513812D01*
X+153321Y+602188D01*
X+215812Y+664679D01*
X+304188Y+664679D01*
X+320941Y+647926D01*
X+320941Y+722074D01*
X+304188Y+705321D01*
X+215812Y+705321D01*
X+153321Y+767812D01*
X+153321Y+856188D01*
X+215812Y+918679D01*
X+304188Y+918679D01*
X+320941Y+901926D01*
X+320941Y+976074D01*
X+304188Y+959321D01*
X+215812Y+959321D01*
X+153321Y+1021812D01*
X+153321Y+1110188D01*
X+215812Y+1172679D01*
X+304188Y+1172679D01*
X+320941Y+1155926D01*
X+320941Y+1208711D01*
X+584121Y+1471891D01*
X+584121Y+1477828D01*
X+585213Y+1478920D01*
X+534321Y+1529812D01*
X+534321Y+1618188D01*
X+596812Y+1680679D01*
X+685188Y+1680679D01*
X+747679Y+1618188D01*
G37*
G36*
X+215812Y+1426679D02*
X+304188Y+1426679D01*
X+366679Y+1364188D01*
X+366679Y+1275812D01*
X+304188Y+1213321D01*
X+215812Y+1213321D01*
X+153321Y+1275812D01*
X+153321Y+1364188D01*
X+215812Y+1426679D01*
G37*
G36*
X+747679Y+1110188D02*
X+747679Y+1099347D01*
X+839154Y+1099347D01*
X+851854Y+1112047D01*
X+898146Y+1112047D01*
X+930879Y+1079314D01*
X+930879Y+1033022D01*
X+898146Y+1000289D01*
X+851854Y+1000289D01*
X+839154Y+1012989D01*
X+738856Y+1012989D01*
X+685188Y+959321D01*
X+596812Y+959321D01*
X+534321Y+1021812D01*
X+534321Y+1110188D01*
X+596812Y+1172679D01*
X+685188Y+1172679D01*
X+747679Y+1110188D01*
G37*
G36*
X+747679Y+856188D02*
X+747679Y+851645D01*
X+2134766Y+851645D01*
X+2147466Y+864345D01*
X+2193758Y+864345D01*
X+2226491Y+831612D01*
X+2226491Y+785320D01*
X+2193758Y+752587D01*
X+2147466Y+752587D01*
X+2134766Y+765287D01*
X+745154Y+765287D01*
X+685188Y+705321D01*
X+596812Y+705321D01*
X+576808Y+725324D01*
X+571191Y+719707D01*
X+571191Y+639058D01*
X+596812Y+664679D01*
X+685188Y+664679D01*
X+747679Y+602188D01*
X+747679Y+513812D01*
X+685188Y+451321D01*
X+596812Y+451321D01*
X+571191Y+476942D01*
X+571191Y+434873D01*
X+596098Y+409966D01*
X+596812Y+410679D01*
X+685188Y+410679D01*
X+747679Y+348188D01*
X+747679Y+259812D01*
X+685188Y+197321D01*
X+596812Y+197321D01*
X+534321Y+259812D01*
X+534321Y+348188D01*
X+535034Y+348902D01*
X+484833Y+399103D01*
X+484833Y+719707D01*
X+472133Y+732407D01*
X+472133Y+778699D01*
X+504866Y+811432D01*
X+534321Y+811432D01*
X+534321Y+856188D01*
X+596812Y+918679D01*
X+685188Y+918679D01*
X+747679Y+856188D01*
G37*
G36*
X+1317821Y+1575032D02*
X+1317821Y+1528740D01*
X+1305121Y+1516040D01*
X+1305121Y+1420943D01*
X+1354671Y+1371393D01*
X+1354671Y+1451558D01*
X+1413442Y+1510329D01*
X+1496558Y+1510329D01*
X+1555329Y+1451558D01*
X+1555329Y+1368442D01*
X+1496887Y+1310000D01*
X+1555329Y+1251558D01*
X+1555329Y+1168442D01*
X+1496558Y+1109671D01*
X+1413442Y+1109671D01*
X+1354671Y+1168442D01*
X+1354671Y+1249265D01*
X+1218763Y+1385173D01*
X+1218763Y+1516040D01*
X+1206063Y+1528740D01*
X+1206063Y+1575032D01*
X+1238796Y+1607765D01*
X+1285088Y+1607765D01*
X+1317821Y+1575032D01*
G37*
G36*
X+1482921Y+1935291D02*
X+1482921Y+2044709D01*
X+1560291Y+2122079D01*
X+1669709Y+2122079D01*
X+1747079Y+2044709D01*
X+1747079Y+1935291D01*
X+1669709Y+1857921D01*
X+1560291Y+1857921D01*
X+1482921Y+1935291D01*
G37*
G36*
X+97921Y+5350291D02*
X+97921Y+5459709D01*
X+175291Y+5537079D01*
X+284709Y+5537079D01*
X+362079Y+5459709D01*
X+362079Y+5350291D01*
X+284709Y+5272921D01*
X+175291Y+5272921D01*
X+97921Y+5350291D01*
G37*
G36*
X+462921Y+5685291D02*
X+462921Y+5794709D01*
X+540291Y+5872079D01*
X+649709Y+5872079D01*
X+727079Y+5794709D01*
X+727079Y+5685291D01*
X+649709Y+5607921D01*
X+540291Y+5607921D01*
X+462921Y+5685291D01*
G37*
G36*
X+827921Y+5685291D02*
X+827921Y+5794709D01*
X+905291Y+5872079D01*
X+1014709Y+5872079D01*
X+1092079Y+5794709D01*
X+1092079Y+5685291D01*
X+1014709Y+5607921D01*
X+905291Y+5607921D01*
X+827921Y+5685291D01*
G37*
G36*
X+1887921Y+2870291D02*
X+1887921Y+2979709D01*
X+1965291Y+3057079D01*
X+2074709Y+3057079D01*
X+2152079Y+2979709D01*
X+2152079Y+2870291D01*
X+2074709Y+2792921D01*
X+1965291Y+2792921D01*
X+1887921Y+2870291D01*
G37*
G36*
X+2374921Y+1300160D02*
X+2374921Y+1326462D01*
X+2393520Y+1345061D01*
X+2419822Y+1345061D01*
X+2438421Y+1326462D01*
X+2438421Y+1300160D01*
X+2419822Y+1281561D01*
X+2393520Y+1281561D01*
X+2374921Y+1300160D01*
G37*
G36*
X+718337Y+129500D02*
X+718337Y+155802D01*
X+736936Y+174401D01*
X+763238Y+174401D01*
X+781837Y+155802D01*
X+781837Y+129500D01*
X+763238Y+110901D01*
X+736936Y+110901D01*
X+718337Y+129500D01*
G37*
G36*
X+1443744Y+1805084D02*
X+1443744Y+1831386D01*
X+1462343Y+1849985D01*
X+1488645Y+1849985D01*
X+1507244Y+1831386D01*
X+1507244Y+1805084D01*
X+1488645Y+1786485D01*
X+1462343Y+1786485D01*
X+1443744Y+1805084D01*
G37*
%LPD*%
G36*
X+6939040Y+60960D02*
X+5143328Y+60960D01*
X+5114621Y+43986D01*
X+5013957Y-139040D01*
X+4804826Y-139040D01*
X+4847941Y-105912D01*
X+4888556Y-49825D01*
X+4912772Y+50000D01*
X+4888556Y+149825D01*
X+4847941Y+205912D01*
X+4799185Y+243374D01*
X+4745024Y+265348D01*
X+4689000Y+272499D01*
X+4632976Y+265348D01*
X+4578815Y+243374D01*
X+4530059Y+205912D01*
X+4489444Y+149825D01*
X+4465228Y+50000D01*
X+4489444Y-49825D01*
X+4530059Y-105912D01*
X+4573174Y-139040D01*
X+1787675Y-139040D01*
X+1702965Y+30380D01*
X+2472298Y+30380D01*
X+2453789Y+11871D01*
X+2453789Y-65983D01*
X+2508841Y-121035D01*
X+2586695Y-121035D01*
X+2641747Y-65983D01*
X+2641747Y+11871D01*
X+2623238Y+30380D01*
X+3191268Y+30380D01*
X+3215789Y+5859D01*
X+3215789Y-65983D01*
X+3270841Y-121035D01*
X+3348695Y-121035D01*
X+3403747Y-65983D01*
X+3403747Y+11871D01*
X+3348695Y+66923D01*
X+3276853Y+66923D01*
X+3272817Y+70959D01*
X+4356050Y+70959D01*
X+4603600Y+318509D01*
X+5387694Y+318509D01*
X+5400394Y+305809D01*
X+5446686Y+305809D01*
X+5479419Y+338542D01*
X+5479419Y+384834D01*
X+5446686Y+417567D01*
X+5400394Y+417567D01*
X+5387694Y+404867D01*
X+4567830Y+404867D01*
X+4415747Y+252784D01*
X+4415747Y+265871D01*
X+4360695Y+320923D01*
X+4306454Y+320923D01*
X+4223179Y+404198D01*
X+4223179Y+549982D01*
X+4257115Y+549982D01*
X+4269815Y+562682D01*
X+4270600Y+562682D01*
X+4227789Y+519871D01*
X+4227789Y+442017D01*
X+4282841Y+386965D01*
X+4360695Y+386965D01*
X+4415747Y+442017D01*
X+4415747Y+491821D01*
X+4994154Y+491821D01*
X+5006854Y+479121D01*
X+5053146Y+479121D01*
X+5085879Y+511854D01*
X+5085879Y+558146D01*
X+5081343Y+562682D01*
X+5806254Y+562682D01*
X+5844121Y+524815D01*
X+5844121Y+501854D01*
X+5876854Y+469121D01*
X+5923146Y+469121D01*
X+5955879Y+501854D01*
X+5955879Y+548146D01*
X+5923146Y+580879D01*
X+5910185Y+580879D01*
X+5842024Y+649040D01*
X+5820982Y+649040D01*
X+5848796Y+676854D01*
X+5848796Y+694815D01*
X+6249321Y+1095340D01*
X+6249321Y+1025812D01*
X+6311812Y+963321D01*
X+6400188Y+963321D01*
X+6462679Y+1025812D01*
X+6462679Y+1114188D01*
X+6401529Y+1175338D01*
X+6415769Y+1175338D01*
X+6675715Y+1435284D01*
X+6675715Y+1488418D01*
X+6692812Y+1471321D01*
X+6781188Y+1471321D01*
X+6843679Y+1533812D01*
X+6843679Y+1622188D01*
X+6781188Y+1684679D01*
X+6692812Y+1684679D01*
X+6675715Y+1667582D01*
X+6675715Y+1709651D01*
X+6692098Y+1726034D01*
X+6692812Y+1725321D01*
X+6781188Y+1725321D01*
X+6843679Y+1787812D01*
X+6843679Y+1876188D01*
X+6781188Y+1938679D01*
X+6692812Y+1938679D01*
X+6630321Y+1876188D01*
X+6630321Y+1787812D01*
X+6631034Y+1787098D01*
X+6589357Y+1745421D01*
X+6589357Y+1471054D01*
X+6462679Y+1344376D01*
X+6462679Y+1368188D01*
X+6461966Y+1368902D01*
X+6554499Y+1461435D01*
X+6554499Y+1787331D01*
X+6567199Y+1800031D01*
X+6567199Y+1846323D01*
X+6534466Y+1879056D01*
X+6488174Y+1879056D01*
X+6462679Y+1853561D01*
X+6462679Y+1876188D01*
X+6400188Y+1938679D01*
X+6325294Y+1938679D01*
X+6325294Y+1979321D01*
X+6400188Y+1979321D01*
X+6462679Y+2041812D01*
X+6462679Y+2130188D01*
X+6443484Y+2149383D01*
X+6612553Y+2149383D01*
X+6631034Y+2130902D01*
X+6630321Y+2130188D01*
X+6630321Y+2041812D01*
X+6692812Y+1979321D01*
X+6781188Y+1979321D01*
X+6843679Y+2041812D01*
X+6843679Y+2130188D01*
X+6781188Y+2192679D01*
X+6692812Y+2192679D01*
X+6692098Y+2191966D01*
X+6648323Y+2235741D01*
X+6402608Y+2235741D01*
X+6462679Y+2295812D01*
X+6462679Y+2384188D01*
X+6444124Y+2402743D01*
X+6535790Y+2402743D01*
X+6630321Y+2308212D01*
X+6630321Y+2295812D01*
X+6692812Y+2233321D01*
X+6781188Y+2233321D01*
X+6843679Y+2295812D01*
X+6843679Y+2384188D01*
X+6781188Y+2446679D01*
X+6692812Y+2446679D01*
X+6653397Y+2407264D01*
X+6605166Y+2455495D01*
X+6623898Y+2474227D01*
X+6623898Y+2520519D01*
X+6611198Y+2533219D01*
X+6611198Y+3492614D01*
X+6623898Y+3505314D01*
X+6623898Y+3551606D01*
X+6591165Y+3584339D01*
X+6570879Y+3584339D01*
X+6570879Y+3628146D01*
X+6538146Y+3660879D01*
X+6491854Y+3660879D01*
X+6462679Y+3631704D01*
X+6462679Y+3654188D01*
X+6402136Y+3714731D01*
X+6420697Y+3714731D01*
X+6673533Y+3967567D01*
X+6673533Y+4030600D01*
X+6692812Y+4011321D01*
X+6781188Y+4011321D01*
X+6843679Y+4073812D01*
X+6843679Y+4162188D01*
X+6781188Y+4224679D01*
X+6692812Y+4224679D01*
X+6673533Y+4205400D01*
X+6673533Y+4284600D01*
X+6692812Y+4265321D01*
X+6781188Y+4265321D01*
X+6843679Y+4327812D01*
X+6843679Y+4416188D01*
X+6781188Y+4478679D01*
X+6692812Y+4478679D01*
X+6673533Y+4459400D01*
X+6673533Y+4501469D01*
X+6692098Y+4520034D01*
X+6692812Y+4519321D01*
X+6781188Y+4519321D01*
X+6843679Y+4581812D01*
X+6843679Y+4670188D01*
X+6781188Y+4732679D01*
X+6692812Y+4732679D01*
X+6630321Y+4670188D01*
X+6630321Y+4581812D01*
X+6631034Y+4581098D01*
X+6587175Y+4537239D01*
X+6587175Y+4003337D01*
X+6575187Y+3991349D01*
X+6575187Y+4021564D01*
X+6562487Y+4034264D01*
X+6562487Y+4125463D01*
X+6411408Y+4276542D01*
X+6462679Y+4327812D01*
X+6462679Y+4416188D01*
X+6400188Y+4478679D01*
X+6311812Y+4478679D01*
X+6249321Y+4416188D01*
X+6249321Y+4327812D01*
X+6294196Y+4282937D01*
X+6287705Y+4276446D01*
X+6287705Y+4230154D01*
X+6302496Y+4215363D01*
X+6249321Y+4162188D01*
X+6249321Y+4073812D01*
X+6311812Y+4011321D01*
X+6400188Y+4011321D01*
X+6462679Y+4073812D01*
X+6462679Y+4103143D01*
X+6476129Y+4089693D01*
X+6476129Y+4034264D01*
X+6463429Y+4021564D01*
X+6463429Y+3975272D01*
X+6496162Y+3942539D01*
X+6526377Y+3942539D01*
X+6462679Y+3878841D01*
X+6462679Y+3908188D01*
X+6400188Y+3970679D01*
X+6311812Y+3970679D01*
X+6263202Y+3922069D01*
X+6067894Y+3922069D01*
X+6047469Y+3942494D01*
X+6047469Y+4049196D01*
X+5940767Y+4049196D01*
X+5877824Y+4112139D01*
X+5696498Y+4112139D01*
X+5667288Y+4141349D01*
X+5599954Y+4141349D01*
X+5552342Y+4093737D01*
X+5552342Y+4049196D01*
X+5432531Y+4049196D01*
X+5432531Y+3843458D01*
X+5587469Y+3843458D01*
X+5587469Y+3903148D01*
X+5692531Y+3903148D01*
X+5692531Y+3843458D01*
X+5847469Y+3843458D01*
X+5847469Y+3890819D01*
X+5892531Y+3890819D01*
X+5892531Y+3856379D01*
X+5847469Y+3811317D01*
X+5847469Y+3814196D01*
X+5692531Y+3814196D01*
X+5692531Y+3749506D01*
X+5587469Y+3749506D01*
X+5587469Y+3809196D01*
X+5432531Y+3809196D01*
X+5432531Y+3603458D01*
X+5587469Y+3603458D01*
X+5587469Y+3663148D01*
X+5692531Y+3663148D01*
X+5692531Y+3608458D01*
X+5847469Y+3608458D01*
X+5847469Y+3689189D01*
X+5892531Y+3734251D01*
X+5892531Y+3608458D01*
X+5917931Y+3608458D01*
X+5917931Y+3559196D01*
X+5892531Y+3559196D01*
X+5892531Y+3516425D01*
X+5886209Y+3522747D01*
X+5847469Y+3522747D01*
X+5847469Y+3559196D01*
X+5692531Y+3559196D01*
X+5692531Y+3499506D01*
X+5587469Y+3499506D01*
X+5587469Y+3559196D01*
X+5432531Y+3559196D01*
X+5432531Y+3353458D01*
X+5587469Y+3353458D01*
X+5587469Y+3413148D01*
X+5692531Y+3413148D01*
X+5692531Y+3353458D01*
X+5847469Y+3353458D01*
X+5847469Y+3410989D01*
X+5886209Y+3410989D01*
X+5892531Y+3417311D01*
X+5892531Y+3353458D01*
X+5917931Y+3353458D01*
X+5917931Y+3319196D01*
X+5892531Y+3319196D01*
X+5892531Y+3274039D01*
X+5850500Y+3274039D01*
X+5847469Y+3271008D01*
X+5847469Y+3319196D01*
X+5692531Y+3319196D01*
X+5692531Y+3254506D01*
X+5587469Y+3254506D01*
X+5587469Y+3314196D01*
X+5432531Y+3314196D01*
X+5432531Y+3108458D01*
X+5587469Y+3108458D01*
X+5587469Y+3168148D01*
X+5692531Y+3168148D01*
X+5692531Y+3113458D01*
X+5847469Y+3113458D01*
X+5847469Y+3165312D01*
X+5850500Y+3162281D01*
X+5892531Y+3162281D01*
X+5892531Y+3113458D01*
X+5917931Y+3113458D01*
X+5917931Y+2954373D01*
X+5886531Y+2922973D01*
X+5886531Y+2855639D01*
X+5915741Y+2826429D01*
X+5915741Y+2777387D01*
X+5873212Y+2819916D01*
X+5805878Y+2819916D01*
X+5758266Y+2772304D01*
X+5758266Y+2730994D01*
X+5694639Y+2667367D01*
X+5694639Y+2673979D01*
X+5593017Y+2673979D01*
X+5534692Y+2732304D01*
X+5264273Y+2732304D01*
X+5264273Y+2752945D01*
X+5291809Y+2780481D01*
X+5291809Y+2847815D01*
X+5244197Y+2895427D01*
X+5176863Y+2895427D01*
X+5129251Y+2847815D01*
X+5129251Y+2780481D01*
X+5160135Y+2749597D01*
X+5160135Y+2732304D01*
X+5128668Y+2732304D01*
X+5070342Y+2673979D01*
X+5029657Y+2673979D01*
X+4825744Y+2877892D01*
X+5067629Y+2877892D01*
X+5298195Y+3108458D01*
X+5387469Y+3108458D01*
X+5387469Y+3314196D01*
X+5258933Y+3314196D01*
X+5298195Y+3353458D01*
X+5387469Y+3353458D01*
X+5387469Y+3559196D01*
X+5232531Y+3559196D01*
X+5232531Y+3409922D01*
X+4827422Y+3004813D01*
X+4611700Y+3004813D01*
X+4625329Y+3018442D01*
X+4625329Y+3101558D01*
X+4611240Y+3115647D01*
X+4780384Y+3115647D01*
X+5268195Y+3603458D01*
X+5387469Y+3603458D01*
X+5387469Y+3809196D01*
X+5250694Y+3809196D01*
X+5284956Y+3843458D01*
X+5387469Y+3843458D01*
X+5387469Y+4049196D01*
X+5232531Y+4049196D01*
X+5232531Y+3913161D01*
X+5196664Y+3877294D01*
X+5196664Y+4427639D01*
X+5200879Y+4431854D01*
X+5200879Y+4478146D01*
X+5168146Y+4510879D01*
X+5121854Y+4510879D01*
X+5089121Y+4478146D01*
X+5089121Y+4431854D01*
X+5110306Y+4410669D01*
X+5110306Y+3788868D01*
X+5060960Y+3739522D01*
X+5060960Y+5939040D01*
X+6939040Y+5939040D01*
X+6939040Y+60960D01*
G37*
%LPC*%
G36*
X+6055329Y+5811558D02*
X+6055329Y+5728442D01*
X+5996887Y+5670000D01*
X+6055329Y+5611558D01*
X+6055329Y+5528442D01*
X+5996558Y+5469671D01*
X+5951393Y+5469671D01*
X+6057182Y+5363882D01*
X+6057182Y+5358882D01*
X+6175584Y+5240480D01*
X+6175584Y+4542136D01*
X+6159406Y+4525958D01*
X+6159406Y+4507997D01*
X+6126673Y+4475264D01*
X+6080381Y+4475264D01*
X+6047648Y+4507997D01*
X+6047648Y+4554289D01*
X+6080381Y+4587022D01*
X+6089226Y+4587022D01*
X+6089226Y+4997957D01*
X+6071941Y+4974088D01*
X+6059182Y+4964284D01*
X+6023185Y+4936626D01*
X+5969024Y+4914652D01*
X+5961168Y+4913649D01*
X+5913000Y+4907501D01*
X+5856976Y+4914652D01*
X+5849632Y+4917631D01*
X+5803179Y+4936478D01*
X+5803179Y+4550846D01*
X+5815879Y+4538146D01*
X+5815879Y+4491854D01*
X+5783146Y+4459121D01*
X+5736854Y+4459121D01*
X+5704121Y+4491854D01*
X+5704121Y+4538146D01*
X+5716821Y+4550846D01*
X+5716821Y+4952494D01*
X+5511821Y+5157494D01*
X+5511821Y+5471292D01*
X+5455000Y+5528113D01*
X+5418179Y+5491292D01*
X+5418179Y+4550846D01*
X+5430879Y+4538146D01*
X+5430879Y+4491854D01*
X+5398146Y+4459121D01*
X+5351854Y+4459121D01*
X+5319121Y+4491854D01*
X+5319121Y+4538146D01*
X+5331821Y+4550846D01*
X+5331821Y+5469671D01*
X+5313442Y+5469671D01*
X+5254671Y+5528442D01*
X+5254671Y+5611558D01*
X+5313113Y+5670000D01*
X+5254671Y+5728442D01*
X+5254671Y+5811558D01*
X+5313442Y+5870329D01*
X+5396558Y+5870329D01*
X+5455000Y+5811887D01*
X+5513442Y+5870329D01*
X+5596558Y+5870329D01*
X+5655000Y+5811887D01*
X+5713442Y+5870329D01*
X+5796558Y+5870329D01*
X+5855000Y+5811887D01*
X+5913442Y+5870329D01*
X+5996558Y+5870329D01*
X+6055329Y+5811558D01*
G37*
G36*
X+6327594Y+4948579D02*
X+6384406Y+4948579D01*
X+6424579Y+4908406D01*
X+6424579Y+4851594D01*
X+6384406Y+4811421D01*
X+6327594Y+4811421D01*
X+6287421Y+4851594D01*
X+6287421Y+4908406D01*
X+6327594Y+4948579D01*
G37*
G36*
X+6692812Y+4986679D02*
X+6781188Y+4986679D01*
X+6843679Y+4924188D01*
X+6843679Y+4835812D01*
X+6781188Y+4773321D01*
X+6692812Y+4773321D01*
X+6630321Y+4835812D01*
X+6630321Y+4924188D01*
X+6692812Y+4986679D01*
G37*
G36*
X+6311812Y+4732679D02*
X+6400188Y+4732679D01*
X+6462679Y+4670188D01*
X+6462679Y+4581812D01*
X+6400188Y+4519321D01*
X+6311812Y+4519321D01*
X+6249321Y+4581812D01*
X+6249321Y+4670188D01*
X+6311812Y+4732679D01*
G37*
G36*
X+6692812Y+3970679D02*
X+6781188Y+3970679D01*
X+6843679Y+3908188D01*
X+6843679Y+3819812D01*
X+6781188Y+3757321D01*
X+6692812Y+3757321D01*
X+6630321Y+3819812D01*
X+6630321Y+3908188D01*
X+6692812Y+3970679D01*
G37*
G36*
X+6692812Y+3716679D02*
X+6781188Y+3716679D01*
X+6843679Y+3654188D01*
X+6843679Y+3565812D01*
X+6781188Y+3503321D01*
X+6692812Y+3503321D01*
X+6630321Y+3565812D01*
X+6630321Y+3654188D01*
X+6692812Y+3716679D01*
G37*
G36*
X+6692812Y+3462679D02*
X+6781188Y+3462679D01*
X+6843679Y+3400188D01*
X+6843679Y+3311812D01*
X+6781188Y+3249321D01*
X+6692812Y+3249321D01*
X+6630321Y+3311812D01*
X+6630321Y+3400188D01*
X+6692812Y+3462679D01*
G37*
G36*
X+6692812Y+3208679D02*
X+6781188Y+3208679D01*
X+6843679Y+3146188D01*
X+6843679Y+3057812D01*
X+6781188Y+2995321D01*
X+6692812Y+2995321D01*
X+6630321Y+3057812D01*
X+6630321Y+3146188D01*
X+6692812Y+3208679D01*
G37*
G36*
X+6692812Y+2954679D02*
X+6781188Y+2954679D01*
X+6843679Y+2892188D01*
X+6843679Y+2803812D01*
X+6781188Y+2741321D01*
X+6692812Y+2741321D01*
X+6630321Y+2803812D01*
X+6630321Y+2892188D01*
X+6692812Y+2954679D01*
G37*
G36*
X+6692812Y+2700679D02*
X+6781188Y+2700679D01*
X+6843679Y+2638188D01*
X+6843679Y+2549812D01*
X+6781188Y+2487321D01*
X+6692812Y+2487321D01*
X+6630321Y+2549812D01*
X+6630321Y+2638188D01*
X+6692812Y+2700679D01*
G37*
G36*
X+6692812Y+1430679D02*
X+6781188Y+1430679D01*
X+6843679Y+1368188D01*
X+6843679Y+1279812D01*
X+6781188Y+1217321D01*
X+6692812Y+1217321D01*
X+6630321Y+1279812D01*
X+6630321Y+1368188D01*
X+6692812Y+1430679D01*
G37*
G36*
X+6692812Y+1176679D02*
X+6781188Y+1176679D01*
X+6843679Y+1114188D01*
X+6843679Y+1025812D01*
X+6781188Y+963321D01*
X+6692812Y+963321D01*
X+6630321Y+1025812D01*
X+6630321Y+1114188D01*
X+6692812Y+1176679D01*
G37*
G36*
X+6311812Y+922679D02*
X+6400188Y+922679D01*
X+6462679Y+860188D01*
X+6462679Y+771812D01*
X+6400188Y+709321D01*
X+6311812Y+709321D01*
X+6249321Y+771812D01*
X+6249321Y+860188D01*
X+6311812Y+922679D01*
G37*
G36*
X+6692812Y+922679D02*
X+6781188Y+922679D01*
X+6843679Y+860188D01*
X+6843679Y+771812D01*
X+6781188Y+709321D01*
X+6692812Y+709321D01*
X+6630321Y+771812D01*
X+6630321Y+860188D01*
X+6692812Y+922679D01*
G37*
G36*
X+6311812Y+668679D02*
X+6400188Y+668679D01*
X+6462679Y+606188D01*
X+6462679Y+517812D01*
X+6400188Y+455321D01*
X+6311812Y+455321D01*
X+6249321Y+517812D01*
X+6249321Y+606188D01*
X+6311812Y+668679D01*
G37*
G36*
X+6692812Y+668679D02*
X+6781188Y+668679D01*
X+6843679Y+606188D01*
X+6843679Y+517812D01*
X+6781188Y+455321D01*
X+6692812Y+455321D01*
X+6630321Y+517812D01*
X+6630321Y+606188D01*
X+6692812Y+668679D01*
G37*
G36*
X+6311812Y+414679D02*
X+6400188Y+414679D01*
X+6462679Y+352188D01*
X+6462679Y+263812D01*
X+6400188Y+201321D01*
X+6311812Y+201321D01*
X+6249321Y+263812D01*
X+6249321Y+352188D01*
X+6311812Y+414679D01*
G37*
G36*
X+6692812Y+414679D02*
X+6781188Y+414679D01*
X+6843679Y+352188D01*
X+6843679Y+263812D01*
X+6781188Y+201321D01*
X+6692812Y+201321D01*
X+6630321Y+263812D01*
X+6630321Y+352188D01*
X+6692812Y+414679D01*
G37*
G36*
X+3520841Y+66923D02*
X+3598695Y+66923D01*
X+3653747Y+11871D01*
X+3653747Y-65983D01*
X+3598695Y-121035D01*
X+3520841Y-121035D01*
X+3465789Y-65983D01*
X+3465789Y+11871D01*
X+3520841Y+66923D01*
G37*
G36*
X+4282841Y+66923D02*
X+4360695Y+66923D01*
X+4415747Y+11871D01*
X+4415747Y-65983D01*
X+4360695Y-121035D01*
X+4282841Y-121035D01*
X+4227789Y-65983D01*
X+4227789Y+11871D01*
X+4282841Y+66923D01*
G37*
G36*
X+6743250Y+5801849D02*
X+6743250Y+5828151D01*
X+6761849Y+5846750D01*
X+6788151Y+5846750D01*
X+6806750Y+5828151D01*
X+6806750Y+5801849D01*
X+6788151Y+5783250D01*
X+6761849Y+5783250D01*
X+6743250Y+5801849D01*
G37*
G36*
X+6248250Y+111849D02*
X+6248250Y+138151D01*
X+6266849Y+156750D01*
X+6293151Y+156750D01*
X+6311750Y+138151D01*
X+6311750Y+111849D01*
X+6293151Y+93250D01*
X+6266849Y+93250D01*
X+6248250Y+111849D01*
G37*
G36*
X+5138250Y+5056849D02*
X+5138250Y+5083151D01*
X+5156849Y+5101750D01*
X+5183151Y+5101750D01*
X+5201750Y+5083151D01*
X+5201750Y+5056849D01*
X+5183151Y+5038250D01*
X+5156849Y+5038250D01*
X+5138250Y+5056849D01*
G37*
G36*
X+6208250Y+956849D02*
X+6208250Y+983151D01*
X+6226849Y+1001750D01*
X+6253151Y+1001750D01*
X+6271750Y+983151D01*
X+6271750Y+956849D01*
X+6253151Y+938250D01*
X+6226849Y+938250D01*
X+6208250Y+956849D01*
G37*
%LPD*%
G36*
X+3964265Y+3360329D02*
X+3883442Y+3360329D01*
X+3825000Y+3301887D01*
X+3766558Y+3360329D01*
X+3683442Y+3360329D01*
X+3625000Y+3301887D01*
X+3566558Y+3360329D01*
X+3483442Y+3360329D01*
X+3424671Y+3301558D01*
X+3424671Y+3218442D01*
X+3483113Y+3160000D01*
X+3424671Y+3101558D01*
X+3424671Y+3018442D01*
X+3483442Y+2959671D01*
X+3566558Y+2959671D01*
X+3625000Y+3018113D01*
X+3683442Y+2959671D01*
X+3766558Y+2959671D01*
X+3825000Y+3018113D01*
X+3883442Y+2959671D01*
X+3964265Y+2959671D01*
X+4024628Y+2899308D01*
X+2574648Y+2899308D01*
X+2112406Y+3361550D01*
X+2151869Y+3361550D01*
X+2164569Y+3374250D01*
X+3978186Y+3374250D01*
X+3964265Y+3360329D01*
G37*
G36*
X+6294969Y+3714731D02*
X+6309864Y+3714731D01*
X+6249321Y+3654188D01*
X+6249321Y+3653179D01*
X+6192115Y+3653179D01*
X+6064938Y+3526002D01*
X+6061900Y+2835925D01*
X+6049121Y+2823146D01*
X+6049121Y+2776854D01*
X+6081854Y+2744121D01*
X+6128146Y+2744121D01*
X+6160879Y+2776854D01*
X+6160879Y+2823146D01*
X+6148403Y+2835622D01*
X+6151144Y+3490080D01*
X+6157932Y+3496868D01*
X+6170477Y+3484322D01*
X+6170477Y+2718459D01*
X+6250034Y+2638902D01*
X+6249321Y+2638188D01*
X+6249321Y+2549812D01*
X+6310032Y+2489101D01*
X+6217777Y+2489101D01*
X+5557520Y+1828844D01*
X+5539559Y+1828844D01*
X+5506826Y+1796111D01*
X+5506826Y+1749819D01*
X+5539559Y+1717086D01*
X+5585851Y+1717086D01*
X+5618584Y+1749819D01*
X+5618584Y+1767780D01*
X+6253547Y+2402743D01*
X+6267876Y+2402743D01*
X+6249321Y+2384188D01*
X+6249321Y+2295812D01*
X+6309392Y+2235741D01*
X+6159677Y+2235741D01*
X+6039815Y+2115879D01*
X+6021854Y+2115879D01*
X+5989121Y+2083146D01*
X+5989121Y+2036854D01*
X+6021854Y+2004121D01*
X+6068146Y+2004121D01*
X+6100879Y+2036854D01*
X+6100879Y+2054815D01*
X+6195447Y+2149383D01*
X+6268516Y+2149383D01*
X+6249321Y+2130188D01*
X+6249321Y+2041812D01*
X+6257203Y+2033930D01*
X+6210348Y+2033930D01*
X+6162736Y+1986318D01*
X+6162736Y+1945008D01*
X+6147157Y+1929429D01*
X+6056870Y+1929429D01*
X+6027660Y+1958639D01*
X+5960326Y+1958639D01*
X+5912714Y+1911027D01*
X+5912714Y+1843693D01*
X+5960326Y+1796081D01*
X+6027660Y+1796081D01*
X+6056870Y+1825291D01*
X+6190291Y+1825291D01*
X+6236372Y+1871372D01*
X+6249321Y+1871372D01*
X+6249321Y+1787812D01*
X+6311812Y+1725321D01*
X+6400188Y+1725321D01*
X+6462679Y+1787812D01*
X+6462679Y+1792793D01*
X+6468141Y+1787331D01*
X+6468141Y+1497205D01*
X+6400902Y+1429966D01*
X+6400188Y+1430679D01*
X+6311812Y+1430679D01*
X+6249321Y+1368188D01*
X+6249321Y+1279812D01*
X+6280493Y+1248640D01*
X+5787732Y+755879D01*
X+5769771Y+755879D01*
X+5737038Y+723146D01*
X+5737038Y+676854D01*
X+5764852Y+649040D01*
X+4785310Y+649040D01*
X+4812748Y+676478D01*
X+4812748Y+702712D01*
X+5142640Y+1032604D01*
X+5160601Y+1032604D01*
X+5193334Y+1065337D01*
X+5193334Y+1107479D01*
X+5327101Y+1107479D01*
X+5339801Y+1094779D01*
X+5386093Y+1094779D01*
X+5418826Y+1127512D01*
X+5418826Y+1173804D01*
X+5386093Y+1206537D01*
X+5339801Y+1206537D01*
X+5327101Y+1193837D01*
X+4405567Y+1193837D01*
X+4415747Y+1204017D01*
X+4415747Y+1275859D01*
X+4438875Y+1298987D01*
X+5816809Y+1298987D01*
X+5829509Y+1286287D01*
X+5875801Y+1286287D01*
X+5908534Y+1319020D01*
X+5908534Y+1365312D01*
X+5875801Y+1398045D01*
X+5829509Y+1398045D01*
X+5816809Y+1385345D01*
X+4403105Y+1385345D01*
X+4354683Y+1336923D01*
X+4282841Y+1336923D01*
X+4227789Y+1281871D01*
X+4227789Y+1204017D01*
X+4271430Y+1160376D01*
X+4270650Y+1159595D01*
X+4270650Y+1113303D01*
X+4301030Y+1082923D01*
X+4282841Y+1082923D01*
X+4227789Y+1027871D01*
X+4227789Y+950017D01*
X+4282841Y+894965D01*
X+4360695Y+894965D01*
X+4415747Y+950017D01*
X+4415747Y+1027871D01*
X+4360695Y+1082923D01*
X+4352028Y+1082923D01*
X+4376584Y+1107479D01*
X+5081576Y+1107479D01*
X+5081576Y+1093668D01*
X+4743411Y+755503D01*
X+4733723Y+755503D01*
X+4700990Y+722770D01*
X+4700990Y+676478D01*
X+4728428Y+649040D01*
X+4368770Y+649040D01*
X+4415747Y+696017D01*
X+4415747Y+773871D01*
X+4360695Y+828923D01*
X+4282841Y+828923D01*
X+4227789Y+773871D01*
X+4227789Y+696017D01*
X+4274766Y+649040D01*
X+4269815Y+649040D01*
X+4257115Y+661740D01*
X+4223179Y+661740D01*
X+4223179Y+1502885D01*
X+3835099Y+1890965D01*
X+3846111Y+1890965D01*
X+3905890Y+1831186D01*
X+4253646Y+1831186D01*
X+4313425Y+1890965D01*
X+4372695Y+1890965D01*
X+4427747Y+1946017D01*
X+4427747Y+2023871D01*
X+4389797Y+2061821D01*
X+5482885Y+2061821D01*
X+5520185Y+2099121D01*
X+5538146Y+2099121D01*
X+5570879Y+2131854D01*
X+5570879Y+2178146D01*
X+5538146Y+2210879D01*
X+5491854Y+2210879D01*
X+5459121Y+2178146D01*
X+5459121Y+2160185D01*
X+5447115Y+2148179D01*
X+3186085Y+2148179D01*
X+2852947Y+2481317D01*
X+2852947Y+2657217D01*
X+2903747Y+2708017D01*
X+2903747Y+2785871D01*
X+2894448Y+2795170D01*
X+2979088Y+2795170D01*
X+2969789Y+2785871D01*
X+2969789Y+2708017D01*
X+3024841Y+2652965D01*
X+3096683Y+2652965D01*
X+3382827Y+2366821D01*
X+3939154Y+2366821D01*
X+3951854Y+2354121D01*
X+3998146Y+2354121D01*
X+4030879Y+2386854D01*
X+4030879Y+2433146D01*
X+3998146Y+2465879D01*
X+3951854Y+2465879D01*
X+3939154Y+2453179D01*
X+3418597Y+2453179D01*
X+3157747Y+2714029D01*
X+3157747Y+2785871D01*
X+3148448Y+2795170D01*
X+3233088Y+2795170D01*
X+3223789Y+2785871D01*
X+3223789Y+2708017D01*
X+3278841Y+2652965D01*
X+3356695Y+2652965D01*
X+3411747Y+2708017D01*
X+3411747Y+2785871D01*
X+3402448Y+2795170D01*
X+3487088Y+2795170D01*
X+3477789Y+2785871D01*
X+3477789Y+2708017D01*
X+3532841Y+2652965D01*
X+3610695Y+2652965D01*
X+3665747Y+2708017D01*
X+3665747Y+2785871D01*
X+3656448Y+2795170D01*
X+3741088Y+2795170D01*
X+3731789Y+2785871D01*
X+3731789Y+2708017D01*
X+3786841Y+2652965D01*
X+3864695Y+2652965D01*
X+3919747Y+2708017D01*
X+3919747Y+2785871D01*
X+3910448Y+2795170D01*
X+3995088Y+2795170D01*
X+3985789Y+2785871D01*
X+3985789Y+2708017D01*
X+4040841Y+2652965D01*
X+4118695Y+2652965D01*
X+4173747Y+2708017D01*
X+4173747Y+2785871D01*
X+4164448Y+2795170D01*
X+4249088Y+2795170D01*
X+4239789Y+2785871D01*
X+4239789Y+2708017D01*
X+4294841Y+2652965D01*
X+4372695Y+2652965D01*
X+4427747Y+2708017D01*
X+4427747Y+2785871D01*
X+4418448Y+2795170D01*
X+4761194Y+2795170D01*
X+4882385Y+2673979D01*
X+4755361Y+2673979D01*
X+4755361Y+2543088D01*
X+4602010Y+2389737D01*
X+4560700Y+2389737D01*
X+4513088Y+2342125D01*
X+4513088Y+2274791D01*
X+4560700Y+2227179D01*
X+4628034Y+2227179D01*
X+4675646Y+2274791D01*
X+4675646Y+2316101D01*
X+4845566Y+2486021D01*
X+4856983Y+2486021D01*
X+4925001Y+2418003D01*
X+5311639Y+2418003D01*
X+5379657Y+2486021D01*
X+5420343Y+2486021D01*
X+5478703Y+2427661D01*
X+5736297Y+2427661D01*
X+6019879Y+2711243D01*
X+6019879Y+2826429D01*
X+6049089Y+2855639D01*
X+6049089Y+2922973D01*
X+6022069Y+2949993D01*
X+6022069Y+3113458D01*
X+6047469Y+3113458D01*
X+6047469Y+3319196D01*
X+6022069Y+3319196D01*
X+6022069Y+3353458D01*
X+6047469Y+3353458D01*
X+6047469Y+3559196D01*
X+6022069Y+3559196D01*
X+6022069Y+3608458D01*
X+6047469Y+3608458D01*
X+6047469Y+3775585D01*
X+6234115Y+3775585D01*
X+6294969Y+3714731D01*
G37*
%LPC*%
G36*
X+6311812Y+1684679D02*
X+6400188Y+1684679D01*
X+6462679Y+1622188D01*
X+6462679Y+1533812D01*
X+6400188Y+1471321D01*
X+6311812Y+1471321D01*
X+6249321Y+1533812D01*
X+6249321Y+1622188D01*
X+6311812Y+1684679D01*
G37*
G36*
X+4282841Y+1590923D02*
X+4360695Y+1590923D01*
X+4415747Y+1535871D01*
X+4415747Y+1458017D01*
X+4360695Y+1402965D01*
X+4282841Y+1402965D01*
X+4227789Y+1458017D01*
X+4227789Y+1535871D01*
X+4282841Y+1590923D01*
G37*
G36*
X+4282841Y+1844923D02*
X+4360695Y+1844923D01*
X+4415747Y+1789871D01*
X+4415747Y+1712017D01*
X+4360695Y+1656965D01*
X+4282841Y+1656965D01*
X+4227789Y+1712017D01*
X+4227789Y+1789871D01*
X+4282841Y+1844923D01*
G37*
G36*
X+4947723Y+680629D02*
X+4947723Y+706931D01*
X+4966322Y+725530D01*
X+4992624Y+725530D01*
X+5011223Y+706931D01*
X+5011223Y+680629D01*
X+4992624Y+662030D01*
X+4966322Y+662030D01*
X+4947723Y+680629D01*
G37*
G36*
X+4515366Y+939738D02*
X+4515366Y+966040D01*
X+4533965Y+984639D01*
X+4560267Y+984639D01*
X+4578866Y+966040D01*
X+4578866Y+939738D01*
X+4560267Y+921139D01*
X+4533965Y+921139D01*
X+4515366Y+939738D01*
G37*
%LPD*%
G36*
X+2339070Y+2186126D02*
X+2339070Y+2139834D01*
X+2371803Y+2107101D01*
X+2372547Y+2107101D01*
X+2461789Y+2017859D01*
X+2461789Y+1890965D01*
X+2588683Y+1890965D01*
X+2600323Y+1879325D01*
X+2600323Y+1844923D01*
X+2453789Y+1844923D01*
X+2453789Y+1656965D01*
X+2600323Y+1656965D01*
X+2600323Y+1577295D01*
X+2586695Y+1590923D01*
X+2508841Y+1590923D01*
X+2458041Y+1540123D01*
X+2180941Y+1540123D01*
X+2176393Y+1544671D01*
X+2256558Y+1544671D01*
X+2315329Y+1603442D01*
X+2315329Y+1686558D01*
X+2256887Y+1745000D01*
X+2315329Y+1803442D01*
X+2315329Y+1883607D01*
X+2342115Y+1856821D01*
X+2364154Y+1856821D01*
X+2376854Y+1844121D01*
X+2423146Y+1844121D01*
X+2455879Y+1876854D01*
X+2455879Y+1923146D01*
X+2423146Y+1955879D01*
X+2376854Y+1955879D01*
X+2371020Y+1950044D01*
X+2315329Y+2005735D01*
X+2315329Y+2086558D01*
X+2256887Y+2145000D01*
X+2313708Y+2201821D01*
X+2354765Y+2201821D01*
X+2339070Y+2186126D01*
G37*
G36*
X+3045013Y+2078923D02*
X+3024841Y+2078923D01*
X+2969789Y+2023871D01*
X+2969789Y+1946017D01*
X+3024841Y+1890965D01*
X+3102695Y+1890965D01*
X+3157747Y+1946017D01*
X+3157747Y+1966189D01*
X+3184222Y+1939714D01*
X+3184222Y+1813094D01*
X+3175233Y+1804105D01*
X+3175233Y+1573703D01*
X+3215789Y+1533147D01*
X+3215789Y+1458017D01*
X+3270841Y+1402965D01*
X+3348695Y+1402965D01*
X+3403747Y+1458017D01*
X+3403747Y+1535871D01*
X+3348695Y+1590923D01*
X+3280141Y+1590923D01*
X+3261591Y+1609473D01*
X+3261591Y+1666215D01*
X+3270841Y+1656965D01*
X+3348695Y+1656965D01*
X+3403747Y+1712017D01*
X+3403747Y+1789871D01*
X+3348695Y+1844923D01*
X+3270841Y+1844923D01*
X+3270580Y+1844662D01*
X+3270580Y+1899226D01*
X+3278841Y+1890965D01*
X+3350683Y+1890965D01*
X+3420634Y+1821014D01*
X+3420634Y+1575014D01*
X+3465789Y+1529859D01*
X+3465789Y+1458017D01*
X+3520841Y+1402965D01*
X+3598695Y+1402965D01*
X+3653747Y+1458017D01*
X+3653747Y+1535871D01*
X+3598695Y+1590923D01*
X+3526853Y+1590923D01*
X+3506992Y+1610784D01*
X+3506992Y+1656965D01*
X+3653747Y+1656965D01*
X+3653747Y+1844923D01*
X+3506992Y+1844923D01*
X+3506992Y+1856784D01*
X+3411747Y+1952029D01*
X+3411747Y+2023871D01*
X+3373797Y+2061821D01*
X+3515739Y+2061821D01*
X+3477789Y+2023871D01*
X+3477789Y+1946017D01*
X+3532841Y+1890965D01*
X+3610695Y+1890965D01*
X+3661495Y+1941765D01*
X+3662171Y+1941765D01*
X+4136821Y+1467115D01*
X+4136821Y+770201D01*
X+4120229Y+786793D01*
X+4073937Y+786793D01*
X+4061237Y+774093D01*
X+3670983Y+774093D01*
X+3653747Y+756857D01*
X+3653747Y+773871D01*
X+3598695Y+828923D01*
X+3520841Y+828923D01*
X+3465789Y+773871D01*
X+3465789Y+696017D01*
X+3520841Y+640965D01*
X+3537855Y+640965D01*
X+3516013Y+619123D01*
X+3048137Y+619123D01*
X+3042997Y+624263D01*
X+2996705Y+624263D01*
X+2965819Y+593377D01*
X+2848179Y+711017D01*
X+2848179Y+795287D01*
X+2870441Y+773025D01*
X+2916733Y+773025D01*
X+2929433Y+785725D01*
X+3227643Y+785725D01*
X+3215789Y+773871D01*
X+3215789Y+696017D01*
X+3270841Y+640965D01*
X+3348695Y+640965D01*
X+3403747Y+696017D01*
X+3403747Y+773871D01*
X+3391893Y+785725D01*
X+3417613Y+785725D01*
X+3526853Y+894965D01*
X+3598695Y+894965D01*
X+3653747Y+950017D01*
X+3653747Y+1024837D01*
X+3687969Y+990615D01*
X+3687969Y+972654D01*
X+3720702Y+939921D01*
X+3766994Y+939921D01*
X+3799727Y+972654D01*
X+3799727Y+1018946D01*
X+3766994Y+1051679D01*
X+3749033Y+1051679D01*
X+3687533Y+1113179D01*
X+3621259Y+1113179D01*
X+3585473Y+1148965D01*
X+3598695Y+1148965D01*
X+3653747Y+1204017D01*
X+3653747Y+1281871D01*
X+3598695Y+1336923D01*
X+3520841Y+1336923D01*
X+3465789Y+1281871D01*
X+3465789Y+1268649D01*
X+3448315Y+1286123D01*
X+3399495Y+1286123D01*
X+3348695Y+1336923D01*
X+3270841Y+1336923D01*
X+3215789Y+1281871D01*
X+3215789Y+1204017D01*
X+3270841Y+1148965D01*
X+3348695Y+1148965D01*
X+3399495Y+1199765D01*
X+3412545Y+1199765D01*
X+3529387Y+1082923D01*
X+3520841Y+1082923D01*
X+3465789Y+1027871D01*
X+3465789Y+956029D01*
X+3381843Y+872083D01*
X+2929433Y+872083D01*
X+2916733Y+884783D01*
X+2870441Y+884783D01*
X+2848179Y+862521D01*
X+2848179Y+1890965D01*
X+2848695Y+1890965D01*
X+2903747Y+1946017D01*
X+2903747Y+2023871D01*
X+2848695Y+2078923D01*
X+2770841Y+2078923D01*
X+2715789Y+2023871D01*
X+2715789Y+1946017D01*
X+2761821Y+1899985D01*
X+2761821Y+1718088D01*
X+2744396Y+1735513D01*
X+2698104Y+1735513D01*
X+2686681Y+1724090D01*
X+2686681Y+1915095D01*
X+2649747Y+1952029D01*
X+2649747Y+2078923D01*
X+2522853Y+2078923D01*
X+2450828Y+2150948D01*
X+2450828Y+2186126D01*
X+2435133Y+2201821D01*
X+2922114Y+2201822D01*
X+3045013Y+2078923D01*
G37*
%LPC*%
G36*
X+3270841Y+1082923D02*
X+3348695Y+1082923D01*
X+3403747Y+1027871D01*
X+3403747Y+950017D01*
X+3348695Y+894965D01*
X+3270841Y+894965D01*
X+3215789Y+950017D01*
X+3215789Y+1027871D01*
X+3270841Y+1082923D01*
G37*
%LPD*%
D10*
X+3975000Y+2410000D02*
X+3400712Y+2410000D01*
X+3063768Y+2746944D01*
X+2555768Y+1984944D02*
X+2643502Y+1897210D01*
X+2643502Y+576678D01*
X+2547768Y+480944D01*
X+2809768Y+1984944D02*
X+2805000Y+1980176D01*
X+2805000Y+693132D01*
X+3246268Y+251864D01*
X+3309768Y+226944D01*
X+3317768Y+1984944D02*
X+3463813Y+1838899D01*
X+3463813Y+1592899D01*
X+3559768Y+1496944D01*
X+2248473Y+538991D02*
X+2454570Y+745088D01*
X+2454570Y+1149746D01*
X+2547768Y+1242944D01*
X+5510000Y+3706327D02*
X+5765000Y+3706327D01*
X+5770000Y+3711327D01*
X+5510000Y+3456327D02*
X+5770000Y+3456327D01*
X+5030000Y+535000D02*
X+4375824Y+535000D01*
X+4321768Y+480944D01*
X+640000Y+1454682D02*
X+627976Y+1454682D01*
X+364120Y+1190826D01*
X+364120Y+408120D01*
X+260000Y+304000D01*
X+6045000Y+2060000D02*
X+6177562Y+2192562D01*
X+6630438Y+2192562D01*
X+6737000Y+2086000D01*
X+5510000Y+3211327D02*
X+5773888Y+3211327D01*
X+5778888Y+3216327D01*
X+5782043Y+3219482D01*
X+5770000Y+3216327D01*
X+5778888Y+3216327D01*
X+5871813Y+3216327D01*
X+5873646Y+3218160D01*
X+5770000Y+3456327D02*
X+5852522Y+3456327D01*
X+5863063Y+3466868D01*
X+5770000Y+3711327D02*
X+5808543Y+3711327D01*
X+5915980Y+3818764D01*
X+6252000Y+3818764D01*
X+6312854Y+3757910D01*
X+6402812Y+3757910D01*
X+6630354Y+3985452D01*
X+6630354Y+4519354D01*
X+6737000Y+4626000D01*
X+6568019Y+3528460D02*
X+6568019Y+2497373D01*
X+6343584Y+4253300D02*
X+6373586Y+4253300D01*
X+6519308Y+4107578D01*
X+6519308Y+3998418D01*
X+6515000Y+3605000D02*
X+6515000Y+3533306D01*
D73*
X+6515000Y+3523614D01*
D10*
X+6515000Y+2591614D01*
X+6516645Y+2589969D01*
X+6514740Y+2589969D01*
X+6511320Y+1823177D02*
X+6511320Y+1479320D01*
X+6356000Y+1324000D01*
D11*
X+5970000Y+3216327D02*
X+5970000Y+3456327D01*
X+5970000Y+3711327D01*
X+5970000Y+3946327D02*
X+6046327Y+3870000D01*
X+6350000Y+3870000D01*
X+6356000Y+3864000D01*
X+5970000Y+3216327D02*
X+5970000Y+2891496D01*
X+5967810Y+2889306D01*
D10*
X+3571768Y+1984944D02*
X+3680056Y+1984944D01*
X+4180000Y+1485000D01*
X+4180000Y+386313D01*
X+4321768Y+244545D01*
X+4321768Y+226944D01*
X+1261942Y+1551886D02*
X+1261942Y+1403058D01*
X+1455000Y+1210000D01*
X+5760000Y+4515000D02*
X+5760000Y+4970379D01*
X+5555000Y+5175379D01*
X+5555000Y+5570000D01*
X+5375000Y+4515000D02*
X+5375000Y+5550000D01*
X+5355000Y+5570000D01*
X+6105000Y+2800000D02*
X+6108040Y+3508040D01*
X+6210000Y+3610000D01*
X+6356000Y+3610000D01*
X+1220000Y+5040000D02*
X+1334224Y+5040000D01*
X+1505000Y+5210776D01*
X+1505000Y+5355000D01*
X+1605000Y+5455000D01*
X+2893587Y+828904D02*
X+3399728Y+828904D01*
X+3559768Y+988944D01*
X+2215000Y+2245000D02*
X+2940000Y+2245000D01*
X+3227401Y+1957599D01*
X+3227401Y+1795209D01*
X+3218412Y+1786220D01*
X+3218412Y+1591588D01*
X+3249556Y+1560444D01*
X+3309768Y+1496944D01*
X+4097083Y+730914D02*
X+3688868Y+730914D01*
X+3533898Y+575944D01*
X+3027411Y+575944D01*
X+3019851Y+568384D01*
X+2808185Y+566686D02*
X+2721250Y+653621D01*
X+2721250Y+1679634D01*
X+2400000Y+1900000D02*
X+2360000Y+1900000D01*
X+2215000Y+2045000D01*
X+2015000Y+1645000D02*
X+2163056Y+1496944D01*
X+2547768Y+1496944D01*
X+5750000Y+3946327D02*
X+5770000Y+3946327D01*
X+5869710Y+3946327D01*
X+5870081Y+3946698D01*
X+6213656Y+3520168D02*
X+6213656Y+2736344D01*
X+6356000Y+2594000D01*
X+5510000Y+3946327D02*
X+5750000Y+3946327D01*
D11*
X+5839545Y+2738637D02*
X+5827954Y+2727046D01*
X+5680908Y+2580000D01*
X+5613360Y+2580000D01*
X+4594367Y+2308458D02*
X+4836640Y+2550731D01*
X+4836640Y+2580000D01*
D10*
X+5562705Y+1772965D02*
X+6235662Y+2445922D01*
X+6553675Y+2445922D01*
X+6659597Y+2340000D01*
X+6737000Y+2340000D01*
X+2809768Y+2746944D02*
X+2809768Y+2463432D01*
X+2863229Y+2409971D01*
X+3168200Y+2105000D01*
X+3325000Y+2105000D01*
X+5465000Y+2105000D01*
X+5515000Y+2155000D01*
X+5852655Y+1342166D02*
X+4420990Y+1342166D01*
X+4321768Y+1242944D01*
X+3309768Y+1242944D02*
X+3430430Y+1242944D01*
X+3603374Y+1070000D01*
X+3669648Y+1070000D01*
X+3743848Y+995800D01*
X+4233969Y+605861D02*
X+5824139Y+605861D01*
X+5885000Y+545000D01*
X+5900000Y+525000D01*
X+5792917Y+700000D02*
X+6311434Y+1218517D01*
X+6397884Y+1218517D01*
X+6632536Y+1453169D01*
X+6632536Y+1727536D01*
X+6737000Y+1832000D01*
X+5362947Y+1150658D02*
X+4326529Y+1150658D01*
X+4326529Y+1136449D01*
X+5137455Y+1088483D02*
X+4756869Y+707897D01*
X+4756869Y+699624D01*
X+875000Y+1056168D02*
X+650832Y+1056168D01*
X+641000Y+1066000D01*
X+641000Y+1574000D02*
X+1225223Y+989777D01*
X+1227746Y+989777D01*
X+2170612Y+808466D02*
X+644534Y+808466D01*
X+641000Y+812000D01*
D11*
X+1183360Y+2390000D02*
X+1315000Y+2521640D01*
X+1315000Y+2550000D01*
D10*
X+2547768Y+734944D02*
X+2298509Y+485685D01*
X+1852358Y+485685D01*
X+1850264Y+483591D01*
X+1260000Y+465000D02*
X+1651441Y+73559D01*
X+3209153Y+73559D01*
X+3309768Y-27056D01*
D11*
X+970000Y+2390000D02*
X+695000Y+2390000D01*
X+641000Y+2336000D01*
X+5993993Y+1877360D02*
X+6168724Y+1877360D01*
X+6244015Y+1952651D01*
X+5400000Y+2580000D02*
X+5500271Y+2479729D01*
X+5714729Y+2479729D01*
X+5967810Y+2732810D01*
X+5967810Y+2889306D01*
X+4836640Y+2580000D02*
X+4946568Y+2470072D01*
X+5290072Y+2470072D01*
X+5400000Y+2580000D01*
D10*
X+5755000Y+5570000D02*
X+5790000Y+5570000D01*
X+6014003Y+5345997D01*
X+6014003Y+5340997D01*
X+6132405Y+5222595D01*
X+6132405Y+4560021D01*
X+6103527Y+4531143D01*
X+2547768Y+226944D02*
X+2660574Y+114138D01*
X+4338165Y+114138D01*
X+4585715Y+361688D01*
X+5423540Y+361688D01*
D11*
X+5210530Y+2814148D02*
X+5212204Y+2812474D01*
X+5212204Y+2680235D01*
X+5513125Y+2680235D01*
X+5613360Y+2580000D01*
X+5050000Y+2580000D02*
X+5067010Y+2597010D01*
X+5067009Y+2597010D01*
X+5150235Y+2680235D01*
X+5212204Y+2680235D01*
D10*
X+5310000Y+3456327D02*
X+5310000Y+3426327D01*
X+4845307Y+2961634D01*
X+4208366Y+2961634D01*
X+4179850Y+2990150D01*
X+4125000Y+3060000D01*
X+3925000Y+3060000D02*
X+4063929Y+2921071D01*
X+5049744Y+2921071D01*
X+5310000Y+3181327D01*
X+5310000Y+3211327D01*
X+5310000Y+3706327D02*
X+4762499Y+3158826D01*
X+4226174Y+3158826D01*
X+4125000Y+3260000D01*
X+3925000Y+3260000D02*
X+4022726Y+3357726D01*
X+4863227Y+3357726D01*
X+5206527Y+3701026D01*
X+5206527Y+3826093D01*
X+5310000Y+3929566D01*
X+5310000Y+3946327D01*
X+2555768Y+1984944D02*
X+2394949Y+2145763D01*
X+2394949Y+2162980D01*
X+1645000Y+2925000D02*
X+2026448Y+2543552D01*
X+2586448Y+2543552D01*
X+2810000Y+2320000D01*
D11*
X+5050000Y+2580000D02*
X+4782761Y+2847239D01*
X+2553081Y+2847239D01*
X+1139620Y+4260700D01*
X+1139620Y+4455000D01*
X+1605114Y+5058055D02*
X+1605114Y+4442297D01*
X+1614735Y+4432676D01*
X+1640000Y+4455000D01*
X+3825768Y+1984944D02*
X+3927457Y+1883255D01*
X+4232079Y+1883255D01*
X+4333768Y+1984944D01*
X+5970000Y+3946327D02*
X+5856257Y+4060070D01*
X+5633621Y+4060070D01*
X+230000Y+5740000D02*
X+858595Y+5111405D01*
X+858595Y+4736025D01*
X+1139620Y+4455000D01*
X+1454620Y+4140000D01*
X+1565000Y+4140000D01*
X+1640000Y+4455000D02*
X+1745000Y+4350000D01*
X+1745000Y+4140000D01*
X+1139620Y+4455000D02*
X+1070000Y+4385380D01*
X+1070000Y+2795000D01*
X+1315000Y+2550000D01*
D10*
X+260000Y+4622000D02*
X+538060Y+4343940D01*
X+538060Y+4323586D01*
X+642225Y+4219421D01*
X+758407Y+4219421D01*
X+986767Y+3991061D01*
X+1132194Y+3842828D02*
X+1132194Y+3545918D01*
X+1249056Y+3429056D01*
X+528012Y+755553D02*
X+528012Y+416988D01*
X+641000Y+304000D01*
X+260000Y+2336000D02*
X+530206Y+2606206D01*
X+530206Y+3141795D01*
X+613537Y+3225126D01*
X+985000Y+3225126D01*
X+2128723Y+3417429D02*
X+4799931Y+3417429D01*
X+5153485Y+3770983D01*
X+5153485Y+4446515D01*
X+5145000Y+4455000D01*
D12*
X+3975000Y+2410000D03*
X+2248473Y+538991D03*
X+5030000Y+535000D03*
X+640000Y+1454682D03*
X+6045000Y+2060000D03*
X+5873646Y+3218160D03*
X+5863063Y+3466868D03*
X+6568019Y+3528460D03*
X+6568019Y+2497373D03*
X+6343584Y+4253300D03*
X+6519308Y+3998418D03*
X+6515000Y+3605000D03*
X+6514740Y+2589969D03*
X+6511320Y+1823177D03*
D13*
X+5967810Y+2889306D03*
D12*
X+1261942Y+1551886D03*
X+5760000Y+4515000D03*
X+5375000Y+4515000D03*
X+6105000Y+2800000D03*
X+1220000Y+5040000D03*
X+2893587Y+828904D03*
D13*
X+2406671Y+1313311D03*
D12*
X+4097083Y+730914D03*
X+3019851Y+568384D03*
X+2808185Y+566686D03*
X+2721250Y+1679634D03*
X+2400000Y+1900000D03*
D13*
X+6775000Y+5815000D03*
D12*
X+5870081Y+3946698D03*
X+6213656Y+3520168D03*
D13*
X+5839545Y+2738637D03*
X+4594367Y+2308458D03*
D12*
X+5562705Y+1772965D03*
X+5515000Y+2155000D03*
X+5852655Y+1342166D03*
X+3743848Y+995800D03*
X+4233969Y+605861D03*
X+5900000Y+525000D03*
X+5792917Y+700000D03*
X+5362947Y+1150658D03*
X+4326529Y+1136449D03*
X+5137455Y+1088483D03*
X+4756869Y+699624D03*
D13*
X+6280000Y+125000D03*
X+750087Y+142651D03*
D12*
X+875000Y+1056168D03*
X+1227746Y+989777D03*
X+2170612Y+808466D03*
D13*
X+1475494Y+1818235D03*
D12*
X+1850264Y+483591D03*
X+1260000Y+465000D03*
D13*
X+5993993Y+1877360D03*
X+6244015Y+1952651D03*
X+5170000Y+5070000D03*
D12*
X+6103527Y+4531143D03*
X+5423540Y+361688D03*
D13*
X+5210530Y+2814148D03*
X+6240000Y+970000D03*
X+4979473Y+693780D03*
D12*
X+2394949Y+2162980D03*
X+2810000Y+2320000D03*
D13*
X+1605114Y+5058055D03*
X+4547116Y+952889D03*
X+5633621Y+4060070D03*
X+1315000Y+2550000D03*
D12*
X+986767Y+3991061D03*
X+1132194Y+3842828D03*
X+528012Y+755553D03*
X+985000Y+3225126D03*
X+2128723Y+3417429D03*
X+5145000Y+4455000D03*
D14*
X+1939040Y+3674750D02*
X+2140482Y+3473308D01*
X+2105577Y+3473308D01*
X+2072844Y+3440575D01*
X+2072844Y+3401112D01*
X+1201835Y+4272121D01*
X+1215371Y+4272121D01*
X+1232117Y+4288867D01*
X+1433052Y+4087932D01*
X+1477371Y+4087932D01*
X+1477371Y+4037131D01*
X+1652629Y+4037131D01*
X+1652629Y+4242869D01*
X+1477371Y+4242869D01*
X+1477371Y+4192068D01*
X+1476188Y+4192068D01*
X+1305753Y+4362503D01*
X+1322499Y+4379249D01*
X+1322499Y+4530751D01*
X+1215371Y+4637879D01*
X+1063869Y+4637879D01*
X+1047123Y+4621133D01*
X+910664Y+4757592D01*
X+910664Y+5125110D01*
X+928059Y+5101088D01*
X+976815Y+5063626D01*
X+1030976Y+5041652D01*
X+1087000Y+5034501D01*
X+1143024Y+5041652D01*
X+1164121Y+5050211D01*
X+1164121Y+5016854D01*
X+1196854Y+4984121D01*
X+1243146Y+4984121D01*
X+1255846Y+4996821D01*
X+1352109Y+4996821D01*
X+1536700Y+5181412D01*
X+1563442Y+5154671D01*
X+1646558Y+5154671D01*
X+1705000Y+5213113D01*
X+1763442Y+5154671D01*
X+1846558Y+5154671D01*
X+1905329Y+5213442D01*
X+1905329Y+5296558D01*
X+1846887Y+5355000D01*
X+1905329Y+5413442D01*
X+1905329Y+5496558D01*
X+1846558Y+5555329D01*
X+1763442Y+5555329D01*
X+1705000Y+5496887D01*
X+1646558Y+5555329D01*
X+1563442Y+5555329D01*
X+1505000Y+5496887D01*
X+1446558Y+5555329D01*
X+1363442Y+5555329D01*
X+1304671Y+5496558D01*
X+1304671Y+5413442D01*
X+1363113Y+5355000D01*
X+1304671Y+5296558D01*
X+1304671Y+5282150D01*
X+1286556Y+5356825D01*
X+1245941Y+5412912D01*
X+1197185Y+5450374D01*
X+1143024Y+5472348D01*
X+1087000Y+5479499D01*
X+1030976Y+5472348D01*
X+976815Y+5450374D01*
X+928059Y+5412912D01*
X+887444Y+5356825D01*
X+863228Y+5257000D01*
X+887444Y+5157175D01*
X+890024Y+5153612D01*
X+360212Y+5683424D01*
X+362079Y+5685291D01*
X+362079Y+5794709D01*
X+284709Y+5872079D01*
X+175291Y+5872079D01*
X+97921Y+5794709D01*
X+97921Y+5685291D01*
X+175291Y+5607921D01*
X+284709Y+5607921D01*
X+286576Y+5609788D01*
X+806526Y+5089838D01*
X+806526Y+4714458D01*
X+973487Y+4547497D01*
X+956741Y+4530751D01*
X+956741Y+4379249D01*
X+1017931Y+4318059D01*
X+1017931Y+4038922D01*
X+1009913Y+4046940D01*
X+991952Y+4046940D01*
X+776292Y+4262600D01*
X+686467Y+4262600D01*
X+747679Y+4323812D01*
X+747679Y+4412188D01*
X+685188Y+4474679D01*
X+596812Y+4474679D01*
X+534321Y+4412188D01*
X+534321Y+4408743D01*
X+365966Y+4577098D01*
X+366679Y+4577812D01*
X+366679Y+4666188D01*
X+304188Y+4728679D01*
X+215812Y+4728679D01*
X+153321Y+4666188D01*
X+153321Y+4577812D01*
X+215812Y+4515321D01*
X+304188Y+4515321D01*
X+304902Y+4516034D01*
X+494881Y+4326055D01*
X+494881Y+4305701D01*
X+588358Y+4212224D01*
X+534321Y+4158188D01*
X+534321Y+4069812D01*
X+596812Y+4007321D01*
X+685188Y+4007321D01*
X+747679Y+4069812D01*
X+747679Y+4158188D01*
X+729625Y+4176242D01*
X+740522Y+4176242D01*
X+930888Y+3985876D01*
X+930888Y+3967915D01*
X+963621Y+3935182D01*
X+1009913Y+3935182D01*
X+1017931Y+3943200D01*
X+1017931Y+3271220D01*
X+1008146Y+3281005D01*
X+961854Y+3281005D01*
X+949154Y+3268305D01*
X+708172Y+3268305D01*
X+747679Y+3307812D01*
X+747679Y+3396188D01*
X+685188Y+3458679D01*
X+596812Y+3458679D01*
X+534321Y+3396188D01*
X+534321Y+3307812D01*
X+584740Y+3257393D01*
X+487027Y+3159680D01*
X+487027Y+2624091D01*
X+304902Y+2441966D01*
X+304188Y+2442679D01*
X+215812Y+2442679D01*
X+153321Y+2380188D01*
X+153321Y+2291812D01*
X+215812Y+2229321D01*
X+304188Y+2229321D01*
X+366679Y+2291812D01*
X+366679Y+2380188D01*
X+365966Y+2380902D01*
X+534321Y+2549257D01*
X+534321Y+2545812D01*
X+596812Y+2483321D01*
X+685188Y+2483321D01*
X+747679Y+2545812D01*
X+747679Y+2634188D01*
X+685188Y+2696679D01*
X+596812Y+2696679D01*
X+573385Y+2673252D01*
X+573385Y+2760748D01*
X+596812Y+2737321D01*
X+685188Y+2737321D01*
X+747679Y+2799812D01*
X+747679Y+2888188D01*
X+685188Y+2950679D01*
X+596812Y+2950679D01*
X+573385Y+2927252D01*
X+573385Y+3014748D01*
X+596812Y+2991321D01*
X+685188Y+2991321D01*
X+747679Y+3053812D01*
X+747679Y+3142188D01*
X+707920Y+3181947D01*
X+949154Y+3181947D01*
X+961854Y+3169247D01*
X+1008146Y+3169247D01*
X+1017931Y+3179032D01*
X+1017931Y+2773433D01*
X+1233721Y+2557643D01*
X+1233721Y+2516333D01*
X+1234889Y+2515165D01*
X+1203703Y+2483979D01*
X+1102081Y+2483979D01*
X+1102081Y+2296021D01*
X+1264639Y+2296021D01*
X+1264639Y+2397643D01*
X+1335717Y+2468721D01*
X+1348667Y+2468721D01*
X+1396279Y+2516333D01*
X+1396279Y+2583667D01*
X+1348667Y+2631279D01*
X+1307357Y+2631279D01*
X+1122069Y+2816567D01*
X+1122069Y+3494979D01*
X+1148727Y+3468321D01*
X+1148727Y+3387498D01*
X+1207498Y+3328727D01*
X+1290614Y+3328727D01*
X+1349385Y+3387498D01*
X+1349385Y+3470614D01*
X+1290943Y+3529056D01*
X+1349385Y+3587498D01*
X+1349385Y+3670614D01*
X+1290614Y+3729385D01*
X+1207498Y+3729385D01*
X+1175373Y+3697260D01*
X+1175373Y+3806982D01*
X+1188073Y+3819682D01*
X+1188073Y+3865974D01*
X+1155340Y+3898707D01*
X+1122069Y+3898707D01*
X+1122069Y+4204615D01*
X+2501301Y+2825383D01*
X+2461789Y+2785871D01*
X+2461789Y+2708017D01*
X+2516841Y+2652965D01*
X+2594695Y+2652965D01*
X+2649747Y+2708017D01*
X+2649747Y+2785871D01*
X+2640448Y+2795170D01*
X+2725088Y+2795170D01*
X+2715789Y+2785871D01*
X+2715789Y+2708017D01*
X+2766589Y+2657217D01*
X+2766589Y+2445547D01*
X+2923958Y+2288178D01*
X+2857203Y+2288178D01*
X+2865879Y+2296854D01*
X+2865879Y+2343146D01*
X+2833146Y+2375879D01*
X+2815185Y+2375879D01*
X+2604333Y+2586731D01*
X+2044333Y+2586731D01*
X+1768926Y+2862138D01*
X+1777079Y+2870291D01*
X+1777079Y+2979709D01*
X+1699709Y+3057079D01*
X+1590291Y+3057079D01*
X+1512921Y+2979709D01*
X+1512921Y+2870291D01*
X+1590291Y+2792921D01*
X+1699709Y+2792921D01*
X+1707862Y+2801074D01*
X+1968524Y+2540412D01*
X+1914671Y+2486558D01*
X+1914671Y+2403442D01*
X+1973113Y+2345000D01*
X+1914671Y+2286558D01*
X+1914671Y+2203442D01*
X+1973113Y+2145000D01*
X+1914671Y+2086558D01*
X+1914671Y+2003442D01*
X+1973113Y+1945000D01*
X+1914671Y+1886558D01*
X+1914671Y+1803442D01*
X+1973113Y+1745000D01*
X+1914671Y+1686558D01*
X+1914671Y+1603442D01*
X+1973442Y+1544671D01*
X+2054265Y+1544671D01*
X+2145171Y+1453765D01*
X+2458041Y+1453765D01*
X+2508841Y+1402965D01*
X+2586695Y+1402965D01*
X+2600323Y+1416593D01*
X+2600323Y+1323295D01*
X+2586695Y+1336923D01*
X+2508841Y+1336923D01*
X+2453789Y+1281871D01*
X+2453789Y+1210029D01*
X+2411391Y+1167631D01*
X+2411391Y+762973D01*
X+2243288Y+594870D01*
X+2225327Y+594870D01*
X+2192594Y+562137D01*
X+2192594Y+528864D01*
X+1884016Y+528864D01*
X+1873410Y+539470D01*
X+1827118Y+539470D01*
X+1794385Y+506737D01*
X+1794385Y+460445D01*
X+1827118Y+427712D01*
X+1873410Y+427712D01*
X+1888204Y+442506D01*
X+2316394Y+442506D01*
X+2514853Y+640965D01*
X+2586695Y+640965D01*
X+2600323Y+654593D01*
X+2600323Y+594563D01*
X+2580683Y+574923D01*
X+2508841Y+574923D01*
X+2453789Y+519871D01*
X+2453789Y+442017D01*
X+2508841Y+386965D01*
X+2586695Y+386965D01*
X+2641747Y+442017D01*
X+2641747Y+513859D01*
X+2686681Y+558793D01*
X+2686681Y+627126D01*
X+2752306Y+561501D01*
X+2752306Y+543540D01*
X+2785039Y+510807D01*
X+2831331Y+510807D01*
X+2864064Y+543540D01*
X+2864064Y+573004D01*
X+3215789Y+221279D01*
X+3215789Y+188017D01*
X+3246489Y+157317D01*
X+2678459Y+157317D01*
X+2641747Y+194029D01*
X+2641747Y+265871D01*
X+2586695Y+320923D01*
X+2508841Y+320923D01*
X+2453789Y+265871D01*
X+2453789Y+188017D01*
X+2508841Y+132965D01*
X+2580683Y+132965D01*
X+2596910Y+116738D01*
X+1669326Y+116738D01*
X+1315879Y+470185D01*
X+1315879Y+488146D01*
X+1283146Y+520879D01*
X+1236854Y+520879D01*
X+1204121Y+488146D01*
X+1204121Y+441854D01*
X+1236854Y+409121D01*
X+1254815Y+409121D01*
X+1602976Y+60960D01*
X+60960Y+60960D01*
X+60960Y+5939040D01*
X+1939040Y+5939040D01*
X+1939040Y+3674750D01*
X+1686393Y+5091722D02*
X+1686393Y+5024388D01*
X+1657183Y+4995178D01*
X+1657183Y+4637879D01*
X+1715751Y+4637879D01*
X+1822879Y+4530751D01*
X+1822879Y+4379249D01*
X+1797068Y+4353438D01*
X+1797068Y+4242869D01*
X+1832629Y+4242869D01*
X+1832629Y+4037131D01*
X+1657371Y+4037131D01*
X+1657371Y+4242869D01*
X+1692932Y+4242869D01*
X+1692932Y+4272121D01*
X+1564249Y+4272121D01*
X+1457121Y+4379249D01*
X+1457121Y+4530751D01*
X+1553045Y+4626675D01*
X+1553045Y+4995178D01*
X+1523835Y+5024388D01*
X+1523835Y+5091722D01*
X+1571447Y+5139334D01*
X+1638781Y+5139334D01*
X+1686393Y+5091722D01*
X+1051279Y+2296021D02*
X+888721Y+2296021D01*
X+888721Y+2337931D01*
X+747679Y+2337931D01*
X+747679Y+2291812D01*
X+685188Y+2229321D01*
X+596812Y+2229321D01*
X+534321Y+2291812D01*
X+534321Y+2380188D01*
X+596812Y+2442679D01*
X+685188Y+2442679D01*
X+685798Y+2442069D01*
X+888721Y+2442069D01*
X+888721Y+2483979D01*
X+1051279Y+2483979D01*
X+1051279Y+2296021D01*
X+231594Y+4944579D02*
X+288406Y+4944579D01*
X+328579Y+4904406D01*
X+328579Y+4847594D01*
X+288406Y+4807421D01*
X+231594Y+4807421D01*
X+191421Y+4847594D01*
X+191421Y+4904406D01*
X+231594Y+4944579D01*
X+596812Y+4982679D02*
X+685188Y+4982679D01*
X+747679Y+4920188D01*
X+747679Y+4831812D01*
X+685188Y+4769321D01*
X+596812Y+4769321D01*
X+534321Y+4831812D01*
X+534321Y+4920188D01*
X+596812Y+4982679D01*
X+596812Y+4728679D02*
X+685188Y+4728679D01*
X+747679Y+4666188D01*
X+747679Y+4577812D01*
X+685188Y+4515321D01*
X+596812Y+4515321D01*
X+534321Y+4577812D01*
X+534321Y+4666188D01*
X+596812Y+4728679D01*
X+215812Y+4474679D02*
X+304188Y+4474679D01*
X+366679Y+4412188D01*
X+366679Y+4323812D01*
X+304188Y+4261321D01*
X+215812Y+4261321D01*
X+153321Y+4323812D01*
X+153321Y+4412188D01*
X+215812Y+4474679D01*
X+215812Y+4220679D02*
X+304188Y+4220679D01*
X+366679Y+4158188D01*
X+366679Y+4069812D01*
X+304188Y+4007321D01*
X+215812Y+4007321D01*
X+153321Y+4069812D01*
X+153321Y+4158188D01*
X+215812Y+4220679D01*
X+215812Y+3966679D02*
X+304188Y+3966679D01*
X+366679Y+3904188D01*
X+366679Y+3815812D01*
X+304188Y+3753321D01*
X+215812Y+3753321D01*
X+153321Y+3815812D01*
X+153321Y+3904188D01*
X+215812Y+3966679D01*
X+596812Y+3966679D02*
X+685188Y+3966679D01*
X+747679Y+3904188D01*
X+747679Y+3815812D01*
X+685188Y+3753321D01*
X+596812Y+3753321D01*
X+534321Y+3815812D01*
X+534321Y+3904188D01*
X+596812Y+3966679D01*
X+215812Y+3712679D02*
X+304188Y+3712679D01*
X+366679Y+3650188D01*
X+366679Y+3561812D01*
X+304188Y+3499321D01*
X+215812Y+3499321D01*
X+153321Y+3561812D01*
X+153321Y+3650188D01*
X+215812Y+3712679D01*
X+596812Y+3712679D02*
X+685188Y+3712679D01*
X+747679Y+3650188D01*
X+747679Y+3561812D01*
X+685188Y+3499321D01*
X+596812Y+3499321D01*
X+534321Y+3561812D01*
X+534321Y+3650188D01*
X+596812Y+3712679D01*
X+215812Y+3458679D02*
X+304188Y+3458679D01*
X+366679Y+3396188D01*
X+366679Y+3307812D01*
X+304188Y+3245321D01*
X+215812Y+3245321D01*
X+153321Y+3307812D01*
X+153321Y+3396188D01*
X+215812Y+3458679D01*
X+215812Y+3204679D02*
X+304188Y+3204679D01*
X+366679Y+3142188D01*
X+366679Y+3053812D01*
X+304188Y+2991321D01*
X+215812Y+2991321D01*
X+153321Y+3053812D01*
X+153321Y+3142188D01*
X+215812Y+3204679D01*
X+215812Y+2950679D02*
X+304188Y+2950679D01*
X+366679Y+2888188D01*
X+366679Y+2799812D01*
X+304188Y+2737321D01*
X+215812Y+2737321D01*
X+153321Y+2799812D01*
X+153321Y+2888188D01*
X+215812Y+2950679D01*
X+215812Y+2696679D02*
X+304188Y+2696679D01*
X+366679Y+2634188D01*
X+366679Y+2545812D01*
X+304188Y+2483321D01*
X+215812Y+2483321D01*
X+153321Y+2545812D01*
X+153321Y+2634188D01*
X+215812Y+2696679D01*
X+215812Y+2188679D02*
X+304188Y+2188679D01*
X+366679Y+2126188D01*
X+366679Y+2037812D01*
X+304188Y+1975321D01*
X+215812Y+1975321D01*
X+153321Y+2037812D01*
X+153321Y+2126188D01*
X+215812Y+2188679D01*
X+596812Y+2188679D02*
X+685188Y+2188679D01*
X+747679Y+2126188D01*
X+747679Y+2037812D01*
X+685188Y+1975321D01*
X+596812Y+1975321D01*
X+534321Y+2037812D01*
X+534321Y+2126188D01*
X+596812Y+2188679D01*
X+215812Y+1934679D02*
X+304188Y+1934679D01*
X+366679Y+1872188D01*
X+366679Y+1783812D01*
X+304188Y+1721321D01*
X+215812Y+1721321D01*
X+153321Y+1783812D01*
X+153321Y+1872188D01*
X+215812Y+1934679D01*
X+596812Y+1934679D02*
X+685188Y+1934679D01*
X+747679Y+1872188D01*
X+747679Y+1783812D01*
X+685188Y+1721321D01*
X+596812Y+1721321D01*
X+534321Y+1783812D01*
X+534321Y+1872188D01*
X+596812Y+1934679D01*
X+215812Y+1680679D02*
X+304188Y+1680679D01*
X+366679Y+1618188D01*
X+366679Y+1529812D01*
X+304188Y+1467321D01*
X+215812Y+1467321D01*
X+153321Y+1529812D01*
X+153321Y+1618188D01*
X+215812Y+1680679D01*
X+747679Y+1618188D02*
X+747679Y+1529812D01*
X+746966Y+1529098D01*
X+1230408Y+1045656D01*
X+1250892Y+1045656D01*
X+1283625Y+1012923D01*
X+1283625Y+966631D01*
X+1250892Y+933898D01*
X+1204600Y+933898D01*
X+1171867Y+966631D01*
X+1171867Y+982069D01*
X+695879Y+1458057D01*
X+695879Y+1431536D01*
X+688105Y+1423762D01*
X+747679Y+1364188D01*
X+747679Y+1275812D01*
X+685188Y+1213321D01*
X+596812Y+1213321D01*
X+534321Y+1275812D01*
X+534321Y+1299963D01*
X+407299Y+1172941D01*
X+407299Y+390235D01*
X+365966Y+348902D01*
X+366679Y+348188D01*
X+366679Y+259812D01*
X+304188Y+197321D01*
X+215812Y+197321D01*
X+153321Y+259812D01*
X+153321Y+348188D01*
X+215812Y+410679D01*
X+304188Y+410679D01*
X+304902Y+409966D01*
X+320941Y+426005D01*
X+320941Y+468074D01*
X+304188Y+451321D01*
X+215812Y+451321D01*
X+153321Y+513812D01*
X+153321Y+602188D01*
X+215812Y+664679D01*
X+304188Y+664679D01*
X+320941Y+647926D01*
X+320941Y+722074D01*
X+304188Y+705321D01*
X+215812Y+705321D01*
X+153321Y+767812D01*
X+153321Y+856188D01*
X+215812Y+918679D01*
X+304188Y+918679D01*
X+320941Y+901926D01*
X+320941Y+976074D01*
X+304188Y+959321D01*
X+215812Y+959321D01*
X+153321Y+1021812D01*
X+153321Y+1110188D01*
X+215812Y+1172679D01*
X+304188Y+1172679D01*
X+320941Y+1155926D01*
X+320941Y+1208711D01*
X+584121Y+1471891D01*
X+584121Y+1477828D01*
X+585213Y+1478920D01*
X+534321Y+1529812D01*
X+534321Y+1618188D01*
X+596812Y+1680679D01*
X+685188Y+1680679D01*
X+747679Y+1618188D01*
X+215812Y+1426679D02*
X+304188Y+1426679D01*
X+366679Y+1364188D01*
X+366679Y+1275812D01*
X+304188Y+1213321D01*
X+215812Y+1213321D01*
X+153321Y+1275812D01*
X+153321Y+1364188D01*
X+215812Y+1426679D01*
X+747679Y+1110188D02*
X+747679Y+1099347D01*
X+839154Y+1099347D01*
X+851854Y+1112047D01*
X+898146Y+1112047D01*
X+930879Y+1079314D01*
X+930879Y+1033022D01*
X+898146Y+1000289D01*
X+851854Y+1000289D01*
X+839154Y+1012989D01*
X+738856Y+1012989D01*
X+685188Y+959321D01*
X+596812Y+959321D01*
X+534321Y+1021812D01*
X+534321Y+1110188D01*
X+596812Y+1172679D01*
X+685188Y+1172679D01*
X+747679Y+1110188D01*
X+747679Y+856188D02*
X+747679Y+851645D01*
X+2134766Y+851645D01*
X+2147466Y+864345D01*
X+2193758Y+864345D01*
X+2226491Y+831612D01*
X+2226491Y+785320D01*
X+2193758Y+752587D01*
X+2147466Y+752587D01*
X+2134766Y+765287D01*
X+745154Y+765287D01*
X+685188Y+705321D01*
X+596812Y+705321D01*
X+576808Y+725324D01*
X+571191Y+719707D01*
X+571191Y+639058D01*
X+596812Y+664679D01*
X+685188Y+664679D01*
X+747679Y+602188D01*
X+747679Y+513812D01*
X+685188Y+451321D01*
X+596812Y+451321D01*
X+571191Y+476942D01*
X+571191Y+434873D01*
X+596098Y+409966D01*
X+596812Y+410679D01*
X+685188Y+410679D01*
X+747679Y+348188D01*
X+747679Y+259812D01*
X+685188Y+197321D01*
X+596812Y+197321D01*
X+534321Y+259812D01*
X+534321Y+348188D01*
X+535034Y+348902D01*
X+484833Y+399103D01*
X+484833Y+719707D01*
X+472133Y+732407D01*
X+472133Y+778699D01*
X+504866Y+811432D01*
X+534321Y+811432D01*
X+534321Y+856188D01*
X+596812Y+918679D01*
X+685188Y+918679D01*
X+747679Y+856188D01*
X+1317821Y+1575032D02*
X+1317821Y+1528740D01*
X+1305121Y+1516040D01*
X+1305121Y+1420943D01*
X+1354671Y+1371393D01*
X+1354671Y+1451558D01*
X+1413442Y+1510329D01*
X+1496558Y+1510329D01*
X+1555329Y+1451558D01*
X+1555329Y+1368442D01*
X+1496887Y+1310000D01*
X+1555329Y+1251558D01*
X+1555329Y+1168442D01*
X+1496558Y+1109671D01*
X+1413442Y+1109671D01*
X+1354671Y+1168442D01*
X+1354671Y+1249265D01*
X+1218763Y+1385173D01*
X+1218763Y+1516040D01*
X+1206063Y+1528740D01*
X+1206063Y+1575032D01*
X+1238796Y+1607765D01*
X+1285088Y+1607765D01*
X+1317821Y+1575032D01*
X+1482921Y+1935291D02*
X+1482921Y+2044709D01*
X+1560291Y+2122079D01*
X+1669709Y+2122079D01*
X+1747079Y+2044709D01*
X+1747079Y+1935291D01*
X+1669709Y+1857921D01*
X+1560291Y+1857921D01*
X+1482921Y+1935291D01*
X+97921Y+5350291D02*
X+97921Y+5459709D01*
X+175291Y+5537079D01*
X+284709Y+5537079D01*
X+362079Y+5459709D01*
X+362079Y+5350291D01*
X+284709Y+5272921D01*
X+175291Y+5272921D01*
X+97921Y+5350291D01*
X+462921Y+5685291D02*
X+462921Y+5794709D01*
X+540291Y+5872079D01*
X+649709Y+5872079D01*
X+727079Y+5794709D01*
X+727079Y+5685291D01*
X+649709Y+5607921D01*
X+540291Y+5607921D01*
X+462921Y+5685291D01*
X+827921Y+5685291D02*
X+827921Y+5794709D01*
X+905291Y+5872079D01*
X+1014709Y+5872079D01*
X+1092079Y+5794709D01*
X+1092079Y+5685291D01*
X+1014709Y+5607921D01*
X+905291Y+5607921D01*
X+827921Y+5685291D01*
X+1887921Y+2870291D02*
X+1887921Y+2979709D01*
X+1965291Y+3057079D01*
X+2074709Y+3057079D01*
X+2152079Y+2979709D01*
X+2152079Y+2870291D01*
X+2074709Y+2792921D01*
X+1965291Y+2792921D01*
X+1887921Y+2870291D01*
X+2374921Y+1300160D02*
X+2374921Y+1326462D01*
X+2393520Y+1345061D01*
X+2419822Y+1345061D01*
X+2438421Y+1326462D01*
X+2438421Y+1300160D01*
X+2419822Y+1281561D01*
X+2393520Y+1281561D01*
X+2374921Y+1300160D01*
X+718337Y+129500D02*
X+718337Y+155802D01*
X+736936Y+174401D01*
X+763238Y+174401D01*
X+781837Y+155802D01*
X+781837Y+129500D01*
X+763238Y+110901D01*
X+736936Y+110901D01*
X+718337Y+129500D01*
X+1443744Y+1805084D02*
X+1443744Y+1831386D01*
X+1462343Y+1849985D01*
X+1488645Y+1849985D01*
X+1507244Y+1831386D01*
X+1507244Y+1805084D01*
X+1488645Y+1786485D01*
X+1462343Y+1786485D01*
X+1443744Y+1805084D01*
X+6939040Y+60960D02*
X+5143328Y+60960D01*
X+5114621Y+43986D01*
X+5013957Y-139040D01*
X+4804826Y-139040D01*
X+4847941Y-105912D01*
X+4888556Y-49825D01*
X+4912772Y+50000D01*
X+4888556Y+149825D01*
X+4847941Y+205912D01*
X+4799185Y+243374D01*
X+4745024Y+265348D01*
X+4689000Y+272499D01*
X+4632976Y+265348D01*
X+4578815Y+243374D01*
X+4530059Y+205912D01*
X+4489444Y+149825D01*
X+4465228Y+50000D01*
X+4489444Y-49825D01*
X+4530059Y-105912D01*
X+4573174Y-139040D01*
X+1787675Y-139040D01*
X+1702965Y+30380D01*
X+2472298Y+30380D01*
X+2453789Y+11871D01*
X+2453789Y-65983D01*
X+2508841Y-121035D01*
X+2586695Y-121035D01*
X+2641747Y-65983D01*
X+2641747Y+11871D01*
X+2623238Y+30380D01*
X+3191268Y+30380D01*
X+3215789Y+5859D01*
X+3215789Y-65983D01*
X+3270841Y-121035D01*
X+3348695Y-121035D01*
X+3403747Y-65983D01*
X+3403747Y+11871D01*
X+3348695Y+66923D01*
X+3276853Y+66923D01*
X+3272817Y+70959D01*
X+4356050Y+70959D01*
X+4603600Y+318509D01*
X+5387694Y+318509D01*
X+5400394Y+305809D01*
X+5446686Y+305809D01*
X+5479419Y+338542D01*
X+5479419Y+384834D01*
X+5446686Y+417567D01*
X+5400394Y+417567D01*
X+5387694Y+404867D01*
X+4567830Y+404867D01*
X+4415747Y+252784D01*
X+4415747Y+265871D01*
X+4360695Y+320923D01*
X+4306454Y+320923D01*
X+4223179Y+404198D01*
X+4223179Y+549982D01*
X+4257115Y+549982D01*
X+4269815Y+562682D01*
X+4270600Y+562682D01*
X+4227789Y+519871D01*
X+4227789Y+442017D01*
X+4282841Y+386965D01*
X+4360695Y+386965D01*
X+4415747Y+442017D01*
X+4415747Y+491821D01*
X+4994154Y+491821D01*
X+5006854Y+479121D01*
X+5053146Y+479121D01*
X+5085879Y+511854D01*
X+5085879Y+558146D01*
X+5081343Y+562682D01*
X+5806254Y+562682D01*
X+5844121Y+524815D01*
X+5844121Y+501854D01*
X+5876854Y+469121D01*
X+5923146Y+469121D01*
X+5955879Y+501854D01*
X+5955879Y+548146D01*
X+5923146Y+580879D01*
X+5910185Y+580879D01*
X+5842024Y+649040D01*
X+5820982Y+649040D01*
X+5848796Y+676854D01*
X+5848796Y+694815D01*
X+6249321Y+1095340D01*
X+6249321Y+1025812D01*
X+6311812Y+963321D01*
X+6400188Y+963321D01*
X+6462679Y+1025812D01*
X+6462679Y+1114188D01*
X+6401529Y+1175338D01*
X+6415769Y+1175338D01*
X+6675715Y+1435284D01*
X+6675715Y+1488418D01*
X+6692812Y+1471321D01*
X+6781188Y+1471321D01*
X+6843679Y+1533812D01*
X+6843679Y+1622188D01*
X+6781188Y+1684679D01*
X+6692812Y+1684679D01*
X+6675715Y+1667582D01*
X+6675715Y+1709651D01*
X+6692098Y+1726034D01*
X+6692812Y+1725321D01*
X+6781188Y+1725321D01*
X+6843679Y+1787812D01*
X+6843679Y+1876188D01*
X+6781188Y+1938679D01*
X+6692812Y+1938679D01*
X+6630321Y+1876188D01*
X+6630321Y+1787812D01*
X+6631034Y+1787098D01*
X+6589357Y+1745421D01*
X+6589357Y+1471054D01*
X+6462679Y+1344376D01*
X+6462679Y+1368188D01*
X+6461966Y+1368902D01*
X+6554499Y+1461435D01*
X+6554499Y+1787331D01*
X+6567199Y+1800031D01*
X+6567199Y+1846323D01*
X+6534466Y+1879056D01*
X+6488174Y+1879056D01*
X+6462679Y+1853561D01*
X+6462679Y+1876188D01*
X+6400188Y+1938679D01*
X+6325294Y+1938679D01*
X+6325294Y+1979321D01*
X+6400188Y+1979321D01*
X+6462679Y+2041812D01*
X+6462679Y+2130188D01*
X+6443484Y+2149383D01*
X+6612553Y+2149383D01*
X+6631034Y+2130902D01*
X+6630321Y+2130188D01*
X+6630321Y+2041812D01*
X+6692812Y+1979321D01*
X+6781188Y+1979321D01*
X+6843679Y+2041812D01*
X+6843679Y+2130188D01*
X+6781188Y+2192679D01*
X+6692812Y+2192679D01*
X+6692098Y+2191966D01*
X+6648323Y+2235741D01*
X+6402608Y+2235741D01*
X+6462679Y+2295812D01*
X+6462679Y+2384188D01*
X+6444124Y+2402743D01*
X+6535790Y+2402743D01*
X+6630321Y+2308212D01*
X+6630321Y+2295812D01*
X+6692812Y+2233321D01*
X+6781188Y+2233321D01*
X+6843679Y+2295812D01*
X+6843679Y+2384188D01*
X+6781188Y+2446679D01*
X+6692812Y+2446679D01*
X+6653397Y+2407264D01*
X+6605166Y+2455495D01*
X+6623898Y+2474227D01*
X+6623898Y+2520519D01*
X+6611198Y+2533219D01*
X+6611198Y+3492614D01*
X+6623898Y+3505314D01*
X+6623898Y+3551606D01*
X+6591165Y+3584339D01*
X+6570879Y+3584339D01*
X+6570879Y+3628146D01*
X+6538146Y+3660879D01*
X+6491854Y+3660879D01*
X+6462679Y+3631704D01*
X+6462679Y+3654188D01*
X+6402136Y+3714731D01*
X+6420697Y+3714731D01*
X+6673533Y+3967567D01*
X+6673533Y+4030600D01*
X+6692812Y+4011321D01*
X+6781188Y+4011321D01*
X+6843679Y+4073812D01*
X+6843679Y+4162188D01*
X+6781188Y+4224679D01*
X+6692812Y+4224679D01*
X+6673533Y+4205400D01*
X+6673533Y+4284600D01*
X+6692812Y+4265321D01*
X+6781188Y+4265321D01*
X+6843679Y+4327812D01*
X+6843679Y+4416188D01*
X+6781188Y+4478679D01*
X+6692812Y+4478679D01*
X+6673533Y+4459400D01*
X+6673533Y+4501469D01*
X+6692098Y+4520034D01*
X+6692812Y+4519321D01*
X+6781188Y+4519321D01*
X+6843679Y+4581812D01*
X+6843679Y+4670188D01*
X+6781188Y+4732679D01*
X+6692812Y+4732679D01*
X+6630321Y+4670188D01*
X+6630321Y+4581812D01*
X+6631034Y+4581098D01*
X+6587175Y+4537239D01*
X+6587175Y+4003337D01*
X+6575187Y+3991349D01*
X+6575187Y+4021564D01*
X+6562487Y+4034264D01*
X+6562487Y+4125463D01*
X+6411408Y+4276542D01*
X+6462679Y+4327812D01*
X+6462679Y+4416188D01*
X+6400188Y+4478679D01*
X+6311812Y+4478679D01*
X+6249321Y+4416188D01*
X+6249321Y+4327812D01*
X+6294196Y+4282937D01*
X+6287705Y+4276446D01*
X+6287705Y+4230154D01*
X+6302496Y+4215363D01*
X+6249321Y+4162188D01*
X+6249321Y+4073812D01*
X+6311812Y+4011321D01*
X+6400188Y+4011321D01*
X+6462679Y+4073812D01*
X+6462679Y+4103143D01*
X+6476129Y+4089693D01*
X+6476129Y+4034264D01*
X+6463429Y+4021564D01*
X+6463429Y+3975272D01*
X+6496162Y+3942539D01*
X+6526377Y+3942539D01*
X+6462679Y+3878841D01*
X+6462679Y+3908188D01*
X+6400188Y+3970679D01*
X+6311812Y+3970679D01*
X+6263202Y+3922069D01*
X+6067894Y+3922069D01*
X+6047469Y+3942494D01*
X+6047469Y+4049196D01*
X+5940767Y+4049196D01*
X+5877824Y+4112139D01*
X+5696498Y+4112139D01*
X+5667288Y+4141349D01*
X+5599954Y+4141349D01*
X+5552342Y+4093737D01*
X+5552342Y+4049196D01*
X+5432531Y+4049196D01*
X+5432531Y+3843458D01*
X+5587469Y+3843458D01*
X+5587469Y+3903148D01*
X+5692531Y+3903148D01*
X+5692531Y+3843458D01*
X+5847469Y+3843458D01*
X+5847469Y+3890819D01*
X+5892531Y+3890819D01*
X+5892531Y+3856379D01*
X+5847469Y+3811317D01*
X+5847469Y+3814196D01*
X+5692531Y+3814196D01*
X+5692531Y+3749506D01*
X+5587469Y+3749506D01*
X+5587469Y+3809196D01*
X+5432531Y+3809196D01*
X+5432531Y+3603458D01*
X+5587469Y+3603458D01*
X+5587469Y+3663148D01*
X+5692531Y+3663148D01*
X+5692531Y+3608458D01*
X+5847469Y+3608458D01*
X+5847469Y+3689189D01*
X+5892531Y+3734251D01*
X+5892531Y+3608458D01*
X+5917931Y+3608458D01*
X+5917931Y+3559196D01*
X+5892531Y+3559196D01*
X+5892531Y+3516425D01*
X+5886209Y+3522747D01*
X+5847469Y+3522747D01*
X+5847469Y+3559196D01*
X+5692531Y+3559196D01*
X+5692531Y+3499506D01*
X+5587469Y+3499506D01*
X+5587469Y+3559196D01*
X+5432531Y+3559196D01*
X+5432531Y+3353458D01*
X+5587469Y+3353458D01*
X+5587469Y+3413148D01*
X+5692531Y+3413148D01*
X+5692531Y+3353458D01*
X+5847469Y+3353458D01*
X+5847469Y+3410989D01*
X+5886209Y+3410989D01*
X+5892531Y+3417311D01*
X+5892531Y+3353458D01*
X+5917931Y+3353458D01*
X+5917931Y+3319196D01*
X+5892531Y+3319196D01*
X+5892531Y+3274039D01*
X+5850500Y+3274039D01*
X+5847469Y+3271008D01*
X+5847469Y+3319196D01*
X+5692531Y+3319196D01*
X+5692531Y+3254506D01*
X+5587469Y+3254506D01*
X+5587469Y+3314196D01*
X+5432531Y+3314196D01*
X+5432531Y+3108458D01*
X+5587469Y+3108458D01*
X+5587469Y+3168148D01*
X+5692531Y+3168148D01*
X+5692531Y+3113458D01*
X+5847469Y+3113458D01*
X+5847469Y+3165312D01*
X+5850500Y+3162281D01*
X+5892531Y+3162281D01*
X+5892531Y+3113458D01*
X+5917931Y+3113458D01*
X+5917931Y+2954373D01*
X+5886531Y+2922973D01*
X+5886531Y+2855639D01*
X+5915741Y+2826429D01*
X+5915741Y+2777387D01*
X+5873212Y+2819916D01*
X+5805878Y+2819916D01*
X+5758266Y+2772304D01*
X+5758266Y+2730994D01*
X+5694639Y+2667367D01*
X+5694639Y+2673979D01*
X+5593017Y+2673979D01*
X+5534692Y+2732304D01*
X+5264273Y+2732304D01*
X+5264273Y+2752945D01*
X+5291809Y+2780481D01*
X+5291809Y+2847815D01*
X+5244197Y+2895427D01*
X+5176863Y+2895427D01*
X+5129251Y+2847815D01*
X+5129251Y+2780481D01*
X+5160135Y+2749597D01*
X+5160135Y+2732304D01*
X+5128668Y+2732304D01*
X+5070342Y+2673979D01*
X+5029657Y+2673979D01*
X+4825744Y+2877892D01*
X+5067629Y+2877892D01*
X+5298195Y+3108458D01*
X+5387469Y+3108458D01*
X+5387469Y+3314196D01*
X+5258933Y+3314196D01*
X+5298195Y+3353458D01*
X+5387469Y+3353458D01*
X+5387469Y+3559196D01*
X+5232531Y+3559196D01*
X+5232531Y+3409922D01*
X+4827422Y+3004813D01*
X+4611700Y+3004813D01*
X+4625329Y+3018442D01*
X+4625329Y+3101558D01*
X+4611240Y+3115647D01*
X+4780384Y+3115647D01*
X+5268195Y+3603458D01*
X+5387469Y+3603458D01*
X+5387469Y+3809196D01*
X+5250694Y+3809196D01*
X+5284956Y+3843458D01*
X+5387469Y+3843458D01*
X+5387469Y+4049196D01*
X+5232531Y+4049196D01*
X+5232531Y+3913161D01*
X+5196664Y+3877294D01*
X+5196664Y+4427639D01*
X+5200879Y+4431854D01*
X+5200879Y+4478146D01*
X+5168146Y+4510879D01*
X+5121854Y+4510879D01*
X+5089121Y+4478146D01*
X+5089121Y+4431854D01*
X+5110306Y+4410669D01*
X+5110306Y+3788868D01*
X+5060960Y+3739522D01*
X+5060960Y+5939040D01*
X+6939040Y+5939040D01*
X+6939040Y+60960D01*
X+6055329Y+5811558D02*
X+6055329Y+5728442D01*
X+5996887Y+5670000D01*
X+6055329Y+5611558D01*
X+6055329Y+5528442D01*
X+5996558Y+5469671D01*
X+5951393Y+5469671D01*
X+6057182Y+5363882D01*
X+6057182Y+5358882D01*
X+6175584Y+5240480D01*
X+6175584Y+4542136D01*
X+6159406Y+4525958D01*
X+6159406Y+4507997D01*
X+6126673Y+4475264D01*
X+6080381Y+4475264D01*
X+6047648Y+4507997D01*
X+6047648Y+4554289D01*
X+6080381Y+4587022D01*
X+6089226Y+4587022D01*
X+6089226Y+4997957D01*
X+6071941Y+4974088D01*
X+6059182Y+4964284D01*
X+6023185Y+4936626D01*
X+5969024Y+4914652D01*
X+5961168Y+4913649D01*
X+5913000Y+4907501D01*
X+5856976Y+4914652D01*
X+5849632Y+4917631D01*
X+5803179Y+4936478D01*
X+5803179Y+4550846D01*
X+5815879Y+4538146D01*
X+5815879Y+4491854D01*
X+5783146Y+4459121D01*
X+5736854Y+4459121D01*
X+5704121Y+4491854D01*
X+5704121Y+4538146D01*
X+5716821Y+4550846D01*
X+5716821Y+4952494D01*
X+5511821Y+5157494D01*
X+5511821Y+5471292D01*
X+5455000Y+5528113D01*
X+5418179Y+5491292D01*
X+5418179Y+4550846D01*
X+5430879Y+4538146D01*
X+5430879Y+4491854D01*
X+5398146Y+4459121D01*
X+5351854Y+4459121D01*
X+5319121Y+4491854D01*
X+5319121Y+4538146D01*
X+5331821Y+4550846D01*
X+5331821Y+5469671D01*
X+5313442Y+5469671D01*
X+5254671Y+5528442D01*
X+5254671Y+5611558D01*
X+5313113Y+5670000D01*
X+5254671Y+5728442D01*
X+5254671Y+5811558D01*
X+5313442Y+5870329D01*
X+5396558Y+5870329D01*
X+5455000Y+5811887D01*
X+5513442Y+5870329D01*
X+5596558Y+5870329D01*
X+5655000Y+5811887D01*
X+5713442Y+5870329D01*
X+5796558Y+5870329D01*
X+5855000Y+5811887D01*
X+5913442Y+5870329D01*
X+5996558Y+5870329D01*
X+6055329Y+5811558D01*
X+6327594Y+4948579D02*
X+6384406Y+4948579D01*
X+6424579Y+4908406D01*
X+6424579Y+4851594D01*
X+6384406Y+4811421D01*
X+6327594Y+4811421D01*
X+6287421Y+4851594D01*
X+6287421Y+4908406D01*
X+6327594Y+4948579D01*
X+6692812Y+4986679D02*
X+6781188Y+4986679D01*
X+6843679Y+4924188D01*
X+6843679Y+4835812D01*
X+6781188Y+4773321D01*
X+6692812Y+4773321D01*
X+6630321Y+4835812D01*
X+6630321Y+4924188D01*
X+6692812Y+4986679D01*
X+6311812Y+4732679D02*
X+6400188Y+4732679D01*
X+6462679Y+4670188D01*
X+6462679Y+4581812D01*
X+6400188Y+4519321D01*
X+6311812Y+4519321D01*
X+6249321Y+4581812D01*
X+6249321Y+4670188D01*
X+6311812Y+4732679D01*
X+6692812Y+3970679D02*
X+6781188Y+3970679D01*
X+6843679Y+3908188D01*
X+6843679Y+3819812D01*
X+6781188Y+3757321D01*
X+6692812Y+3757321D01*
X+6630321Y+3819812D01*
X+6630321Y+3908188D01*
X+6692812Y+3970679D01*
X+6692812Y+3716679D02*
X+6781188Y+3716679D01*
X+6843679Y+3654188D01*
X+6843679Y+3565812D01*
X+6781188Y+3503321D01*
X+6692812Y+3503321D01*
X+6630321Y+3565812D01*
X+6630321Y+3654188D01*
X+6692812Y+3716679D01*
X+6692812Y+3462679D02*
X+6781188Y+3462679D01*
X+6843679Y+3400188D01*
X+6843679Y+3311812D01*
X+6781188Y+3249321D01*
X+6692812Y+3249321D01*
X+6630321Y+3311812D01*
X+6630321Y+3400188D01*
X+6692812Y+3462679D01*
X+6692812Y+3208679D02*
X+6781188Y+3208679D01*
X+6843679Y+3146188D01*
X+6843679Y+3057812D01*
X+6781188Y+2995321D01*
X+6692812Y+2995321D01*
X+6630321Y+3057812D01*
X+6630321Y+3146188D01*
X+6692812Y+3208679D01*
X+6692812Y+2954679D02*
X+6781188Y+2954679D01*
X+6843679Y+2892188D01*
X+6843679Y+2803812D01*
X+6781188Y+2741321D01*
X+6692812Y+2741321D01*
X+6630321Y+2803812D01*
X+6630321Y+2892188D01*
X+6692812Y+2954679D01*
X+6692812Y+2700679D02*
X+6781188Y+2700679D01*
X+6843679Y+2638188D01*
X+6843679Y+2549812D01*
X+6781188Y+2487321D01*
X+6692812Y+2487321D01*
X+6630321Y+2549812D01*
X+6630321Y+2638188D01*
X+6692812Y+2700679D01*
X+6692812Y+1430679D02*
X+6781188Y+1430679D01*
X+6843679Y+1368188D01*
X+6843679Y+1279812D01*
X+6781188Y+1217321D01*
X+6692812Y+1217321D01*
X+6630321Y+1279812D01*
X+6630321Y+1368188D01*
X+6692812Y+1430679D01*
X+6692812Y+1176679D02*
X+6781188Y+1176679D01*
X+6843679Y+1114188D01*
X+6843679Y+1025812D01*
X+6781188Y+963321D01*
X+6692812Y+963321D01*
X+6630321Y+1025812D01*
X+6630321Y+1114188D01*
X+6692812Y+1176679D01*
X+6311812Y+922679D02*
X+6400188Y+922679D01*
X+6462679Y+860188D01*
X+6462679Y+771812D01*
X+6400188Y+709321D01*
X+6311812Y+709321D01*
X+6249321Y+771812D01*
X+6249321Y+860188D01*
X+6311812Y+922679D01*
X+6692812Y+922679D02*
X+6781188Y+922679D01*
X+6843679Y+860188D01*
X+6843679Y+771812D01*
X+6781188Y+709321D01*
X+6692812Y+709321D01*
X+6630321Y+771812D01*
X+6630321Y+860188D01*
X+6692812Y+922679D01*
X+6311812Y+668679D02*
X+6400188Y+668679D01*
X+6462679Y+606188D01*
X+6462679Y+517812D01*
X+6400188Y+455321D01*
X+6311812Y+455321D01*
X+6249321Y+517812D01*
X+6249321Y+606188D01*
X+6311812Y+668679D01*
X+6692812Y+668679D02*
X+6781188Y+668679D01*
X+6843679Y+606188D01*
X+6843679Y+517812D01*
X+6781188Y+455321D01*
X+6692812Y+455321D01*
X+6630321Y+517812D01*
X+6630321Y+606188D01*
X+6692812Y+668679D01*
X+6311812Y+414679D02*
X+6400188Y+414679D01*
X+6462679Y+352188D01*
X+6462679Y+263812D01*
X+6400188Y+201321D01*
X+6311812Y+201321D01*
X+6249321Y+263812D01*
X+6249321Y+352188D01*
X+6311812Y+414679D01*
X+6692812Y+414679D02*
X+6781188Y+414679D01*
X+6843679Y+352188D01*
X+6843679Y+263812D01*
X+6781188Y+201321D01*
X+6692812Y+201321D01*
X+6630321Y+263812D01*
X+6630321Y+352188D01*
X+6692812Y+414679D01*
X+3520841Y+66923D02*
X+3598695Y+66923D01*
X+3653747Y+11871D01*
X+3653747Y-65983D01*
X+3598695Y-121035D01*
X+3520841Y-121035D01*
X+3465789Y-65983D01*
X+3465789Y+11871D01*
X+3520841Y+66923D01*
X+4282841Y+66923D02*
X+4360695Y+66923D01*
X+4415747Y+11871D01*
X+4415747Y-65983D01*
X+4360695Y-121035D01*
X+4282841Y-121035D01*
X+4227789Y-65983D01*
X+4227789Y+11871D01*
X+4282841Y+66923D01*
X+6743250Y+5801849D02*
X+6743250Y+5828151D01*
X+6761849Y+5846750D01*
X+6788151Y+5846750D01*
X+6806750Y+5828151D01*
X+6806750Y+5801849D01*
X+6788151Y+5783250D01*
X+6761849Y+5783250D01*
X+6743250Y+5801849D01*
X+6248250Y+111849D02*
X+6248250Y+138151D01*
X+6266849Y+156750D01*
X+6293151Y+156750D01*
X+6311750Y+138151D01*
X+6311750Y+111849D01*
X+6293151Y+93250D01*
X+6266849Y+93250D01*
X+6248250Y+111849D01*
X+5138250Y+5056849D02*
X+5138250Y+5083151D01*
X+5156849Y+5101750D01*
X+5183151Y+5101750D01*
X+5201750Y+5083151D01*
X+5201750Y+5056849D01*
X+5183151Y+5038250D01*
X+5156849Y+5038250D01*
X+5138250Y+5056849D01*
X+6208250Y+956849D02*
X+6208250Y+983151D01*
X+6226849Y+1001750D01*
X+6253151Y+1001750D01*
X+6271750Y+983151D01*
X+6271750Y+956849D01*
X+6253151Y+938250D01*
X+6226849Y+938250D01*
X+6208250Y+956849D01*
X+3964265Y+3360329D02*
X+3883442Y+3360329D01*
X+3825000Y+3301887D01*
X+3766558Y+3360329D01*
X+3683442Y+3360329D01*
X+3625000Y+3301887D01*
X+3566558Y+3360329D01*
X+3483442Y+3360329D01*
X+3424671Y+3301558D01*
X+3424671Y+3218442D01*
X+3483113Y+3160000D01*
X+3424671Y+3101558D01*
X+3424671Y+3018442D01*
X+3483442Y+2959671D01*
X+3566558Y+2959671D01*
X+3625000Y+3018113D01*
X+3683442Y+2959671D01*
X+3766558Y+2959671D01*
X+3825000Y+3018113D01*
X+3883442Y+2959671D01*
X+3964265Y+2959671D01*
X+4024628Y+2899308D01*
X+2574648Y+2899308D01*
X+2112406Y+3361550D01*
X+2151869Y+3361550D01*
X+2164569Y+3374250D01*
X+3978186Y+3374250D01*
X+3964265Y+3360329D01*
X+6294969Y+3714731D02*
X+6309864Y+3714731D01*
X+6249321Y+3654188D01*
X+6249321Y+3653179D01*
X+6192115Y+3653179D01*
X+6064938Y+3526002D01*
X+6061900Y+2835925D01*
X+6049121Y+2823146D01*
X+6049121Y+2776854D01*
X+6081854Y+2744121D01*
X+6128146Y+2744121D01*
X+6160879Y+2776854D01*
X+6160879Y+2823146D01*
X+6148403Y+2835622D01*
X+6151144Y+3490080D01*
X+6157932Y+3496868D01*
X+6170477Y+3484322D01*
X+6170477Y+2718459D01*
X+6250034Y+2638902D01*
X+6249321Y+2638188D01*
X+6249321Y+2549812D01*
X+6310032Y+2489101D01*
X+6217777Y+2489101D01*
X+5557520Y+1828844D01*
X+5539559Y+1828844D01*
X+5506826Y+1796111D01*
X+5506826Y+1749819D01*
X+5539559Y+1717086D01*
X+5585851Y+1717086D01*
X+5618584Y+1749819D01*
X+5618584Y+1767780D01*
X+6253547Y+2402743D01*
X+6267876Y+2402743D01*
X+6249321Y+2384188D01*
X+6249321Y+2295812D01*
X+6309392Y+2235741D01*
X+6159677Y+2235741D01*
X+6039815Y+2115879D01*
X+6021854Y+2115879D01*
X+5989121Y+2083146D01*
X+5989121Y+2036854D01*
X+6021854Y+2004121D01*
X+6068146Y+2004121D01*
X+6100879Y+2036854D01*
X+6100879Y+2054815D01*
X+6195447Y+2149383D01*
X+6268516Y+2149383D01*
X+6249321Y+2130188D01*
X+6249321Y+2041812D01*
X+6257203Y+2033930D01*
X+6210348Y+2033930D01*
X+6162736Y+1986318D01*
X+6162736Y+1945008D01*
X+6147157Y+1929429D01*
X+6056870Y+1929429D01*
X+6027660Y+1958639D01*
X+5960326Y+1958639D01*
X+5912714Y+1911027D01*
X+5912714Y+1843693D01*
X+5960326Y+1796081D01*
X+6027660Y+1796081D01*
X+6056870Y+1825291D01*
X+6190291Y+1825291D01*
X+6236372Y+1871372D01*
X+6249321Y+1871372D01*
X+6249321Y+1787812D01*
X+6311812Y+1725321D01*
X+6400188Y+1725321D01*
X+6462679Y+1787812D01*
X+6462679Y+1792793D01*
X+6468141Y+1787331D01*
X+6468141Y+1497205D01*
X+6400902Y+1429966D01*
X+6400188Y+1430679D01*
X+6311812Y+1430679D01*
X+6249321Y+1368188D01*
X+6249321Y+1279812D01*
X+6280493Y+1248640D01*
X+5787732Y+755879D01*
X+5769771Y+755879D01*
X+5737038Y+723146D01*
X+5737038Y+676854D01*
X+5764852Y+649040D01*
X+4785310Y+649040D01*
X+4812748Y+676478D01*
X+4812748Y+702712D01*
X+5142640Y+1032604D01*
X+5160601Y+1032604D01*
X+5193334Y+1065337D01*
X+5193334Y+1107479D01*
X+5327101Y+1107479D01*
X+5339801Y+1094779D01*
X+5386093Y+1094779D01*
X+5418826Y+1127512D01*
X+5418826Y+1173804D01*
X+5386093Y+1206537D01*
X+5339801Y+1206537D01*
X+5327101Y+1193837D01*
X+4405567Y+1193837D01*
X+4415747Y+1204017D01*
X+4415747Y+1275859D01*
X+4438875Y+1298987D01*
X+5816809Y+1298987D01*
X+5829509Y+1286287D01*
X+5875801Y+1286287D01*
X+5908534Y+1319020D01*
X+5908534Y+1365312D01*
X+5875801Y+1398045D01*
X+5829509Y+1398045D01*
X+5816809Y+1385345D01*
X+4403105Y+1385345D01*
X+4354683Y+1336923D01*
X+4282841Y+1336923D01*
X+4227789Y+1281871D01*
X+4227789Y+1204017D01*
X+4271430Y+1160376D01*
X+4270650Y+1159595D01*
X+4270650Y+1113303D01*
X+4301030Y+1082923D01*
X+4282841Y+1082923D01*
X+4227789Y+1027871D01*
X+4227789Y+950017D01*
X+4282841Y+894965D01*
X+4360695Y+894965D01*
X+4415747Y+950017D01*
X+4415747Y+1027871D01*
X+4360695Y+1082923D01*
X+4352028Y+1082923D01*
X+4376584Y+1107479D01*
X+5081576Y+1107479D01*
X+5081576Y+1093668D01*
X+4743411Y+755503D01*
X+4733723Y+755503D01*
X+4700990Y+722770D01*
X+4700990Y+676478D01*
X+4728428Y+649040D01*
X+4368770Y+649040D01*
X+4415747Y+696017D01*
X+4415747Y+773871D01*
X+4360695Y+828923D01*
X+4282841Y+828923D01*
X+4227789Y+773871D01*
X+4227789Y+696017D01*
X+4274766Y+649040D01*
X+4269815Y+649040D01*
X+4257115Y+661740D01*
X+4223179Y+661740D01*
X+4223179Y+1502885D01*
X+3835099Y+1890965D01*
X+3846111Y+1890965D01*
X+3905890Y+1831186D01*
X+4253646Y+1831186D01*
X+4313425Y+1890965D01*
X+4372695Y+1890965D01*
X+4427747Y+1946017D01*
X+4427747Y+2023871D01*
X+4389797Y+2061821D01*
X+5482885Y+2061821D01*
X+5520185Y+2099121D01*
X+5538146Y+2099121D01*
X+5570879Y+2131854D01*
X+5570879Y+2178146D01*
X+5538146Y+2210879D01*
X+5491854Y+2210879D01*
X+5459121Y+2178146D01*
X+5459121Y+2160185D01*
X+5447115Y+2148179D01*
X+3186085Y+2148179D01*
X+2852947Y+2481317D01*
X+2852947Y+2657217D01*
X+2903747Y+2708017D01*
X+2903747Y+2785871D01*
X+2894448Y+2795170D01*
X+2979088Y+2795170D01*
X+2969789Y+2785871D01*
X+2969789Y+2708017D01*
X+3024841Y+2652965D01*
X+3096683Y+2652965D01*
X+3382827Y+2366821D01*
X+3939154Y+2366821D01*
X+3951854Y+2354121D01*
X+3998146Y+2354121D01*
X+4030879Y+2386854D01*
X+4030879Y+2433146D01*
X+3998146Y+2465879D01*
X+3951854Y+2465879D01*
X+3939154Y+2453179D01*
X+3418597Y+2453179D01*
X+3157747Y+2714029D01*
X+3157747Y+2785871D01*
X+3148448Y+2795170D01*
X+3233088Y+2795170D01*
X+3223789Y+2785871D01*
X+3223789Y+2708017D01*
X+3278841Y+2652965D01*
X+3356695Y+2652965D01*
X+3411747Y+2708017D01*
X+3411747Y+2785871D01*
X+3402448Y+2795170D01*
X+3487088Y+2795170D01*
X+3477789Y+2785871D01*
X+3477789Y+2708017D01*
X+3532841Y+2652965D01*
X+3610695Y+2652965D01*
X+3665747Y+2708017D01*
X+3665747Y+2785871D01*
X+3656448Y+2795170D01*
X+3741088Y+2795170D01*
X+3731789Y+2785871D01*
X+3731789Y+2708017D01*
X+3786841Y+2652965D01*
X+3864695Y+2652965D01*
X+3919747Y+2708017D01*
X+3919747Y+2785871D01*
X+3910448Y+2795170D01*
X+3995088Y+2795170D01*
X+3985789Y+2785871D01*
X+3985789Y+2708017D01*
X+4040841Y+2652965D01*
X+4118695Y+2652965D01*
X+4173747Y+2708017D01*
X+4173747Y+2785871D01*
X+4164448Y+2795170D01*
X+4249088Y+2795170D01*
X+4239789Y+2785871D01*
X+4239789Y+2708017D01*
X+4294841Y+2652965D01*
X+4372695Y+2652965D01*
X+4427747Y+2708017D01*
X+4427747Y+2785871D01*
X+4418448Y+2795170D01*
X+4761194Y+2795170D01*
X+4882385Y+2673979D01*
X+4755361Y+2673979D01*
X+4755361Y+2543088D01*
X+4602010Y+2389737D01*
X+4560700Y+2389737D01*
X+4513088Y+2342125D01*
X+4513088Y+2274791D01*
X+4560700Y+2227179D01*
X+4628034Y+2227179D01*
X+4675646Y+2274791D01*
X+4675646Y+2316101D01*
X+4845566Y+2486021D01*
X+4856983Y+2486021D01*
X+4925001Y+2418003D01*
X+5311639Y+2418003D01*
X+5379657Y+2486021D01*
X+5420343Y+2486021D01*
X+5478703Y+2427661D01*
X+5736297Y+2427661D01*
X+6019879Y+2711243D01*
X+6019879Y+2826429D01*
X+6049089Y+2855639D01*
X+6049089Y+2922973D01*
X+6022069Y+2949993D01*
X+6022069Y+3113458D01*
X+6047469Y+3113458D01*
X+6047469Y+3319196D01*
X+6022069Y+3319196D01*
X+6022069Y+3353458D01*
X+6047469Y+3353458D01*
X+6047469Y+3559196D01*
X+6022069Y+3559196D01*
X+6022069Y+3608458D01*
X+6047469Y+3608458D01*
X+6047469Y+3775585D01*
X+6234115Y+3775585D01*
X+6294969Y+3714731D01*
X+6311812Y+1684679D02*
X+6400188Y+1684679D01*
X+6462679Y+1622188D01*
X+6462679Y+1533812D01*
X+6400188Y+1471321D01*
X+6311812Y+1471321D01*
X+6249321Y+1533812D01*
X+6249321Y+1622188D01*
X+6311812Y+1684679D01*
X+4282841Y+1590923D02*
X+4360695Y+1590923D01*
X+4415747Y+1535871D01*
X+4415747Y+1458017D01*
X+4360695Y+1402965D01*
X+4282841Y+1402965D01*
X+4227789Y+1458017D01*
X+4227789Y+1535871D01*
X+4282841Y+1590923D01*
X+4282841Y+1844923D02*
X+4360695Y+1844923D01*
X+4415747Y+1789871D01*
X+4415747Y+1712017D01*
X+4360695Y+1656965D01*
X+4282841Y+1656965D01*
X+4227789Y+1712017D01*
X+4227789Y+1789871D01*
X+4282841Y+1844923D01*
X+4947723Y+680629D02*
X+4947723Y+706931D01*
X+4966322Y+725530D01*
X+4992624Y+725530D01*
X+5011223Y+706931D01*
X+5011223Y+680629D01*
X+4992624Y+662030D01*
X+4966322Y+662030D01*
X+4947723Y+680629D01*
X+4515366Y+939738D02*
X+4515366Y+966040D01*
X+4533965Y+984639D01*
X+4560267Y+984639D01*
X+4578866Y+966040D01*
X+4578866Y+939738D01*
X+4560267Y+921139D01*
X+4533965Y+921139D01*
X+4515366Y+939738D01*
X+2339070Y+2186126D02*
X+2339070Y+2139834D01*
X+2371803Y+2107101D01*
X+2372547Y+2107101D01*
X+2461789Y+2017859D01*
X+2461789Y+1890965D01*
X+2588683Y+1890965D01*
X+2600323Y+1879325D01*
X+2600323Y+1844923D01*
X+2453789Y+1844923D01*
X+2453789Y+1656965D01*
X+2600323Y+1656965D01*
X+2600323Y+1577295D01*
X+2586695Y+1590923D01*
X+2508841Y+1590923D01*
X+2458041Y+1540123D01*
X+2180941Y+1540123D01*
X+2176393Y+1544671D01*
X+2256558Y+1544671D01*
X+2315329Y+1603442D01*
X+2315329Y+1686558D01*
X+2256887Y+1745000D01*
X+2315329Y+1803442D01*
X+2315329Y+1883607D01*
X+2342115Y+1856821D01*
X+2364154Y+1856821D01*
X+2376854Y+1844121D01*
X+2423146Y+1844121D01*
X+2455879Y+1876854D01*
X+2455879Y+1923146D01*
X+2423146Y+1955879D01*
X+2376854Y+1955879D01*
X+2371020Y+1950044D01*
X+2315329Y+2005735D01*
X+2315329Y+2086558D01*
X+2256887Y+2145000D01*
X+2313708Y+2201821D01*
X+2354765Y+2201821D01*
X+2339070Y+2186126D01*
X+3045013Y+2078923D02*
X+3024841Y+2078923D01*
X+2969789Y+2023871D01*
X+2969789Y+1946017D01*
X+3024841Y+1890965D01*
X+3102695Y+1890965D01*
X+3157747Y+1946017D01*
X+3157747Y+1966189D01*
X+3184222Y+1939714D01*
X+3184222Y+1813094D01*
X+3175233Y+1804105D01*
X+3175233Y+1573703D01*
X+3215789Y+1533147D01*
X+3215789Y+1458017D01*
X+3270841Y+1402965D01*
X+3348695Y+1402965D01*
X+3403747Y+1458017D01*
X+3403747Y+1535871D01*
X+3348695Y+1590923D01*
X+3280141Y+1590923D01*
X+3261591Y+1609473D01*
X+3261591Y+1666215D01*
X+3270841Y+1656965D01*
X+3348695Y+1656965D01*
X+3403747Y+1712017D01*
X+3403747Y+1789871D01*
X+3348695Y+1844923D01*
X+3270841Y+1844923D01*
X+3270580Y+1844662D01*
X+3270580Y+1899226D01*
X+3278841Y+1890965D01*
X+3350683Y+1890965D01*
X+3420634Y+1821014D01*
X+3420634Y+1575014D01*
X+3465789Y+1529859D01*
X+3465789Y+1458017D01*
X+3520841Y+1402965D01*
X+3598695Y+1402965D01*
X+3653747Y+1458017D01*
X+3653747Y+1535871D01*
X+3598695Y+1590923D01*
X+3526853Y+1590923D01*
X+3506992Y+1610784D01*
X+3506992Y+1656965D01*
X+3653747Y+1656965D01*
X+3653747Y+1844923D01*
X+3506992Y+1844923D01*
X+3506992Y+1856784D01*
X+3411747Y+1952029D01*
X+3411747Y+2023871D01*
X+3373797Y+2061821D01*
X+3515739Y+2061821D01*
X+3477789Y+2023871D01*
X+3477789Y+1946017D01*
X+3532841Y+1890965D01*
X+3610695Y+1890965D01*
X+3661495Y+1941765D01*
X+3662171Y+1941765D01*
X+4136821Y+1467115D01*
X+4136821Y+770201D01*
X+4120229Y+786793D01*
X+4073937Y+786793D01*
X+4061237Y+774093D01*
X+3670983Y+774093D01*
X+3653747Y+756857D01*
X+3653747Y+773871D01*
X+3598695Y+828923D01*
X+3520841Y+828923D01*
X+3465789Y+773871D01*
X+3465789Y+696017D01*
X+3520841Y+640965D01*
X+3537855Y+640965D01*
X+3516013Y+619123D01*
X+3048137Y+619123D01*
X+3042997Y+624263D01*
X+2996705Y+624263D01*
X+2965819Y+593377D01*
X+2848179Y+711017D01*
X+2848179Y+795287D01*
X+2870441Y+773025D01*
X+2916733Y+773025D01*
X+2929433Y+785725D01*
X+3227643Y+785725D01*
X+3215789Y+773871D01*
X+3215789Y+696017D01*
X+3270841Y+640965D01*
X+3348695Y+640965D01*
X+3403747Y+696017D01*
X+3403747Y+773871D01*
X+3391893Y+785725D01*
X+3417613Y+785725D01*
X+3526853Y+894965D01*
X+3598695Y+894965D01*
X+3653747Y+950017D01*
X+3653747Y+1024837D01*
X+3687969Y+990615D01*
X+3687969Y+972654D01*
X+3720702Y+939921D01*
X+3766994Y+939921D01*
X+3799727Y+972654D01*
X+3799727Y+1018946D01*
X+3766994Y+1051679D01*
X+3749033Y+1051679D01*
X+3687533Y+1113179D01*
X+3621259Y+1113179D01*
X+3585473Y+1148965D01*
X+3598695Y+1148965D01*
X+3653747Y+1204017D01*
X+3653747Y+1281871D01*
X+3598695Y+1336923D01*
X+3520841Y+1336923D01*
X+3465789Y+1281871D01*
X+3465789Y+1268649D01*
X+3448315Y+1286123D01*
X+3399495Y+1286123D01*
X+3348695Y+1336923D01*
X+3270841Y+1336923D01*
X+3215789Y+1281871D01*
X+3215789Y+1204017D01*
X+3270841Y+1148965D01*
X+3348695Y+1148965D01*
X+3399495Y+1199765D01*
X+3412545Y+1199765D01*
X+3529387Y+1082923D01*
X+3520841Y+1082923D01*
X+3465789Y+1027871D01*
X+3465789Y+956029D01*
X+3381843Y+872083D01*
X+2929433Y+872083D01*
X+2916733Y+884783D01*
X+2870441Y+884783D01*
X+2848179Y+862521D01*
X+2848179Y+1890965D01*
X+2848695Y+1890965D01*
X+2903747Y+1946017D01*
X+2903747Y+2023871D01*
X+2848695Y+2078923D01*
X+2770841Y+2078923D01*
X+2715789Y+2023871D01*
X+2715789Y+1946017D01*
X+2761821Y+1899985D01*
X+2761821Y+1718088D01*
X+2744396Y+1735513D01*
X+2698104Y+1735513D01*
X+2686681Y+1724090D01*
X+2686681Y+1915095D01*
X+2649747Y+1952029D01*
X+2649747Y+2078923D01*
X+2522853Y+2078923D01*
X+2450828Y+2150948D01*
X+2450828Y+2186126D01*
X+2435133Y+2201821D01*
X+2922114Y+2201822D01*
X+3045013Y+2078923D01*
X+3270841Y+1082923D02*
X+3348695Y+1082923D01*
X+3403747Y+1027871D01*
X+3403747Y+950017D01*
X+3348695Y+894965D01*
X+3270841Y+894965D01*
X+3215789Y+950017D01*
X+3215789Y+1027871D01*
X+3270841Y+1082923D01*
X+2547768Y+1844923D02*
X+2547768Y+1750944D01*
X+2547768Y+1656965D02*
X+2547768Y+1750944D01*
X+2453789Y+1750944D02*
X+2547768Y+1750944D01*
X+3559768Y+1844923D02*
X+3559768Y+1750944D01*
X+3559768Y+1656965D02*
X+3559768Y+1750944D01*
X+3653747Y+1750944D02*
X+3559768Y+1750944D01*
X+2461789Y+2746944D02*
X+2555768Y+2746944D01*
X+2649747Y+2746944D02*
X+2555768Y+2746944D01*
X+2555768Y+2652965D02*
X+2555768Y+2746944D01*
X+641000Y+2950679D02*
X+641000Y+2844000D01*
X+641000Y+2737321D02*
X+641000Y+2844000D01*
X+747679Y+2844000D02*
X+641000Y+2844000D01*
X+1914671Y+2445000D02*
X+2015000Y+2445000D01*
X+462921Y+5740000D02*
X+595000Y+5740000D01*
X+727079Y+5740000D02*
X+595000Y+5740000D01*
X+595000Y+5607921D02*
X+595000Y+5740000D01*
X+595000Y+5872079D02*
X+595000Y+5740000D01*
X+3725000Y+2959671D02*
X+3725000Y+3060000D01*
X+3725000Y+3360329D02*
X+3725000Y+3260000D01*
D16*
X+6737000Y+4880000D03*
X+6356000Y+4626000D03*
X+6737000Y+4626000D03*
X+6356000Y+4372000D03*
X+6737000Y+4372000D03*
X+6356000Y+4118000D03*
X+6737000Y+4118000D03*
X+6356000Y+3864000D03*
X+6737000Y+3864000D03*
X+6356000Y+3610000D03*
X+6737000Y+3610000D03*
X+6356000Y+3356000D03*
X+6737000Y+3356000D03*
X+6356000Y+3102000D03*
X+6737000Y+3102000D03*
X+6356000Y+2848000D03*
X+6737000Y+2848000D03*
X+6356000Y+2594000D03*
X+6737000Y+2594000D03*
X+6356000Y+2340000D03*
X+6737000Y+2340000D03*
X+6356000Y+2086000D03*
X+6737000Y+2086000D03*
X+6356000Y+1832000D03*
X+6737000Y+1832000D03*
X+6356000Y+1578000D03*
X+6737000Y+1578000D03*
X+6356000Y+1324000D03*
X+6737000Y+1324000D03*
X+6356000Y+1070000D03*
X+6737000Y+1070000D03*
X+6356000Y+816000D03*
X+6737000Y+816000D03*
X+6356000Y+562000D03*
X+6737000Y+562000D03*
X+6356000Y+308000D03*
X+6737000Y+308000D03*
D15*
X+2547768Y+1750944D03*
D17*
X+2547768Y+1496944D03*
X+2547768Y+1242944D03*
X+2547768Y+988944D03*
X+2547768Y+734944D03*
X+2547768Y+480944D03*
X+2547768Y+226944D03*
X+2547768Y-27056D03*
X+3309768Y-27056D03*
X+3309768Y+226944D03*
X+3309768Y+480944D03*
X+3309768Y+734944D03*
X+3309768Y+988944D03*
X+3309768Y+1242944D03*
X+3309768Y+1496944D03*
X+3309768Y+1750944D03*
D15*
X+3559768Y+1750944D03*
D17*
X+3559768Y+1496944D03*
X+3559768Y+1242944D03*
X+3559768Y+988944D03*
X+3559768Y+734944D03*
X+3559768Y+480944D03*
X+3559768Y+226944D03*
X+3559768Y-27056D03*
X+4321768Y-27056D03*
X+4321768Y+226944D03*
X+4321768Y+480944D03*
X+4321768Y+734944D03*
X+4321768Y+988944D03*
X+4321768Y+1242944D03*
X+4321768Y+1496944D03*
X+4321768Y+1750944D03*
D22*
X+5310000Y+3456327D03*
X+5510000Y+3456327D03*
X+5310000Y+3211327D03*
X+5510000Y+3211327D03*
X+5310000Y+3946327D03*
X+5510000Y+3946327D03*
X+5310000Y+3706327D03*
X+5510000Y+3706327D03*
X+5770000Y+3946327D03*
X+5970000Y+3946327D03*
X+5770000Y+3711327D03*
X+5970000Y+3711327D03*
X+5770000Y+3456327D03*
X+5970000Y+3456327D03*
X+5770000Y+3216327D03*
X+5970000Y+3216327D03*
D21*
X+1405000Y+5255000D03*
X+1405000Y+5455000D03*
X+1605000Y+5255000D03*
X+1605000Y+5455000D03*
X+1805000Y+5255000D03*
X+1805000Y+5455000D03*
D15*
X+2555768Y+1984944D03*
D17*
X+2809768Y+1984944D03*
X+3063768Y+1984944D03*
X+3317768Y+1984944D03*
X+3571768Y+1984944D03*
X+3825768Y+1984944D03*
X+4079768Y+1984944D03*
X+4333768Y+1984944D03*
X+4333768Y+2746944D03*
X+4079768Y+2746944D03*
X+3825768Y+2746944D03*
X+3571768Y+2746944D03*
X+3317768Y+2746944D03*
X+3063768Y+2746944D03*
X+2809768Y+2746944D03*
X+2555768Y+2746944D03*
D23*
X+1139620Y+4455000D03*
X+1640000Y+4455000D03*
D29*
X+5050000Y+2580000D03*
X+4836640Y+2580000D03*
X+5613360Y+2580000D03*
X+5400000Y+2580000D03*
X+1183360Y+2390000D03*
X+970000Y+2390000D03*
D21*
X+1249056Y+3629056D03*
X+1249056Y+3429056D03*
D16*
X+641000Y+4876000D03*
X+260000Y+4622000D03*
X+641000Y+4622000D03*
X+260000Y+4368000D03*
X+641000Y+4368000D03*
X+260000Y+4114000D03*
X+641000Y+4114000D03*
X+260000Y+3860000D03*
X+641000Y+3860000D03*
X+260000Y+3606000D03*
X+641000Y+3606000D03*
X+260000Y+3352000D03*
X+641000Y+3352000D03*
X+260000Y+3098000D03*
X+641000Y+3098000D03*
X+260000Y+2844000D03*
X+641000Y+2844000D03*
X+260000Y+2590000D03*
X+641000Y+2590000D03*
X+260000Y+2336000D03*
X+641000Y+2336000D03*
X+260000Y+2082000D03*
X+641000Y+2082000D03*
X+260000Y+1828000D03*
X+641000Y+1828000D03*
X+260000Y+1574000D03*
X+641000Y+1574000D03*
X+260000Y+1320000D03*
X+641000Y+1320000D03*
X+260000Y+1066000D03*
X+641000Y+1066000D03*
X+260000Y+812000D03*
X+641000Y+812000D03*
X+260000Y+558000D03*
X+641000Y+558000D03*
X+260000Y+304000D03*
X+641000Y+304000D03*
D21*
X+1455000Y+1210000D03*
X+1455000Y+1410000D03*
D28*
X+1615000Y+1990000D03*
X+230000Y+5405000D03*
D21*
X+5355000Y+5570000D03*
X+5355000Y+5770000D03*
X+5555000Y+5570000D03*
X+5555000Y+5770000D03*
X+5755000Y+5570000D03*
X+5755000Y+5770000D03*
X+5955000Y+5570000D03*
X+5955000Y+5770000D03*
X+2015000Y+2445000D03*
X+2215000Y+2445000D03*
X+2015000Y+2245000D03*
X+2215000Y+2245000D03*
X+2015000Y+2045000D03*
X+2215000Y+2045000D03*
X+2015000Y+1845000D03*
X+2215000Y+1845000D03*
X+2015000Y+1645000D03*
X+2215000Y+1645000D03*
D28*
X+230000Y+5740000D03*
X+595000Y+5740000D03*
X+960000Y+5740000D03*
D21*
X+3525000Y+3060000D03*
X+3525000Y+3260000D03*
X+3725000Y+3060000D03*
X+3725000Y+3260000D03*
X+3925000Y+3060000D03*
X+3925000Y+3260000D03*
X+4125000Y+3060000D03*
X+4125000Y+3260000D03*
X+4325000Y+3060000D03*
X+4325000Y+3260000D03*
X+4525000Y+3060000D03*
X+4525000Y+3260000D03*
D28*
X+1645000Y+2925000D03*
X+2020000Y+2925000D03*
D25*
X+1565000Y+4140000D03*
X+1745000Y+4140000D03*
M02*
