G04 PROTEUS GERBER X2 FILE*
%TF.GenerationSoftware,Labcenter,Proteus,8.12-SP0-Build30713*%
%TF.CreationDate,2021-08-02T22:04:32+00:00*%
%TF.FileFunction,Legend,Bot*%
%TF.FilePolarity,Positive*%
%TF.Part,Single*%
%TF.SameCoordinates,{7b106f40-0859-4ec3-be3a-1bfa3638fa75}*%
%FSLAX45Y45*%
%MOMM*%
G01*
%TA.AperFunction,Material*%
%ADD30C,0.203200*%
%ADD32C,0.200000*%
%ADD34C,0.508000*%
%TD.AperFunction*%
D30*
X+6166000Y+50000D02*
X+6926000Y+50000D01*
X+6926000Y+5130000D01*
X+6166000Y+5130000D01*
X+6166000Y+50000D01*
X+6704750Y+5185880D02*
X+6720625Y+5170640D01*
X+6768250Y+5170640D01*
X+6800000Y+5201120D01*
X+6800000Y+5231600D01*
X+6768250Y+5262080D01*
X+6720625Y+5262080D01*
X+6704750Y+5246840D01*
X+6673000Y+5170640D02*
X+6673000Y+5262080D01*
X+6577750Y+5170640D01*
X+6577750Y+5262080D01*
X+6514250Y+5231600D02*
X+6482500Y+5262080D01*
X+6482500Y+5170640D01*
X+6419000Y+5185880D02*
X+6419000Y+5246840D01*
X+6403125Y+5262080D01*
X+6339625Y+5262080D01*
X+6323750Y+5246840D01*
X+6323750Y+5185880D01*
X+6339625Y+5170640D01*
X+6403125Y+5170640D01*
X+6419000Y+5185880D01*
X+6419000Y+5170640D02*
X+6323750Y+5262080D01*
D32*
X+5395000Y+3526327D02*
X+5425000Y+3526327D01*
X+5395000Y+3386327D02*
X+5425000Y+3386327D01*
D30*
X+5562400Y+3304647D02*
X+5562400Y+3365607D01*
X+5498900Y+3365607D01*
X+5486200Y+3355447D01*
X+5486200Y+3345287D01*
X+5498900Y+3335127D01*
X+5562400Y+3335127D01*
X+5498900Y+3335127D02*
X+5486200Y+3324967D01*
X+5486200Y+3304647D01*
X+5435400Y+3345287D02*
X+5410000Y+3365607D01*
X+5410000Y+3304647D01*
X+5346500Y+3355447D02*
X+5333800Y+3365607D01*
X+5295700Y+3365607D01*
X+5283000Y+3355447D01*
X+5283000Y+3345287D01*
X+5295700Y+3335127D01*
X+5283000Y+3324967D01*
X+5283000Y+3314807D01*
X+5295700Y+3304647D01*
X+5333800Y+3304647D01*
X+5346500Y+3314807D01*
X+5321100Y+3335127D02*
X+5295700Y+3335127D01*
D32*
X+5395000Y+3281327D02*
X+5425000Y+3281327D01*
X+5395000Y+3141327D02*
X+5425000Y+3141327D01*
D30*
X+5567400Y+3039647D02*
X+5567400Y+3100607D01*
X+5503900Y+3100607D01*
X+5491200Y+3090447D01*
X+5491200Y+3080287D01*
X+5503900Y+3070127D01*
X+5567400Y+3070127D01*
X+5503900Y+3070127D02*
X+5491200Y+3059967D01*
X+5491200Y+3039647D01*
X+5440400Y+3080287D02*
X+5415000Y+3100607D01*
X+5415000Y+3039647D01*
X+5351500Y+3100607D02*
X+5288000Y+3100607D01*
X+5288000Y+3090447D01*
X+5351500Y+3039647D01*
D32*
X+5395000Y+4016327D02*
X+5425000Y+4016327D01*
X+5395000Y+3876327D02*
X+5425000Y+3876327D01*
D30*
X+5562400Y+3789647D02*
X+5562400Y+3850607D01*
X+5498900Y+3850607D01*
X+5486200Y+3840447D01*
X+5486200Y+3830287D01*
X+5498900Y+3820127D01*
X+5562400Y+3820127D01*
X+5498900Y+3820127D02*
X+5486200Y+3809967D01*
X+5486200Y+3789647D01*
X+5448100Y+3840447D02*
X+5435400Y+3850607D01*
X+5397300Y+3850607D01*
X+5384600Y+3840447D01*
X+5384600Y+3830287D01*
X+5397300Y+3820127D01*
X+5435400Y+3820127D01*
X+5448100Y+3809967D01*
X+5448100Y+3789647D01*
X+5384600Y+3789647D01*
X+5283000Y+3830287D02*
X+5295700Y+3820127D01*
X+5333800Y+3820127D01*
X+5346500Y+3830287D01*
X+5346500Y+3840447D01*
X+5333800Y+3850607D01*
X+5295700Y+3850607D01*
X+5283000Y+3840447D01*
X+5283000Y+3799807D01*
X+5295700Y+3789647D01*
X+5333800Y+3789647D01*
D32*
X+5395000Y+3776327D02*
X+5425000Y+3776327D01*
X+5395000Y+3636327D02*
X+5425000Y+3636327D01*
D30*
X+5567400Y+3549647D02*
X+5567400Y+3610607D01*
X+5503900Y+3610607D01*
X+5491200Y+3600447D01*
X+5491200Y+3590287D01*
X+5503900Y+3580127D01*
X+5567400Y+3580127D01*
X+5503900Y+3580127D02*
X+5491200Y+3569967D01*
X+5491200Y+3549647D01*
X+5453100Y+3600447D02*
X+5440400Y+3610607D01*
X+5402300Y+3610607D01*
X+5389600Y+3600447D01*
X+5389600Y+3590287D01*
X+5402300Y+3580127D01*
X+5389600Y+3569967D01*
X+5389600Y+3559807D01*
X+5402300Y+3549647D01*
X+5440400Y+3549647D01*
X+5453100Y+3559807D01*
X+5427700Y+3580127D02*
X+5402300Y+3580127D01*
X+5364200Y+3559807D02*
X+5364200Y+3600447D01*
X+5351500Y+3610607D01*
X+5300700Y+3610607D01*
X+5288000Y+3600447D01*
X+5288000Y+3559807D01*
X+5300700Y+3549647D01*
X+5351500Y+3549647D01*
X+5364200Y+3559807D01*
X+5364200Y+3549647D02*
X+5288000Y+3610607D01*
D32*
X+5855000Y+4016327D02*
X+5885000Y+4016327D01*
X+5855000Y+3876327D02*
X+5885000Y+3876327D01*
D30*
X+6018792Y+3798255D02*
X+6018792Y+3859215D01*
X+5955292Y+3859215D01*
X+5942592Y+3849055D01*
X+5942592Y+3838895D01*
X+5955292Y+3828735D01*
X+6018792Y+3828735D01*
X+5955292Y+3828735D02*
X+5942592Y+3818575D01*
X+5942592Y+3798255D01*
X+5891792Y+3838895D02*
X+5866392Y+3859215D01*
X+5866392Y+3798255D01*
X+5790192Y+3828735D02*
X+5802892Y+3838895D01*
X+5802892Y+3849055D01*
X+5790192Y+3859215D01*
X+5752092Y+3859215D01*
X+5739392Y+3849055D01*
X+5739392Y+3838895D01*
X+5752092Y+3828735D01*
X+5790192Y+3828735D01*
X+5802892Y+3818575D01*
X+5802892Y+3808415D01*
X+5790192Y+3798255D01*
X+5752092Y+3798255D01*
X+5739392Y+3808415D01*
X+5739392Y+3818575D01*
X+5752092Y+3828735D01*
D32*
X+5855000Y+3781327D02*
X+5885000Y+3781327D01*
X+5855000Y+3641327D02*
X+5885000Y+3641327D01*
D30*
X+6022400Y+3549647D02*
X+6022400Y+3610607D01*
X+5958900Y+3610607D01*
X+5946200Y+3600447D01*
X+5946200Y+3590287D01*
X+5958900Y+3580127D01*
X+6022400Y+3580127D01*
X+5958900Y+3580127D02*
X+5946200Y+3569967D01*
X+5946200Y+3549647D01*
X+5908100Y+3600447D02*
X+5895400Y+3610607D01*
X+5857300Y+3610607D01*
X+5844600Y+3600447D01*
X+5844600Y+3590287D01*
X+5857300Y+3580127D01*
X+5895400Y+3580127D01*
X+5908100Y+3569967D01*
X+5908100Y+3549647D01*
X+5844600Y+3549647D01*
X+5819200Y+3559807D02*
X+5819200Y+3600447D01*
X+5806500Y+3610607D01*
X+5755700Y+3610607D01*
X+5743000Y+3600447D01*
X+5743000Y+3559807D01*
X+5755700Y+3549647D01*
X+5806500Y+3549647D01*
X+5819200Y+3559807D01*
X+5819200Y+3549647D02*
X+5743000Y+3610607D01*
D32*
X+5855000Y+3526327D02*
X+5885000Y+3526327D01*
X+5855000Y+3386327D02*
X+5885000Y+3386327D01*
D30*
X+6022400Y+3304647D02*
X+6022400Y+3365607D01*
X+5958900Y+3365607D01*
X+5946200Y+3355447D01*
X+5946200Y+3345287D01*
X+5958900Y+3335127D01*
X+6022400Y+3335127D01*
X+5958900Y+3335127D02*
X+5946200Y+3324967D01*
X+5946200Y+3304647D01*
X+5908100Y+3355447D02*
X+5895400Y+3365607D01*
X+5857300Y+3365607D01*
X+5844600Y+3355447D01*
X+5844600Y+3345287D01*
X+5857300Y+3335127D01*
X+5844600Y+3324967D01*
X+5844600Y+3314807D01*
X+5857300Y+3304647D01*
X+5895400Y+3304647D01*
X+5908100Y+3314807D01*
X+5882700Y+3335127D02*
X+5857300Y+3335127D01*
X+5793800Y+3345287D02*
X+5768400Y+3365607D01*
X+5768400Y+3304647D01*
D32*
X+5855000Y+3286327D02*
X+5885000Y+3286327D01*
X+5855000Y+3146327D02*
X+5885000Y+3146327D01*
D30*
X+6022400Y+3049647D02*
X+6022400Y+3110607D01*
X+5958900Y+3110607D01*
X+5946200Y+3100447D01*
X+5946200Y+3090287D01*
X+5958900Y+3080127D01*
X+6022400Y+3080127D01*
X+5958900Y+3080127D02*
X+5946200Y+3069967D01*
X+5946200Y+3049647D01*
X+5908100Y+3100447D02*
X+5895400Y+3110607D01*
X+5857300Y+3110607D01*
X+5844600Y+3100447D01*
X+5844600Y+3090287D01*
X+5857300Y+3080127D01*
X+5844600Y+3069967D01*
X+5844600Y+3059807D01*
X+5857300Y+3049647D01*
X+5895400Y+3049647D01*
X+5908100Y+3059807D01*
X+5882700Y+3080127D02*
X+5857300Y+3080127D01*
X+5806500Y+3100447D02*
X+5793800Y+3110607D01*
X+5755700Y+3110607D01*
X+5743000Y+3100447D01*
X+5743000Y+3090287D01*
X+5755700Y+3080127D01*
X+5793800Y+3080127D01*
X+5806500Y+3069967D01*
X+5806500Y+3049647D01*
X+5743000Y+3049647D01*
D34*
X+1443100Y+5064500D02*
X+1442969Y+5067658D01*
X+1441903Y+5073976D01*
X+1439672Y+5080294D01*
X+1436027Y+5086612D01*
X+1430452Y+5092851D01*
X+1424134Y+5097447D01*
X+1417816Y+5100380D01*
X+1411498Y+5102042D01*
X+1405180Y+5102600D01*
X+1405000Y+5102600D01*
X+1366900Y+5064500D02*
X+1367031Y+5067658D01*
X+1368097Y+5073976D01*
X+1370328Y+5080294D01*
X+1373973Y+5086612D01*
X+1379548Y+5092851D01*
X+1385866Y+5097447D01*
X+1392184Y+5100380D01*
X+1398502Y+5102042D01*
X+1404820Y+5102600D01*
X+1405000Y+5102600D01*
X+1366900Y+5064500D02*
X+1367031Y+5061342D01*
X+1368097Y+5055024D01*
X+1370328Y+5048706D01*
X+1373973Y+5042388D01*
X+1379548Y+5036149D01*
X+1385866Y+5031553D01*
X+1392184Y+5028620D01*
X+1398502Y+5026958D01*
X+1404820Y+5026400D01*
X+1405000Y+5026400D01*
X+1443100Y+5064500D02*
X+1442969Y+5061342D01*
X+1441903Y+5055024D01*
X+1439672Y+5048706D01*
X+1436027Y+5042388D01*
X+1430452Y+5036149D01*
X+1424134Y+5031553D01*
X+1417816Y+5028620D01*
X+1411498Y+5026958D01*
X+1405180Y+5026400D01*
X+1405000Y+5026400D01*
D30*
X+4976340Y+2638420D02*
X+4907760Y+2638420D01*
X+4976340Y+2516500D02*
X+4905220Y+2516500D01*
X+4975070Y+2694300D02*
X+4990945Y+2679060D01*
X+5038570Y+2679060D01*
X+5070320Y+2709540D01*
X+5070320Y+2740020D01*
X+5038570Y+2770500D01*
X+4990945Y+2770500D01*
X+4975070Y+2755260D01*
X+4927445Y+2755260D02*
X+4911570Y+2770500D01*
X+4863945Y+2770500D01*
X+4848070Y+2755260D01*
X+4848070Y+2740020D01*
X+4863945Y+2724780D01*
X+4911570Y+2724780D01*
X+4927445Y+2709540D01*
X+4927445Y+2679060D01*
X+4848070Y+2679060D01*
X+5539700Y+2638420D02*
X+5471120Y+2638420D01*
X+5539700Y+2516500D02*
X+5468580Y+2516500D01*
X+5538430Y+2694300D02*
X+5554305Y+2679060D01*
X+5601930Y+2679060D01*
X+5633680Y+2709540D01*
X+5633680Y+2740020D01*
X+5601930Y+2770500D01*
X+5554305Y+2770500D01*
X+5538430Y+2755260D01*
X+5490805Y+2755260D02*
X+5474930Y+2770500D01*
X+5427305Y+2770500D01*
X+5411430Y+2755260D01*
X+5411430Y+2740020D01*
X+5427305Y+2724780D01*
X+5411430Y+2709540D01*
X+5411430Y+2694300D01*
X+5427305Y+2679060D01*
X+5474930Y+2679060D01*
X+5490805Y+2694300D01*
X+5459055Y+2724780D02*
X+5427305Y+2724780D01*
X+1109700Y+2448420D02*
X+1041120Y+2448420D01*
X+1109700Y+2326500D02*
X+1038580Y+2326500D01*
X+1108430Y+2504300D02*
X+1124305Y+2489060D01*
X+1171930Y+2489060D01*
X+1203680Y+2519540D01*
X+1203680Y+2550020D01*
X+1171930Y+2580500D01*
X+1124305Y+2580500D01*
X+1108430Y+2565260D01*
X+1060805Y+2580500D02*
X+981430Y+2580500D01*
X+981430Y+2565260D01*
X+1060805Y+2489060D01*
D34*
X+1096656Y+3629056D02*
X+1096525Y+3632214D01*
X+1095459Y+3638532D01*
X+1093228Y+3644850D01*
X+1089583Y+3651168D01*
X+1084008Y+3657407D01*
X+1077690Y+3662003D01*
X+1071372Y+3664936D01*
X+1065054Y+3666598D01*
X+1058736Y+3667156D01*
X+1058556Y+3667156D01*
X+1020456Y+3629056D02*
X+1020587Y+3632214D01*
X+1021653Y+3638532D01*
X+1023884Y+3644850D01*
X+1027529Y+3651168D01*
X+1033104Y+3657407D01*
X+1039422Y+3662003D01*
X+1045740Y+3664936D01*
X+1052058Y+3666598D01*
X+1058376Y+3667156D01*
X+1058556Y+3667156D01*
X+1020456Y+3629056D02*
X+1020587Y+3625898D01*
X+1021653Y+3619580D01*
X+1023884Y+3613262D01*
X+1027529Y+3606944D01*
X+1033104Y+3600705D01*
X+1039422Y+3596109D01*
X+1045740Y+3593176D01*
X+1052058Y+3591514D01*
X+1058376Y+3590956D01*
X+1058556Y+3590956D01*
X+1096656Y+3629056D02*
X+1096525Y+3625898D01*
X+1095459Y+3619580D01*
X+1093228Y+3613262D01*
X+1089583Y+3606944D01*
X+1084008Y+3600705D01*
X+1077690Y+3596109D01*
X+1071372Y+3593176D01*
X+1065054Y+3591514D01*
X+1058736Y+3590956D01*
X+1058556Y+3590956D01*
D30*
X+70000Y+46000D02*
X+830000Y+46000D01*
X+830000Y+5126000D01*
X+70000Y+5126000D01*
X+70000Y+46000D01*
X+545250Y+5181880D02*
X+561125Y+5166640D01*
X+608750Y+5166640D01*
X+640500Y+5197120D01*
X+640500Y+5227600D01*
X+608750Y+5258080D01*
X+561125Y+5258080D01*
X+545250Y+5242840D01*
X+513500Y+5166640D02*
X+513500Y+5258080D01*
X+418250Y+5166640D01*
X+418250Y+5258080D01*
X+370625Y+5258080D02*
X+291250Y+5258080D01*
X+291250Y+5242840D01*
X+370625Y+5166640D01*
D34*
X+1683600Y+1210000D02*
X+1683469Y+1213158D01*
X+1682403Y+1219476D01*
X+1680172Y+1225794D01*
X+1676527Y+1232112D01*
X+1670952Y+1238351D01*
X+1664634Y+1242947D01*
X+1658316Y+1245880D01*
X+1651998Y+1247542D01*
X+1645680Y+1248100D01*
X+1645500Y+1248100D01*
X+1607400Y+1210000D02*
X+1607531Y+1213158D01*
X+1608597Y+1219476D01*
X+1610828Y+1225794D01*
X+1614473Y+1232112D01*
X+1620048Y+1238351D01*
X+1626366Y+1242947D01*
X+1632684Y+1245880D01*
X+1639002Y+1247542D01*
X+1645320Y+1248100D01*
X+1645500Y+1248100D01*
X+1607400Y+1210000D02*
X+1607531Y+1206842D01*
X+1608597Y+1200524D01*
X+1610828Y+1194206D01*
X+1614473Y+1187888D01*
X+1620048Y+1181649D01*
X+1626366Y+1177053D01*
X+1632684Y+1174120D01*
X+1639002Y+1172458D01*
X+1645320Y+1171900D01*
X+1645500Y+1171900D01*
X+1683600Y+1210000D02*
X+1683469Y+1206842D01*
X+1682403Y+1200524D01*
X+1680172Y+1194206D01*
X+1676527Y+1187888D01*
X+1670952Y+1181649D01*
X+1664634Y+1177053D01*
X+1658316Y+1174120D01*
X+1651998Y+1172458D01*
X+1645680Y+1171900D01*
X+1645500Y+1171900D01*
X+5393100Y+5379500D02*
X+5392969Y+5382658D01*
X+5391903Y+5388976D01*
X+5389672Y+5395294D01*
X+5386027Y+5401612D01*
X+5380452Y+5407851D01*
X+5374134Y+5412447D01*
X+5367816Y+5415380D01*
X+5361498Y+5417042D01*
X+5355180Y+5417600D01*
X+5355000Y+5417600D01*
X+5316900Y+5379500D02*
X+5317031Y+5382658D01*
X+5318097Y+5388976D01*
X+5320328Y+5395294D01*
X+5323973Y+5401612D01*
X+5329548Y+5407851D01*
X+5335866Y+5412447D01*
X+5342184Y+5415380D01*
X+5348502Y+5417042D01*
X+5354820Y+5417600D01*
X+5355000Y+5417600D01*
X+5316900Y+5379500D02*
X+5317031Y+5376342D01*
X+5318097Y+5370024D01*
X+5320328Y+5363706D01*
X+5323973Y+5357388D01*
X+5329548Y+5351149D01*
X+5335866Y+5346553D01*
X+5342184Y+5343620D01*
X+5348502Y+5341958D01*
X+5354820Y+5341400D01*
X+5355000Y+5341400D01*
X+5393100Y+5379500D02*
X+5392969Y+5376342D01*
X+5391903Y+5370024D01*
X+5389672Y+5363706D01*
X+5386027Y+5357388D01*
X+5380452Y+5351149D01*
X+5374134Y+5346553D01*
X+5367816Y+5343620D01*
X+5361498Y+5341958D01*
X+5355180Y+5341400D01*
X+5355000Y+5341400D01*
X+1862600Y+2445000D02*
X+1862469Y+2448158D01*
X+1861403Y+2454476D01*
X+1859172Y+2460794D01*
X+1855527Y+2467112D01*
X+1849952Y+2473351D01*
X+1843634Y+2477947D01*
X+1837316Y+2480880D01*
X+1830998Y+2482542D01*
X+1824680Y+2483100D01*
X+1824500Y+2483100D01*
X+1786400Y+2445000D02*
X+1786531Y+2448158D01*
X+1787597Y+2454476D01*
X+1789828Y+2460794D01*
X+1793473Y+2467112D01*
X+1799048Y+2473351D01*
X+1805366Y+2477947D01*
X+1811684Y+2480880D01*
X+1818002Y+2482542D01*
X+1824320Y+2483100D01*
X+1824500Y+2483100D01*
X+1786400Y+2445000D02*
X+1786531Y+2441842D01*
X+1787597Y+2435524D01*
X+1789828Y+2429206D01*
X+1793473Y+2422888D01*
X+1799048Y+2416649D01*
X+1805366Y+2412053D01*
X+1811684Y+2409120D01*
X+1818002Y+2407458D01*
X+1824320Y+2406900D01*
X+1824500Y+2406900D01*
X+1862600Y+2445000D02*
X+1862469Y+2441842D01*
X+1861403Y+2435524D01*
X+1859172Y+2429206D01*
X+1855527Y+2422888D01*
X+1849952Y+2416649D01*
X+1843634Y+2412053D01*
X+1837316Y+2409120D01*
X+1830998Y+2407458D01*
X+1824680Y+2406900D01*
X+1824500Y+2406900D01*
X+3563100Y+2869500D02*
X+3562969Y+2872658D01*
X+3561903Y+2878976D01*
X+3559672Y+2885294D01*
X+3556027Y+2891612D01*
X+3550452Y+2897851D01*
X+3544134Y+2902447D01*
X+3537816Y+2905380D01*
X+3531498Y+2907042D01*
X+3525180Y+2907600D01*
X+3525000Y+2907600D01*
X+3486900Y+2869500D02*
X+3487031Y+2872658D01*
X+3488097Y+2878976D01*
X+3490328Y+2885294D01*
X+3493973Y+2891612D01*
X+3499548Y+2897851D01*
X+3505866Y+2902447D01*
X+3512184Y+2905380D01*
X+3518502Y+2907042D01*
X+3524820Y+2907600D01*
X+3525000Y+2907600D01*
X+3486900Y+2869500D02*
X+3487031Y+2866342D01*
X+3488097Y+2860024D01*
X+3490328Y+2853706D01*
X+3493973Y+2847388D01*
X+3499548Y+2841149D01*
X+3505866Y+2836553D01*
X+3512184Y+2833620D01*
X+3518502Y+2831958D01*
X+3524820Y+2831400D01*
X+3525000Y+2831400D01*
X+3563100Y+2869500D02*
X+3562969Y+2866342D01*
X+3561903Y+2860024D01*
X+3559672Y+2853706D01*
X+3556027Y+2847388D01*
X+3550452Y+2841149D01*
X+3544134Y+2836553D01*
X+3537816Y+2833620D01*
X+3531498Y+2831958D01*
X+3525180Y+2831400D01*
X+3525000Y+2831400D01*
M02*
