G04 PROTEUS GERBER X2 FILE*
%TF.GenerationSoftware,Labcenter,Proteus,8.12-SP0-Build30713*%
%TF.CreationDate,2021-08-02T22:04:32+00:00*%
%TF.FileFunction,Copper,L1,Top*%
%TF.FilePolarity,Positive*%
%TF.Part,Single*%
%TF.SameCoordinates,{7b106f40-0859-4ec3-be3a-1bfa3638fa75}*%
%FSLAX45Y45*%
%MOMM*%
G01*
%TA.AperFunction,Conductor*%
%ADD10C,0.203200*%
%ADD11C,0.381000*%
%TA.AperFunction,ViaPad*%
%ADD12C,0.508000*%
%ADD13C,1.016000*%
%TA.AperFunction,Conductor*%
%ADD14C,0.254000*%
%TA.AperFunction,ComponentPad*%
%ADD15R,1.270000X1.270000*%
%ADD16C,1.524000*%
%TA.AperFunction,ComponentPad*%
%ADD17C,1.270000*%
%TA.AperFunction,SMDPad,CuDef*%
%ADD18R,0.609600X0.939800*%
%TA.AperFunction,SMDPad,CuDef*%
%ADD19R,1.447800X0.939800*%
%TA.AperFunction,SMDPad,CuDef*%
%ADD70R,0.457200X1.041400*%
%TA.AperFunction,SMDPad,CuDef*%
%ADD71R,0.609600X1.549400*%
%ADD20R,3.149600X2.438400*%
%TA.AperFunction,WasherPad*%
%ADD21C,1.397000*%
%TA.AperFunction,SMDPad,CuDef*%
%ADD22R,0.939800X1.447800*%
%TA.AperFunction,ComponentPad*%
%ADD23C,3.048000*%
%TA.AperFunction,SMDPad,CuDef*%
%ADD24R,1.270000X1.016000*%
%ADD25R,1.143000X1.447800*%
%ADD26R,1.447800X1.143000*%
%TA.AperFunction,SMDPad,CuDef*%
%ADD27R,0.939800X0.609600*%
%TA.AperFunction,ComponentPad*%
%ADD28C,2.032000*%
%TA.AperFunction,SMDPad,CuDef*%
%ADD29R,1.016000X1.270000*%
%ADD72R,1.803400X2.260600*%
%TD.AperFunction*%
G36*
X+1939040Y+5762869D02*
X+1845767Y+5762869D01*
X+1787384Y+5821252D01*
X+1586591Y+5821252D01*
X+1528208Y+5762869D01*
X+1515767Y+5762869D01*
X+1433558Y+5845078D01*
X+1041710Y+5845078D01*
X+1014709Y+5872079D01*
X+905291Y+5872079D01*
X+827921Y+5794709D01*
X+827921Y+5685291D01*
X+905291Y+5607921D01*
X+1014709Y+5607921D01*
X+1092079Y+5685291D01*
X+1092079Y+5740940D01*
X+1247531Y+5740940D01*
X+1247531Y+5557131D01*
X+1281821Y+5557131D01*
X+1281821Y+5542885D01*
X+1262933Y+5523997D01*
X+1262933Y+5389447D01*
X+1245941Y+5412912D01*
X+1197185Y+5450374D01*
X+1143024Y+5472348D01*
X+1087000Y+5479499D01*
X+1030976Y+5472348D01*
X+976815Y+5450374D01*
X+928059Y+5412912D01*
X+887444Y+5356825D01*
X+863228Y+5257000D01*
X+887444Y+5157175D01*
X+928059Y+5101088D01*
X+954467Y+5080797D01*
X+576886Y+5080797D01*
X+353979Y+4857890D01*
X+353979Y+4969979D01*
X+166021Y+4969979D01*
X+166021Y+4782021D01*
X+320941Y+4782021D01*
X+320941Y+4711926D01*
X+304188Y+4728679D01*
X+215812Y+4728679D01*
X+153321Y+4666188D01*
X+153321Y+4577812D01*
X+215812Y+4515321D01*
X+304188Y+4515321D01*
X+320941Y+4532074D01*
X+320941Y+4457926D01*
X+304188Y+4474679D01*
X+215812Y+4474679D01*
X+153321Y+4412188D01*
X+153321Y+4323812D01*
X+215812Y+4261321D01*
X+304188Y+4261321D01*
X+320941Y+4278074D01*
X+320941Y+4203926D01*
X+304188Y+4220679D01*
X+215812Y+4220679D01*
X+153321Y+4158188D01*
X+153321Y+4069812D01*
X+215812Y+4007321D01*
X+304188Y+4007321D01*
X+320941Y+4024074D01*
X+320941Y+3949926D01*
X+304188Y+3966679D01*
X+215812Y+3966679D01*
X+153321Y+3904188D01*
X+153321Y+3815812D01*
X+215812Y+3753321D01*
X+304188Y+3753321D01*
X+320941Y+3770074D01*
X+320941Y+3695926D01*
X+304188Y+3712679D01*
X+215812Y+3712679D01*
X+153321Y+3650188D01*
X+153321Y+3561812D01*
X+215812Y+3499321D01*
X+304188Y+3499321D01*
X+320941Y+3516074D01*
X+320941Y+3441926D01*
X+304188Y+3458679D01*
X+215812Y+3458679D01*
X+153321Y+3396188D01*
X+153321Y+3307812D01*
X+215812Y+3245321D01*
X+304188Y+3245321D01*
X+320941Y+3262074D01*
X+320941Y+3187926D01*
X+304188Y+3204679D01*
X+215812Y+3204679D01*
X+153321Y+3142188D01*
X+153321Y+3053812D01*
X+215812Y+2991321D01*
X+304188Y+2991321D01*
X+320941Y+3008074D01*
X+320941Y+2933926D01*
X+304188Y+2950679D01*
X+215812Y+2950679D01*
X+153321Y+2888188D01*
X+153321Y+2799812D01*
X+215812Y+2737321D01*
X+304188Y+2737321D01*
X+320941Y+2754074D01*
X+320941Y+2679926D01*
X+304188Y+2696679D01*
X+215812Y+2696679D01*
X+153321Y+2634188D01*
X+153321Y+2545812D01*
X+215812Y+2483321D01*
X+304188Y+2483321D01*
X+320941Y+2500074D01*
X+320941Y+2425926D01*
X+304188Y+2442679D01*
X+215812Y+2442679D01*
X+153321Y+2380188D01*
X+153321Y+2291812D01*
X+215812Y+2229321D01*
X+304188Y+2229321D01*
X+320941Y+2246074D01*
X+320941Y+2171926D01*
X+304188Y+2188679D01*
X+215812Y+2188679D01*
X+153321Y+2126188D01*
X+153321Y+2037812D01*
X+215812Y+1975321D01*
X+304188Y+1975321D01*
X+320941Y+1992074D01*
X+320941Y+1917926D01*
X+304188Y+1934679D01*
X+215812Y+1934679D01*
X+153321Y+1872188D01*
X+153321Y+1783812D01*
X+215812Y+1721321D01*
X+304188Y+1721321D01*
X+320941Y+1738074D01*
X+320941Y+1663926D01*
X+304188Y+1680679D01*
X+215812Y+1680679D01*
X+153321Y+1618188D01*
X+153321Y+1529812D01*
X+215812Y+1467321D01*
X+304188Y+1467321D01*
X+320941Y+1484074D01*
X+320941Y+1409926D01*
X+304188Y+1426679D01*
X+215812Y+1426679D01*
X+153321Y+1364188D01*
X+153321Y+1275812D01*
X+215812Y+1213321D01*
X+304188Y+1213321D01*
X+320941Y+1230074D01*
X+320941Y+1155926D01*
X+304188Y+1172679D01*
X+215812Y+1172679D01*
X+153321Y+1110188D01*
X+153321Y+1021812D01*
X+215812Y+959321D01*
X+304188Y+959321D01*
X+320941Y+976074D01*
X+320941Y+901926D01*
X+304188Y+918679D01*
X+215812Y+918679D01*
X+153321Y+856188D01*
X+153321Y+767812D01*
X+215812Y+705321D01*
X+304188Y+705321D01*
X+320941Y+722074D01*
X+320941Y+680005D01*
X+304902Y+663966D01*
X+304188Y+664679D01*
X+215812Y+664679D01*
X+153321Y+602188D01*
X+153321Y+513812D01*
X+215812Y+451321D01*
X+304188Y+451321D01*
X+366679Y+513812D01*
X+366679Y+602188D01*
X+365966Y+602902D01*
X+381821Y+618757D01*
X+381821Y+516858D01*
X+542406Y+356273D01*
X+534321Y+348188D01*
X+534321Y+259812D01*
X+596812Y+197321D01*
X+685188Y+197321D01*
X+747679Y+259812D01*
X+747679Y+348188D01*
X+685188Y+410679D01*
X+610128Y+410679D01*
X+468179Y+552628D01*
X+468179Y+669757D01*
X+535034Y+602902D01*
X+534321Y+602188D01*
X+534321Y+513812D01*
X+596812Y+451321D01*
X+685188Y+451321D01*
X+747679Y+513812D01*
X+747679Y+602188D01*
X+685188Y+664679D01*
X+596812Y+664679D01*
X+596098Y+663966D01*
X+528179Y+731885D01*
X+528179Y+4852115D01*
X+534321Y+4858257D01*
X+534321Y+4831812D01*
X+596812Y+4769321D01*
X+685188Y+4769321D01*
X+747679Y+4831812D01*
X+747679Y+4920188D01*
X+728061Y+4939806D01*
X+1350870Y+4939806D01*
X+1565735Y+5154671D01*
X+1646558Y+5154671D01*
X+1705000Y+5213113D01*
X+1763442Y+5154671D01*
X+1801276Y+5154671D01*
X+1394296Y+4747691D01*
X+1394296Y+3823540D01*
X+1447377Y+3770459D01*
X+1316822Y+3770459D01*
X+1275749Y+3729385D01*
X+1207498Y+3729385D01*
X+1159238Y+3681125D01*
X+1052869Y+3681125D01*
X+1052869Y+3712629D01*
X+847131Y+3712629D01*
X+847131Y+3677069D01*
X+720798Y+3677069D01*
X+685188Y+3712679D01*
X+596812Y+3712679D01*
X+534321Y+3650188D01*
X+534321Y+3561812D01*
X+596812Y+3499321D01*
X+674043Y+3499321D01*
X+709010Y+3464354D01*
X+709010Y+3434857D01*
X+685188Y+3458679D01*
X+596812Y+3458679D01*
X+534321Y+3396188D01*
X+534321Y+3307812D01*
X+596812Y+3245321D01*
X+685188Y+3245321D01*
X+709010Y+3269143D01*
X+709010Y+3239646D01*
X+674043Y+3204679D01*
X+596812Y+3204679D01*
X+534321Y+3142188D01*
X+534321Y+3053812D01*
X+572254Y+3015879D01*
X+571854Y+3015879D01*
X+539121Y+2983146D01*
X+539121Y+2936854D01*
X+561054Y+2914921D01*
X+534321Y+2888188D01*
X+534321Y+2799812D01*
X+596812Y+2737321D01*
X+685188Y+2737321D01*
X+747679Y+2799812D01*
X+747679Y+2877043D01*
X+778567Y+2907931D01*
X+882371Y+2907931D01*
X+882371Y+2667131D01*
X+917931Y+2667131D01*
X+917931Y+2523433D01*
X+921661Y+2519703D01*
X+921661Y+2457451D01*
X+925765Y+2457451D01*
X+925765Y+2451462D01*
X+987931Y+2389296D01*
X+987931Y+2362549D01*
X+921661Y+2362549D01*
X+921661Y+2197451D01*
X+926821Y+2197451D01*
X+926821Y+2167469D01*
X+867131Y+2167469D01*
X+867131Y+2012531D01*
X+1272869Y+2012531D01*
X+1272869Y+2167469D01*
X+1103286Y+2167469D01*
X+1133268Y+2197451D01*
X+1223339Y+2197451D01*
X+1223339Y+2362549D01*
X+1092069Y+2362549D01*
X+1092069Y+2432430D01*
X+1067048Y+2457451D01*
X+1223339Y+2457451D01*
X+1223339Y+2568025D01*
X+1233721Y+2557643D01*
X+1233721Y+2516333D01*
X+1281333Y+2468721D01*
X+1348667Y+2468721D01*
X+1396279Y+2516333D01*
X+1396279Y+2583667D01*
X+1348667Y+2631279D01*
X+1307357Y+2631279D01*
X+1246567Y+2692069D01*
X+1237629Y+2692069D01*
X+1237629Y+3062869D01*
X+1081052Y+3062869D01*
X+1095428Y+3077245D01*
X+1095428Y+3103547D01*
X+1076829Y+3122146D01*
X+1050527Y+3122146D01*
X+1031928Y+3103547D01*
X+1031928Y+3077245D01*
X+1046304Y+3062869D01*
X+882371Y+3062869D01*
X+882371Y+3012069D01*
X+766896Y+3012069D01*
X+1026648Y+3271821D01*
X+1672796Y+3271821D01*
X+1669121Y+3268146D01*
X+1669121Y+3221854D01*
X+1701854Y+3189121D01*
X+1748146Y+3189121D01*
X+1780879Y+3221854D01*
X+1780879Y+3268146D01*
X+1777204Y+3271821D01*
X+2157141Y+3271821D01*
X+2168673Y+3283353D01*
X+2186634Y+3283353D01*
X+2219367Y+3316086D01*
X+2219367Y+3362378D01*
X+2186634Y+3395111D01*
X+2140342Y+3395111D01*
X+2107609Y+3362378D01*
X+2107609Y+3358179D01*
X+1743035Y+3358179D01*
X+1743035Y+3510335D01*
X+1555077Y+3510335D01*
X+1555077Y+3358179D01*
X+1551925Y+3358179D01*
X+1551925Y+3506525D01*
X+1346187Y+3506525D01*
X+1346187Y+3473812D01*
X+1290943Y+3529056D01*
X+1346187Y+3584300D01*
X+1346187Y+3551587D01*
X+1551925Y+3551587D01*
X+1551925Y+3665911D01*
X+1555077Y+3662759D01*
X+1555077Y+3561137D01*
X+1743035Y+3561137D01*
X+1743035Y+3723695D01*
X+1641413Y+3723695D01*
X+1625151Y+3739958D01*
X+1594649Y+3770459D01*
X+1498432Y+3866676D01*
X+1498432Y+4337938D01*
X+1564249Y+4272121D01*
X+1715751Y+4272121D01*
X+1822879Y+4379249D01*
X+1822879Y+4530751D01*
X+1715751Y+4637879D01*
X+1564249Y+4637879D01*
X+1498432Y+4572062D01*
X+1498432Y+4704555D01*
X+1939040Y+5145163D01*
X+1939040Y+3674750D01*
X+2174750Y+3439040D01*
X+2995404Y+3439040D01*
X+2974873Y+3418509D01*
X+2549351Y+3418509D01*
X+2549351Y+3179285D01*
X+2500649Y+3227987D01*
X+2500649Y+3418509D01*
X+2259351Y+3418509D01*
X+2259351Y+3131491D01*
X+2449873Y+3131491D01*
X+2503699Y+3077665D01*
X+2503699Y+2827781D01*
X+2461789Y+2785871D01*
X+2461789Y+2708017D01*
X+2516841Y+2652965D01*
X+2576111Y+2652965D01*
X+2615361Y+2613715D01*
X+2615361Y+2451021D01*
X+2705255Y+2451021D01*
X+2445594Y+2191360D01*
X+2438128Y+2198826D01*
X+2438128Y+2567936D01*
X+2143926Y+2862138D01*
X+2152079Y+2870291D01*
X+2152079Y+2979709D01*
X+2074709Y+3057079D01*
X+1965291Y+3057079D01*
X+1887921Y+2979709D01*
X+1887921Y+2870291D01*
X+1965291Y+2792921D01*
X+2074709Y+2792921D01*
X+2082862Y+2801074D01*
X+2351770Y+2532166D01*
X+2351770Y+2198826D01*
X+2339070Y+2186126D01*
X+2339070Y+2139834D01*
X+2366569Y+2112335D01*
X+2315329Y+2061095D01*
X+2315329Y+2086558D01*
X+2256887Y+2145000D01*
X+2315329Y+2203442D01*
X+2315329Y+2286558D01*
X+2256887Y+2345000D01*
X+2315329Y+2403442D01*
X+2315329Y+2486558D01*
X+2256558Y+2545329D01*
X+2173442Y+2545329D01*
X+2115000Y+2486887D01*
X+2056558Y+2545329D01*
X+1973442Y+2545329D01*
X+1930126Y+2502013D01*
X+1758747Y+2502013D01*
X+1758747Y+2531223D01*
X+1570789Y+2531223D01*
X+1570789Y+2368665D01*
X+1758747Y+2368665D01*
X+1758747Y+2397875D01*
X+1920238Y+2397875D01*
X+1973113Y+2345000D01*
X+1914671Y+2286558D01*
X+1914671Y+2203442D01*
X+1973113Y+2145000D01*
X+1914671Y+2086558D01*
X+1914671Y+2003442D01*
X+1973113Y+1945000D01*
X+1916292Y+1888179D01*
X+1777885Y+1888179D01*
X+1738926Y+1927138D01*
X+1747079Y+1935291D01*
X+1747079Y+2044709D01*
X+1669709Y+2122079D01*
X+1560291Y+2122079D01*
X+1482921Y+2044709D01*
X+1482921Y+1935291D01*
X+1560291Y+1857921D01*
X+1669709Y+1857921D01*
X+1677862Y+1866074D01*
X+1742115Y+1801821D01*
X+1916292Y+1801821D01*
X+1973113Y+1745000D01*
X+1914671Y+1686558D01*
X+1914671Y+1603442D01*
X+1973442Y+1544671D01*
X+2056558Y+1544671D01*
X+2072345Y+1560458D01*
X+2072345Y+1274108D01*
X+2517530Y+828923D01*
X+2508841Y+828923D01*
X+2453789Y+773871D01*
X+2453789Y+696017D01*
X+2486627Y+663179D01*
X+1447115Y+663179D01*
X+1376405Y+592469D01*
X+1299041Y+592469D01*
X+1299041Y+504984D01*
X+1283146Y+520879D01*
X+1265185Y+520879D01*
X+1227885Y+558179D01*
X+1030959Y+558179D01*
X+1030959Y+592469D01*
X+909041Y+592469D01*
X+909041Y+437531D01*
X+931821Y+437531D01*
X+931821Y+422469D01*
X+867131Y+422469D01*
X+867131Y+267531D01*
X+1072869Y+267531D01*
X+1072869Y+422469D01*
X+1018179Y+422469D01*
X+1018179Y+437531D01*
X+1030959Y+437531D01*
X+1030959Y+471821D01*
X+1192115Y+471821D01*
X+1204121Y+459815D01*
X+1204121Y+441854D01*
X+1236854Y+409121D01*
X+1257131Y+409121D01*
X+1257131Y+267531D01*
X+1462869Y+267531D01*
X+1462869Y+422469D01*
X+1403179Y+422469D01*
X+1403179Y+437531D01*
X+1420959Y+437531D01*
X+1420959Y+514895D01*
X+1482885Y+576821D01*
X+1689041Y+576821D01*
X+1689041Y+437531D01*
X+1706821Y+437531D01*
X+1706821Y+422469D01*
X+1647131Y+422469D01*
X+1647131Y+267531D01*
X+1852869Y+267531D01*
X+1852869Y+422469D01*
X+1793179Y+422469D01*
X+1793179Y+437531D01*
X+1810959Y+437531D01*
X+1810959Y+440412D01*
X+1814418Y+440412D01*
X+1827118Y+427712D01*
X+1873410Y+427712D01*
X+1906143Y+460445D01*
X+1906143Y+506737D01*
X+1873410Y+539470D01*
X+1827118Y+539470D01*
X+1814418Y+526770D01*
X+1810959Y+526770D01*
X+1810959Y+576821D01*
X+2079041Y+576821D01*
X+2079041Y+437531D01*
X+2096821Y+437531D01*
X+2096821Y+422469D01*
X+2037131Y+422469D01*
X+2037131Y+267531D01*
X+2242869Y+267531D01*
X+2242869Y+422469D01*
X+2183179Y+422469D01*
X+2183179Y+437531D01*
X+2200959Y+437531D01*
X+2200959Y+471821D01*
X+2242367Y+471821D01*
X+2253658Y+483112D01*
X+2271619Y+483112D01*
X+2304352Y+515845D01*
X+2304352Y+562137D01*
X+2289668Y+576821D01*
X+2752306Y+576821D01*
X+2752306Y+543540D01*
X+2785039Y+510807D01*
X+2831331Y+510807D01*
X+2845730Y+525206D01*
X+2984005Y+525205D01*
X+2996705Y+512505D01*
X+3042997Y+512505D01*
X+3075730Y+545238D01*
X+3075730Y+591530D01*
X+3042997Y+624263D01*
X+2996705Y+624263D01*
X+2984005Y+611563D01*
X+2855503Y+611562D01*
X+3215789Y+971848D01*
X+3215789Y+950017D01*
X+3270841Y+894965D01*
X+3348695Y+894965D01*
X+3403747Y+950017D01*
X+3403747Y+1027871D01*
X+3394069Y+1037549D01*
X+3415437Y+1037549D01*
X+3526853Y+1148965D01*
X+3598695Y+1148965D01*
X+3653747Y+1204017D01*
X+3653747Y+1225361D01*
X+3833979Y+1225361D01*
X+3833979Y+1352385D01*
X+3848432Y+1337932D01*
X+4307347Y+1337932D01*
X+4308356Y+1336923D01*
X+4282841Y+1336923D01*
X+4227789Y+1281871D01*
X+4227789Y+1204017D01*
X+4252178Y+1179628D01*
X+3791064Y+1179628D01*
X+3646527Y+1035091D01*
X+3598695Y+1082923D01*
X+3520841Y+1082923D01*
X+3465789Y+1027871D01*
X+3465789Y+950017D01*
X+3520841Y+894965D01*
X+3598695Y+894965D01*
X+3611958Y+908228D01*
X+3611958Y+848198D01*
X+3592683Y+828923D01*
X+3520841Y+828923D01*
X+3465789Y+773871D01*
X+3465789Y+696017D01*
X+3520841Y+640965D01*
X+3598695Y+640965D01*
X+3653747Y+696017D01*
X+3653747Y+767859D01*
X+3698316Y+812428D01*
X+3698316Y+962307D01*
X+3720702Y+939921D01*
X+3738663Y+939921D01*
X+4115902Y+562682D01*
X+4198123Y+562682D01*
X+4210823Y+549982D01*
X+4257115Y+549982D01*
X+4289848Y+582715D01*
X+4289848Y+629007D01*
X+4257115Y+661740D01*
X+4210823Y+661740D01*
X+4198123Y+649040D01*
X+4151672Y+649040D01*
X+4122953Y+677759D01*
X+4136959Y+691765D01*
X+4232041Y+691765D01*
X+4282841Y+640965D01*
X+4360695Y+640965D01*
X+4415747Y+696017D01*
X+4415747Y+773871D01*
X+4360695Y+828923D01*
X+4282841Y+828923D01*
X+4232041Y+778123D01*
X+4128899Y+778123D01*
X+4120229Y+786793D01*
X+4073937Y+786793D01*
X+4043928Y+756784D01*
X+3799727Y+1000985D01*
X+3799727Y+1018946D01*
X+3776118Y+1042554D01*
X+3826834Y+1093270D01*
X+4290683Y+1093270D01*
X+4301030Y+1082923D01*
X+4282841Y+1082923D01*
X+4227789Y+1027871D01*
X+4227789Y+950017D01*
X+4282841Y+894965D01*
X+4360695Y+894965D01*
X+4415747Y+950017D01*
X+4415747Y+1027871D01*
X+4360695Y+1082923D01*
X+4352028Y+1082923D01*
X+4382408Y+1113303D01*
X+4382408Y+1159595D01*
X+4376866Y+1165136D01*
X+4415747Y+1204017D01*
X+4415747Y+1229532D01*
X+4643210Y+1002069D01*
X+4612882Y+1002069D01*
X+4580783Y+1034168D01*
X+4513449Y+1034168D01*
X+4465837Y+986556D01*
X+4465837Y+919222D01*
X+4513449Y+871610D01*
X+4580783Y+871610D01*
X+4607104Y+897931D01*
X+4742131Y+897931D01*
X+4742131Y+872531D01*
X+4906390Y+872531D01*
X+4906390Y+832276D01*
X+4804816Y+730702D01*
X+4780015Y+755503D01*
X+4733723Y+755503D01*
X+4721023Y+742803D01*
X+4654181Y+742803D01*
X+4415747Y+504369D01*
X+4415747Y+519871D01*
X+4403398Y+532220D01*
X+4403398Y+537280D01*
X+4378104Y+562574D01*
X+4373044Y+562574D01*
X+4360695Y+574923D01*
X+4282841Y+574923D01*
X+4227789Y+519871D01*
X+4227789Y+442017D01*
X+4282841Y+386965D01*
X+4298343Y+386965D01*
X+4267389Y+356011D01*
X+3632388Y+356011D01*
X+3597300Y+320923D01*
X+3520841Y+320923D01*
X+3465789Y+265871D01*
X+3465789Y+188017D01*
X+3520841Y+132965D01*
X+3598695Y+132965D01*
X+3653747Y+188017D01*
X+3653747Y+255242D01*
X+3668158Y+269653D01*
X+4231571Y+269653D01*
X+4227789Y+265871D01*
X+4227789Y+188017D01*
X+4282841Y+132965D01*
X+4360695Y+132965D01*
X+4415747Y+188017D01*
X+4415747Y+265871D01*
X+4360695Y+320923D01*
X+4354429Y+320923D01*
X+4689951Y+656445D01*
X+4721023Y+656445D01*
X+4725791Y+651677D01*
X+4438496Y+364382D01*
X+4438496Y+150736D01*
X+4354683Y+66923D01*
X+4282841Y+66923D01*
X+4227789Y+11871D01*
X+4227789Y-65983D01*
X+4282841Y-121035D01*
X+4360695Y-121035D01*
X+4415747Y-65983D01*
X+4415747Y+5859D01*
X+4466938Y+57050D01*
X+4465228Y+50000D01*
X+4489444Y-49825D01*
X+4530059Y-105912D01*
X+4573174Y-139040D01*
X+1787675Y-139040D01*
X+1696780Y+42750D01*
X+1667316Y+60960D01*
X+60960Y+60960D01*
X+60960Y+5939040D01*
X+1939040Y+5939040D01*
X+1939040Y+5762869D01*
G37*
%LPC*%
G36*
X+2508841Y+574923D02*
X+2586695Y+574923D01*
X+2641747Y+519871D01*
X+2641747Y+442017D01*
X+2586695Y+386965D01*
X+2508841Y+386965D01*
X+2453789Y+442017D01*
X+2453789Y+519871D01*
X+2508841Y+574923D01*
G37*
G36*
X+2508841Y+320923D02*
X+2586695Y+320923D01*
X+2641747Y+265871D01*
X+2641747Y+188017D01*
X+2586695Y+132965D01*
X+2508841Y+132965D01*
X+2453789Y+188017D01*
X+2453789Y+265871D01*
X+2508841Y+320923D01*
G37*
G36*
X+2508841Y+66923D02*
X+2586695Y+66923D01*
X+2641747Y+11871D01*
X+2641747Y-65983D01*
X+2586695Y-121035D01*
X+2508841Y-121035D01*
X+2453789Y-65983D01*
X+2453789Y+11871D01*
X+2508841Y+66923D01*
G37*
G36*
X+3270841Y+66923D02*
X+3348695Y+66923D01*
X+3403747Y+11871D01*
X+3403747Y-65983D01*
X+3348695Y-121035D01*
X+3270841Y-121035D01*
X+3215789Y-65983D01*
X+3215789Y+11871D01*
X+3270841Y+66923D01*
G37*
G36*
X+3270841Y+320923D02*
X+3348695Y+320923D01*
X+3403747Y+265871D01*
X+3403747Y+188017D01*
X+3348695Y+132965D01*
X+3270841Y+132965D01*
X+3215789Y+188017D01*
X+3215789Y+265871D01*
X+3270841Y+320923D01*
G37*
G36*
X+3270841Y+574923D02*
X+3348695Y+574923D01*
X+3403747Y+519871D01*
X+3403747Y+442017D01*
X+3348695Y+386965D01*
X+3270841Y+386965D01*
X+3215789Y+442017D01*
X+3215789Y+519871D01*
X+3270841Y+574923D01*
G37*
G36*
X+3270841Y+828923D02*
X+3348695Y+828923D01*
X+3403747Y+773871D01*
X+3403747Y+696017D01*
X+3348695Y+640965D01*
X+3270841Y+640965D01*
X+3215789Y+696017D01*
X+3215789Y+773871D01*
X+3270841Y+828923D01*
G37*
G36*
X+3520841Y+574923D02*
X+3598695Y+574923D01*
X+3653747Y+519871D01*
X+3653747Y+442017D01*
X+3598695Y+386965D01*
X+3520841Y+386965D01*
X+3465789Y+442017D01*
X+3465789Y+519871D01*
X+3520841Y+574923D01*
G37*
G36*
X+3520841Y+66923D02*
X+3598695Y+66923D01*
X+3653747Y+11871D01*
X+3653747Y-65983D01*
X+3598695Y-121035D01*
X+3520841Y-121035D01*
X+3465789Y-65983D01*
X+3465789Y+11871D01*
X+3520841Y+66923D01*
G37*
G36*
X+747679Y+1618188D02*
X+747679Y+1529812D01*
X+716046Y+1498179D01*
X+872531Y+1498179D01*
X+872531Y+1550959D01*
X+1027469Y+1550959D01*
X+1027469Y+1429041D01*
X+950105Y+1429041D01*
X+932885Y+1411821D01*
X+700046Y+1411821D01*
X+747679Y+1364188D01*
X+747679Y+1275812D01*
X+746966Y+1275098D01*
X+844202Y+1177862D01*
X+844202Y+1104395D01*
X+851854Y+1112047D01*
X+898146Y+1112047D01*
X+910846Y+1099347D01*
X+1551717Y+1099347D01*
X+1828595Y+822469D01*
X+1905959Y+822469D01*
X+1905959Y+667531D01*
X+1784041Y+667531D01*
X+1784041Y+744895D01*
X+1715959Y+812977D01*
X+1715959Y+667531D01*
X+1594041Y+667531D01*
X+1594041Y+822469D01*
X+1706467Y+822469D01*
X+1515947Y+1012989D01*
X+1283559Y+1012989D01*
X+1283625Y+1012923D01*
X+1283625Y+994962D01*
X+1456118Y+822469D01*
X+1515959Y+822469D01*
X+1515959Y+667531D01*
X+1394041Y+667531D01*
X+1394041Y+762418D01*
X+1222561Y+933898D01*
X+1204600Y+933898D01*
X+1171867Y+966631D01*
X+1171867Y+1012923D01*
X+1171933Y+1012989D01*
X+910846Y+1012989D01*
X+898146Y+1000289D01*
X+870775Y+1000289D01*
X+1048595Y+822469D01*
X+1125959Y+822469D01*
X+1125959Y+667531D01*
X+1004041Y+667531D01*
X+1004041Y+744895D01*
X+935959Y+812977D01*
X+935959Y+667531D01*
X+814041Y+667531D01*
X+814041Y+822469D01*
X+926467Y+822469D01*
X+757844Y+991092D01*
X+757844Y+1142092D01*
X+685902Y+1214034D01*
X+685188Y+1213321D01*
X+596812Y+1213321D01*
X+534321Y+1275812D01*
X+534321Y+1364188D01*
X+592895Y+1422762D01*
X+584121Y+1431536D01*
X+584121Y+1477828D01*
X+585213Y+1478920D01*
X+534321Y+1529812D01*
X+534321Y+1618188D01*
X+596812Y+1680679D01*
X+685188Y+1680679D01*
X+747679Y+1618188D01*
G37*
G36*
X+810615Y+197069D02*
X+867131Y+197069D01*
X+867131Y+222469D01*
X+1072869Y+222469D01*
X+1072869Y+197069D01*
X+1257131Y+197069D01*
X+1257131Y+222469D01*
X+1462869Y+222469D01*
X+1462869Y+197069D01*
X+1647131Y+197069D01*
X+1647131Y+222469D01*
X+1852869Y+222469D01*
X+1852869Y+197069D01*
X+2037131Y+197069D01*
X+2037131Y+222469D01*
X+2242869Y+222469D01*
X+2242869Y+67531D01*
X+2037131Y+67531D01*
X+2037131Y+92931D01*
X+1852869Y+92931D01*
X+1852869Y+67531D01*
X+1647131Y+67531D01*
X+1647131Y+92931D01*
X+1462869Y+92931D01*
X+1462869Y+67531D01*
X+1257131Y+67531D01*
X+1257131Y+92931D01*
X+1072869Y+92931D01*
X+1072869Y+67531D01*
X+867131Y+67531D01*
X+867131Y+92931D01*
X+815313Y+92931D01*
X+783754Y+61372D01*
X+716420Y+61372D01*
X+668808Y+108984D01*
X+668808Y+176318D01*
X+716420Y+223930D01*
X+783754Y+223930D01*
X+810615Y+197069D01*
G37*
G36*
X+1272869Y+1851218D02*
X+1394215Y+1851218D01*
X+1394215Y+1851902D01*
X+1441827Y+1899514D01*
X+1509161Y+1899514D01*
X+1556773Y+1851902D01*
X+1556773Y+1784568D01*
X+1509161Y+1736956D01*
X+1441827Y+1736956D01*
X+1431703Y+1747080D01*
X+1247469Y+1747080D01*
X+1247469Y+1673595D01*
X+1305121Y+1615943D01*
X+1305121Y+1587732D01*
X+1317821Y+1575032D01*
X+1317821Y+1528740D01*
X+1285088Y+1496007D01*
X+1238796Y+1496007D01*
X+1206063Y+1528740D01*
X+1206063Y+1575032D01*
X+1214984Y+1583952D01*
X+1211805Y+1587131D01*
X+1092531Y+1587131D01*
X+1092531Y+1738895D01*
X+1047469Y+1693833D01*
X+1047469Y+1587131D01*
X+892531Y+1587131D01*
X+892531Y+1759217D01*
X+852883Y+1719569D01*
X+852883Y+1701608D01*
X+820150Y+1668875D01*
X+773858Y+1668875D01*
X+741125Y+1701608D01*
X+741125Y+1747900D01*
X+773858Y+1780633D01*
X+791819Y+1780633D01*
X+867131Y+1855945D01*
X+867131Y+1967469D01*
X+1272869Y+1967469D01*
X+1272869Y+1851218D01*
G37*
G36*
X+1204041Y+822469D02*
X+1325959Y+822469D01*
X+1325959Y+667531D01*
X+1204041Y+667531D01*
X+1204041Y+822469D01*
G37*
G36*
X+956741Y+4379249D02*
X+956741Y+4530751D01*
X+1063869Y+4637879D01*
X+1215371Y+4637879D01*
X+1322499Y+4530751D01*
X+1322499Y+4379249D01*
X+1215371Y+4272121D01*
X+1063869Y+4272121D01*
X+956741Y+4379249D01*
G37*
G36*
X+1570789Y+2582025D02*
X+1570789Y+2744583D01*
X+1758747Y+2744583D01*
X+1758747Y+2582025D01*
X+1570789Y+2582025D01*
G37*
G36*
X+2226491Y+831612D02*
X+2226491Y+822469D01*
X+2295959Y+822469D01*
X+2295959Y+667531D01*
X+2174041Y+667531D01*
X+2174041Y+744895D01*
X+2166349Y+752587D01*
X+2147466Y+752587D01*
X+2114733Y+785320D01*
X+2114733Y+831612D01*
X+2147466Y+864345D01*
X+2193758Y+864345D01*
X+2226491Y+831612D01*
G37*
G36*
X+1984041Y+822469D02*
X+2105959Y+822469D01*
X+2105959Y+667531D01*
X+1984041Y+667531D01*
X+1984041Y+822469D01*
G37*
G36*
X+872531Y+1239041D02*
X+872531Y+1360959D01*
X+1027469Y+1360959D01*
X+1027469Y+1239041D01*
X+872531Y+1239041D01*
G37*
G36*
X+1555329Y+1451558D02*
X+1555329Y+1368442D01*
X+1496887Y+1310000D01*
X+1555329Y+1251558D01*
X+1555329Y+1168442D01*
X+1496558Y+1109671D01*
X+1413442Y+1109671D01*
X+1354671Y+1168442D01*
X+1354671Y+1251558D01*
X+1413113Y+1310000D01*
X+1371292Y+1351821D01*
X+1257469Y+1351821D01*
X+1257469Y+1334041D01*
X+1223179Y+1334041D01*
X+1223179Y+1292115D01*
X+1197885Y+1266821D01*
X+1162115Y+1266821D01*
X+1136821Y+1292115D01*
X+1136821Y+1334041D01*
X+1102531Y+1334041D01*
X+1102531Y+1455959D01*
X+1257469Y+1455959D01*
X+1257469Y+1438179D01*
X+1354671Y+1438179D01*
X+1354671Y+1451558D01*
X+1413442Y+1510329D01*
X+1496558Y+1510329D01*
X+1555329Y+1451558D01*
G37*
G36*
X+596812Y+4728679D02*
X+685188Y+4728679D01*
X+747679Y+4666188D01*
X+747679Y+4577812D01*
X+685188Y+4515321D01*
X+596812Y+4515321D01*
X+534321Y+4577812D01*
X+534321Y+4666188D01*
X+596812Y+4728679D01*
G37*
G36*
X+747679Y+4412188D02*
X+747679Y+4323812D01*
X+725719Y+4301852D01*
X+760122Y+4301852D01*
X+792855Y+4269119D01*
X+792855Y+4251158D01*
X+999661Y+4044351D01*
X+999661Y+3968238D01*
X+1012361Y+3955538D01*
X+1012361Y+3909246D01*
X+979628Y+3876513D01*
X+933336Y+3876513D01*
X+900603Y+3909246D01*
X+900603Y+3955538D01*
X+913303Y+3968238D01*
X+913303Y+4008581D01*
X+731791Y+4190094D01*
X+715773Y+4190094D01*
X+747679Y+4158188D01*
X+747679Y+4069812D01*
X+685188Y+4007321D01*
X+596812Y+4007321D01*
X+534321Y+4069812D01*
X+534321Y+4158188D01*
X+596812Y+4220679D01*
X+683245Y+4220679D01*
X+681097Y+4222827D01*
X+681097Y+4261321D01*
X+596812Y+4261321D01*
X+534321Y+4323812D01*
X+534321Y+4412188D01*
X+596812Y+4474679D01*
X+685188Y+4474679D01*
X+747679Y+4412188D01*
G37*
G36*
X+596812Y+3966679D02*
X+685188Y+3966679D01*
X+747679Y+3904188D01*
X+747679Y+3815812D01*
X+685188Y+3753321D01*
X+596812Y+3753321D01*
X+534321Y+3815812D01*
X+534321Y+3904188D01*
X+596812Y+3966679D01*
G37*
G36*
X+596812Y+2696679D02*
X+685188Y+2696679D01*
X+747679Y+2634188D01*
X+747679Y+2545812D01*
X+685188Y+2483321D01*
X+596812Y+2483321D01*
X+534321Y+2545812D01*
X+534321Y+2634188D01*
X+596812Y+2696679D01*
G37*
G36*
X+596812Y+2442679D02*
X+685188Y+2442679D01*
X+747679Y+2380188D01*
X+747679Y+2291812D01*
X+685188Y+2229321D01*
X+596812Y+2229321D01*
X+534321Y+2291812D01*
X+534321Y+2380188D01*
X+596812Y+2442679D01*
G37*
G36*
X+596812Y+2188679D02*
X+685188Y+2188679D01*
X+747679Y+2126188D01*
X+747679Y+2037812D01*
X+685188Y+1975321D01*
X+596812Y+1975321D01*
X+534321Y+2037812D01*
X+534321Y+2126188D01*
X+596812Y+2188679D01*
G37*
G36*
X+596812Y+1934679D02*
X+685188Y+1934679D01*
X+747679Y+1872188D01*
X+747679Y+1783812D01*
X+685188Y+1721321D01*
X+596812Y+1721321D01*
X+534321Y+1783812D01*
X+534321Y+1872188D01*
X+596812Y+1934679D01*
G37*
G36*
X+596812Y+1172679D02*
X+685188Y+1172679D01*
X+747679Y+1110188D01*
X+747679Y+1021812D01*
X+685188Y+959321D01*
X+596812Y+959321D01*
X+534321Y+1021812D01*
X+534321Y+1110188D01*
X+596812Y+1172679D01*
G37*
G36*
X+596812Y+918679D02*
X+685188Y+918679D01*
X+747679Y+856188D01*
X+747679Y+767812D01*
X+685188Y+705321D01*
X+596812Y+705321D01*
X+534321Y+767812D01*
X+534321Y+856188D01*
X+596812Y+918679D01*
G37*
G36*
X+215812Y+410679D02*
X+304188Y+410679D01*
X+366679Y+348188D01*
X+366679Y+259812D01*
X+304188Y+197321D01*
X+215812Y+197321D01*
X+153321Y+259812D01*
X+153321Y+348188D01*
X+215812Y+410679D01*
G37*
G36*
X+97921Y+5350291D02*
X+97921Y+5459709D01*
X+175291Y+5537079D01*
X+284709Y+5537079D01*
X+362079Y+5459709D01*
X+362079Y+5350291D01*
X+284709Y+5272921D01*
X+175291Y+5272921D01*
X+97921Y+5350291D01*
G37*
G36*
X+97921Y+5685291D02*
X+97921Y+5794709D01*
X+175291Y+5872079D01*
X+284709Y+5872079D01*
X+362079Y+5794709D01*
X+362079Y+5685291D01*
X+284709Y+5607921D01*
X+175291Y+5607921D01*
X+97921Y+5685291D01*
G37*
G36*
X+462921Y+5685291D02*
X+462921Y+5794709D01*
X+540291Y+5872079D01*
X+649709Y+5872079D01*
X+727079Y+5794709D01*
X+727079Y+5685291D01*
X+649709Y+5607921D01*
X+540291Y+5607921D01*
X+462921Y+5685291D01*
G37*
G36*
X+1512921Y+2870291D02*
X+1512921Y+2979709D01*
X+1590291Y+3057079D01*
X+1699709Y+3057079D01*
X+1777079Y+2979709D01*
X+1777079Y+2870291D01*
X+1699709Y+2792921D01*
X+1590291Y+2792921D01*
X+1512921Y+2870291D01*
G37*
G36*
X+1573364Y+5044904D02*
X+1573364Y+5071206D01*
X+1591963Y+5089805D01*
X+1618265Y+5089805D01*
X+1636864Y+5071206D01*
X+1636864Y+5044904D01*
X+1618265Y+5026305D01*
X+1591963Y+5026305D01*
X+1573364Y+5044904D01*
G37*
%LPD*%
G36*
X+6939040Y+60960D02*
X+6330906Y+60960D01*
X+6361279Y+91333D01*
X+6361279Y+158667D01*
X+6318625Y+201321D01*
X+6400188Y+201321D01*
X+6462679Y+263812D01*
X+6462679Y+352188D01*
X+6400188Y+414679D01*
X+6311812Y+414679D01*
X+6249321Y+352188D01*
X+6249321Y+263812D01*
X+6306854Y+206279D01*
X+6246333Y+206279D01*
X+6217123Y+177069D01*
X+6150000Y+177068D01*
X+6122869Y+177069D01*
X+6122869Y+202469D01*
X+5917131Y+202469D01*
X+5917131Y+177069D01*
X+5727869Y+177069D01*
X+5727869Y+202469D01*
X+5522131Y+202469D01*
X+5522131Y+177069D01*
X+5342869Y+177069D01*
X+5342869Y+202469D01*
X+5137131Y+202469D01*
X+5137131Y+57296D01*
X+5114621Y+43986D01*
X+5013957Y-139040D01*
X+4804826Y-139040D01*
X+4847941Y-105912D01*
X+4888556Y-49825D01*
X+4912772Y+50000D01*
X+4888556Y+149825D01*
X+4847941Y+205912D01*
X+4799185Y+243374D01*
X+4745024Y+265348D01*
X+4689000Y+272499D01*
X+4632976Y+265348D01*
X+4578815Y+243374D01*
X+4530059Y+205912D01*
X+4524854Y+198724D01*
X+4524854Y+328612D01*
X+4898194Y+701952D01*
X+4898194Y+660113D01*
X+4945806Y+612501D01*
X+5013140Y+612501D01*
X+5060752Y+660113D01*
X+5060752Y+701116D01*
X+5084041Y+724405D01*
X+5084041Y+647531D01*
X+5205959Y+647531D01*
X+5205959Y+802469D01*
X+5162105Y+802469D01*
X+5231167Y+871531D01*
X+5337869Y+871531D01*
X+5337869Y+896931D01*
X+5519432Y+896931D01*
X+5519432Y+872531D01*
X+5725170Y+872531D01*
X+5725170Y+892931D01*
X+5907131Y+892931D01*
X+5907131Y+867531D01*
X+6112869Y+867531D01*
X+6112869Y+892931D01*
X+6202123Y+892931D01*
X+6206333Y+888721D01*
X+6220501Y+888721D01*
X+6184959Y+853179D01*
X+5402115Y+853179D01*
X+5351405Y+802469D01*
X+5274041Y+802469D01*
X+5274041Y+647531D01*
X+5395959Y+647531D01*
X+5395959Y+724895D01*
X+5437885Y+766821D01*
X+5474041Y+766821D01*
X+5474041Y+647531D01*
X+5595959Y+647531D01*
X+5595959Y+766821D01*
X+5664041Y+766821D01*
X+5664041Y+647531D01*
X+5766361Y+647531D01*
X+5769771Y+644121D01*
X+5816063Y+644121D01*
X+5848796Y+676854D01*
X+5848796Y+723146D01*
X+5816063Y+755879D01*
X+5785959Y+755879D01*
X+5785959Y+766821D01*
X+5864041Y+766821D01*
X+5864041Y+647531D01*
X+5985959Y+647531D01*
X+5985959Y+766821D01*
X+6054041Y+766821D01*
X+6054041Y+647531D01*
X+6175959Y+647531D01*
X+6175959Y+681821D01*
X+6282885Y+681821D01*
X+6311098Y+710034D01*
X+6311812Y+709321D01*
X+6400188Y+709321D01*
X+6462679Y+771812D01*
X+6462679Y+860188D01*
X+6443440Y+879427D01*
X+6612509Y+879427D01*
X+6631034Y+860902D01*
X+6630321Y+860188D01*
X+6630321Y+771812D01*
X+6692812Y+709321D01*
X+6781188Y+709321D01*
X+6843679Y+771812D01*
X+6843679Y+860188D01*
X+6781188Y+922679D01*
X+6692812Y+922679D01*
X+6692098Y+921966D01*
X+6648279Y+965785D01*
X+6402652Y+965785D01*
X+6462679Y+1025812D01*
X+6462679Y+1114188D01*
X+6400188Y+1176679D01*
X+6311812Y+1176679D01*
X+6249321Y+1114188D01*
X+6249321Y+1051279D01*
X+6206333Y+1051279D01*
X+6158721Y+1003667D01*
X+6158721Y+997069D01*
X+6112869Y+997069D01*
X+6112869Y+1022469D01*
X+5907131Y+1022469D01*
X+5907131Y+997069D01*
X+5725170Y+997069D01*
X+5725170Y+1027469D01*
X+5519432Y+1027469D01*
X+5519432Y+1001069D01*
X+5337869Y+1001069D01*
X+5337869Y+1026469D01*
X+5132131Y+1026469D01*
X+5132131Y+919767D01*
X+4987423Y+775059D01*
X+4971301Y+775059D01*
X+4992748Y+796506D01*
X+4992748Y+1063316D01*
X+4947869Y+1108195D01*
X+4947869Y+1227469D01*
X+4888179Y+1227469D01*
X+4888179Y+1237531D01*
X+4905959Y+1237531D01*
X+4905959Y+1392469D01*
X+4784041Y+1392469D01*
X+4784041Y+1237531D01*
X+4801821Y+1237531D01*
X+4801821Y+1227469D01*
X+4742131Y+1227469D01*
X+4742131Y+1072531D01*
X+4861405Y+1072531D01*
X+4906390Y+1027546D01*
X+4906390Y+1027469D01*
X+4765082Y+1027469D01*
X+4375140Y+1417410D01*
X+4415747Y+1458017D01*
X+4415747Y+1535871D01*
X+4360695Y+1590923D01*
X+4288853Y+1590923D01*
X+4036094Y+1843682D01*
X+4036094Y+1895712D01*
X+4040841Y+1890965D01*
X+4118695Y+1890965D01*
X+4173747Y+1946017D01*
X+4173747Y+2023871D01*
X+4118695Y+2078923D01*
X+4040841Y+2078923D01*
X+3985789Y+2023871D01*
X+3985789Y+2016499D01*
X+3885467Y+2116821D01*
X+4904677Y+2116821D01*
X+4989907Y+2202051D01*
X+5074459Y+2202051D01*
X+5074459Y+2372140D01*
X+5079541Y+2372140D01*
X+5079541Y+2202051D01*
X+5097321Y+2202051D01*
X+5097321Y+2157469D01*
X+5047131Y+2157469D01*
X+5047131Y+2002531D01*
X+5252869Y+2002531D01*
X+5252869Y+2157469D01*
X+5183679Y+2157469D01*
X+5183679Y+2202051D01*
X+5201459Y+2202051D01*
X+5201459Y+2372140D01*
X+5248541Y+2372140D01*
X+5248541Y+2202051D01*
X+5370459Y+2202051D01*
X+5370459Y+2335320D01*
X+5375541Y+2330238D01*
X+5375541Y+2202051D01*
X+5483026Y+2202051D01*
X+5459121Y+2178146D01*
X+5459121Y+2131854D01*
X+5491854Y+2099121D01*
X+5538146Y+2099121D01*
X+5570879Y+2131854D01*
X+5570879Y+2149815D01*
X+5606679Y+2185615D01*
X+5606679Y+2202051D01*
X+5624459Y+2202051D01*
X+5624459Y+2417949D01*
X+5502541Y+2417949D01*
X+5502541Y+2210879D01*
X+5497459Y+2210879D01*
X+5497459Y+2417949D01*
X+5409958Y+2417949D01*
X+5400306Y+2427601D01*
X+5687959Y+2427601D01*
X+5687959Y+2732399D01*
X+5312041Y+2732399D01*
X+5312041Y+2458498D01*
X+5137959Y+2458498D01*
X+5137959Y+2732399D01*
X+4762041Y+2732399D01*
X+4762041Y+2458498D01*
X+4005527Y+2458498D01*
X+3998146Y+2465879D01*
X+3951854Y+2465879D01*
X+3924962Y+2438986D01*
X+3660839Y+2703109D01*
X+3665747Y+2708017D01*
X+3665747Y+2785871D01*
X+3610695Y+2840923D01*
X+3532841Y+2840923D01*
X+3477789Y+2785871D01*
X+3477789Y+2708017D01*
X+3532841Y+2652965D01*
X+3588855Y+2652965D01*
X+4038641Y+2203179D01*
X+3915452Y+2203179D01*
X+3411180Y+2707450D01*
X+3411747Y+2708017D01*
X+3411747Y+2785871D01*
X+3356695Y+2840923D01*
X+3278841Y+2840923D01*
X+3223789Y+2785871D01*
X+3223789Y+2708017D01*
X+3278841Y+2652965D01*
X+3343538Y+2652965D01*
X+3538176Y+2458327D01*
X+2991279Y+2458327D01*
X+2991279Y+2638979D01*
X+2828721Y+2638979D01*
X+2828721Y+2458327D01*
X+2777919Y+2458327D01*
X+2777919Y+2638979D01*
X+2737369Y+2638979D01*
X+2649747Y+2726601D01*
X+2649747Y+2785871D01*
X+2607837Y+2827781D01*
X+2607837Y+2973527D01*
X+2683092Y+2898272D01*
X+3636908Y+2898272D01*
X+3698307Y+2959671D01*
X+3766558Y+2959671D01*
X+3825000Y+3018113D01*
X+3883442Y+2959671D01*
X+3966558Y+2959671D01*
X+4025000Y+3018113D01*
X+4083442Y+2959671D01*
X+4166558Y+2959671D01*
X+4225000Y+3018113D01*
X+4283442Y+2959671D01*
X+4351693Y+2959671D01*
X+4513433Y+2797931D01*
X+4698541Y+2797931D01*
X+4698541Y+2742051D01*
X+4820459Y+2742051D01*
X+4820459Y+2957949D01*
X+4698541Y+2957949D01*
X+4698541Y+2902069D01*
X+4556567Y+2902069D01*
X+4498965Y+2959671D01*
X+4566558Y+2959671D01*
X+4614818Y+3007931D01*
X+4815122Y+3007931D01*
X+4865104Y+2957949D01*
X+4825541Y+2957949D01*
X+4825541Y+2742051D01*
X+4947459Y+2742051D01*
X+4947459Y+2875594D01*
X+4952541Y+2870512D01*
X+4952541Y+2742051D01*
X+5074459Y+2742051D01*
X+5074459Y+2957949D01*
X+5012376Y+2957949D01*
X+4858256Y+3112069D01*
X+4614818Y+3112069D01*
X+4566887Y+3160000D01*
X+4614818Y+3207931D01*
X+4877933Y+3207931D01*
X+5127915Y+2957949D01*
X+5079541Y+2957949D01*
X+5079541Y+2742051D01*
X+5167681Y+2742051D01*
X+5176863Y+2732869D01*
X+5244197Y+2732869D01*
X+5253379Y+2742051D01*
X+5370459Y+2742051D01*
X+5370459Y+2957949D01*
X+5275187Y+2957949D01*
X+4921067Y+3312069D01*
X+4614818Y+3312069D01*
X+4612353Y+3314534D01*
X+5061830Y+3314534D01*
X+5418415Y+2957949D01*
X+5375541Y+2957949D01*
X+5375541Y+2742051D01*
X+5497459Y+2742051D01*
X+5497459Y+2878905D01*
X+5502541Y+2873823D01*
X+5502541Y+2742051D01*
X+5624459Y+2742051D01*
X+5624459Y+2957949D01*
X+5565687Y+2957949D01*
X+5104964Y+3418672D01*
X+4410036Y+3418672D01*
X+4351693Y+3360329D01*
X+4283442Y+3360329D01*
X+4225000Y+3301887D01*
X+4166558Y+3360329D01*
X+4083442Y+3360329D01*
X+4025000Y+3301887D01*
X+3966558Y+3360329D01*
X+3883442Y+3360329D01*
X+3825000Y+3301887D01*
X+3766558Y+3360329D01*
X+3712067Y+3360329D01*
X+3633356Y+3439040D01*
X+4825250Y+3439040D01*
X+5060960Y+3674750D01*
X+5060960Y+5939040D01*
X+6939040Y+5939040D01*
X+6939040Y+60960D01*
G37*
%LPC*%
G36*
X+6055329Y+5811558D02*
X+6055329Y+5803885D01*
X+6342179Y+5803885D01*
X+6533195Y+5612869D01*
X+6652469Y+5612869D01*
X+6652469Y+5407131D01*
X+6576305Y+5407131D01*
X+6614041Y+5369395D01*
X+6614041Y+5397469D01*
X+6735959Y+5397469D01*
X+6735959Y+5242531D01*
X+6614041Y+5242531D01*
X+6614041Y+5276821D01*
X+6584487Y+5276821D01*
X+6334487Y+5526821D01*
X+6053708Y+5526821D01*
X+5996558Y+5469671D01*
X+5969512Y+5469671D01*
X+6176623Y+5262560D01*
X+6176623Y+4827869D01*
X+6207469Y+4827869D01*
X+6207469Y+4622131D01*
X+6052531Y+4622131D01*
X+6052531Y+4827869D01*
X+6090265Y+4827869D01*
X+6090265Y+4999392D01*
X+6071941Y+4974088D01*
X+6059182Y+4964284D01*
X+6023185Y+4936626D01*
X+5969024Y+4914652D01*
X+5961168Y+4913649D01*
X+5913000Y+4907501D01*
X+5856976Y+4914652D01*
X+5849632Y+4917631D01*
X+5802815Y+4936626D01*
X+5793179Y+4944029D01*
X+5793179Y+4827869D01*
X+5827469Y+4827869D01*
X+5827469Y+4701268D01*
X+5852531Y+4726330D01*
X+5852531Y+4827869D01*
X+6007469Y+4827869D01*
X+6007469Y+4622131D01*
X+5895604Y+4622131D01*
X+5864432Y+4590959D01*
X+5992469Y+4590959D01*
X+5992469Y+4513595D01*
X+6067531Y+4438533D01*
X+6067531Y+4488114D01*
X+6047648Y+4507997D01*
X+6047648Y+4554289D01*
X+6080381Y+4587022D01*
X+6126673Y+4587022D01*
X+6159406Y+4554289D01*
X+6159406Y+4536328D01*
X+6188179Y+4507555D01*
X+6188179Y+4495959D01*
X+6222469Y+4495959D01*
X+6222469Y+4374041D01*
X+6132023Y+4374041D01*
X+6212885Y+4293179D01*
X+6283954Y+4293179D01*
X+6249321Y+4327812D01*
X+6249321Y+4416188D01*
X+6311812Y+4478679D01*
X+6400188Y+4478679D01*
X+6417521Y+4461346D01*
X+6417521Y+4536654D01*
X+6400188Y+4519321D01*
X+6311812Y+4519321D01*
X+6249321Y+4581812D01*
X+6249321Y+4670188D01*
X+6311812Y+4732679D01*
X+6400188Y+4732679D01*
X+6417521Y+4715346D01*
X+6417521Y+4757415D01*
X+6388915Y+4786021D01*
X+6262021Y+4786021D01*
X+6262021Y+4973979D01*
X+6449979Y+4973979D01*
X+6449979Y+4847085D01*
X+6503879Y+4793185D01*
X+6503879Y+4054297D01*
X+6536821Y+4054297D01*
X+6536821Y+5012531D01*
X+6519041Y+5012531D01*
X+6519041Y+5167469D01*
X+6640959Y+5167469D01*
X+6640959Y+5012531D01*
X+6623179Y+5012531D01*
X+6623179Y+4827243D01*
X+6631034Y+4835098D01*
X+6630321Y+4835812D01*
X+6630321Y+4924188D01*
X+6692812Y+4986679D01*
X+6781188Y+4986679D01*
X+6843679Y+4924188D01*
X+6843679Y+4835812D01*
X+6781188Y+4773321D01*
X+6692812Y+4773321D01*
X+6692098Y+4774034D01*
X+6672211Y+4754147D01*
X+6672211Y+4712078D01*
X+6692812Y+4732679D01*
X+6781188Y+4732679D01*
X+6843679Y+4670188D01*
X+6843679Y+4581812D01*
X+6781188Y+4519321D01*
X+6692812Y+4519321D01*
X+6672211Y+4539922D01*
X+6672211Y+4458078D01*
X+6692812Y+4478679D01*
X+6781188Y+4478679D01*
X+6843679Y+4416188D01*
X+6843679Y+4327812D01*
X+6781188Y+4265321D01*
X+6692812Y+4265321D01*
X+6672211Y+4285922D01*
X+6672211Y+4204078D01*
X+6692812Y+4224679D01*
X+6781188Y+4224679D01*
X+6843679Y+4162188D01*
X+6843679Y+4073812D01*
X+6781188Y+4011321D01*
X+6692812Y+4011321D01*
X+6672211Y+4031922D01*
X+6672211Y+3950078D01*
X+6692812Y+3970679D01*
X+6781188Y+3970679D01*
X+6843679Y+3908188D01*
X+6843679Y+3819812D01*
X+6781188Y+3757321D01*
X+6692812Y+3757321D01*
X+6672211Y+3777922D01*
X+6672211Y+3696078D01*
X+6692812Y+3716679D01*
X+6781188Y+3716679D01*
X+6843679Y+3654188D01*
X+6843679Y+3565812D01*
X+6781188Y+3503321D01*
X+6692812Y+3503321D01*
X+6672211Y+3523922D01*
X+6672211Y+3460891D01*
X+6410094Y+3198774D01*
X+6462679Y+3146188D01*
X+6462679Y+3057812D01*
X+6400188Y+2995321D01*
X+6311812Y+2995321D01*
X+6249321Y+3057812D01*
X+6249321Y+3146188D01*
X+6278114Y+3174981D01*
X+5909492Y+3174981D01*
X+5896792Y+3162281D01*
X+5893782Y+3162281D01*
X+6164884Y+2891179D01*
X+6249321Y+2891179D01*
X+6249321Y+2892188D01*
X+6311812Y+2954679D01*
X+6400188Y+2954679D01*
X+6462679Y+2892188D01*
X+6462679Y+2803812D01*
X+6400188Y+2741321D01*
X+6311812Y+2741321D01*
X+6249321Y+2803812D01*
X+6249321Y+2804821D01*
X+6160879Y+2804821D01*
X+6160879Y+2776854D01*
X+6148179Y+2764154D01*
X+6148179Y+1622469D01*
X+6165959Y+1622469D01*
X+6165959Y+1511895D01*
X+6271238Y+1511895D01*
X+6249321Y+1533812D01*
X+6249321Y+1622188D01*
X+6311812Y+1684679D01*
X+6400188Y+1684679D01*
X+6400902Y+1683966D01*
X+6486204Y+1769268D01*
X+6462679Y+1792793D01*
X+6462679Y+1787812D01*
X+6400188Y+1725321D01*
X+6311812Y+1725321D01*
X+6249321Y+1787812D01*
X+6249321Y+1876188D01*
X+6311812Y+1938679D01*
X+6400188Y+1938679D01*
X+6462679Y+1876188D01*
X+6462679Y+1853561D01*
X+6471561Y+1862443D01*
X+6471561Y+2554123D01*
X+6462679Y+2563005D01*
X+6462679Y+2549812D01*
X+6400188Y+2487321D01*
X+6311812Y+2487321D01*
X+6249321Y+2549812D01*
X+6249321Y+2638188D01*
X+6311812Y+2700679D01*
X+6400188Y+2700679D01*
X+6462679Y+2638188D01*
X+6462679Y+2616933D01*
X+6491594Y+2645848D01*
X+6537886Y+2645848D01*
X+6570619Y+2613115D01*
X+6570619Y+2566823D01*
X+6557919Y+2554123D01*
X+6557919Y+2553252D01*
X+6591165Y+2553252D01*
X+6623898Y+2520519D01*
X+6623898Y+2474227D01*
X+6611198Y+2461527D01*
X+6611198Y+1772134D01*
X+6461966Y+1622902D01*
X+6462679Y+1622188D01*
X+6462679Y+1533812D01*
X+6440762Y+1511895D01*
X+6609831Y+1511895D01*
X+6631034Y+1533098D01*
X+6630321Y+1533812D01*
X+6630321Y+1622188D01*
X+6692812Y+1684679D01*
X+6781188Y+1684679D01*
X+6843679Y+1622188D01*
X+6843679Y+1533812D01*
X+6781188Y+1471321D01*
X+6692812Y+1471321D01*
X+6692098Y+1472034D01*
X+6645601Y+1425537D01*
X+6405330Y+1425537D01*
X+6462679Y+1368188D01*
X+6462679Y+1279812D01*
X+6400188Y+1217321D01*
X+6311812Y+1217321D01*
X+6249321Y+1279812D01*
X+6249321Y+1368188D01*
X+6306670Y+1425537D01*
X+5079750Y+1425537D01*
X+5003466Y+1501821D01*
X+5000959Y+1501821D01*
X+5000959Y+1467531D01*
X+4879041Y+1467531D01*
X+4879041Y+1622469D01*
X+5000959Y+1622469D01*
X+5000959Y+1588179D01*
X+5039236Y+1588179D01*
X+5079041Y+1548374D01*
X+5079041Y+1622469D01*
X+5200959Y+1622469D01*
X+5200959Y+1511895D01*
X+5269041Y+1511895D01*
X+5269041Y+1622469D01*
X+5346405Y+1622469D01*
X+5506826Y+1782890D01*
X+5506826Y+1796111D01*
X+5539559Y+1828844D01*
X+5585851Y+1828844D01*
X+5597131Y+1817564D01*
X+5597131Y+1957469D01*
X+5802869Y+1957469D01*
X+5802869Y+1878933D01*
X+5989121Y+2065185D01*
X+5989121Y+2083146D01*
X+6021854Y+2115879D01*
X+6061821Y+2115879D01*
X+6061821Y+2764154D01*
X+6049121Y+2776854D01*
X+6049121Y+2823146D01*
X+6079955Y+2853980D01*
X+5726821Y+3207114D01*
X+5726821Y+4272115D01*
X+5607469Y+4391467D01*
X+5607469Y+4279041D01*
X+5452531Y+4279041D01*
X+5452531Y+4374041D01*
X+5302531Y+4374041D01*
X+5302531Y+4495959D01*
X+5319121Y+4495959D01*
X+5319121Y+4538146D01*
X+5341612Y+4560637D01*
X+5260727Y+4560637D01*
X+5199233Y+4622131D01*
X+5092531Y+4622131D01*
X+5092531Y+4827869D01*
X+5117931Y+4827869D01*
X+5117931Y+5007123D01*
X+5088721Y+5036333D01*
X+5088721Y+5103667D01*
X+5136333Y+5151279D01*
X+5203667Y+5151279D01*
X+5251279Y+5103667D01*
X+5251279Y+5036333D01*
X+5222069Y+5007123D01*
X+5222069Y+4827869D01*
X+5247469Y+4827869D01*
X+5247469Y+4721167D01*
X+5292531Y+4676105D01*
X+5292531Y+4827869D01*
X+5326821Y+4827869D01*
X+5326821Y+5452592D01*
X+5343900Y+5469671D01*
X+5313442Y+5469671D01*
X+5254671Y+5528442D01*
X+5254671Y+5611558D01*
X+5313113Y+5670000D01*
X+5254671Y+5728442D01*
X+5254671Y+5811558D01*
X+5313442Y+5870329D01*
X+5396558Y+5870329D01*
X+5455000Y+5811887D01*
X+5513442Y+5870329D01*
X+5596558Y+5870329D01*
X+5655000Y+5811887D01*
X+5713442Y+5870329D01*
X+5796558Y+5870329D01*
X+5855000Y+5811887D01*
X+5913442Y+5870329D01*
X+5996558Y+5870329D01*
X+6055329Y+5811558D01*
G37*
G36*
X+6692812Y+3462679D02*
X+6781188Y+3462679D01*
X+6843679Y+3400188D01*
X+6843679Y+3311812D01*
X+6781188Y+3249321D01*
X+6692812Y+3249321D01*
X+6630321Y+3311812D01*
X+6630321Y+3400188D01*
X+6692812Y+3462679D01*
G37*
G36*
X+6692812Y+3208679D02*
X+6781188Y+3208679D01*
X+6843679Y+3146188D01*
X+6843679Y+3057812D01*
X+6781188Y+2995321D01*
X+6692812Y+2995321D01*
X+6630321Y+3057812D01*
X+6630321Y+3146188D01*
X+6692812Y+3208679D01*
G37*
G36*
X+6692812Y+2954679D02*
X+6781188Y+2954679D01*
X+6843679Y+2892188D01*
X+6843679Y+2803812D01*
X+6781188Y+2741321D01*
X+6692812Y+2741321D01*
X+6630321Y+2803812D01*
X+6630321Y+2892188D01*
X+6692812Y+2954679D01*
G37*
G36*
X+6692812Y+2700679D02*
X+6781188Y+2700679D01*
X+6843679Y+2638188D01*
X+6843679Y+2549812D01*
X+6781188Y+2487321D01*
X+6692812Y+2487321D01*
X+6630321Y+2549812D01*
X+6630321Y+2638188D01*
X+6692812Y+2700679D01*
G37*
G36*
X+6311812Y+2446679D02*
X+6400188Y+2446679D01*
X+6462679Y+2384188D01*
X+6462679Y+2295812D01*
X+6400188Y+2233321D01*
X+6311812Y+2233321D01*
X+6249321Y+2295812D01*
X+6249321Y+2384188D01*
X+6311812Y+2446679D01*
G37*
G36*
X+6692812Y+2446679D02*
X+6781188Y+2446679D01*
X+6843679Y+2384188D01*
X+6843679Y+2295812D01*
X+6781188Y+2233321D01*
X+6692812Y+2233321D01*
X+6630321Y+2295812D01*
X+6630321Y+2384188D01*
X+6692812Y+2446679D01*
G37*
G36*
X+6311812Y+2192679D02*
X+6400188Y+2192679D01*
X+6462679Y+2130188D01*
X+6462679Y+2041812D01*
X+6400188Y+1979321D01*
X+6311812Y+1979321D01*
X+6249321Y+2041812D01*
X+6249321Y+2130188D01*
X+6311812Y+2192679D01*
G37*
G36*
X+6692812Y+2192679D02*
X+6781188Y+2192679D01*
X+6843679Y+2130188D01*
X+6843679Y+2041812D01*
X+6781188Y+1979321D01*
X+6692812Y+1979321D01*
X+6630321Y+2041812D01*
X+6630321Y+2130188D01*
X+6692812Y+2192679D01*
G37*
G36*
X+6692812Y+1938679D02*
X+6781188Y+1938679D01*
X+6843679Y+1876188D01*
X+6843679Y+1787812D01*
X+6781188Y+1725321D01*
X+6692812Y+1725321D01*
X+6630321Y+1787812D01*
X+6630321Y+1876188D01*
X+6692812Y+1938679D01*
G37*
G36*
X+6692812Y+1430679D02*
X+6781188Y+1430679D01*
X+6843679Y+1368188D01*
X+6843679Y+1279812D01*
X+6781188Y+1217321D01*
X+6692812Y+1217321D01*
X+6630321Y+1279812D01*
X+6630321Y+1368188D01*
X+6692812Y+1430679D01*
G37*
G36*
X+6692812Y+1176679D02*
X+6781188Y+1176679D01*
X+6843679Y+1114188D01*
X+6843679Y+1025812D01*
X+6781188Y+963321D01*
X+6692812Y+963321D01*
X+6630321Y+1025812D01*
X+6630321Y+1114188D01*
X+6692812Y+1176679D01*
G37*
G36*
X+6311812Y+668679D02*
X+6400188Y+668679D01*
X+6462679Y+606188D01*
X+6462679Y+517812D01*
X+6400188Y+455321D01*
X+6311812Y+455321D01*
X+6249321Y+517812D01*
X+6249321Y+606188D01*
X+6311812Y+668679D01*
G37*
G36*
X+6692812Y+668679D02*
X+6781188Y+668679D01*
X+6843679Y+606188D01*
X+6843679Y+517812D01*
X+6781188Y+455321D01*
X+6692812Y+455321D01*
X+6630321Y+517812D01*
X+6630321Y+606188D01*
X+6692812Y+668679D01*
G37*
G36*
X+6692812Y+414679D02*
X+6781188Y+414679D01*
X+6843679Y+352188D01*
X+6843679Y+263812D01*
X+6781188Y+201321D01*
X+6692812Y+201321D01*
X+6630321Y+263812D01*
X+6630321Y+352188D01*
X+6692812Y+414679D01*
G37*
G36*
X+4282841Y+1844923D02*
X+4360695Y+1844923D01*
X+4415747Y+1789871D01*
X+4415747Y+1712017D01*
X+4360695Y+1656965D01*
X+4282841Y+1656965D01*
X+4227789Y+1712017D01*
X+4227789Y+1789871D01*
X+4282841Y+1844923D01*
G37*
G36*
X+5690959Y+417531D02*
X+5673179Y+417531D01*
X+5673179Y+402469D01*
X+5727869Y+402469D01*
X+5727869Y+247531D01*
X+5522131Y+247531D01*
X+5522131Y+318510D01*
X+5459386Y+318509D01*
X+5446686Y+305809D01*
X+5400394Y+305809D01*
X+5367661Y+338542D01*
X+5367661Y+384834D01*
X+5400394Y+417567D01*
X+5446686Y+417567D01*
X+5459386Y+404867D01*
X+5586821Y+404866D01*
X+5586821Y+417531D01*
X+5569041Y+417531D01*
X+5569041Y+572469D01*
X+5690959Y+572469D01*
X+5690959Y+417531D01*
G37*
G36*
X+5685959Y+1237531D02*
X+5665480Y+1237531D01*
X+5665480Y+1227469D01*
X+5725170Y+1227469D01*
X+5725170Y+1072531D01*
X+5519432Y+1072531D01*
X+5519432Y+1106821D01*
X+5398135Y+1106821D01*
X+5386093Y+1094779D01*
X+5339801Y+1094779D01*
X+5337869Y+1096711D01*
X+5337869Y+1071531D01*
X+5197595Y+1071531D01*
X+5193334Y+1067270D01*
X+5193334Y+1065337D01*
X+5160601Y+1032604D01*
X+5114309Y+1032604D01*
X+5081576Y+1065337D01*
X+5081576Y+1111629D01*
X+5114309Y+1144362D01*
X+5132131Y+1144362D01*
X+5132131Y+1226469D01*
X+5191821Y+1226469D01*
X+5191821Y+1237531D01*
X+5174041Y+1237531D01*
X+5174041Y+1392469D01*
X+5295959Y+1392469D01*
X+5295959Y+1237531D01*
X+5278179Y+1237531D01*
X+5278179Y+1226469D01*
X+5337869Y+1226469D01*
X+5337869Y+1204605D01*
X+5339801Y+1206537D01*
X+5386093Y+1206537D01*
X+5399451Y+1193179D01*
X+5519432Y+1193179D01*
X+5519432Y+1227469D01*
X+5579122Y+1227469D01*
X+5579122Y+1237531D01*
X+5564041Y+1237531D01*
X+5564041Y+1392469D01*
X+5685959Y+1392469D01*
X+5685959Y+1237531D01*
G37*
G36*
X+5888501Y+1385345D02*
X+5949041Y+1385345D01*
X+5949041Y+1392469D01*
X+6070959Y+1392469D01*
X+6070959Y+1237531D01*
X+6053179Y+1237531D01*
X+6053179Y+1222469D01*
X+6112869Y+1222469D01*
X+6112869Y+1067531D01*
X+5907131Y+1067531D01*
X+5907131Y+1222469D01*
X+5966821Y+1222469D01*
X+5966821Y+1237531D01*
X+5949041Y+1237531D01*
X+5949041Y+1298987D01*
X+5888501Y+1298987D01*
X+5875801Y+1286287D01*
X+5829509Y+1286287D01*
X+5796776Y+1319020D01*
X+5796776Y+1365312D01*
X+5829509Y+1398045D01*
X+5875801Y+1398045D01*
X+5888501Y+1385345D01*
G37*
G36*
X+5065846Y+578179D02*
X+5217885Y+578179D01*
X+5223595Y+572469D01*
X+5300959Y+572469D01*
X+5300959Y+417531D01*
X+5283179Y+417531D01*
X+5283179Y+402469D01*
X+5342869Y+402469D01*
X+5342869Y+247531D01*
X+5137131Y+247531D01*
X+5137131Y+402469D01*
X+5196821Y+402469D01*
X+5196821Y+417531D01*
X+5179041Y+417531D01*
X+5179041Y+491821D01*
X+5065846Y+491821D01*
X+5053146Y+479121D01*
X+5006854Y+479121D01*
X+4974121Y+511854D01*
X+4974121Y+558146D01*
X+5006854Y+590879D01*
X+5053146Y+590879D01*
X+5065846Y+578179D01*
G37*
G36*
X+5955879Y+548146D02*
X+5955879Y+538179D01*
X+5959041Y+538179D01*
X+5959041Y+572469D01*
X+6080959Y+572469D01*
X+6080959Y+417531D01*
X+6063179Y+417531D01*
X+6063179Y+402469D01*
X+6122869Y+402469D01*
X+6122869Y+247531D01*
X+5917131Y+247531D01*
X+5917131Y+402469D01*
X+5976821Y+402469D01*
X+5976821Y+417531D01*
X+5959041Y+417531D01*
X+5959041Y+451821D01*
X+5912115Y+451821D01*
X+5894815Y+469121D01*
X+5876854Y+469121D01*
X+5844121Y+501854D01*
X+5844121Y+548146D01*
X+5876854Y+580879D01*
X+5923146Y+580879D01*
X+5955879Y+548146D01*
G37*
G36*
X+5751459Y+2202051D02*
X+5733679Y+2202051D01*
X+5733679Y+2157469D01*
X+5802869Y+2157469D01*
X+5802869Y+2002531D01*
X+5597131Y+2002531D01*
X+5597131Y+2157469D01*
X+5647321Y+2157469D01*
X+5647321Y+2202051D01*
X+5629541Y+2202051D01*
X+5629541Y+2417949D01*
X+5751459Y+2417949D01*
X+5751459Y+2202051D01*
G37*
G36*
X+5751459Y+2900359D02*
X+5831902Y+2819916D01*
X+5873212Y+2819916D01*
X+5920824Y+2772304D01*
X+5920824Y+2704970D01*
X+5873212Y+2657358D01*
X+5805878Y+2657358D01*
X+5758266Y+2704970D01*
X+5758266Y+2746280D01*
X+5751459Y+2753087D01*
X+5751459Y+2742051D01*
X+5629541Y+2742051D01*
X+5629541Y+2957949D01*
X+5751459Y+2957949D01*
X+5751459Y+2900359D01*
G37*
G36*
X+4239789Y+1946017D02*
X+4239789Y+2023871D01*
X+4294841Y+2078923D01*
X+4372695Y+2078923D01*
X+4427747Y+2023871D01*
X+4427747Y+1946017D01*
X+4372695Y+1890965D01*
X+4294841Y+1890965D01*
X+4239789Y+1946017D01*
G37*
G36*
X+4239789Y+2708017D02*
X+4239789Y+2785871D01*
X+4294841Y+2840923D01*
X+4372695Y+2840923D01*
X+4427747Y+2785871D01*
X+4427747Y+2708017D01*
X+4372695Y+2652965D01*
X+4294841Y+2652965D01*
X+4239789Y+2708017D01*
G37*
G36*
X+3985789Y+2708017D02*
X+3985789Y+2785871D01*
X+4040841Y+2840923D01*
X+4118695Y+2840923D01*
X+4173747Y+2785871D01*
X+4173747Y+2708017D01*
X+4118695Y+2652965D01*
X+4040841Y+2652965D01*
X+3985789Y+2708017D01*
G37*
G36*
X+3731789Y+2708017D02*
X+3731789Y+2785871D01*
X+3786841Y+2840923D01*
X+3864695Y+2840923D01*
X+3919747Y+2785871D01*
X+3919747Y+2708017D01*
X+3864695Y+2652965D01*
X+3786841Y+2652965D01*
X+3731789Y+2708017D01*
G37*
G36*
X+2969789Y+2708017D02*
X+2969789Y+2785871D01*
X+3024841Y+2840923D01*
X+3102695Y+2840923D01*
X+3157747Y+2785871D01*
X+3157747Y+2708017D01*
X+3102695Y+2652965D01*
X+3024841Y+2652965D01*
X+2969789Y+2708017D01*
G37*
G36*
X+2715789Y+2708017D02*
X+2715789Y+2785871D01*
X+2770841Y+2840923D01*
X+2848695Y+2840923D01*
X+2903747Y+2785871D01*
X+2903747Y+2708017D01*
X+2848695Y+2652965D01*
X+2770841Y+2652965D01*
X+2715789Y+2708017D01*
G37*
G36*
X+5252869Y+1957469D02*
X+5252869Y+1802531D01*
X+5047131Y+1802531D01*
X+5047131Y+1957469D01*
X+5252869Y+1957469D01*
G37*
G36*
X+4689041Y+1622469D02*
X+4810959Y+1622469D01*
X+4810959Y+1467531D01*
X+4689041Y+1467531D01*
X+4689041Y+1622469D01*
G37*
G36*
X+5227469Y+4469041D02*
X+5208484Y+4469041D01*
X+5208484Y+4467086D01*
X+5221184Y+4454386D01*
X+5221184Y+4408094D01*
X+5214049Y+4400959D01*
X+5227469Y+4400959D01*
X+5227469Y+4279041D01*
X+5072531Y+4279041D01*
X+5072531Y+4400959D01*
X+5116561Y+4400959D01*
X+5109426Y+4408094D01*
X+5109426Y+4454386D01*
X+5122126Y+4467086D01*
X+5122126Y+4469041D01*
X+5072531Y+4469041D01*
X+5072531Y+4590959D01*
X+5227469Y+4590959D01*
X+5227469Y+4469041D01*
G37*
G36*
X+6830959Y+5012531D02*
X+6709041Y+5012531D01*
X+6709041Y+5167469D01*
X+6830959Y+5167469D01*
X+6830959Y+5012531D01*
G37*
G36*
X+6856279Y+5848667D02*
X+6856279Y+5781333D01*
X+6827069Y+5752123D01*
X+6827069Y+5612869D01*
X+6852469Y+5612869D01*
X+6852469Y+5407131D01*
X+6697531Y+5407131D01*
X+6697531Y+5612869D01*
X+6722931Y+5612869D01*
X+6722931Y+5752123D01*
X+6693721Y+5781333D01*
X+6693721Y+5848667D01*
X+6741333Y+5896279D01*
X+6808667Y+5896279D01*
X+6856279Y+5848667D01*
G37*
G36*
X+5936060Y+2876155D02*
X+5936060Y+2902457D01*
X+5954659Y+2921056D01*
X+5980961Y+2921056D01*
X+5999560Y+2902457D01*
X+5999560Y+2876155D01*
X+5980961Y+2857556D01*
X+5954659Y+2857556D01*
X+5936060Y+2876155D01*
G37*
G36*
X+6212265Y+1939500D02*
X+6212265Y+1965802D01*
X+6230864Y+1984401D01*
X+6257166Y+1984401D01*
X+6275765Y+1965802D01*
X+6275765Y+1939500D01*
X+6257166Y+1920901D01*
X+6230864Y+1920901D01*
X+6212265Y+1939500D01*
G37*
G36*
X+5601871Y+4046919D02*
X+5601871Y+4073221D01*
X+5620470Y+4091820D01*
X+5646772Y+4091820D01*
X+5665371Y+4073221D01*
X+5665371Y+4046919D01*
X+5646772Y+4028320D01*
X+5620470Y+4028320D01*
X+5601871Y+4046919D01*
G37*
%LPD*%
G36*
X+5597977Y+4400959D02*
X+5457469Y+4400959D01*
X+5457469Y+4469041D01*
X+5529895Y+4469041D01*
X+5597977Y+4400959D01*
G37*
G36*
X+5837531Y+4469041D02*
X+5914895Y+4469041D01*
X+5982977Y+4400959D01*
X+5837531Y+4400959D01*
X+5837531Y+4279041D01*
X+5992469Y+4279041D01*
X+5992469Y+4391467D01*
X+6177115Y+4206821D01*
X+6293954Y+4206821D01*
X+6249321Y+4162188D01*
X+6249321Y+4073812D01*
X+6311812Y+4011321D01*
X+6400188Y+4011321D01*
X+6417521Y+4028654D01*
X+6417521Y+3953346D01*
X+6400188Y+3970679D01*
X+6311812Y+3970679D01*
X+6249321Y+3908188D01*
X+6249321Y+3819812D01*
X+6311812Y+3757321D01*
X+6400188Y+3757321D01*
X+6417521Y+3774654D01*
X+6417521Y+3699346D01*
X+6400188Y+3716679D01*
X+6311812Y+3716679D01*
X+6249321Y+3654188D01*
X+6249321Y+3628522D01*
X+5925960Y+3951883D01*
X+5925960Y+3969844D01*
X+5893227Y+4002577D01*
X+5846935Y+4002577D01*
X+5814202Y+3969844D01*
X+5814202Y+3923552D01*
X+5846935Y+3890819D01*
X+5864896Y+3890819D01*
X+6170477Y+3585238D01*
X+6170477Y+3556014D01*
X+6157777Y+3543314D01*
X+6157777Y+3510047D01*
X+5898909Y+3510047D01*
X+5886209Y+3522747D01*
X+5839917Y+3522747D01*
X+5813179Y+3496009D01*
X+5813179Y+4307885D01*
X+5747023Y+4374041D01*
X+5837469Y+4374041D01*
X+5837469Y+4495959D01*
X+5815879Y+4495959D01*
X+5815879Y+4538146D01*
X+5793388Y+4560637D01*
X+5834110Y+4560637D01*
X+5837531Y+4564058D01*
X+5837531Y+4469041D01*
G37*
G36*
X+6061821Y+1622469D02*
X+6044041Y+1622469D01*
X+6044041Y+1511895D01*
X+5975959Y+1511895D01*
X+5975959Y+1622469D01*
X+5854041Y+1622469D01*
X+5854041Y+1511895D01*
X+5780959Y+1511895D01*
X+5780959Y+1622469D01*
X+5763179Y+1622469D01*
X+5763179Y+1717115D01*
X+6050185Y+2004121D01*
X+6061821Y+2004121D01*
X+6061821Y+1622469D01*
G37*
%LPC*%
G36*
X+5962243Y+1864209D02*
X+5962243Y+1890511D01*
X+5980842Y+1909110D01*
X+6007144Y+1909110D01*
X+6025743Y+1890511D01*
X+6025743Y+1864209D01*
X+6007144Y+1845610D01*
X+5980842Y+1845610D01*
X+5962243Y+1864209D01*
G37*
%LPD*%
G36*
X+5689468Y+1765532D02*
X+5676821Y+1752885D01*
X+5676821Y+1622469D01*
X+5659041Y+1622469D01*
X+5659041Y+1511895D01*
X+5590959Y+1511895D01*
X+5590959Y+1622469D01*
X+5469041Y+1622469D01*
X+5469041Y+1511895D01*
X+5390959Y+1511895D01*
X+5390959Y+1544895D01*
X+5563150Y+1717086D01*
X+5585851Y+1717086D01*
X+5618584Y+1749819D01*
X+5618584Y+1796111D01*
X+5612164Y+1802531D01*
X+5726467Y+1802531D01*
X+5689468Y+1765532D01*
G37*
G36*
X+3564795Y+3360329D02*
X+3483442Y+3360329D01*
X+3424671Y+3301558D01*
X+3424671Y+3218442D01*
X+3483113Y+3160000D01*
X+3424671Y+3101558D01*
X+3424671Y+3018442D01*
X+3440703Y+3002410D01*
X+2726226Y+3002410D01*
X+2597146Y+3131491D01*
X+3025649Y+3131491D01*
X+3025649Y+3322013D01*
X+3074351Y+3370715D01*
X+3074351Y+3131491D01*
X+3315649Y+3131491D01*
X+3315649Y+3376053D01*
X+3549071Y+3376053D01*
X+3564795Y+3360329D01*
G37*
G36*
X+4825541Y+2289707D02*
X+4820459Y+2284625D01*
X+4820459Y+2372140D01*
X+4825541Y+2372140D01*
X+4825541Y+2289707D01*
G37*
G36*
X+4698541Y+2247859D02*
X+4116089Y+2247859D01*
X+4003986Y+2359962D01*
X+4016165Y+2372140D01*
X+4698541Y+2372140D01*
X+4698541Y+2247859D01*
G37*
%LPC*%
G36*
X+4562617Y+2295307D02*
X+4562617Y+2321609D01*
X+4581216Y+2340208D01*
X+4607518Y+2340208D01*
X+4626117Y+2321609D01*
X+4626117Y+2295307D01*
X+4607518Y+2276708D01*
X+4581216Y+2276708D01*
X+4562617Y+2295307D01*
G37*
%LPD*%
G36*
X+3801237Y+2078923D02*
X+3786841Y+2078923D01*
X+3731789Y+2023871D01*
X+3731789Y+1946017D01*
X+3786841Y+1890965D01*
X+3864695Y+1890965D01*
X+3919747Y+1946017D01*
X+3919747Y+1960413D01*
X+3949736Y+1930424D01*
X+3949736Y+1807912D01*
X+4227789Y+1529859D01*
X+4227789Y+1458017D01*
X+4243738Y+1442068D01*
X+3891568Y+1442068D01*
X+3833979Y+1499657D01*
X+3833979Y+1601279D01*
X+3783069Y+1601279D01*
X+3653747Y+1730601D01*
X+3653747Y+1844923D01*
X+3465789Y+1844923D01*
X+3465789Y+1730601D01*
X+3390916Y+1655728D01*
X+2813380Y+1655728D01*
X+2765000Y+1607348D01*
X+2746494Y+1625854D01*
X+2777129Y+1656488D01*
X+2777129Y+1702780D01*
X+2764429Y+1715480D01*
X+2764429Y+1761775D01*
X+2635239Y+1890965D01*
X+2649747Y+1890965D01*
X+2649747Y+2078923D01*
X+2461789Y+2078923D01*
X+2461789Y+1934479D01*
X+2444546Y+1934479D01*
X+2423146Y+1955879D01*
X+2376854Y+1955879D01*
X+2344121Y+1923146D01*
X+2344121Y+1876854D01*
X+2376854Y+1844121D01*
X+2423146Y+1844121D01*
X+2427146Y+1848121D01*
X+2555955Y+1848121D01*
X+2559153Y+1844923D01*
X+2453789Y+1844923D01*
X+2453789Y+1730601D01*
X+2354602Y+1631414D01*
X+2354602Y+1376188D01*
X+2325392Y+1346978D01*
X+2325392Y+1279644D01*
X+2373004Y+1232032D01*
X+2440338Y+1232032D01*
X+2453789Y+1245483D01*
X+2453789Y+1204017D01*
X+2508841Y+1148965D01*
X+2586695Y+1148965D01*
X+2641747Y+1204017D01*
X+2641747Y+1281871D01*
X+2586695Y+1336923D01*
X+2508841Y+1336923D01*
X+2487950Y+1316032D01*
X+2487950Y+1346978D01*
X+2458740Y+1376188D01*
X+2458740Y+1453066D01*
X+2508841Y+1402965D01*
X+2586695Y+1402965D01*
X+2641747Y+1458017D01*
X+2641747Y+1535871D01*
X+2586695Y+1590923D01*
X+2508841Y+1590923D01*
X+2458740Y+1540822D01*
X+2458740Y+1588280D01*
X+2527425Y+1656965D01*
X+2568111Y+1656965D01*
X+2712931Y+1512145D01*
X+2712931Y+1319639D01*
X+2671021Y+1319639D01*
X+2671021Y+1157081D01*
X+2858979Y+1157081D01*
X+2858979Y+1319639D01*
X+2817069Y+1319639D01*
X+2817069Y+1512145D01*
X+2856514Y+1551590D01*
X+3231508Y+1551590D01*
X+3215789Y+1535871D01*
X+3215789Y+1458017D01*
X+3270841Y+1402965D01*
X+3348695Y+1402965D01*
X+3403747Y+1458017D01*
X+3403747Y+1535871D01*
X+3388028Y+1551590D01*
X+3434050Y+1551590D01*
X+3539425Y+1656965D01*
X+3580111Y+1656965D01*
X+3646021Y+1591055D01*
X+3646021Y+1543597D01*
X+3598695Y+1590923D01*
X+3520841Y+1590923D01*
X+3465789Y+1535871D01*
X+3465789Y+1458017D01*
X+3520841Y+1402965D01*
X+3598695Y+1402965D01*
X+3646021Y+1450291D01*
X+3646021Y+1438721D01*
X+3747643Y+1438721D01*
X+3798445Y+1387919D01*
X+3646021Y+1387919D01*
X+3646021Y+1289597D01*
X+3598695Y+1336923D01*
X+3520841Y+1336923D01*
X+3465789Y+1281871D01*
X+3465789Y+1210029D01*
X+3379667Y+1123907D01*
X+3245720Y+1123907D01*
X+2949466Y+827653D01*
X+2949466Y+852050D01*
X+2916733Y+884783D01*
X+2870441Y+884783D01*
X+2857741Y+872083D01*
X+2596498Y+872083D01*
X+2573616Y+894965D01*
X+2586695Y+894965D01*
X+2641747Y+950017D01*
X+2641747Y+1027871D01*
X+2586695Y+1082923D01*
X+2514853Y+1082923D01*
X+2258179Y+1339597D01*
X+2258179Y+1546292D01*
X+2315329Y+1603442D01*
X+2315329Y+1686558D01*
X+2256887Y+1745000D01*
X+2315329Y+1803442D01*
X+2315329Y+1886558D01*
X+2289124Y+1912762D01*
X+2748331Y+2371969D01*
X+2782944Y+2371969D01*
X+2754121Y+2343146D01*
X+2754121Y+2296854D01*
X+2786854Y+2264121D01*
X+2833146Y+2264121D01*
X+2845846Y+2276821D01*
X+2964827Y+2276821D01*
X+3223789Y+2017859D01*
X+3223789Y+1946017D01*
X+3278841Y+1890965D01*
X+3356695Y+1890965D01*
X+3411747Y+1946017D01*
X+3411747Y+2023871D01*
X+3356695Y+2078923D01*
X+3284853Y+2078923D01*
X+3000597Y+2363179D01*
X+2845846Y+2363179D01*
X+2837056Y+2371969D01*
X+3508191Y+2371969D01*
X+3801237Y+2078923D01*
G37*
%LPC*%
G36*
X+3270841Y+1336923D02*
X+3348695Y+1336923D01*
X+3403747Y+1281871D01*
X+3403747Y+1204017D01*
X+3348695Y+1148965D01*
X+3270841Y+1148965D01*
X+3215789Y+1204017D01*
X+3215789Y+1281871D01*
X+3270841Y+1336923D01*
G37*
G36*
X+3270841Y+1844923D02*
X+3348695Y+1844923D01*
X+3403747Y+1789871D01*
X+3403747Y+1712017D01*
X+3348695Y+1656965D01*
X+3270841Y+1656965D01*
X+3215789Y+1712017D01*
X+3215789Y+1789871D01*
X+3270841Y+1844923D01*
G37*
G36*
X+2715789Y+1946017D02*
X+2715789Y+2023871D01*
X+2770841Y+2078923D01*
X+2848695Y+2078923D01*
X+2903747Y+2023871D01*
X+2903747Y+1946017D01*
X+2848695Y+1890965D01*
X+2770841Y+1890965D01*
X+2715789Y+1946017D01*
G37*
G36*
X+2969789Y+1946017D02*
X+2969789Y+2023871D01*
X+3024841Y+2078923D01*
X+3102695Y+2078923D01*
X+3157747Y+2023871D01*
X+3157747Y+1946017D01*
X+3102695Y+1890965D01*
X+3024841Y+1890965D01*
X+2969789Y+1946017D01*
G37*
G36*
X+3477789Y+1946017D02*
X+3477789Y+2023871D01*
X+3532841Y+2078923D01*
X+3610695Y+2078923D01*
X+3665747Y+2023871D01*
X+3665747Y+1946017D01*
X+3610695Y+1890965D01*
X+3532841Y+1890965D01*
X+3477789Y+1946017D01*
G37*
G36*
X+2858979Y+1106279D02*
X+2858979Y+943721D01*
X+2671021Y+943721D01*
X+2671021Y+1106279D01*
X+2858979Y+1106279D01*
G37*
%LPD*%
G36*
X+1797531Y+5663833D02*
X+1797531Y+5557131D01*
X+1822931Y+5557131D01*
X+1822931Y+5555329D01*
X+1763442Y+5555329D01*
X+1705000Y+5496887D01*
X+1652130Y+5549758D01*
X+1659503Y+5557131D01*
X+1752469Y+5557131D01*
X+1752469Y+5708895D01*
X+1797531Y+5663833D01*
G37*
G36*
X+1065520Y+3477787D02*
X+1083481Y+3477787D01*
X+1148727Y+3412540D01*
X+1148727Y+3387498D01*
X+1178046Y+3358179D01*
X+1052869Y+3358179D01*
X+1052869Y+3363718D01*
X+1054677Y+3361910D01*
X+1080979Y+3361910D01*
X+1099578Y+3380509D01*
X+1099578Y+3406811D01*
X+1080979Y+3425410D01*
X+1054677Y+3425410D01*
X+1052869Y+3423602D01*
X+1052869Y+3490438D01*
X+1065520Y+3477787D01*
G37*
G36*
X+847131Y+3537371D02*
X+1032787Y+3537371D01*
X+1032787Y+3532629D01*
X+847131Y+3532629D01*
X+847131Y+3357371D01*
X+990070Y+3357371D01*
X+747679Y+3114980D01*
X+747679Y+3131043D01*
X+813148Y+3196512D01*
X+813148Y+3507488D01*
X+747705Y+3572931D01*
X+847131Y+3572931D01*
X+847131Y+3537371D01*
G37*
G36*
X+1062371Y+2857131D02*
X+1062371Y+2692069D01*
X+1057629Y+2692069D01*
X+1057629Y+3058646D01*
X+1062371Y+3058646D01*
X+1062371Y+2857131D01*
G37*
D10*
X+6010000Y+1315000D02*
X+6010000Y+1145000D01*
X+5240000Y+495000D02*
X+5240000Y+325000D01*
X+1249056Y+3429056D02*
X+1449056Y+3429056D01*
X+5630000Y+330000D02*
X+5630000Y+495000D01*
X+975000Y+345000D02*
X+975000Y+350000D01*
X+970000Y+350000D01*
X+5140500Y+2310000D02*
X+5140500Y+2089500D01*
X+5150000Y+2080000D01*
X+5690500Y+2310000D02*
X+5690500Y+2089500D01*
X+5700000Y+2080000D01*
X+4886500Y+2310000D02*
X+4886500Y+2289602D01*
X+4801578Y+2204680D01*
X+4098204Y+2204680D01*
X+3619440Y+2683444D01*
X+3571768Y+2746944D01*
X+3317768Y+2746944D02*
X+3324077Y+2740635D01*
X+3324077Y+2733490D01*
X+3897567Y+2160000D01*
X+4886792Y+2160000D01*
X+5013500Y+2286708D01*
X+5013500Y+2310000D01*
X+5436500Y+2310000D02*
X+5436500Y+2330343D01*
X+5351524Y+2415319D01*
X+3980319Y+2415319D01*
X+3975000Y+2410000D01*
X+975000Y+345000D02*
X+970000Y+345000D01*
X+1360000Y+345000D02*
X+1360000Y+375000D01*
X+1360000Y+515000D01*
X+3559768Y+1242944D02*
X+3397552Y+1080728D01*
X+3263605Y+1080728D01*
X+2810000Y+627123D01*
X+2810000Y+620000D01*
X+1465000Y+620000D01*
X+1360000Y+515000D01*
X+2140000Y+515000D02*
X+2140000Y+345000D01*
X+2140000Y+515000D02*
X+2224482Y+515000D01*
X+2248473Y+538991D01*
D11*
X+1170000Y+2090000D02*
X+1170000Y+2280000D01*
D10*
X+970000Y+2090000D02*
X+970000Y+2275000D01*
X+975000Y+2280000D01*
X+4321768Y+480944D02*
X+4360219Y+519395D01*
X+5240000Y+495000D02*
X+5200000Y+535000D01*
X+5030000Y+535000D01*
X+6020000Y+495000D02*
X+6020000Y+465000D01*
X+6020000Y+325000D01*
X+950000Y+1490000D02*
X+915000Y+1455000D01*
X+640000Y+1455000D01*
X+640000Y+1454682D01*
X+970000Y+1890000D02*
X+1170000Y+1890000D01*
X+6115000Y+725000D02*
X+6265000Y+725000D01*
X+6356000Y+816000D01*
X+5335000Y+725000D02*
X+5420000Y+810000D01*
X+6202844Y+810000D01*
X+6315450Y+922606D01*
X+6630394Y+922606D01*
X+6737000Y+816000D01*
X+5720000Y+1545000D02*
X+5720000Y+1735000D01*
X+6045000Y+2060000D01*
X+4940000Y+1545000D02*
X+5021351Y+1545000D01*
X+5097635Y+1468716D01*
X+6627716Y+1468716D01*
X+6737000Y+1578000D01*
X+5873646Y+3218160D02*
X+6368416Y+3218160D01*
X+6629032Y+3478776D01*
X+6629032Y+4772032D01*
X+6737000Y+4880000D01*
X+5863063Y+3466868D02*
X+6371062Y+3466868D01*
X+6460700Y+3556506D01*
X+6460700Y+4775300D01*
X+6356000Y+4880000D01*
X+6568019Y+2497373D02*
X+6568019Y+1790019D01*
X+6356000Y+1578000D01*
X+6519308Y+3998418D02*
X+6519308Y+3609308D01*
X+6515000Y+3605000D01*
X+6514740Y+2589969D02*
X+6514740Y+1826597D01*
X+6511320Y+1823177D01*
D11*
X+1249056Y+3629056D02*
X+954056Y+3629056D01*
X+950000Y+3625000D01*
D10*
X+4845000Y+1315000D02*
X+4845000Y+1150000D01*
X+5622301Y+1150000D02*
X+5622301Y+1312301D01*
X+5625000Y+1315000D01*
D11*
X+6010000Y+945000D02*
X+5627301Y+945000D01*
X+5622301Y+950000D01*
X+5235000Y+949000D02*
X+5621301Y+949000D01*
X+5622301Y+950000D01*
X+5240000Y+125000D02*
X+5625000Y+125000D01*
X+6020000Y+125000D01*
X+2140000Y+145000D02*
X+1750000Y+145000D01*
X+1360000Y+145000D01*
X+959185Y+142364D02*
X+970000Y+145000D01*
D10*
X+1105000Y+2280000D02*
X+1105000Y+2230247D01*
X+975000Y+2100247D01*
X+975000Y+2090000D01*
X+970000Y+2090000D01*
D11*
X+1170000Y+2280000D02*
X+1164615Y+2285385D01*
X+1403030Y+3718390D02*
X+1338390Y+3718390D01*
X+1249056Y+3629056D01*
D10*
X+1180000Y+1310000D02*
X+1180000Y+1395000D01*
D11*
X+641000Y+2844000D02*
X+757000Y+2960000D01*
X+970000Y+2960000D01*
D10*
X+641000Y+1320000D02*
X+801023Y+1159977D01*
X+801023Y+1008977D01*
X+1065000Y+745000D01*
D11*
X+950000Y+3625000D02*
X+660000Y+3625000D01*
X+641000Y+3606000D01*
X+761079Y+3485921D01*
X+761079Y+3218079D01*
X+641000Y+3098000D01*
X+5170000Y+4725000D02*
X+5282294Y+4612706D01*
X+5432706Y+4612706D01*
X+5545000Y+4725000D01*
X+5550000Y+4725000D01*
X+5662294Y+4612706D01*
X+5812543Y+4612706D01*
X+5924837Y+4725000D01*
X+5930000Y+4725000D01*
D10*
X+6580000Y+5090000D02*
X+6580000Y+3540441D01*
X+6568019Y+3528460D01*
D11*
X+3559768Y+1750944D02*
X+3740000Y+1570712D01*
X+3740000Y+1520000D01*
D10*
X+1170000Y+1690000D02*
X+1261942Y+1598058D01*
X+1261942Y+1551886D01*
X+1180000Y+1395000D02*
X+1440000Y+1395000D01*
X+1455000Y+1410000D01*
D11*
X+2555768Y+2746944D02*
X+2696640Y+2606072D01*
X+2696640Y+2545000D01*
D10*
X+5530000Y+4530000D02*
X+5770000Y+4290000D01*
X+5770000Y+3224999D01*
X+6146999Y+2848000D01*
X+6356000Y+2848000D01*
X+5915000Y+4530000D02*
X+6195000Y+4250000D01*
X+6343584Y+4250000D01*
X+6343584Y+4253300D01*
X+6575000Y+5510000D02*
X+6324294Y+5760706D01*
X+6024850Y+5760706D01*
X+5955000Y+5770000D01*
X+5955000Y+5570000D02*
X+6352372Y+5570000D01*
X+6602372Y+5320000D01*
X+6675000Y+5320000D01*
X+5755000Y+5770000D02*
X+5854749Y+5670251D01*
X+5854749Y+5523370D01*
X+6133444Y+5244675D01*
X+6133444Y+4728444D01*
X+6130000Y+4725000D01*
X+5760000Y+4435000D02*
X+5760000Y+4515000D01*
X+5750000Y+4725000D02*
X+5750000Y+4972929D01*
X+5652696Y+5070233D01*
X+5652696Y+5672304D01*
X+5555000Y+5770000D01*
X+5380000Y+4435000D02*
X+5380000Y+4510000D01*
X+5375000Y+4515000D01*
X+5370000Y+4725000D02*
X+5370000Y+5434707D01*
X+5457309Y+5522016D01*
X+5457309Y+5667691D01*
X+5355000Y+5770000D01*
X+6105000Y+1545000D02*
X+6105000Y+2809281D01*
X+6105000Y+2800000D01*
X+1325000Y+5660000D02*
X+1325000Y+5525000D01*
X+1306112Y+5506112D01*
X+1306112Y+5353888D01*
X+1405000Y+5255000D01*
X+1405000Y+5455000D02*
X+1503851Y+5553851D01*
X+1595159Y+5553851D01*
X+1675000Y+5633692D01*
X+1675000Y+5660000D01*
X+260000Y+558000D02*
X+364120Y+662120D01*
X+364120Y+4806967D01*
X+594771Y+5037618D01*
X+1217618Y+5037618D01*
X+1220000Y+5040000D01*
X+970000Y+1890000D02*
X+962250Y+1890000D01*
X+797004Y+1724754D01*
X+425000Y+1393278D02*
X+425000Y+534743D01*
X+579543Y+380200D01*
X+641000Y+304000D01*
X+1605000Y+5255000D02*
X+1332984Y+4982984D01*
X+597984Y+4982984D01*
X+485000Y+4870000D01*
X+485000Y+714000D01*
X+641000Y+558000D01*
D11*
X+1805000Y+5455000D02*
X+1805000Y+5255000D01*
X+1664768Y+2449944D02*
X+2010056Y+2449944D01*
X+2015000Y+2445000D01*
D10*
X+1615000Y+1990000D02*
X+1760000Y+1845000D01*
X+2015000Y+1845000D01*
X+2115524Y+1744476D01*
X+2115524Y+1291993D01*
X+2578613Y+828904D01*
X+2893587Y+828904D01*
X+2215000Y+1645000D02*
X+2215000Y+1321712D01*
X+2547768Y+988944D01*
X+2215000Y+1845000D02*
X+2215000Y+1899702D01*
X+2730446Y+2415148D01*
X+3526076Y+2415148D01*
X+3992915Y+1948309D01*
X+3992915Y+1825797D01*
X+4321768Y+1496944D01*
D11*
X+2547768Y+1750944D02*
X+2406671Y+1609847D01*
X+2406671Y+1313311D01*
D10*
X+4321768Y+734944D02*
X+4101113Y+734944D01*
X+4097083Y+730914D01*
X+3019851Y+568384D02*
X+2811965Y+568384D01*
X+2808185Y+572164D01*
X+2808185Y+566686D01*
X+2721250Y+1679634D02*
X+2721250Y+1743890D01*
X+2573840Y+1891300D01*
X+2408700Y+1891300D01*
X+2400000Y+1900000D01*
D11*
X+6775000Y+5510000D02*
X+6775000Y+5815000D01*
D10*
X+5870081Y+3946698D02*
X+6213656Y+3603123D01*
X+6213656Y+3520168D01*
D11*
X+5690500Y+2850000D02*
X+5728182Y+2850000D01*
X+5839545Y+2738637D01*
X+4759500Y+2310000D02*
X+4595909Y+2310000D01*
X+4594367Y+2308458D01*
D10*
X+5330000Y+1545000D02*
X+5557965Y+1772965D01*
X+5562705Y+1772965D01*
X+5515000Y+2155000D02*
X+5563500Y+2203500D01*
X+5563500Y+2285788D01*
X+5563500Y+2287321D01*
X+5563500Y+2288500D01*
X+5563500Y+2289621D01*
X+5563500Y+2293500D01*
X+5563500Y+2310000D01*
X+6010000Y+1315000D02*
X+5982834Y+1342166D01*
X+5852655Y+1342166D01*
X+3743848Y+995800D02*
X+4133787Y+605861D01*
X+4233969Y+605861D01*
X+5900000Y+525000D02*
X+5930000Y+495000D01*
X+6020000Y+495000D01*
X+5725000Y+725000D02*
X+5750000Y+700000D01*
X+5792917Y+700000D01*
X+5622301Y+1150000D02*
X+5363605Y+1150000D01*
X+5362947Y+1150658D01*
X+4326529Y+1136449D02*
X+3808949Y+1136449D01*
X+3655137Y+982637D01*
X+3655137Y+830313D01*
X+3559768Y+734944D01*
X+5235000Y+1170000D02*
X+5153483Y+1088483D01*
X+5137455Y+1088483D01*
X+4756869Y+699624D02*
X+4672066Y+699624D01*
X+4285274Y+312832D01*
X+3650273Y+312832D01*
X+3623268Y+285827D01*
X+3559768Y+226944D01*
X+5235000Y+1315000D02*
X+5235000Y+1170000D01*
X+5235000Y+1149000D01*
D11*
X+6020000Y+125000D02*
X+6280000Y+125000D01*
X+970000Y+145000D02*
X+961821Y+145000D01*
X+752436Y+145000D01*
X+750087Y+142651D01*
X+1360000Y+145000D02*
X+970000Y+145000D01*
X+961821Y+145000D02*
X+959185Y+142364D01*
D10*
X+1845000Y+745000D02*
X+1533832Y+1056168D01*
X+875000Y+1056168D01*
X+1227746Y+989777D02*
X+1455000Y+762523D01*
X+1455000Y+745000D01*
X+2235000Y+745000D02*
X+2171534Y+808466D01*
X+2170612Y+808466D01*
D11*
X+970000Y+1690000D02*
X+1079149Y+1799149D01*
X+1456408Y+1799149D01*
X+1475494Y+1818235D01*
X+1040000Y+2280000D02*
X+1040000Y+2410863D01*
X+977834Y+2473029D01*
X+977834Y+2487930D01*
X+975000Y+2540000D01*
X+1315000Y+2550000D02*
X+1225000Y+2640000D01*
X+970000Y+2640000D01*
X+970000Y+2770000D02*
X+970000Y+2640000D01*
X+970000Y+2545000D01*
X+975000Y+2540000D01*
D10*
X+736976Y+4245973D02*
X+956482Y+4026466D01*
X+956482Y+3932392D01*
X+1088666Y+3533666D02*
X+1193275Y+3429056D01*
X+1249056Y+3429056D01*
X+1850264Y+483591D02*
X+1761409Y+483591D01*
X+1750000Y+495000D01*
X+1750000Y+515000D01*
X+1750000Y+345000D02*
X+1750000Y+495000D01*
X+1020000Y+345000D02*
X+999649Y+345000D01*
X+975000Y+345000D01*
X+1020000Y+345000D02*
X+1015000Y+350000D01*
X+1005053Y+350000D01*
X+975000Y+350000D01*
X+970000Y+515000D02*
X+975000Y+515000D01*
X+1210000Y+515000D01*
X+1260000Y+465000D01*
X+975000Y+350000D02*
X+975000Y+515000D01*
D11*
X+5915000Y+1545000D02*
X+5915000Y+1796946D01*
X+5993993Y+1875939D01*
X+5993993Y+1877360D01*
X+5170000Y+4725000D02*
X+5170000Y+5070000D01*
D10*
X+6103527Y+4531143D02*
X+6145000Y+4489670D01*
X+6145000Y+4435000D01*
D11*
X+3559768Y+1750944D02*
X+3412483Y+1603659D01*
X+2834947Y+1603659D01*
X+2765000Y+1533712D01*
X+2547768Y+1750944D02*
X+2765000Y+1533712D01*
X+2765000Y+1238360D01*
D10*
X+5423540Y+361688D02*
X+5598312Y+361688D01*
X+5630000Y+330000D01*
X+5625000Y+325000D01*
X+4321768Y-27056D02*
X+4481675Y+132851D01*
X+4481675Y+346497D01*
X+4949569Y+814391D01*
X+4949569Y+1045431D01*
X+4845000Y+1150000D01*
D11*
X+5140500Y+2850000D02*
X+5177731Y+2850000D01*
X+5213583Y+2814148D01*
X+5210530Y+2814148D01*
X+2905000Y+3275000D02*
X+3058122Y+3428122D01*
X+3570638Y+3428122D01*
X+3720000Y+3278760D01*
X+3720000Y+3260000D01*
X+3720000Y+3250000D01*
X+3725000Y+3260000D01*
X+3720000Y+3260000D01*
X+3675775Y+3260000D01*
X+4525000Y+3060000D02*
X+4836689Y+3060000D01*
X+5013500Y+2883189D01*
X+5013500Y+2850000D01*
X+4525000Y+3260000D02*
X+4899500Y+3260000D01*
X+5309500Y+2850000D01*
X+4325000Y+3260000D02*
X+4431603Y+3366603D01*
X+5083397Y+3366603D01*
X+5563500Y+2886500D01*
X+5563500Y+2850000D01*
X+4759500Y+2850000D02*
X+4535000Y+2850000D01*
X+4325000Y+3060000D01*
X+2380000Y+3275000D02*
X+2555768Y+3099232D01*
X+2555768Y+2746944D01*
X+3725000Y+3060000D02*
X+3615341Y+2950341D01*
X+2704659Y+2950341D01*
X+2555768Y+3099232D01*
X+6010000Y+945000D02*
X+6215000Y+945000D01*
X+6240000Y+970000D01*
X+5235000Y+949000D02*
X+4979780Y+693780D01*
X+4979473Y+693780D01*
D10*
X+5150000Y+4530000D02*
X+5165305Y+4514695D01*
X+5165305Y+4431240D01*
X+2163488Y+3339232D02*
X+2139256Y+3315000D01*
X+1008763Y+3315000D01*
X+643336Y+2949573D01*
X+605427Y+2949573D01*
X+595000Y+2960000D01*
X+2394949Y+2162980D02*
X+2394949Y+2550051D01*
X+2020000Y+2925000D01*
X+2810000Y+2320000D02*
X+2982712Y+2320000D01*
X+3317768Y+1984944D01*
D11*
X+1649056Y+3642416D02*
X+1573082Y+3718390D01*
X+1446364Y+3845108D01*
X+1446364Y+4726123D01*
X+1912992Y+5192751D01*
X+1912992Y+5497738D01*
X+1875000Y+5535730D01*
X+1875000Y+5660000D01*
X+1403030Y+3718390D02*
X+1573082Y+3718390D01*
X+1805000Y+5255000D02*
X+1608055Y+5058055D01*
X+1605114Y+5058055D01*
X+1150000Y+2960000D02*
X+1061414Y+3048586D01*
X+1061414Y+3088132D01*
X+1063678Y+3090396D01*
X+1067828Y+3393660D02*
X+1001340Y+3393660D01*
X+950000Y+3445000D01*
X+4845000Y+950000D02*
X+4768915Y+950000D01*
X+4550005Y+950000D01*
X+4547116Y+952889D01*
X+4768915Y+950000D02*
X+4328915Y+1390000D01*
X+3870000Y+1390000D01*
X+3740000Y+1520000D01*
X+1525000Y+5660000D02*
X+1525000Y+5680000D01*
X+1411991Y+5793009D01*
X+1013009Y+5793009D01*
X+960000Y+5740000D01*
X+1525000Y+5680000D02*
X+1525000Y+5686025D01*
X+1608158Y+5769183D01*
X+1765817Y+5769183D01*
X+1875000Y+5660000D01*
D12*
X+3975000Y+2410000D03*
X+2248473Y+538991D03*
X+5030000Y+535000D03*
X+640000Y+1454682D03*
X+6045000Y+2060000D03*
X+5873646Y+3218160D03*
X+5863063Y+3466868D03*
X+6568019Y+3528460D03*
X+6568019Y+2497373D03*
X+6343584Y+4253300D03*
X+6519308Y+3998418D03*
X+6515000Y+3605000D03*
X+6514740Y+2589969D03*
X+6511320Y+1823177D03*
D13*
X+5967810Y+2889306D03*
D12*
X+1261942Y+1551886D03*
X+5760000Y+4515000D03*
X+5375000Y+4515000D03*
X+6105000Y+2800000D03*
X+1220000Y+5040000D03*
X+797004Y+1724754D03*
X+425000Y+1393278D03*
X+2893587Y+828904D03*
D13*
X+2406671Y+1313311D03*
D12*
X+4097083Y+730914D03*
X+3019851Y+568384D03*
X+2808185Y+566686D03*
X+2721250Y+1679634D03*
X+2400000Y+1900000D03*
D13*
X+6775000Y+5815000D03*
D12*
X+5870081Y+3946698D03*
X+6213656Y+3520168D03*
D13*
X+5839545Y+2738637D03*
X+4594367Y+2308458D03*
D12*
X+5562705Y+1772965D03*
X+5515000Y+2155000D03*
X+5852655Y+1342166D03*
X+3743848Y+995800D03*
X+4233969Y+605861D03*
X+5900000Y+525000D03*
X+5792917Y+700000D03*
X+5362947Y+1150658D03*
X+4326529Y+1136449D03*
X+5137455Y+1088483D03*
X+4756869Y+699624D03*
D13*
X+6280000Y+125000D03*
X+750087Y+142651D03*
D12*
X+875000Y+1056168D03*
X+1227746Y+989777D03*
X+2170612Y+808466D03*
D13*
X+1475494Y+1818235D03*
X+1315000Y+2550000D03*
D12*
X+736976Y+4245973D03*
X+956482Y+3932392D03*
X+1088666Y+3533666D03*
X+1850264Y+483591D03*
X+1260000Y+465000D03*
D13*
X+5993993Y+1877360D03*
X+6244015Y+1952651D03*
X+5170000Y+5070000D03*
D12*
X+6103527Y+4531143D03*
X+5423540Y+361688D03*
D13*
X+5210530Y+2814148D03*
X+6240000Y+970000D03*
X+4979473Y+693780D03*
D12*
X+5165305Y+4431240D03*
X+2163488Y+3339232D03*
X+595000Y+2960000D03*
X+2394949Y+2162980D03*
X+1725000Y+3245000D03*
X+2810000Y+2320000D03*
D13*
X+1605114Y+5058055D03*
X+1063678Y+3090396D03*
X+1067828Y+3393660D03*
X+4547116Y+952889D03*
X+5633621Y+4060070D03*
D14*
X+1939040Y+5762869D02*
X+1845767Y+5762869D01*
X+1787384Y+5821252D01*
X+1586591Y+5821252D01*
X+1528208Y+5762869D01*
X+1515767Y+5762869D01*
X+1433558Y+5845078D01*
X+1041710Y+5845078D01*
X+1014709Y+5872079D01*
X+905291Y+5872079D01*
X+827921Y+5794709D01*
X+827921Y+5685291D01*
X+905291Y+5607921D01*
X+1014709Y+5607921D01*
X+1092079Y+5685291D01*
X+1092079Y+5740940D01*
X+1247531Y+5740940D01*
X+1247531Y+5557131D01*
X+1281821Y+5557131D01*
X+1281821Y+5542885D01*
X+1262933Y+5523997D01*
X+1262933Y+5389447D01*
X+1245941Y+5412912D01*
X+1197185Y+5450374D01*
X+1143024Y+5472348D01*
X+1087000Y+5479499D01*
X+1030976Y+5472348D01*
X+976815Y+5450374D01*
X+928059Y+5412912D01*
X+887444Y+5356825D01*
X+863228Y+5257000D01*
X+887444Y+5157175D01*
X+928059Y+5101088D01*
X+954467Y+5080797D01*
X+576886Y+5080797D01*
X+353979Y+4857890D01*
X+353979Y+4969979D01*
X+166021Y+4969979D01*
X+166021Y+4782021D01*
X+320941Y+4782021D01*
X+320941Y+4711926D01*
X+304188Y+4728679D01*
X+215812Y+4728679D01*
X+153321Y+4666188D01*
X+153321Y+4577812D01*
X+215812Y+4515321D01*
X+304188Y+4515321D01*
X+320941Y+4532074D01*
X+320941Y+4457926D01*
X+304188Y+4474679D01*
X+215812Y+4474679D01*
X+153321Y+4412188D01*
X+153321Y+4323812D01*
X+215812Y+4261321D01*
X+304188Y+4261321D01*
X+320941Y+4278074D01*
X+320941Y+4203926D01*
X+304188Y+4220679D01*
X+215812Y+4220679D01*
X+153321Y+4158188D01*
X+153321Y+4069812D01*
X+215812Y+4007321D01*
X+304188Y+4007321D01*
X+320941Y+4024074D01*
X+320941Y+3949926D01*
X+304188Y+3966679D01*
X+215812Y+3966679D01*
X+153321Y+3904188D01*
X+153321Y+3815812D01*
X+215812Y+3753321D01*
X+304188Y+3753321D01*
X+320941Y+3770074D01*
X+320941Y+3695926D01*
X+304188Y+3712679D01*
X+215812Y+3712679D01*
X+153321Y+3650188D01*
X+153321Y+3561812D01*
X+215812Y+3499321D01*
X+304188Y+3499321D01*
X+320941Y+3516074D01*
X+320941Y+3441926D01*
X+304188Y+3458679D01*
X+215812Y+3458679D01*
X+153321Y+3396188D01*
X+153321Y+3307812D01*
X+215812Y+3245321D01*
X+304188Y+3245321D01*
X+320941Y+3262074D01*
X+320941Y+3187926D01*
X+304188Y+3204679D01*
X+215812Y+3204679D01*
X+153321Y+3142188D01*
X+153321Y+3053812D01*
X+215812Y+2991321D01*
X+304188Y+2991321D01*
X+320941Y+3008074D01*
X+320941Y+2933926D01*
X+304188Y+2950679D01*
X+215812Y+2950679D01*
X+153321Y+2888188D01*
X+153321Y+2799812D01*
X+215812Y+2737321D01*
X+304188Y+2737321D01*
X+320941Y+2754074D01*
X+320941Y+2679926D01*
X+304188Y+2696679D01*
X+215812Y+2696679D01*
X+153321Y+2634188D01*
X+153321Y+2545812D01*
X+215812Y+2483321D01*
X+304188Y+2483321D01*
X+320941Y+2500074D01*
X+320941Y+2425926D01*
X+304188Y+2442679D01*
X+215812Y+2442679D01*
X+153321Y+2380188D01*
X+153321Y+2291812D01*
X+215812Y+2229321D01*
X+304188Y+2229321D01*
X+320941Y+2246074D01*
X+320941Y+2171926D01*
X+304188Y+2188679D01*
X+215812Y+2188679D01*
X+153321Y+2126188D01*
X+153321Y+2037812D01*
X+215812Y+1975321D01*
X+304188Y+1975321D01*
X+320941Y+1992074D01*
X+320941Y+1917926D01*
X+304188Y+1934679D01*
X+215812Y+1934679D01*
X+153321Y+1872188D01*
X+153321Y+1783812D01*
X+215812Y+1721321D01*
X+304188Y+1721321D01*
X+320941Y+1738074D01*
X+320941Y+1663926D01*
X+304188Y+1680679D01*
X+215812Y+1680679D01*
X+153321Y+1618188D01*
X+153321Y+1529812D01*
X+215812Y+1467321D01*
X+304188Y+1467321D01*
X+320941Y+1484074D01*
X+320941Y+1409926D01*
X+304188Y+1426679D01*
X+215812Y+1426679D01*
X+153321Y+1364188D01*
X+153321Y+1275812D01*
X+215812Y+1213321D01*
X+304188Y+1213321D01*
X+320941Y+1230074D01*
X+320941Y+1155926D01*
X+304188Y+1172679D01*
X+215812Y+1172679D01*
X+153321Y+1110188D01*
X+153321Y+1021812D01*
X+215812Y+959321D01*
X+304188Y+959321D01*
X+320941Y+976074D01*
X+320941Y+901926D01*
X+304188Y+918679D01*
X+215812Y+918679D01*
X+153321Y+856188D01*
X+153321Y+767812D01*
X+215812Y+705321D01*
X+304188Y+705321D01*
X+320941Y+722074D01*
X+320941Y+680005D01*
X+304902Y+663966D01*
X+304188Y+664679D01*
X+215812Y+664679D01*
X+153321Y+602188D01*
X+153321Y+513812D01*
X+215812Y+451321D01*
X+304188Y+451321D01*
X+366679Y+513812D01*
X+366679Y+602188D01*
X+365966Y+602902D01*
X+381821Y+618757D01*
X+381821Y+516858D01*
X+542406Y+356273D01*
X+534321Y+348188D01*
X+534321Y+259812D01*
X+596812Y+197321D01*
X+685188Y+197321D01*
X+747679Y+259812D01*
X+747679Y+348188D01*
X+685188Y+410679D01*
X+610128Y+410679D01*
X+468179Y+552628D01*
X+468179Y+669757D01*
X+535034Y+602902D01*
X+534321Y+602188D01*
X+534321Y+513812D01*
X+596812Y+451321D01*
X+685188Y+451321D01*
X+747679Y+513812D01*
X+747679Y+602188D01*
X+685188Y+664679D01*
X+596812Y+664679D01*
X+596098Y+663966D01*
X+528179Y+731885D01*
X+528179Y+4852115D01*
X+534321Y+4858257D01*
X+534321Y+4831812D01*
X+596812Y+4769321D01*
X+685188Y+4769321D01*
X+747679Y+4831812D01*
X+747679Y+4920188D01*
X+728061Y+4939806D01*
X+1350870Y+4939806D01*
X+1565735Y+5154671D01*
X+1646558Y+5154671D01*
X+1705000Y+5213113D01*
X+1763442Y+5154671D01*
X+1801276Y+5154671D01*
X+1394296Y+4747691D01*
X+1394296Y+3823540D01*
X+1447377Y+3770459D01*
X+1316822Y+3770459D01*
X+1275749Y+3729385D01*
X+1207498Y+3729385D01*
X+1159238Y+3681125D01*
X+1052869Y+3681125D01*
X+1052869Y+3712629D01*
X+847131Y+3712629D01*
X+847131Y+3677069D01*
X+720798Y+3677069D01*
X+685188Y+3712679D01*
X+596812Y+3712679D01*
X+534321Y+3650188D01*
X+534321Y+3561812D01*
X+596812Y+3499321D01*
X+674043Y+3499321D01*
X+709010Y+3464354D01*
X+709010Y+3434857D01*
X+685188Y+3458679D01*
X+596812Y+3458679D01*
X+534321Y+3396188D01*
X+534321Y+3307812D01*
X+596812Y+3245321D01*
X+685188Y+3245321D01*
X+709010Y+3269143D01*
X+709010Y+3239646D01*
X+674043Y+3204679D01*
X+596812Y+3204679D01*
X+534321Y+3142188D01*
X+534321Y+3053812D01*
X+572254Y+3015879D01*
X+571854Y+3015879D01*
X+539121Y+2983146D01*
X+539121Y+2936854D01*
X+561054Y+2914921D01*
X+534321Y+2888188D01*
X+534321Y+2799812D01*
X+596812Y+2737321D01*
X+685188Y+2737321D01*
X+747679Y+2799812D01*
X+747679Y+2877043D01*
X+778567Y+2907931D01*
X+882371Y+2907931D01*
X+882371Y+2667131D01*
X+917931Y+2667131D01*
X+917931Y+2523433D01*
X+921661Y+2519703D01*
X+921661Y+2457451D01*
X+925765Y+2457451D01*
X+925765Y+2451462D01*
X+987931Y+2389296D01*
X+987931Y+2362549D01*
X+921661Y+2362549D01*
X+921661Y+2197451D01*
X+926821Y+2197451D01*
X+926821Y+2167469D01*
X+867131Y+2167469D01*
X+867131Y+2012531D01*
X+1272869Y+2012531D01*
X+1272869Y+2167469D01*
X+1103286Y+2167469D01*
X+1133268Y+2197451D01*
X+1223339Y+2197451D01*
X+1223339Y+2362549D01*
X+1092069Y+2362549D01*
X+1092069Y+2432430D01*
X+1067048Y+2457451D01*
X+1223339Y+2457451D01*
X+1223339Y+2568025D01*
X+1233721Y+2557643D01*
X+1233721Y+2516333D01*
X+1281333Y+2468721D01*
X+1348667Y+2468721D01*
X+1396279Y+2516333D01*
X+1396279Y+2583667D01*
X+1348667Y+2631279D01*
X+1307357Y+2631279D01*
X+1246567Y+2692069D01*
X+1237629Y+2692069D01*
X+1237629Y+3062869D01*
X+1081052Y+3062869D01*
X+1095428Y+3077245D01*
X+1095428Y+3103547D01*
X+1076829Y+3122146D01*
X+1050527Y+3122146D01*
X+1031928Y+3103547D01*
X+1031928Y+3077245D01*
X+1046304Y+3062869D01*
X+882371Y+3062869D01*
X+882371Y+3012069D01*
X+766896Y+3012069D01*
X+1026648Y+3271821D01*
X+1672796Y+3271821D01*
X+1669121Y+3268146D01*
X+1669121Y+3221854D01*
X+1701854Y+3189121D01*
X+1748146Y+3189121D01*
X+1780879Y+3221854D01*
X+1780879Y+3268146D01*
X+1777204Y+3271821D01*
X+2157141Y+3271821D01*
X+2168673Y+3283353D01*
X+2186634Y+3283353D01*
X+2219367Y+3316086D01*
X+2219367Y+3362378D01*
X+2186634Y+3395111D01*
X+2140342Y+3395111D01*
X+2107609Y+3362378D01*
X+2107609Y+3358179D01*
X+1743035Y+3358179D01*
X+1743035Y+3510335D01*
X+1555077Y+3510335D01*
X+1555077Y+3358179D01*
X+1551925Y+3358179D01*
X+1551925Y+3506525D01*
X+1346187Y+3506525D01*
X+1346187Y+3473812D01*
X+1290943Y+3529056D01*
X+1346187Y+3584300D01*
X+1346187Y+3551587D01*
X+1551925Y+3551587D01*
X+1551925Y+3665911D01*
X+1555077Y+3662759D01*
X+1555077Y+3561137D01*
X+1743035Y+3561137D01*
X+1743035Y+3723695D01*
X+1641413Y+3723695D01*
X+1625151Y+3739958D01*
X+1594649Y+3770459D01*
X+1498432Y+3866676D01*
X+1498432Y+4337938D01*
X+1564249Y+4272121D01*
X+1715751Y+4272121D01*
X+1822879Y+4379249D01*
X+1822879Y+4530751D01*
X+1715751Y+4637879D01*
X+1564249Y+4637879D01*
X+1498432Y+4572062D01*
X+1498432Y+4704555D01*
X+1939040Y+5145163D01*
X+1939040Y+3674750D01*
X+2174750Y+3439040D01*
X+2995404Y+3439040D01*
X+2974873Y+3418509D01*
X+2549351Y+3418509D01*
X+2549351Y+3179285D01*
X+2500649Y+3227987D01*
X+2500649Y+3418509D01*
X+2259351Y+3418509D01*
X+2259351Y+3131491D01*
X+2449873Y+3131491D01*
X+2503699Y+3077665D01*
X+2503699Y+2827781D01*
X+2461789Y+2785871D01*
X+2461789Y+2708017D01*
X+2516841Y+2652965D01*
X+2576111Y+2652965D01*
X+2615361Y+2613715D01*
X+2615361Y+2451021D01*
X+2705255Y+2451021D01*
X+2445594Y+2191360D01*
X+2438128Y+2198826D01*
X+2438128Y+2567936D01*
X+2143926Y+2862138D01*
X+2152079Y+2870291D01*
X+2152079Y+2979709D01*
X+2074709Y+3057079D01*
X+1965291Y+3057079D01*
X+1887921Y+2979709D01*
X+1887921Y+2870291D01*
X+1965291Y+2792921D01*
X+2074709Y+2792921D01*
X+2082862Y+2801074D01*
X+2351770Y+2532166D01*
X+2351770Y+2198826D01*
X+2339070Y+2186126D01*
X+2339070Y+2139834D01*
X+2366569Y+2112335D01*
X+2315329Y+2061095D01*
X+2315329Y+2086558D01*
X+2256887Y+2145000D01*
X+2315329Y+2203442D01*
X+2315329Y+2286558D01*
X+2256887Y+2345000D01*
X+2315329Y+2403442D01*
X+2315329Y+2486558D01*
X+2256558Y+2545329D01*
X+2173442Y+2545329D01*
X+2115000Y+2486887D01*
X+2056558Y+2545329D01*
X+1973442Y+2545329D01*
X+1930126Y+2502013D01*
X+1758747Y+2502013D01*
X+1758747Y+2531223D01*
X+1570789Y+2531223D01*
X+1570789Y+2368665D01*
X+1758747Y+2368665D01*
X+1758747Y+2397875D01*
X+1920238Y+2397875D01*
X+1973113Y+2345000D01*
X+1914671Y+2286558D01*
X+1914671Y+2203442D01*
X+1973113Y+2145000D01*
X+1914671Y+2086558D01*
X+1914671Y+2003442D01*
X+1973113Y+1945000D01*
X+1916292Y+1888179D01*
X+1777885Y+1888179D01*
X+1738926Y+1927138D01*
X+1747079Y+1935291D01*
X+1747079Y+2044709D01*
X+1669709Y+2122079D01*
X+1560291Y+2122079D01*
X+1482921Y+2044709D01*
X+1482921Y+1935291D01*
X+1560291Y+1857921D01*
X+1669709Y+1857921D01*
X+1677862Y+1866074D01*
X+1742115Y+1801821D01*
X+1916292Y+1801821D01*
X+1973113Y+1745000D01*
X+1914671Y+1686558D01*
X+1914671Y+1603442D01*
X+1973442Y+1544671D01*
X+2056558Y+1544671D01*
X+2072345Y+1560458D01*
X+2072345Y+1274108D01*
X+2517530Y+828923D01*
X+2508841Y+828923D01*
X+2453789Y+773871D01*
X+2453789Y+696017D01*
X+2486627Y+663179D01*
X+1447115Y+663179D01*
X+1376405Y+592469D01*
X+1299041Y+592469D01*
X+1299041Y+504984D01*
X+1283146Y+520879D01*
X+1265185Y+520879D01*
X+1227885Y+558179D01*
X+1030959Y+558179D01*
X+1030959Y+592469D01*
X+909041Y+592469D01*
X+909041Y+437531D01*
X+931821Y+437531D01*
X+931821Y+422469D01*
X+867131Y+422469D01*
X+867131Y+267531D01*
X+1072869Y+267531D01*
X+1072869Y+422469D01*
X+1018179Y+422469D01*
X+1018179Y+437531D01*
X+1030959Y+437531D01*
X+1030959Y+471821D01*
X+1192115Y+471821D01*
X+1204121Y+459815D01*
X+1204121Y+441854D01*
X+1236854Y+409121D01*
X+1257131Y+409121D01*
X+1257131Y+267531D01*
X+1462869Y+267531D01*
X+1462869Y+422469D01*
X+1403179Y+422469D01*
X+1403179Y+437531D01*
X+1420959Y+437531D01*
X+1420959Y+514895D01*
X+1482885Y+576821D01*
X+1689041Y+576821D01*
X+1689041Y+437531D01*
X+1706821Y+437531D01*
X+1706821Y+422469D01*
X+1647131Y+422469D01*
X+1647131Y+267531D01*
X+1852869Y+267531D01*
X+1852869Y+422469D01*
X+1793179Y+422469D01*
X+1793179Y+437531D01*
X+1810959Y+437531D01*
X+1810959Y+440412D01*
X+1814418Y+440412D01*
X+1827118Y+427712D01*
X+1873410Y+427712D01*
X+1906143Y+460445D01*
X+1906143Y+506737D01*
X+1873410Y+539470D01*
X+1827118Y+539470D01*
X+1814418Y+526770D01*
X+1810959Y+526770D01*
X+1810959Y+576821D01*
X+2079041Y+576821D01*
X+2079041Y+437531D01*
X+2096821Y+437531D01*
X+2096821Y+422469D01*
X+2037131Y+422469D01*
X+2037131Y+267531D01*
X+2242869Y+267531D01*
X+2242869Y+422469D01*
X+2183179Y+422469D01*
X+2183179Y+437531D01*
X+2200959Y+437531D01*
X+2200959Y+471821D01*
X+2242367Y+471821D01*
X+2253658Y+483112D01*
X+2271619Y+483112D01*
X+2304352Y+515845D01*
X+2304352Y+562137D01*
X+2289668Y+576821D01*
X+2752306Y+576821D01*
X+2752306Y+543540D01*
X+2785039Y+510807D01*
X+2831331Y+510807D01*
X+2845730Y+525206D01*
X+2984005Y+525205D01*
X+2996705Y+512505D01*
X+3042997Y+512505D01*
X+3075730Y+545238D01*
X+3075730Y+591530D01*
X+3042997Y+624263D01*
X+2996705Y+624263D01*
X+2984005Y+611563D01*
X+2855503Y+611562D01*
X+3215789Y+971848D01*
X+3215789Y+950017D01*
X+3270841Y+894965D01*
X+3348695Y+894965D01*
X+3403747Y+950017D01*
X+3403747Y+1027871D01*
X+3394069Y+1037549D01*
X+3415437Y+1037549D01*
X+3526853Y+1148965D01*
X+3598695Y+1148965D01*
X+3653747Y+1204017D01*
X+3653747Y+1225361D01*
X+3833979Y+1225361D01*
X+3833979Y+1352385D01*
X+3848432Y+1337932D01*
X+4307347Y+1337932D01*
X+4308356Y+1336923D01*
X+4282841Y+1336923D01*
X+4227789Y+1281871D01*
X+4227789Y+1204017D01*
X+4252178Y+1179628D01*
X+3791064Y+1179628D01*
X+3646527Y+1035091D01*
X+3598695Y+1082923D01*
X+3520841Y+1082923D01*
X+3465789Y+1027871D01*
X+3465789Y+950017D01*
X+3520841Y+894965D01*
X+3598695Y+894965D01*
X+3611958Y+908228D01*
X+3611958Y+848198D01*
X+3592683Y+828923D01*
X+3520841Y+828923D01*
X+3465789Y+773871D01*
X+3465789Y+696017D01*
X+3520841Y+640965D01*
X+3598695Y+640965D01*
X+3653747Y+696017D01*
X+3653747Y+767859D01*
X+3698316Y+812428D01*
X+3698316Y+962307D01*
X+3720702Y+939921D01*
X+3738663Y+939921D01*
X+4115902Y+562682D01*
X+4198123Y+562682D01*
X+4210823Y+549982D01*
X+4257115Y+549982D01*
X+4289848Y+582715D01*
X+4289848Y+629007D01*
X+4257115Y+661740D01*
X+4210823Y+661740D01*
X+4198123Y+649040D01*
X+4151672Y+649040D01*
X+4122953Y+677759D01*
X+4136959Y+691765D01*
X+4232041Y+691765D01*
X+4282841Y+640965D01*
X+4360695Y+640965D01*
X+4415747Y+696017D01*
X+4415747Y+773871D01*
X+4360695Y+828923D01*
X+4282841Y+828923D01*
X+4232041Y+778123D01*
X+4128899Y+778123D01*
X+4120229Y+786793D01*
X+4073937Y+786793D01*
X+4043928Y+756784D01*
X+3799727Y+1000985D01*
X+3799727Y+1018946D01*
X+3776118Y+1042554D01*
X+3826834Y+1093270D01*
X+4290683Y+1093270D01*
X+4301030Y+1082923D01*
X+4282841Y+1082923D01*
X+4227789Y+1027871D01*
X+4227789Y+950017D01*
X+4282841Y+894965D01*
X+4360695Y+894965D01*
X+4415747Y+950017D01*
X+4415747Y+1027871D01*
X+4360695Y+1082923D01*
X+4352028Y+1082923D01*
X+4382408Y+1113303D01*
X+4382408Y+1159595D01*
X+4376866Y+1165136D01*
X+4415747Y+1204017D01*
X+4415747Y+1229532D01*
X+4643210Y+1002069D01*
X+4612882Y+1002069D01*
X+4580783Y+1034168D01*
X+4513449Y+1034168D01*
X+4465837Y+986556D01*
X+4465837Y+919222D01*
X+4513449Y+871610D01*
X+4580783Y+871610D01*
X+4607104Y+897931D01*
X+4742131Y+897931D01*
X+4742131Y+872531D01*
X+4906390Y+872531D01*
X+4906390Y+832276D01*
X+4804816Y+730702D01*
X+4780015Y+755503D01*
X+4733723Y+755503D01*
X+4721023Y+742803D01*
X+4654181Y+742803D01*
X+4415747Y+504369D01*
X+4415747Y+519871D01*
X+4403398Y+532220D01*
X+4403398Y+537280D01*
X+4378104Y+562574D01*
X+4373044Y+562574D01*
X+4360695Y+574923D01*
X+4282841Y+574923D01*
X+4227789Y+519871D01*
X+4227789Y+442017D01*
X+4282841Y+386965D01*
X+4298343Y+386965D01*
X+4267389Y+356011D01*
X+3632388Y+356011D01*
X+3597300Y+320923D01*
X+3520841Y+320923D01*
X+3465789Y+265871D01*
X+3465789Y+188017D01*
X+3520841Y+132965D01*
X+3598695Y+132965D01*
X+3653747Y+188017D01*
X+3653747Y+255242D01*
X+3668158Y+269653D01*
X+4231571Y+269653D01*
X+4227789Y+265871D01*
X+4227789Y+188017D01*
X+4282841Y+132965D01*
X+4360695Y+132965D01*
X+4415747Y+188017D01*
X+4415747Y+265871D01*
X+4360695Y+320923D01*
X+4354429Y+320923D01*
X+4689951Y+656445D01*
X+4721023Y+656445D01*
X+4725791Y+651677D01*
X+4438496Y+364382D01*
X+4438496Y+150736D01*
X+4354683Y+66923D01*
X+4282841Y+66923D01*
X+4227789Y+11871D01*
X+4227789Y-65983D01*
X+4282841Y-121035D01*
X+4360695Y-121035D01*
X+4415747Y-65983D01*
X+4415747Y+5859D01*
X+4466938Y+57050D01*
X+4465228Y+50000D01*
X+4489444Y-49825D01*
X+4530059Y-105912D01*
X+4573174Y-139040D01*
X+1787675Y-139040D01*
X+1696780Y+42750D01*
X+1667316Y+60960D01*
X+60960Y+60960D01*
X+60960Y+5939040D01*
X+1939040Y+5939040D01*
X+1939040Y+5762869D01*
X+2508841Y+574923D02*
X+2586695Y+574923D01*
X+2641747Y+519871D01*
X+2641747Y+442017D01*
X+2586695Y+386965D01*
X+2508841Y+386965D01*
X+2453789Y+442017D01*
X+2453789Y+519871D01*
X+2508841Y+574923D01*
X+2508841Y+320923D02*
X+2586695Y+320923D01*
X+2641747Y+265871D01*
X+2641747Y+188017D01*
X+2586695Y+132965D01*
X+2508841Y+132965D01*
X+2453789Y+188017D01*
X+2453789Y+265871D01*
X+2508841Y+320923D01*
X+2508841Y+66923D02*
X+2586695Y+66923D01*
X+2641747Y+11871D01*
X+2641747Y-65983D01*
X+2586695Y-121035D01*
X+2508841Y-121035D01*
X+2453789Y-65983D01*
X+2453789Y+11871D01*
X+2508841Y+66923D01*
X+3270841Y+66923D02*
X+3348695Y+66923D01*
X+3403747Y+11871D01*
X+3403747Y-65983D01*
X+3348695Y-121035D01*
X+3270841Y-121035D01*
X+3215789Y-65983D01*
X+3215789Y+11871D01*
X+3270841Y+66923D01*
X+3270841Y+320923D02*
X+3348695Y+320923D01*
X+3403747Y+265871D01*
X+3403747Y+188017D01*
X+3348695Y+132965D01*
X+3270841Y+132965D01*
X+3215789Y+188017D01*
X+3215789Y+265871D01*
X+3270841Y+320923D01*
X+3270841Y+574923D02*
X+3348695Y+574923D01*
X+3403747Y+519871D01*
X+3403747Y+442017D01*
X+3348695Y+386965D01*
X+3270841Y+386965D01*
X+3215789Y+442017D01*
X+3215789Y+519871D01*
X+3270841Y+574923D01*
X+3270841Y+828923D02*
X+3348695Y+828923D01*
X+3403747Y+773871D01*
X+3403747Y+696017D01*
X+3348695Y+640965D01*
X+3270841Y+640965D01*
X+3215789Y+696017D01*
X+3215789Y+773871D01*
X+3270841Y+828923D01*
X+3520841Y+574923D02*
X+3598695Y+574923D01*
X+3653747Y+519871D01*
X+3653747Y+442017D01*
X+3598695Y+386965D01*
X+3520841Y+386965D01*
X+3465789Y+442017D01*
X+3465789Y+519871D01*
X+3520841Y+574923D01*
X+3520841Y+66923D02*
X+3598695Y+66923D01*
X+3653747Y+11871D01*
X+3653747Y-65983D01*
X+3598695Y-121035D01*
X+3520841Y-121035D01*
X+3465789Y-65983D01*
X+3465789Y+11871D01*
X+3520841Y+66923D01*
X+747679Y+1618188D02*
X+747679Y+1529812D01*
X+716046Y+1498179D01*
X+872531Y+1498179D01*
X+872531Y+1550959D01*
X+1027469Y+1550959D01*
X+1027469Y+1429041D01*
X+950105Y+1429041D01*
X+932885Y+1411821D01*
X+700046Y+1411821D01*
X+747679Y+1364188D01*
X+747679Y+1275812D01*
X+746966Y+1275098D01*
X+844202Y+1177862D01*
X+844202Y+1104395D01*
X+851854Y+1112047D01*
X+898146Y+1112047D01*
X+910846Y+1099347D01*
X+1551717Y+1099347D01*
X+1828595Y+822469D01*
X+1905959Y+822469D01*
X+1905959Y+667531D01*
X+1784041Y+667531D01*
X+1784041Y+744895D01*
X+1715959Y+812977D01*
X+1715959Y+667531D01*
X+1594041Y+667531D01*
X+1594041Y+822469D01*
X+1706467Y+822469D01*
X+1515947Y+1012989D01*
X+1283559Y+1012989D01*
X+1283625Y+1012923D01*
X+1283625Y+994962D01*
X+1456118Y+822469D01*
X+1515959Y+822469D01*
X+1515959Y+667531D01*
X+1394041Y+667531D01*
X+1394041Y+762418D01*
X+1222561Y+933898D01*
X+1204600Y+933898D01*
X+1171867Y+966631D01*
X+1171867Y+1012923D01*
X+1171933Y+1012989D01*
X+910846Y+1012989D01*
X+898146Y+1000289D01*
X+870775Y+1000289D01*
X+1048595Y+822469D01*
X+1125959Y+822469D01*
X+1125959Y+667531D01*
X+1004041Y+667531D01*
X+1004041Y+744895D01*
X+935959Y+812977D01*
X+935959Y+667531D01*
X+814041Y+667531D01*
X+814041Y+822469D01*
X+926467Y+822469D01*
X+757844Y+991092D01*
X+757844Y+1142092D01*
X+685902Y+1214034D01*
X+685188Y+1213321D01*
X+596812Y+1213321D01*
X+534321Y+1275812D01*
X+534321Y+1364188D01*
X+592895Y+1422762D01*
X+584121Y+1431536D01*
X+584121Y+1477828D01*
X+585213Y+1478920D01*
X+534321Y+1529812D01*
X+534321Y+1618188D01*
X+596812Y+1680679D01*
X+685188Y+1680679D01*
X+747679Y+1618188D01*
X+810615Y+197069D02*
X+867131Y+197069D01*
X+867131Y+222469D01*
X+1072869Y+222469D01*
X+1072869Y+197069D01*
X+1257131Y+197069D01*
X+1257131Y+222469D01*
X+1462869Y+222469D01*
X+1462869Y+197069D01*
X+1647131Y+197069D01*
X+1647131Y+222469D01*
X+1852869Y+222469D01*
X+1852869Y+197069D01*
X+2037131Y+197069D01*
X+2037131Y+222469D01*
X+2242869Y+222469D01*
X+2242869Y+67531D01*
X+2037131Y+67531D01*
X+2037131Y+92931D01*
X+1852869Y+92931D01*
X+1852869Y+67531D01*
X+1647131Y+67531D01*
X+1647131Y+92931D01*
X+1462869Y+92931D01*
X+1462869Y+67531D01*
X+1257131Y+67531D01*
X+1257131Y+92931D01*
X+1072869Y+92931D01*
X+1072869Y+67531D01*
X+867131Y+67531D01*
X+867131Y+92931D01*
X+815313Y+92931D01*
X+783754Y+61372D01*
X+716420Y+61372D01*
X+668808Y+108984D01*
X+668808Y+176318D01*
X+716420Y+223930D01*
X+783754Y+223930D01*
X+810615Y+197069D01*
X+1272869Y+1851218D02*
X+1394215Y+1851218D01*
X+1394215Y+1851902D01*
X+1441827Y+1899514D01*
X+1509161Y+1899514D01*
X+1556773Y+1851902D01*
X+1556773Y+1784568D01*
X+1509161Y+1736956D01*
X+1441827Y+1736956D01*
X+1431703Y+1747080D01*
X+1247469Y+1747080D01*
X+1247469Y+1673595D01*
X+1305121Y+1615943D01*
X+1305121Y+1587732D01*
X+1317821Y+1575032D01*
X+1317821Y+1528740D01*
X+1285088Y+1496007D01*
X+1238796Y+1496007D01*
X+1206063Y+1528740D01*
X+1206063Y+1575032D01*
X+1214984Y+1583952D01*
X+1211805Y+1587131D01*
X+1092531Y+1587131D01*
X+1092531Y+1738895D01*
X+1047469Y+1693833D01*
X+1047469Y+1587131D01*
X+892531Y+1587131D01*
X+892531Y+1759217D01*
X+852883Y+1719569D01*
X+852883Y+1701608D01*
X+820150Y+1668875D01*
X+773858Y+1668875D01*
X+741125Y+1701608D01*
X+741125Y+1747900D01*
X+773858Y+1780633D01*
X+791819Y+1780633D01*
X+867131Y+1855945D01*
X+867131Y+1967469D01*
X+1272869Y+1967469D01*
X+1272869Y+1851218D01*
X+1204041Y+822469D02*
X+1325959Y+822469D01*
X+1325959Y+667531D01*
X+1204041Y+667531D01*
X+1204041Y+822469D01*
X+956741Y+4379249D02*
X+956741Y+4530751D01*
X+1063869Y+4637879D01*
X+1215371Y+4637879D01*
X+1322499Y+4530751D01*
X+1322499Y+4379249D01*
X+1215371Y+4272121D01*
X+1063869Y+4272121D01*
X+956741Y+4379249D01*
X+1570789Y+2582025D02*
X+1570789Y+2744583D01*
X+1758747Y+2744583D01*
X+1758747Y+2582025D01*
X+1570789Y+2582025D01*
X+2226491Y+831612D02*
X+2226491Y+822469D01*
X+2295959Y+822469D01*
X+2295959Y+667531D01*
X+2174041Y+667531D01*
X+2174041Y+744895D01*
X+2166349Y+752587D01*
X+2147466Y+752587D01*
X+2114733Y+785320D01*
X+2114733Y+831612D01*
X+2147466Y+864345D01*
X+2193758Y+864345D01*
X+2226491Y+831612D01*
X+1984041Y+822469D02*
X+2105959Y+822469D01*
X+2105959Y+667531D01*
X+1984041Y+667531D01*
X+1984041Y+822469D01*
X+872531Y+1239041D02*
X+872531Y+1360959D01*
X+1027469Y+1360959D01*
X+1027469Y+1239041D01*
X+872531Y+1239041D01*
X+1555329Y+1451558D02*
X+1555329Y+1368442D01*
X+1496887Y+1310000D01*
X+1555329Y+1251558D01*
X+1555329Y+1168442D01*
X+1496558Y+1109671D01*
X+1413442Y+1109671D01*
X+1354671Y+1168442D01*
X+1354671Y+1251558D01*
X+1413113Y+1310000D01*
X+1371292Y+1351821D01*
X+1257469Y+1351821D01*
X+1257469Y+1334041D01*
X+1223179Y+1334041D01*
X+1223179Y+1292115D01*
X+1197885Y+1266821D01*
X+1162115Y+1266821D01*
X+1136821Y+1292115D01*
X+1136821Y+1334041D01*
X+1102531Y+1334041D01*
X+1102531Y+1455959D01*
X+1257469Y+1455959D01*
X+1257469Y+1438179D01*
X+1354671Y+1438179D01*
X+1354671Y+1451558D01*
X+1413442Y+1510329D01*
X+1496558Y+1510329D01*
X+1555329Y+1451558D01*
X+596812Y+4728679D02*
X+685188Y+4728679D01*
X+747679Y+4666188D01*
X+747679Y+4577812D01*
X+685188Y+4515321D01*
X+596812Y+4515321D01*
X+534321Y+4577812D01*
X+534321Y+4666188D01*
X+596812Y+4728679D01*
X+747679Y+4412188D02*
X+747679Y+4323812D01*
X+725719Y+4301852D01*
X+760122Y+4301852D01*
X+792855Y+4269119D01*
X+792855Y+4251158D01*
X+999661Y+4044351D01*
X+999661Y+3968238D01*
X+1012361Y+3955538D01*
X+1012361Y+3909246D01*
X+979628Y+3876513D01*
X+933336Y+3876513D01*
X+900603Y+3909246D01*
X+900603Y+3955538D01*
X+913303Y+3968238D01*
X+913303Y+4008581D01*
X+731791Y+4190094D01*
X+715773Y+4190094D01*
X+747679Y+4158188D01*
X+747679Y+4069812D01*
X+685188Y+4007321D01*
X+596812Y+4007321D01*
X+534321Y+4069812D01*
X+534321Y+4158188D01*
X+596812Y+4220679D01*
X+683245Y+4220679D01*
X+681097Y+4222827D01*
X+681097Y+4261321D01*
X+596812Y+4261321D01*
X+534321Y+4323812D01*
X+534321Y+4412188D01*
X+596812Y+4474679D01*
X+685188Y+4474679D01*
X+747679Y+4412188D01*
X+596812Y+3966679D02*
X+685188Y+3966679D01*
X+747679Y+3904188D01*
X+747679Y+3815812D01*
X+685188Y+3753321D01*
X+596812Y+3753321D01*
X+534321Y+3815812D01*
X+534321Y+3904188D01*
X+596812Y+3966679D01*
X+596812Y+2696679D02*
X+685188Y+2696679D01*
X+747679Y+2634188D01*
X+747679Y+2545812D01*
X+685188Y+2483321D01*
X+596812Y+2483321D01*
X+534321Y+2545812D01*
X+534321Y+2634188D01*
X+596812Y+2696679D01*
X+596812Y+2442679D02*
X+685188Y+2442679D01*
X+747679Y+2380188D01*
X+747679Y+2291812D01*
X+685188Y+2229321D01*
X+596812Y+2229321D01*
X+534321Y+2291812D01*
X+534321Y+2380188D01*
X+596812Y+2442679D01*
X+596812Y+2188679D02*
X+685188Y+2188679D01*
X+747679Y+2126188D01*
X+747679Y+2037812D01*
X+685188Y+1975321D01*
X+596812Y+1975321D01*
X+534321Y+2037812D01*
X+534321Y+2126188D01*
X+596812Y+2188679D01*
X+596812Y+1934679D02*
X+685188Y+1934679D01*
X+747679Y+1872188D01*
X+747679Y+1783812D01*
X+685188Y+1721321D01*
X+596812Y+1721321D01*
X+534321Y+1783812D01*
X+534321Y+1872188D01*
X+596812Y+1934679D01*
X+596812Y+1172679D02*
X+685188Y+1172679D01*
X+747679Y+1110188D01*
X+747679Y+1021812D01*
X+685188Y+959321D01*
X+596812Y+959321D01*
X+534321Y+1021812D01*
X+534321Y+1110188D01*
X+596812Y+1172679D01*
X+596812Y+918679D02*
X+685188Y+918679D01*
X+747679Y+856188D01*
X+747679Y+767812D01*
X+685188Y+705321D01*
X+596812Y+705321D01*
X+534321Y+767812D01*
X+534321Y+856188D01*
X+596812Y+918679D01*
X+215812Y+410679D02*
X+304188Y+410679D01*
X+366679Y+348188D01*
X+366679Y+259812D01*
X+304188Y+197321D01*
X+215812Y+197321D01*
X+153321Y+259812D01*
X+153321Y+348188D01*
X+215812Y+410679D01*
X+97921Y+5350291D02*
X+97921Y+5459709D01*
X+175291Y+5537079D01*
X+284709Y+5537079D01*
X+362079Y+5459709D01*
X+362079Y+5350291D01*
X+284709Y+5272921D01*
X+175291Y+5272921D01*
X+97921Y+5350291D01*
X+97921Y+5685291D02*
X+97921Y+5794709D01*
X+175291Y+5872079D01*
X+284709Y+5872079D01*
X+362079Y+5794709D01*
X+362079Y+5685291D01*
X+284709Y+5607921D01*
X+175291Y+5607921D01*
X+97921Y+5685291D01*
X+462921Y+5685291D02*
X+462921Y+5794709D01*
X+540291Y+5872079D01*
X+649709Y+5872079D01*
X+727079Y+5794709D01*
X+727079Y+5685291D01*
X+649709Y+5607921D01*
X+540291Y+5607921D01*
X+462921Y+5685291D01*
X+1512921Y+2870291D02*
X+1512921Y+2979709D01*
X+1590291Y+3057079D01*
X+1699709Y+3057079D01*
X+1777079Y+2979709D01*
X+1777079Y+2870291D01*
X+1699709Y+2792921D01*
X+1590291Y+2792921D01*
X+1512921Y+2870291D01*
X+1573364Y+5044904D02*
X+1573364Y+5071206D01*
X+1591963Y+5089805D01*
X+1618265Y+5089805D01*
X+1636864Y+5071206D01*
X+1636864Y+5044904D01*
X+1618265Y+5026305D01*
X+1591963Y+5026305D01*
X+1573364Y+5044904D01*
X+6939040Y+60960D02*
X+6330906Y+60960D01*
X+6361279Y+91333D01*
X+6361279Y+158667D01*
X+6318625Y+201321D01*
X+6400188Y+201321D01*
X+6462679Y+263812D01*
X+6462679Y+352188D01*
X+6400188Y+414679D01*
X+6311812Y+414679D01*
X+6249321Y+352188D01*
X+6249321Y+263812D01*
X+6306854Y+206279D01*
X+6246333Y+206279D01*
X+6217123Y+177069D01*
X+6150000Y+177068D01*
X+6122869Y+177069D01*
X+6122869Y+202469D01*
X+5917131Y+202469D01*
X+5917131Y+177069D01*
X+5727869Y+177069D01*
X+5727869Y+202469D01*
X+5522131Y+202469D01*
X+5522131Y+177069D01*
X+5342869Y+177069D01*
X+5342869Y+202469D01*
X+5137131Y+202469D01*
X+5137131Y+57296D01*
X+5114621Y+43986D01*
X+5013957Y-139040D01*
X+4804826Y-139040D01*
X+4847941Y-105912D01*
X+4888556Y-49825D01*
X+4912772Y+50000D01*
X+4888556Y+149825D01*
X+4847941Y+205912D01*
X+4799185Y+243374D01*
X+4745024Y+265348D01*
X+4689000Y+272499D01*
X+4632976Y+265348D01*
X+4578815Y+243374D01*
X+4530059Y+205912D01*
X+4524854Y+198724D01*
X+4524854Y+328612D01*
X+4898194Y+701952D01*
X+4898194Y+660113D01*
X+4945806Y+612501D01*
X+5013140Y+612501D01*
X+5060752Y+660113D01*
X+5060752Y+701116D01*
X+5084041Y+724405D01*
X+5084041Y+647531D01*
X+5205959Y+647531D01*
X+5205959Y+802469D01*
X+5162105Y+802469D01*
X+5231167Y+871531D01*
X+5337869Y+871531D01*
X+5337869Y+896931D01*
X+5519432Y+896931D01*
X+5519432Y+872531D01*
X+5725170Y+872531D01*
X+5725170Y+892931D01*
X+5907131Y+892931D01*
X+5907131Y+867531D01*
X+6112869Y+867531D01*
X+6112869Y+892931D01*
X+6202123Y+892931D01*
X+6206333Y+888721D01*
X+6220501Y+888721D01*
X+6184959Y+853179D01*
X+5402115Y+853179D01*
X+5351405Y+802469D01*
X+5274041Y+802469D01*
X+5274041Y+647531D01*
X+5395959Y+647531D01*
X+5395959Y+724895D01*
X+5437885Y+766821D01*
X+5474041Y+766821D01*
X+5474041Y+647531D01*
X+5595959Y+647531D01*
X+5595959Y+766821D01*
X+5664041Y+766821D01*
X+5664041Y+647531D01*
X+5766361Y+647531D01*
X+5769771Y+644121D01*
X+5816063Y+644121D01*
X+5848796Y+676854D01*
X+5848796Y+723146D01*
X+5816063Y+755879D01*
X+5785959Y+755879D01*
X+5785959Y+766821D01*
X+5864041Y+766821D01*
X+5864041Y+647531D01*
X+5985959Y+647531D01*
X+5985959Y+766821D01*
X+6054041Y+766821D01*
X+6054041Y+647531D01*
X+6175959Y+647531D01*
X+6175959Y+681821D01*
X+6282885Y+681821D01*
X+6311098Y+710034D01*
X+6311812Y+709321D01*
X+6400188Y+709321D01*
X+6462679Y+771812D01*
X+6462679Y+860188D01*
X+6443440Y+879427D01*
X+6612509Y+879427D01*
X+6631034Y+860902D01*
X+6630321Y+860188D01*
X+6630321Y+771812D01*
X+6692812Y+709321D01*
X+6781188Y+709321D01*
X+6843679Y+771812D01*
X+6843679Y+860188D01*
X+6781188Y+922679D01*
X+6692812Y+922679D01*
X+6692098Y+921966D01*
X+6648279Y+965785D01*
X+6402652Y+965785D01*
X+6462679Y+1025812D01*
X+6462679Y+1114188D01*
X+6400188Y+1176679D01*
X+6311812Y+1176679D01*
X+6249321Y+1114188D01*
X+6249321Y+1051279D01*
X+6206333Y+1051279D01*
X+6158721Y+1003667D01*
X+6158721Y+997069D01*
X+6112869Y+997069D01*
X+6112869Y+1022469D01*
X+5907131Y+1022469D01*
X+5907131Y+997069D01*
X+5725170Y+997069D01*
X+5725170Y+1027469D01*
X+5519432Y+1027469D01*
X+5519432Y+1001069D01*
X+5337869Y+1001069D01*
X+5337869Y+1026469D01*
X+5132131Y+1026469D01*
X+5132131Y+919767D01*
X+4987423Y+775059D01*
X+4971301Y+775059D01*
X+4992748Y+796506D01*
X+4992748Y+1063316D01*
X+4947869Y+1108195D01*
X+4947869Y+1227469D01*
X+4888179Y+1227469D01*
X+4888179Y+1237531D01*
X+4905959Y+1237531D01*
X+4905959Y+1392469D01*
X+4784041Y+1392469D01*
X+4784041Y+1237531D01*
X+4801821Y+1237531D01*
X+4801821Y+1227469D01*
X+4742131Y+1227469D01*
X+4742131Y+1072531D01*
X+4861405Y+1072531D01*
X+4906390Y+1027546D01*
X+4906390Y+1027469D01*
X+4765082Y+1027469D01*
X+4375140Y+1417410D01*
X+4415747Y+1458017D01*
X+4415747Y+1535871D01*
X+4360695Y+1590923D01*
X+4288853Y+1590923D01*
X+4036094Y+1843682D01*
X+4036094Y+1895712D01*
X+4040841Y+1890965D01*
X+4118695Y+1890965D01*
X+4173747Y+1946017D01*
X+4173747Y+2023871D01*
X+4118695Y+2078923D01*
X+4040841Y+2078923D01*
X+3985789Y+2023871D01*
X+3985789Y+2016499D01*
X+3885467Y+2116821D01*
X+4904677Y+2116821D01*
X+4989907Y+2202051D01*
X+5074459Y+2202051D01*
X+5074459Y+2372140D01*
X+5079541Y+2372140D01*
X+5079541Y+2202051D01*
X+5097321Y+2202051D01*
X+5097321Y+2157469D01*
X+5047131Y+2157469D01*
X+5047131Y+2002531D01*
X+5252869Y+2002531D01*
X+5252869Y+2157469D01*
X+5183679Y+2157469D01*
X+5183679Y+2202051D01*
X+5201459Y+2202051D01*
X+5201459Y+2372140D01*
X+5248541Y+2372140D01*
X+5248541Y+2202051D01*
X+5370459Y+2202051D01*
X+5370459Y+2335320D01*
X+5375541Y+2330238D01*
X+5375541Y+2202051D01*
X+5483026Y+2202051D01*
X+5459121Y+2178146D01*
X+5459121Y+2131854D01*
X+5491854Y+2099121D01*
X+5538146Y+2099121D01*
X+5570879Y+2131854D01*
X+5570879Y+2149815D01*
X+5606679Y+2185615D01*
X+5606679Y+2202051D01*
X+5624459Y+2202051D01*
X+5624459Y+2417949D01*
X+5502541Y+2417949D01*
X+5502541Y+2210879D01*
X+5497459Y+2210879D01*
X+5497459Y+2417949D01*
X+5409958Y+2417949D01*
X+5400306Y+2427601D01*
X+5687959Y+2427601D01*
X+5687959Y+2732399D01*
X+5312041Y+2732399D01*
X+5312041Y+2458498D01*
X+5137959Y+2458498D01*
X+5137959Y+2732399D01*
X+4762041Y+2732399D01*
X+4762041Y+2458498D01*
X+4005527Y+2458498D01*
X+3998146Y+2465879D01*
X+3951854Y+2465879D01*
X+3924962Y+2438986D01*
X+3660839Y+2703109D01*
X+3665747Y+2708017D01*
X+3665747Y+2785871D01*
X+3610695Y+2840923D01*
X+3532841Y+2840923D01*
X+3477789Y+2785871D01*
X+3477789Y+2708017D01*
X+3532841Y+2652965D01*
X+3588855Y+2652965D01*
X+4038641Y+2203179D01*
X+3915452Y+2203179D01*
X+3411180Y+2707450D01*
X+3411747Y+2708017D01*
X+3411747Y+2785871D01*
X+3356695Y+2840923D01*
X+3278841Y+2840923D01*
X+3223789Y+2785871D01*
X+3223789Y+2708017D01*
X+3278841Y+2652965D01*
X+3343538Y+2652965D01*
X+3538176Y+2458327D01*
X+2991279Y+2458327D01*
X+2991279Y+2638979D01*
X+2828721Y+2638979D01*
X+2828721Y+2458327D01*
X+2777919Y+2458327D01*
X+2777919Y+2638979D01*
X+2737369Y+2638979D01*
X+2649747Y+2726601D01*
X+2649747Y+2785871D01*
X+2607837Y+2827781D01*
X+2607837Y+2973527D01*
X+2683092Y+2898272D01*
X+3636908Y+2898272D01*
X+3698307Y+2959671D01*
X+3766558Y+2959671D01*
X+3825000Y+3018113D01*
X+3883442Y+2959671D01*
X+3966558Y+2959671D01*
X+4025000Y+3018113D01*
X+4083442Y+2959671D01*
X+4166558Y+2959671D01*
X+4225000Y+3018113D01*
X+4283442Y+2959671D01*
X+4351693Y+2959671D01*
X+4513433Y+2797931D01*
X+4698541Y+2797931D01*
X+4698541Y+2742051D01*
X+4820459Y+2742051D01*
X+4820459Y+2957949D01*
X+4698541Y+2957949D01*
X+4698541Y+2902069D01*
X+4556567Y+2902069D01*
X+4498965Y+2959671D01*
X+4566558Y+2959671D01*
X+4614818Y+3007931D01*
X+4815122Y+3007931D01*
X+4865104Y+2957949D01*
X+4825541Y+2957949D01*
X+4825541Y+2742051D01*
X+4947459Y+2742051D01*
X+4947459Y+2875594D01*
X+4952541Y+2870512D01*
X+4952541Y+2742051D01*
X+5074459Y+2742051D01*
X+5074459Y+2957949D01*
X+5012376Y+2957949D01*
X+4858256Y+3112069D01*
X+4614818Y+3112069D01*
X+4566887Y+3160000D01*
X+4614818Y+3207931D01*
X+4877933Y+3207931D01*
X+5127915Y+2957949D01*
X+5079541Y+2957949D01*
X+5079541Y+2742051D01*
X+5167681Y+2742051D01*
X+5176863Y+2732869D01*
X+5244197Y+2732869D01*
X+5253379Y+2742051D01*
X+5370459Y+2742051D01*
X+5370459Y+2957949D01*
X+5275187Y+2957949D01*
X+4921067Y+3312069D01*
X+4614818Y+3312069D01*
X+4612353Y+3314534D01*
X+5061830Y+3314534D01*
X+5418415Y+2957949D01*
X+5375541Y+2957949D01*
X+5375541Y+2742051D01*
X+5497459Y+2742051D01*
X+5497459Y+2878905D01*
X+5502541Y+2873823D01*
X+5502541Y+2742051D01*
X+5624459Y+2742051D01*
X+5624459Y+2957949D01*
X+5565687Y+2957949D01*
X+5104964Y+3418672D01*
X+4410036Y+3418672D01*
X+4351693Y+3360329D01*
X+4283442Y+3360329D01*
X+4225000Y+3301887D01*
X+4166558Y+3360329D01*
X+4083442Y+3360329D01*
X+4025000Y+3301887D01*
X+3966558Y+3360329D01*
X+3883442Y+3360329D01*
X+3825000Y+3301887D01*
X+3766558Y+3360329D01*
X+3712067Y+3360329D01*
X+3633356Y+3439040D01*
X+4825250Y+3439040D01*
X+5060960Y+3674750D01*
X+5060960Y+5939040D01*
X+6939040Y+5939040D01*
X+6939040Y+60960D01*
X+6055329Y+5811558D02*
X+6055329Y+5803885D01*
X+6342179Y+5803885D01*
X+6533195Y+5612869D01*
X+6652469Y+5612869D01*
X+6652469Y+5407131D01*
X+6576305Y+5407131D01*
X+6614041Y+5369395D01*
X+6614041Y+5397469D01*
X+6735959Y+5397469D01*
X+6735959Y+5242531D01*
X+6614041Y+5242531D01*
X+6614041Y+5276821D01*
X+6584487Y+5276821D01*
X+6334487Y+5526821D01*
X+6053708Y+5526821D01*
X+5996558Y+5469671D01*
X+5969512Y+5469671D01*
X+6176623Y+5262560D01*
X+6176623Y+4827869D01*
X+6207469Y+4827869D01*
X+6207469Y+4622131D01*
X+6052531Y+4622131D01*
X+6052531Y+4827869D01*
X+6090265Y+4827869D01*
X+6090265Y+4999392D01*
X+6071941Y+4974088D01*
X+6059182Y+4964284D01*
X+6023185Y+4936626D01*
X+5969024Y+4914652D01*
X+5961168Y+4913649D01*
X+5913000Y+4907501D01*
X+5856976Y+4914652D01*
X+5849632Y+4917631D01*
X+5802815Y+4936626D01*
X+5793179Y+4944029D01*
X+5793179Y+4827869D01*
X+5827469Y+4827869D01*
X+5827469Y+4701268D01*
X+5852531Y+4726330D01*
X+5852531Y+4827869D01*
X+6007469Y+4827869D01*
X+6007469Y+4622131D01*
X+5895604Y+4622131D01*
X+5864432Y+4590959D01*
X+5992469Y+4590959D01*
X+5992469Y+4513595D01*
X+6067531Y+4438533D01*
X+6067531Y+4488114D01*
X+6047648Y+4507997D01*
X+6047648Y+4554289D01*
X+6080381Y+4587022D01*
X+6126673Y+4587022D01*
X+6159406Y+4554289D01*
X+6159406Y+4536328D01*
X+6188179Y+4507555D01*
X+6188179Y+4495959D01*
X+6222469Y+4495959D01*
X+6222469Y+4374041D01*
X+6132023Y+4374041D01*
X+6212885Y+4293179D01*
X+6283954Y+4293179D01*
X+6249321Y+4327812D01*
X+6249321Y+4416188D01*
X+6311812Y+4478679D01*
X+6400188Y+4478679D01*
X+6417521Y+4461346D01*
X+6417521Y+4536654D01*
X+6400188Y+4519321D01*
X+6311812Y+4519321D01*
X+6249321Y+4581812D01*
X+6249321Y+4670188D01*
X+6311812Y+4732679D01*
X+6400188Y+4732679D01*
X+6417521Y+4715346D01*
X+6417521Y+4757415D01*
X+6388915Y+4786021D01*
X+6262021Y+4786021D01*
X+6262021Y+4973979D01*
X+6449979Y+4973979D01*
X+6449979Y+4847085D01*
X+6503879Y+4793185D01*
X+6503879Y+4054297D01*
X+6536821Y+4054297D01*
X+6536821Y+5012531D01*
X+6519041Y+5012531D01*
X+6519041Y+5167469D01*
X+6640959Y+5167469D01*
X+6640959Y+5012531D01*
X+6623179Y+5012531D01*
X+6623179Y+4827243D01*
X+6631034Y+4835098D01*
X+6630321Y+4835812D01*
X+6630321Y+4924188D01*
X+6692812Y+4986679D01*
X+6781188Y+4986679D01*
X+6843679Y+4924188D01*
X+6843679Y+4835812D01*
X+6781188Y+4773321D01*
X+6692812Y+4773321D01*
X+6692098Y+4774034D01*
X+6672211Y+4754147D01*
X+6672211Y+4712078D01*
X+6692812Y+4732679D01*
X+6781188Y+4732679D01*
X+6843679Y+4670188D01*
X+6843679Y+4581812D01*
X+6781188Y+4519321D01*
X+6692812Y+4519321D01*
X+6672211Y+4539922D01*
X+6672211Y+4458078D01*
X+6692812Y+4478679D01*
X+6781188Y+4478679D01*
X+6843679Y+4416188D01*
X+6843679Y+4327812D01*
X+6781188Y+4265321D01*
X+6692812Y+4265321D01*
X+6672211Y+4285922D01*
X+6672211Y+4204078D01*
X+6692812Y+4224679D01*
X+6781188Y+4224679D01*
X+6843679Y+4162188D01*
X+6843679Y+4073812D01*
X+6781188Y+4011321D01*
X+6692812Y+4011321D01*
X+6672211Y+4031922D01*
X+6672211Y+3950078D01*
X+6692812Y+3970679D01*
X+6781188Y+3970679D01*
X+6843679Y+3908188D01*
X+6843679Y+3819812D01*
X+6781188Y+3757321D01*
X+6692812Y+3757321D01*
X+6672211Y+3777922D01*
X+6672211Y+3696078D01*
X+6692812Y+3716679D01*
X+6781188Y+3716679D01*
X+6843679Y+3654188D01*
X+6843679Y+3565812D01*
X+6781188Y+3503321D01*
X+6692812Y+3503321D01*
X+6672211Y+3523922D01*
X+6672211Y+3460891D01*
X+6410094Y+3198774D01*
X+6462679Y+3146188D01*
X+6462679Y+3057812D01*
X+6400188Y+2995321D01*
X+6311812Y+2995321D01*
X+6249321Y+3057812D01*
X+6249321Y+3146188D01*
X+6278114Y+3174981D01*
X+5909492Y+3174981D01*
X+5896792Y+3162281D01*
X+5893782Y+3162281D01*
X+6164884Y+2891179D01*
X+6249321Y+2891179D01*
X+6249321Y+2892188D01*
X+6311812Y+2954679D01*
X+6400188Y+2954679D01*
X+6462679Y+2892188D01*
X+6462679Y+2803812D01*
X+6400188Y+2741321D01*
X+6311812Y+2741321D01*
X+6249321Y+2803812D01*
X+6249321Y+2804821D01*
X+6160879Y+2804821D01*
X+6160879Y+2776854D01*
X+6148179Y+2764154D01*
X+6148179Y+1622469D01*
X+6165959Y+1622469D01*
X+6165959Y+1511895D01*
X+6271238Y+1511895D01*
X+6249321Y+1533812D01*
X+6249321Y+1622188D01*
X+6311812Y+1684679D01*
X+6400188Y+1684679D01*
X+6400902Y+1683966D01*
X+6486204Y+1769268D01*
X+6462679Y+1792793D01*
X+6462679Y+1787812D01*
X+6400188Y+1725321D01*
X+6311812Y+1725321D01*
X+6249321Y+1787812D01*
X+6249321Y+1876188D01*
X+6311812Y+1938679D01*
X+6400188Y+1938679D01*
X+6462679Y+1876188D01*
X+6462679Y+1853561D01*
X+6471561Y+1862443D01*
X+6471561Y+2554123D01*
X+6462679Y+2563005D01*
X+6462679Y+2549812D01*
X+6400188Y+2487321D01*
X+6311812Y+2487321D01*
X+6249321Y+2549812D01*
X+6249321Y+2638188D01*
X+6311812Y+2700679D01*
X+6400188Y+2700679D01*
X+6462679Y+2638188D01*
X+6462679Y+2616933D01*
X+6491594Y+2645848D01*
X+6537886Y+2645848D01*
X+6570619Y+2613115D01*
X+6570619Y+2566823D01*
X+6557919Y+2554123D01*
X+6557919Y+2553252D01*
X+6591165Y+2553252D01*
X+6623898Y+2520519D01*
X+6623898Y+2474227D01*
X+6611198Y+2461527D01*
X+6611198Y+1772134D01*
X+6461966Y+1622902D01*
X+6462679Y+1622188D01*
X+6462679Y+1533812D01*
X+6440762Y+1511895D01*
X+6609831Y+1511895D01*
X+6631034Y+1533098D01*
X+6630321Y+1533812D01*
X+6630321Y+1622188D01*
X+6692812Y+1684679D01*
X+6781188Y+1684679D01*
X+6843679Y+1622188D01*
X+6843679Y+1533812D01*
X+6781188Y+1471321D01*
X+6692812Y+1471321D01*
X+6692098Y+1472034D01*
X+6645601Y+1425537D01*
X+6405330Y+1425537D01*
X+6462679Y+1368188D01*
X+6462679Y+1279812D01*
X+6400188Y+1217321D01*
X+6311812Y+1217321D01*
X+6249321Y+1279812D01*
X+6249321Y+1368188D01*
X+6306670Y+1425537D01*
X+5079750Y+1425537D01*
X+5003466Y+1501821D01*
X+5000959Y+1501821D01*
X+5000959Y+1467531D01*
X+4879041Y+1467531D01*
X+4879041Y+1622469D01*
X+5000959Y+1622469D01*
X+5000959Y+1588179D01*
X+5039236Y+1588179D01*
X+5079041Y+1548374D01*
X+5079041Y+1622469D01*
X+5200959Y+1622469D01*
X+5200959Y+1511895D01*
X+5269041Y+1511895D01*
X+5269041Y+1622469D01*
X+5346405Y+1622469D01*
X+5506826Y+1782890D01*
X+5506826Y+1796111D01*
X+5539559Y+1828844D01*
X+5585851Y+1828844D01*
X+5597131Y+1817564D01*
X+5597131Y+1957469D01*
X+5802869Y+1957469D01*
X+5802869Y+1878933D01*
X+5989121Y+2065185D01*
X+5989121Y+2083146D01*
X+6021854Y+2115879D01*
X+6061821Y+2115879D01*
X+6061821Y+2764154D01*
X+6049121Y+2776854D01*
X+6049121Y+2823146D01*
X+6079955Y+2853980D01*
X+5726821Y+3207114D01*
X+5726821Y+4272115D01*
X+5607469Y+4391467D01*
X+5607469Y+4279041D01*
X+5452531Y+4279041D01*
X+5452531Y+4374041D01*
X+5302531Y+4374041D01*
X+5302531Y+4495959D01*
X+5319121Y+4495959D01*
X+5319121Y+4538146D01*
X+5341612Y+4560637D01*
X+5260727Y+4560637D01*
X+5199233Y+4622131D01*
X+5092531Y+4622131D01*
X+5092531Y+4827869D01*
X+5117931Y+4827869D01*
X+5117931Y+5007123D01*
X+5088721Y+5036333D01*
X+5088721Y+5103667D01*
X+5136333Y+5151279D01*
X+5203667Y+5151279D01*
X+5251279Y+5103667D01*
X+5251279Y+5036333D01*
X+5222069Y+5007123D01*
X+5222069Y+4827869D01*
X+5247469Y+4827869D01*
X+5247469Y+4721167D01*
X+5292531Y+4676105D01*
X+5292531Y+4827869D01*
X+5326821Y+4827869D01*
X+5326821Y+5452592D01*
X+5343900Y+5469671D01*
X+5313442Y+5469671D01*
X+5254671Y+5528442D01*
X+5254671Y+5611558D01*
X+5313113Y+5670000D01*
X+5254671Y+5728442D01*
X+5254671Y+5811558D01*
X+5313442Y+5870329D01*
X+5396558Y+5870329D01*
X+5455000Y+5811887D01*
X+5513442Y+5870329D01*
X+5596558Y+5870329D01*
X+5655000Y+5811887D01*
X+5713442Y+5870329D01*
X+5796558Y+5870329D01*
X+5855000Y+5811887D01*
X+5913442Y+5870329D01*
X+5996558Y+5870329D01*
X+6055329Y+5811558D01*
X+6692812Y+3462679D02*
X+6781188Y+3462679D01*
X+6843679Y+3400188D01*
X+6843679Y+3311812D01*
X+6781188Y+3249321D01*
X+6692812Y+3249321D01*
X+6630321Y+3311812D01*
X+6630321Y+3400188D01*
X+6692812Y+3462679D01*
X+6692812Y+3208679D02*
X+6781188Y+3208679D01*
X+6843679Y+3146188D01*
X+6843679Y+3057812D01*
X+6781188Y+2995321D01*
X+6692812Y+2995321D01*
X+6630321Y+3057812D01*
X+6630321Y+3146188D01*
X+6692812Y+3208679D01*
X+6692812Y+2954679D02*
X+6781188Y+2954679D01*
X+6843679Y+2892188D01*
X+6843679Y+2803812D01*
X+6781188Y+2741321D01*
X+6692812Y+2741321D01*
X+6630321Y+2803812D01*
X+6630321Y+2892188D01*
X+6692812Y+2954679D01*
X+6692812Y+2700679D02*
X+6781188Y+2700679D01*
X+6843679Y+2638188D01*
X+6843679Y+2549812D01*
X+6781188Y+2487321D01*
X+6692812Y+2487321D01*
X+6630321Y+2549812D01*
X+6630321Y+2638188D01*
X+6692812Y+2700679D01*
X+6311812Y+2446679D02*
X+6400188Y+2446679D01*
X+6462679Y+2384188D01*
X+6462679Y+2295812D01*
X+6400188Y+2233321D01*
X+6311812Y+2233321D01*
X+6249321Y+2295812D01*
X+6249321Y+2384188D01*
X+6311812Y+2446679D01*
X+6692812Y+2446679D02*
X+6781188Y+2446679D01*
X+6843679Y+2384188D01*
X+6843679Y+2295812D01*
X+6781188Y+2233321D01*
X+6692812Y+2233321D01*
X+6630321Y+2295812D01*
X+6630321Y+2384188D01*
X+6692812Y+2446679D01*
X+6311812Y+2192679D02*
X+6400188Y+2192679D01*
X+6462679Y+2130188D01*
X+6462679Y+2041812D01*
X+6400188Y+1979321D01*
X+6311812Y+1979321D01*
X+6249321Y+2041812D01*
X+6249321Y+2130188D01*
X+6311812Y+2192679D01*
X+6692812Y+2192679D02*
X+6781188Y+2192679D01*
X+6843679Y+2130188D01*
X+6843679Y+2041812D01*
X+6781188Y+1979321D01*
X+6692812Y+1979321D01*
X+6630321Y+2041812D01*
X+6630321Y+2130188D01*
X+6692812Y+2192679D01*
X+6692812Y+1938679D02*
X+6781188Y+1938679D01*
X+6843679Y+1876188D01*
X+6843679Y+1787812D01*
X+6781188Y+1725321D01*
X+6692812Y+1725321D01*
X+6630321Y+1787812D01*
X+6630321Y+1876188D01*
X+6692812Y+1938679D01*
X+6692812Y+1430679D02*
X+6781188Y+1430679D01*
X+6843679Y+1368188D01*
X+6843679Y+1279812D01*
X+6781188Y+1217321D01*
X+6692812Y+1217321D01*
X+6630321Y+1279812D01*
X+6630321Y+1368188D01*
X+6692812Y+1430679D01*
X+6692812Y+1176679D02*
X+6781188Y+1176679D01*
X+6843679Y+1114188D01*
X+6843679Y+1025812D01*
X+6781188Y+963321D01*
X+6692812Y+963321D01*
X+6630321Y+1025812D01*
X+6630321Y+1114188D01*
X+6692812Y+1176679D01*
X+6311812Y+668679D02*
X+6400188Y+668679D01*
X+6462679Y+606188D01*
X+6462679Y+517812D01*
X+6400188Y+455321D01*
X+6311812Y+455321D01*
X+6249321Y+517812D01*
X+6249321Y+606188D01*
X+6311812Y+668679D01*
X+6692812Y+668679D02*
X+6781188Y+668679D01*
X+6843679Y+606188D01*
X+6843679Y+517812D01*
X+6781188Y+455321D01*
X+6692812Y+455321D01*
X+6630321Y+517812D01*
X+6630321Y+606188D01*
X+6692812Y+668679D01*
X+6692812Y+414679D02*
X+6781188Y+414679D01*
X+6843679Y+352188D01*
X+6843679Y+263812D01*
X+6781188Y+201321D01*
X+6692812Y+201321D01*
X+6630321Y+263812D01*
X+6630321Y+352188D01*
X+6692812Y+414679D01*
X+4282841Y+1844923D02*
X+4360695Y+1844923D01*
X+4415747Y+1789871D01*
X+4415747Y+1712017D01*
X+4360695Y+1656965D01*
X+4282841Y+1656965D01*
X+4227789Y+1712017D01*
X+4227789Y+1789871D01*
X+4282841Y+1844923D01*
X+5690959Y+417531D02*
X+5673179Y+417531D01*
X+5673179Y+402469D01*
X+5727869Y+402469D01*
X+5727869Y+247531D01*
X+5522131Y+247531D01*
X+5522131Y+318510D01*
X+5459386Y+318509D01*
X+5446686Y+305809D01*
X+5400394Y+305809D01*
X+5367661Y+338542D01*
X+5367661Y+384834D01*
X+5400394Y+417567D01*
X+5446686Y+417567D01*
X+5459386Y+404867D01*
X+5586821Y+404866D01*
X+5586821Y+417531D01*
X+5569041Y+417531D01*
X+5569041Y+572469D01*
X+5690959Y+572469D01*
X+5690959Y+417531D01*
X+5685959Y+1237531D02*
X+5665480Y+1237531D01*
X+5665480Y+1227469D01*
X+5725170Y+1227469D01*
X+5725170Y+1072531D01*
X+5519432Y+1072531D01*
X+5519432Y+1106821D01*
X+5398135Y+1106821D01*
X+5386093Y+1094779D01*
X+5339801Y+1094779D01*
X+5337869Y+1096711D01*
X+5337869Y+1071531D01*
X+5197595Y+1071531D01*
X+5193334Y+1067270D01*
X+5193334Y+1065337D01*
X+5160601Y+1032604D01*
X+5114309Y+1032604D01*
X+5081576Y+1065337D01*
X+5081576Y+1111629D01*
X+5114309Y+1144362D01*
X+5132131Y+1144362D01*
X+5132131Y+1226469D01*
X+5191821Y+1226469D01*
X+5191821Y+1237531D01*
X+5174041Y+1237531D01*
X+5174041Y+1392469D01*
X+5295959Y+1392469D01*
X+5295959Y+1237531D01*
X+5278179Y+1237531D01*
X+5278179Y+1226469D01*
X+5337869Y+1226469D01*
X+5337869Y+1204605D01*
X+5339801Y+1206537D01*
X+5386093Y+1206537D01*
X+5399451Y+1193179D01*
X+5519432Y+1193179D01*
X+5519432Y+1227469D01*
X+5579122Y+1227469D01*
X+5579122Y+1237531D01*
X+5564041Y+1237531D01*
X+5564041Y+1392469D01*
X+5685959Y+1392469D01*
X+5685959Y+1237531D01*
X+5888501Y+1385345D02*
X+5949041Y+1385345D01*
X+5949041Y+1392469D01*
X+6070959Y+1392469D01*
X+6070959Y+1237531D01*
X+6053179Y+1237531D01*
X+6053179Y+1222469D01*
X+6112869Y+1222469D01*
X+6112869Y+1067531D01*
X+5907131Y+1067531D01*
X+5907131Y+1222469D01*
X+5966821Y+1222469D01*
X+5966821Y+1237531D01*
X+5949041Y+1237531D01*
X+5949041Y+1298987D01*
X+5888501Y+1298987D01*
X+5875801Y+1286287D01*
X+5829509Y+1286287D01*
X+5796776Y+1319020D01*
X+5796776Y+1365312D01*
X+5829509Y+1398045D01*
X+5875801Y+1398045D01*
X+5888501Y+1385345D01*
X+5065846Y+578179D02*
X+5217885Y+578179D01*
X+5223595Y+572469D01*
X+5300959Y+572469D01*
X+5300959Y+417531D01*
X+5283179Y+417531D01*
X+5283179Y+402469D01*
X+5342869Y+402469D01*
X+5342869Y+247531D01*
X+5137131Y+247531D01*
X+5137131Y+402469D01*
X+5196821Y+402469D01*
X+5196821Y+417531D01*
X+5179041Y+417531D01*
X+5179041Y+491821D01*
X+5065846Y+491821D01*
X+5053146Y+479121D01*
X+5006854Y+479121D01*
X+4974121Y+511854D01*
X+4974121Y+558146D01*
X+5006854Y+590879D01*
X+5053146Y+590879D01*
X+5065846Y+578179D01*
X+5955879Y+548146D02*
X+5955879Y+538179D01*
X+5959041Y+538179D01*
X+5959041Y+572469D01*
X+6080959Y+572469D01*
X+6080959Y+417531D01*
X+6063179Y+417531D01*
X+6063179Y+402469D01*
X+6122869Y+402469D01*
X+6122869Y+247531D01*
X+5917131Y+247531D01*
X+5917131Y+402469D01*
X+5976821Y+402469D01*
X+5976821Y+417531D01*
X+5959041Y+417531D01*
X+5959041Y+451821D01*
X+5912115Y+451821D01*
X+5894815Y+469121D01*
X+5876854Y+469121D01*
X+5844121Y+501854D01*
X+5844121Y+548146D01*
X+5876854Y+580879D01*
X+5923146Y+580879D01*
X+5955879Y+548146D01*
X+5751459Y+2202051D02*
X+5733679Y+2202051D01*
X+5733679Y+2157469D01*
X+5802869Y+2157469D01*
X+5802869Y+2002531D01*
X+5597131Y+2002531D01*
X+5597131Y+2157469D01*
X+5647321Y+2157469D01*
X+5647321Y+2202051D01*
X+5629541Y+2202051D01*
X+5629541Y+2417949D01*
X+5751459Y+2417949D01*
X+5751459Y+2202051D01*
X+5751459Y+2900359D02*
X+5831902Y+2819916D01*
X+5873212Y+2819916D01*
X+5920824Y+2772304D01*
X+5920824Y+2704970D01*
X+5873212Y+2657358D01*
X+5805878Y+2657358D01*
X+5758266Y+2704970D01*
X+5758266Y+2746280D01*
X+5751459Y+2753087D01*
X+5751459Y+2742051D01*
X+5629541Y+2742051D01*
X+5629541Y+2957949D01*
X+5751459Y+2957949D01*
X+5751459Y+2900359D01*
X+4239789Y+1946017D02*
X+4239789Y+2023871D01*
X+4294841Y+2078923D01*
X+4372695Y+2078923D01*
X+4427747Y+2023871D01*
X+4427747Y+1946017D01*
X+4372695Y+1890965D01*
X+4294841Y+1890965D01*
X+4239789Y+1946017D01*
X+4239789Y+2708017D02*
X+4239789Y+2785871D01*
X+4294841Y+2840923D01*
X+4372695Y+2840923D01*
X+4427747Y+2785871D01*
X+4427747Y+2708017D01*
X+4372695Y+2652965D01*
X+4294841Y+2652965D01*
X+4239789Y+2708017D01*
X+3985789Y+2708017D02*
X+3985789Y+2785871D01*
X+4040841Y+2840923D01*
X+4118695Y+2840923D01*
X+4173747Y+2785871D01*
X+4173747Y+2708017D01*
X+4118695Y+2652965D01*
X+4040841Y+2652965D01*
X+3985789Y+2708017D01*
X+3731789Y+2708017D02*
X+3731789Y+2785871D01*
X+3786841Y+2840923D01*
X+3864695Y+2840923D01*
X+3919747Y+2785871D01*
X+3919747Y+2708017D01*
X+3864695Y+2652965D01*
X+3786841Y+2652965D01*
X+3731789Y+2708017D01*
X+2969789Y+2708017D02*
X+2969789Y+2785871D01*
X+3024841Y+2840923D01*
X+3102695Y+2840923D01*
X+3157747Y+2785871D01*
X+3157747Y+2708017D01*
X+3102695Y+2652965D01*
X+3024841Y+2652965D01*
X+2969789Y+2708017D01*
X+2715789Y+2708017D02*
X+2715789Y+2785871D01*
X+2770841Y+2840923D01*
X+2848695Y+2840923D01*
X+2903747Y+2785871D01*
X+2903747Y+2708017D01*
X+2848695Y+2652965D01*
X+2770841Y+2652965D01*
X+2715789Y+2708017D01*
X+5252869Y+1957469D02*
X+5252869Y+1802531D01*
X+5047131Y+1802531D01*
X+5047131Y+1957469D01*
X+5252869Y+1957469D01*
X+4689041Y+1622469D02*
X+4810959Y+1622469D01*
X+4810959Y+1467531D01*
X+4689041Y+1467531D01*
X+4689041Y+1622469D01*
X+5227469Y+4469041D02*
X+5208484Y+4469041D01*
X+5208484Y+4467086D01*
X+5221184Y+4454386D01*
X+5221184Y+4408094D01*
X+5214049Y+4400959D01*
X+5227469Y+4400959D01*
X+5227469Y+4279041D01*
X+5072531Y+4279041D01*
X+5072531Y+4400959D01*
X+5116561Y+4400959D01*
X+5109426Y+4408094D01*
X+5109426Y+4454386D01*
X+5122126Y+4467086D01*
X+5122126Y+4469041D01*
X+5072531Y+4469041D01*
X+5072531Y+4590959D01*
X+5227469Y+4590959D01*
X+5227469Y+4469041D01*
X+6830959Y+5012531D02*
X+6709041Y+5012531D01*
X+6709041Y+5167469D01*
X+6830959Y+5167469D01*
X+6830959Y+5012531D01*
X+6856279Y+5848667D02*
X+6856279Y+5781333D01*
X+6827069Y+5752123D01*
X+6827069Y+5612869D01*
X+6852469Y+5612869D01*
X+6852469Y+5407131D01*
X+6697531Y+5407131D01*
X+6697531Y+5612869D01*
X+6722931Y+5612869D01*
X+6722931Y+5752123D01*
X+6693721Y+5781333D01*
X+6693721Y+5848667D01*
X+6741333Y+5896279D01*
X+6808667Y+5896279D01*
X+6856279Y+5848667D01*
X+5936060Y+2876155D02*
X+5936060Y+2902457D01*
X+5954659Y+2921056D01*
X+5980961Y+2921056D01*
X+5999560Y+2902457D01*
X+5999560Y+2876155D01*
X+5980961Y+2857556D01*
X+5954659Y+2857556D01*
X+5936060Y+2876155D01*
X+6212265Y+1939500D02*
X+6212265Y+1965802D01*
X+6230864Y+1984401D01*
X+6257166Y+1984401D01*
X+6275765Y+1965802D01*
X+6275765Y+1939500D01*
X+6257166Y+1920901D01*
X+6230864Y+1920901D01*
X+6212265Y+1939500D01*
X+5601871Y+4046919D02*
X+5601871Y+4073221D01*
X+5620470Y+4091820D01*
X+5646772Y+4091820D01*
X+5665371Y+4073221D01*
X+5665371Y+4046919D01*
X+5646772Y+4028320D01*
X+5620470Y+4028320D01*
X+5601871Y+4046919D01*
X+3564795Y+3360329D02*
X+3483442Y+3360329D01*
X+3424671Y+3301558D01*
X+3424671Y+3218442D01*
X+3483113Y+3160000D01*
X+3424671Y+3101558D01*
X+3424671Y+3018442D01*
X+3440703Y+3002410D01*
X+2726226Y+3002410D01*
X+2597146Y+3131491D01*
X+3025649Y+3131491D01*
X+3025649Y+3322013D01*
X+3074351Y+3370715D01*
X+3074351Y+3131491D01*
X+3315649Y+3131491D01*
X+3315649Y+3376053D01*
X+3549071Y+3376053D01*
X+3564795Y+3360329D01*
X+4825541Y+2289707D02*
X+4820459Y+2284625D01*
X+4820459Y+2372140D01*
X+4825541Y+2372140D01*
X+4825541Y+2289707D01*
X+4698541Y+2247859D02*
X+4116089Y+2247859D01*
X+4003986Y+2359962D01*
X+4016165Y+2372140D01*
X+4698541Y+2372140D01*
X+4698541Y+2247859D01*
X+4562617Y+2295307D02*
X+4562617Y+2321609D01*
X+4581216Y+2340208D01*
X+4607518Y+2340208D01*
X+4626117Y+2321609D01*
X+4626117Y+2295307D01*
X+4607518Y+2276708D01*
X+4581216Y+2276708D01*
X+4562617Y+2295307D01*
X+3801237Y+2078923D02*
X+3786841Y+2078923D01*
X+3731789Y+2023871D01*
X+3731789Y+1946017D01*
X+3786841Y+1890965D01*
X+3864695Y+1890965D01*
X+3919747Y+1946017D01*
X+3919747Y+1960413D01*
X+3949736Y+1930424D01*
X+3949736Y+1807912D01*
X+4227789Y+1529859D01*
X+4227789Y+1458017D01*
X+4243738Y+1442068D01*
X+3891568Y+1442068D01*
X+3833979Y+1499657D01*
X+3833979Y+1601279D01*
X+3783069Y+1601279D01*
X+3653747Y+1730601D01*
X+3653747Y+1844923D01*
X+3465789Y+1844923D01*
X+3465789Y+1730601D01*
X+3390916Y+1655728D01*
X+2813380Y+1655728D01*
X+2765000Y+1607348D01*
X+2746494Y+1625854D01*
X+2777129Y+1656488D01*
X+2777129Y+1702780D01*
X+2764429Y+1715480D01*
X+2764429Y+1761775D01*
X+2635239Y+1890965D01*
X+2649747Y+1890965D01*
X+2649747Y+2078923D01*
X+2461789Y+2078923D01*
X+2461789Y+1934479D01*
X+2444546Y+1934479D01*
X+2423146Y+1955879D01*
X+2376854Y+1955879D01*
X+2344121Y+1923146D01*
X+2344121Y+1876854D01*
X+2376854Y+1844121D01*
X+2423146Y+1844121D01*
X+2427146Y+1848121D01*
X+2555955Y+1848121D01*
X+2559153Y+1844923D01*
X+2453789Y+1844923D01*
X+2453789Y+1730601D01*
X+2354602Y+1631414D01*
X+2354602Y+1376188D01*
X+2325392Y+1346978D01*
X+2325392Y+1279644D01*
X+2373004Y+1232032D01*
X+2440338Y+1232032D01*
X+2453789Y+1245483D01*
X+2453789Y+1204017D01*
X+2508841Y+1148965D01*
X+2586695Y+1148965D01*
X+2641747Y+1204017D01*
X+2641747Y+1281871D01*
X+2586695Y+1336923D01*
X+2508841Y+1336923D01*
X+2487950Y+1316032D01*
X+2487950Y+1346978D01*
X+2458740Y+1376188D01*
X+2458740Y+1453066D01*
X+2508841Y+1402965D01*
X+2586695Y+1402965D01*
X+2641747Y+1458017D01*
X+2641747Y+1535871D01*
X+2586695Y+1590923D01*
X+2508841Y+1590923D01*
X+2458740Y+1540822D01*
X+2458740Y+1588280D01*
X+2527425Y+1656965D01*
X+2568111Y+1656965D01*
X+2712931Y+1512145D01*
X+2712931Y+1319639D01*
X+2671021Y+1319639D01*
X+2671021Y+1157081D01*
X+2858979Y+1157081D01*
X+2858979Y+1319639D01*
X+2817069Y+1319639D01*
X+2817069Y+1512145D01*
X+2856514Y+1551590D01*
X+3231508Y+1551590D01*
X+3215789Y+1535871D01*
X+3215789Y+1458017D01*
X+3270841Y+1402965D01*
X+3348695Y+1402965D01*
X+3403747Y+1458017D01*
X+3403747Y+1535871D01*
X+3388028Y+1551590D01*
X+3434050Y+1551590D01*
X+3539425Y+1656965D01*
X+3580111Y+1656965D01*
X+3646021Y+1591055D01*
X+3646021Y+1543597D01*
X+3598695Y+1590923D01*
X+3520841Y+1590923D01*
X+3465789Y+1535871D01*
X+3465789Y+1458017D01*
X+3520841Y+1402965D01*
X+3598695Y+1402965D01*
X+3646021Y+1450291D01*
X+3646021Y+1438721D01*
X+3747643Y+1438721D01*
X+3798445Y+1387919D01*
X+3646021Y+1387919D01*
X+3646021Y+1289597D01*
X+3598695Y+1336923D01*
X+3520841Y+1336923D01*
X+3465789Y+1281871D01*
X+3465789Y+1210029D01*
X+3379667Y+1123907D01*
X+3245720Y+1123907D01*
X+2949466Y+827653D01*
X+2949466Y+852050D01*
X+2916733Y+884783D01*
X+2870441Y+884783D01*
X+2857741Y+872083D01*
X+2596498Y+872083D01*
X+2573616Y+894965D01*
X+2586695Y+894965D01*
X+2641747Y+950017D01*
X+2641747Y+1027871D01*
X+2586695Y+1082923D01*
X+2514853Y+1082923D01*
X+2258179Y+1339597D01*
X+2258179Y+1546292D01*
X+2315329Y+1603442D01*
X+2315329Y+1686558D01*
X+2256887Y+1745000D01*
X+2315329Y+1803442D01*
X+2315329Y+1886558D01*
X+2289124Y+1912762D01*
X+2748331Y+2371969D01*
X+2782944Y+2371969D01*
X+2754121Y+2343146D01*
X+2754121Y+2296854D01*
X+2786854Y+2264121D01*
X+2833146Y+2264121D01*
X+2845846Y+2276821D01*
X+2964827Y+2276821D01*
X+3223789Y+2017859D01*
X+3223789Y+1946017D01*
X+3278841Y+1890965D01*
X+3356695Y+1890965D01*
X+3411747Y+1946017D01*
X+3411747Y+2023871D01*
X+3356695Y+2078923D01*
X+3284853Y+2078923D01*
X+3000597Y+2363179D01*
X+2845846Y+2363179D01*
X+2837056Y+2371969D01*
X+3508191Y+2371969D01*
X+3801237Y+2078923D01*
X+3270841Y+1336923D02*
X+3348695Y+1336923D01*
X+3403747Y+1281871D01*
X+3403747Y+1204017D01*
X+3348695Y+1148965D01*
X+3270841Y+1148965D01*
X+3215789Y+1204017D01*
X+3215789Y+1281871D01*
X+3270841Y+1336923D01*
X+3270841Y+1844923D02*
X+3348695Y+1844923D01*
X+3403747Y+1789871D01*
X+3403747Y+1712017D01*
X+3348695Y+1656965D01*
X+3270841Y+1656965D01*
X+3215789Y+1712017D01*
X+3215789Y+1789871D01*
X+3270841Y+1844923D01*
X+2715789Y+1946017D02*
X+2715789Y+2023871D01*
X+2770841Y+2078923D01*
X+2848695Y+2078923D01*
X+2903747Y+2023871D01*
X+2903747Y+1946017D01*
X+2848695Y+1890965D01*
X+2770841Y+1890965D01*
X+2715789Y+1946017D01*
X+2969789Y+1946017D02*
X+2969789Y+2023871D01*
X+3024841Y+2078923D01*
X+3102695Y+2078923D01*
X+3157747Y+2023871D01*
X+3157747Y+1946017D01*
X+3102695Y+1890965D01*
X+3024841Y+1890965D01*
X+2969789Y+1946017D01*
X+3477789Y+1946017D02*
X+3477789Y+2023871D01*
X+3532841Y+2078923D01*
X+3610695Y+2078923D01*
X+3665747Y+2023871D01*
X+3665747Y+1946017D01*
X+3610695Y+1890965D01*
X+3532841Y+1890965D01*
X+3477789Y+1946017D01*
X+2858979Y+1106279D02*
X+2858979Y+943721D01*
X+2671021Y+943721D01*
X+2671021Y+1106279D01*
X+2858979Y+1106279D01*
X+5597977Y+4400959D02*
X+5457469Y+4400959D01*
X+5457469Y+4469041D01*
X+5529895Y+4469041D01*
X+5597977Y+4400959D01*
X+5837531Y+4469041D02*
X+5914895Y+4469041D01*
X+5982977Y+4400959D01*
X+5837531Y+4400959D01*
X+5837531Y+4279041D01*
X+5992469Y+4279041D01*
X+5992469Y+4391467D01*
X+6177115Y+4206821D01*
X+6293954Y+4206821D01*
X+6249321Y+4162188D01*
X+6249321Y+4073812D01*
X+6311812Y+4011321D01*
X+6400188Y+4011321D01*
X+6417521Y+4028654D01*
X+6417521Y+3953346D01*
X+6400188Y+3970679D01*
X+6311812Y+3970679D01*
X+6249321Y+3908188D01*
X+6249321Y+3819812D01*
X+6311812Y+3757321D01*
X+6400188Y+3757321D01*
X+6417521Y+3774654D01*
X+6417521Y+3699346D01*
X+6400188Y+3716679D01*
X+6311812Y+3716679D01*
X+6249321Y+3654188D01*
X+6249321Y+3628522D01*
X+5925960Y+3951883D01*
X+5925960Y+3969844D01*
X+5893227Y+4002577D01*
X+5846935Y+4002577D01*
X+5814202Y+3969844D01*
X+5814202Y+3923552D01*
X+5846935Y+3890819D01*
X+5864896Y+3890819D01*
X+6170477Y+3585238D01*
X+6170477Y+3556014D01*
X+6157777Y+3543314D01*
X+6157777Y+3510047D01*
X+5898909Y+3510047D01*
X+5886209Y+3522747D01*
X+5839917Y+3522747D01*
X+5813179Y+3496009D01*
X+5813179Y+4307885D01*
X+5747023Y+4374041D01*
X+5837469Y+4374041D01*
X+5837469Y+4495959D01*
X+5815879Y+4495959D01*
X+5815879Y+4538146D01*
X+5793388Y+4560637D01*
X+5834110Y+4560637D01*
X+5837531Y+4564058D01*
X+5837531Y+4469041D01*
X+6061821Y+1622469D02*
X+6044041Y+1622469D01*
X+6044041Y+1511895D01*
X+5975959Y+1511895D01*
X+5975959Y+1622469D01*
X+5854041Y+1622469D01*
X+5854041Y+1511895D01*
X+5780959Y+1511895D01*
X+5780959Y+1622469D01*
X+5763179Y+1622469D01*
X+5763179Y+1717115D01*
X+6050185Y+2004121D01*
X+6061821Y+2004121D01*
X+6061821Y+1622469D01*
X+5962243Y+1864209D02*
X+5962243Y+1890511D01*
X+5980842Y+1909110D01*
X+6007144Y+1909110D01*
X+6025743Y+1890511D01*
X+6025743Y+1864209D01*
X+6007144Y+1845610D01*
X+5980842Y+1845610D01*
X+5962243Y+1864209D01*
X+5689468Y+1765532D02*
X+5676821Y+1752885D01*
X+5676821Y+1622469D01*
X+5659041Y+1622469D01*
X+5659041Y+1511895D01*
X+5590959Y+1511895D01*
X+5590959Y+1622469D01*
X+5469041Y+1622469D01*
X+5469041Y+1511895D01*
X+5390959Y+1511895D01*
X+5390959Y+1544895D01*
X+5563150Y+1717086D01*
X+5585851Y+1717086D01*
X+5618584Y+1749819D01*
X+5618584Y+1796111D01*
X+5612164Y+1802531D01*
X+5726467Y+1802531D01*
X+5689468Y+1765532D01*
X+1797531Y+5663833D02*
X+1797531Y+5557131D01*
X+1822931Y+5557131D01*
X+1822931Y+5555329D01*
X+1763442Y+5555329D01*
X+1705000Y+5496887D01*
X+1652130Y+5549758D01*
X+1659503Y+5557131D01*
X+1752469Y+5557131D01*
X+1752469Y+5708895D01*
X+1797531Y+5663833D01*
X+1065520Y+3477787D02*
X+1083481Y+3477787D01*
X+1148727Y+3412540D01*
X+1148727Y+3387498D01*
X+1178046Y+3358179D01*
X+1052869Y+3358179D01*
X+1052869Y+3363718D01*
X+1054677Y+3361910D01*
X+1080979Y+3361910D01*
X+1099578Y+3380509D01*
X+1099578Y+3406811D01*
X+1080979Y+3425410D01*
X+1054677Y+3425410D01*
X+1052869Y+3423602D01*
X+1052869Y+3490438D01*
X+1065520Y+3477787D01*
X+847131Y+3537371D02*
X+1032787Y+3537371D01*
X+1032787Y+3532629D01*
X+847131Y+3532629D01*
X+847131Y+3357371D01*
X+990070Y+3357371D01*
X+747679Y+3114980D01*
X+747679Y+3131043D01*
X+813148Y+3196512D01*
X+813148Y+3507488D01*
X+747705Y+3572931D01*
X+847131Y+3572931D01*
X+847131Y+3537371D01*
X+1062371Y+2857131D02*
X+1062371Y+2692069D01*
X+1057629Y+2692069D01*
X+1057629Y+3058646D01*
X+1062371Y+3058646D01*
X+1062371Y+2857131D01*
X+6356000Y+3970679D02*
X+6356000Y+3864000D01*
X+6356000Y+3757321D02*
X+6356000Y+3864000D01*
X+6249321Y+3864000D02*
X+6356000Y+3864000D01*
X+6737000Y+2700679D02*
X+6737000Y+2594000D01*
X+6737000Y+2487321D02*
X+6737000Y+2594000D01*
X+6630321Y+2594000D02*
X+6737000Y+2594000D01*
X+6843679Y+2594000D02*
X+6737000Y+2594000D01*
X+6737000Y+1176679D02*
X+6737000Y+1070000D01*
X+6737000Y+963321D02*
X+6737000Y+1070000D01*
X+6630321Y+1070000D02*
X+6737000Y+1070000D01*
X+6843679Y+1070000D02*
X+6737000Y+1070000D01*
X+2547768Y+66923D02*
X+2547768Y-27056D01*
X+2547768Y-121035D02*
X+2547768Y-27056D01*
X+2453789Y-27056D02*
X+2547768Y-27056D01*
X+2641747Y-27056D02*
X+2547768Y-27056D01*
X+3559768Y+66923D02*
X+3559768Y-27056D01*
X+3559768Y-121035D02*
X+3559768Y-27056D01*
X+3465789Y-27056D02*
X+3559768Y-27056D01*
X+3653747Y-27056D02*
X+3559768Y-27056D01*
X+814041Y+745000D02*
X+875000Y+745000D01*
X+935959Y+745000D02*
X+875000Y+745000D01*
X+875000Y+667531D02*
X+875000Y+745000D01*
X+875000Y+822469D02*
X+875000Y+745000D01*
X+5474041Y+725000D02*
X+5535000Y+725000D01*
X+5595959Y+725000D02*
X+5535000Y+725000D01*
X+5535000Y+647531D02*
X+5535000Y+725000D01*
X+5200959Y+1545000D02*
X+5140000Y+1545000D01*
X+5140000Y+1622469D02*
X+5140000Y+1545000D01*
X+1223339Y+2280000D02*
X+1170000Y+2280000D01*
X+1170000Y+2362549D02*
X+1170000Y+2280000D01*
X+1170000Y+2197451D02*
X+1170000Y+2280000D01*
X+1170000Y+2012531D02*
X+1170000Y+2090000D01*
X+1170000Y+2167469D02*
X+1170000Y+2090000D01*
X+1272869Y+2090000D02*
X+1170000Y+2090000D01*
X+5854041Y+1545000D02*
X+5915000Y+1545000D01*
X+5975959Y+1545000D02*
X+5915000Y+1545000D01*
X+5915000Y+1622469D02*
X+5915000Y+1545000D01*
X+5205959Y+725000D02*
X+5145000Y+725000D01*
X+5145000Y+647531D02*
X+5145000Y+725000D01*
X+5864041Y+725000D02*
X+5925000Y+725000D01*
X+5985959Y+725000D02*
X+5925000Y+725000D01*
X+5925000Y+647531D02*
X+5925000Y+725000D01*
X+1204041Y+745000D02*
X+1265000Y+745000D01*
X+1325959Y+745000D02*
X+1265000Y+745000D01*
X+1265000Y+667531D02*
X+1265000Y+745000D01*
X+1265000Y+822469D02*
X+1265000Y+745000D01*
X+5370459Y+2310000D02*
X+5309500Y+2310000D01*
X+5248541Y+2310000D02*
X+5309500Y+2310000D01*
X+5309500Y+2202051D02*
X+5309500Y+2310000D01*
X+5497459Y+2850000D02*
X+5436500Y+2850000D01*
X+5375541Y+2850000D02*
X+5436500Y+2850000D01*
X+5436500Y+2742051D02*
X+5436500Y+2850000D01*
X+5500000Y+2427601D02*
X+5500000Y+2580000D01*
X+5500000Y+2732399D02*
X+5500000Y+2580000D01*
X+5687959Y+2580000D02*
X+5500000Y+2580000D01*
X+5312041Y+2580000D02*
X+5500000Y+2580000D01*
X+4698541Y+2310000D02*
X+4759500Y+2310000D01*
X+4820459Y+2310000D02*
X+4759500Y+2310000D01*
X+4825541Y+2850000D02*
X+4886500Y+2850000D01*
X+4947459Y+2850000D02*
X+4886500Y+2850000D01*
X+4886500Y+2742051D02*
X+4886500Y+2850000D01*
X+4950000Y+2732399D02*
X+4950000Y+2580000D01*
X+4762041Y+2580000D02*
X+4950000Y+2580000D01*
X+5137959Y+2580000D02*
X+4950000Y+2580000D01*
X+1805000Y+5555329D02*
X+1805000Y+5455000D01*
X+2969789Y+1984944D02*
X+3063768Y+1984944D01*
X+3157747Y+1984944D02*
X+3063768Y+1984944D01*
X+3063768Y+1890965D02*
X+3063768Y+1984944D01*
X+3063768Y+2078923D02*
X+3063768Y+1984944D01*
X+3731789Y+1984944D02*
X+3825768Y+1984944D01*
X+3825768Y+1890965D02*
X+3825768Y+1984944D01*
X+4239789Y+1984944D02*
X+4333768Y+1984944D01*
X+4427747Y+1984944D02*
X+4333768Y+1984944D01*
X+4333768Y+1890965D02*
X+4333768Y+1984944D01*
X+4333768Y+2078923D02*
X+4333768Y+1984944D01*
X+5700000Y+1957469D02*
X+5700000Y+1880000D01*
X+5700000Y+1802531D02*
X+5700000Y+1880000D01*
X+5597131Y+1880000D02*
X+5700000Y+1880000D01*
X+5802869Y+1880000D02*
X+5700000Y+1880000D01*
X+5150000Y+1957469D02*
X+5150000Y+1880000D01*
X+5150000Y+1802531D02*
X+5150000Y+1880000D01*
X+5047131Y+1880000D02*
X+5150000Y+1880000D01*
X+5252869Y+1880000D02*
X+5150000Y+1880000D01*
X+1822879Y+4455000D02*
X+1640000Y+4455000D01*
X+1640000Y+4272121D02*
X+1640000Y+4455000D01*
X+1640000Y+4637879D02*
X+1640000Y+4455000D01*
X+1664768Y+2582025D02*
X+1664768Y+2663304D01*
X+1664768Y+2744583D02*
X+1664768Y+2663304D01*
X+1758747Y+2663304D02*
X+1664768Y+2663304D01*
X+1570789Y+2663304D02*
X+1664768Y+2663304D01*
X+1062371Y+2770000D02*
X+1150000Y+2770000D01*
X+1237629Y+2770000D02*
X+1150000Y+2770000D01*
X+1062371Y+2960000D02*
X+1150000Y+2960000D01*
X+1237629Y+2960000D02*
X+1150000Y+2960000D01*
X+1150000Y+3062869D02*
X+1150000Y+2960000D01*
X+950000Y+3532629D02*
X+950000Y+3445000D01*
X+950000Y+3357371D02*
X+950000Y+3445000D01*
X+847131Y+3445000D02*
X+950000Y+3445000D01*
X+1052869Y+3445000D02*
X+950000Y+3445000D01*
X+1449056Y+3551587D02*
X+1449056Y+3629056D01*
X+1551925Y+3629056D02*
X+1449056Y+3629056D01*
X+1649056Y+3510335D02*
X+1649056Y+3429056D01*
X+1555077Y+3429056D02*
X+1649056Y+3429056D01*
X+1743035Y+3429056D02*
X+1649056Y+3429056D01*
X+1594041Y+745000D02*
X+1655000Y+745000D01*
X+1715959Y+745000D02*
X+1655000Y+745000D01*
X+1655000Y+667531D02*
X+1655000Y+745000D01*
X+1655000Y+822469D02*
X+1655000Y+745000D01*
X+1984041Y+745000D02*
X+2045000Y+745000D01*
X+2105959Y+745000D02*
X+2045000Y+745000D01*
X+2045000Y+667531D02*
X+2045000Y+745000D01*
X+2045000Y+822469D02*
X+2045000Y+745000D01*
X+4689041Y+1545000D02*
X+4750000Y+1545000D01*
X+4810959Y+1545000D02*
X+4750000Y+1545000D01*
X+4750000Y+1467531D02*
X+4750000Y+1545000D01*
X+4750000Y+1622469D02*
X+4750000Y+1545000D01*
X+5469041Y+1545000D02*
X+5530000Y+1545000D01*
X+5590959Y+1545000D02*
X+5530000Y+1545000D01*
X+5530000Y+1622469D02*
X+5530000Y+1545000D01*
X+950000Y+1239041D02*
X+950000Y+1300000D01*
X+950000Y+1360959D02*
X+950000Y+1300000D01*
X+1027469Y+1300000D02*
X+950000Y+1300000D01*
X+872531Y+1300000D02*
X+950000Y+1300000D01*
X+5150000Y+4279041D02*
X+5150000Y+4340000D01*
X+5227469Y+4340000D02*
X+5150000Y+4340000D01*
X+5072531Y+4340000D02*
X+5150000Y+4340000D01*
X+5530000Y+4279041D02*
X+5530000Y+4340000D01*
X+5530000Y+4400959D02*
X+5530000Y+4340000D01*
X+5607469Y+4340000D02*
X+5530000Y+4340000D01*
X+5452531Y+4340000D02*
X+5530000Y+4340000D01*
X+5915000Y+4279041D02*
X+5915000Y+4340000D01*
X+5915000Y+4400959D02*
X+5915000Y+4340000D01*
X+5992469Y+4340000D02*
X+5915000Y+4340000D01*
X+5837531Y+4340000D02*
X+5915000Y+4340000D01*
X+6830959Y+5090000D02*
X+6770000Y+5090000D01*
X+6709041Y+5090000D02*
X+6770000Y+5090000D01*
X+6770000Y+5167469D02*
X+6770000Y+5090000D01*
X+6770000Y+5012531D02*
X+6770000Y+5090000D01*
X+641000Y+4220679D02*
X+641000Y+4114000D01*
X+641000Y+4007321D02*
X+641000Y+4114000D01*
X+534321Y+4114000D02*
X+641000Y+4114000D01*
X+747679Y+4114000D02*
X+641000Y+4114000D01*
X+260000Y+2696679D02*
X+260000Y+2590000D01*
X+260000Y+2483321D02*
X+260000Y+2590000D01*
X+153321Y+2590000D02*
X+260000Y+2590000D01*
X+641000Y+2696679D02*
X+641000Y+2590000D01*
X+641000Y+2483321D02*
X+641000Y+2590000D01*
X+534321Y+2590000D02*
X+641000Y+2590000D01*
X+747679Y+2590000D02*
X+641000Y+2590000D01*
X+641000Y+2442679D02*
X+641000Y+2336000D01*
X+641000Y+2229321D02*
X+641000Y+2336000D01*
X+534321Y+2336000D02*
X+641000Y+2336000D01*
X+747679Y+2336000D02*
X+641000Y+2336000D01*
X+97921Y+5405000D02*
X+230000Y+5405000D01*
X+362079Y+5405000D02*
X+230000Y+5405000D01*
X+230000Y+5272921D02*
X+230000Y+5405000D01*
X+230000Y+5537079D02*
X+230000Y+5405000D01*
X+2765000Y+1106279D02*
X+2765000Y+1025000D01*
X+2765000Y+943721D02*
X+2765000Y+1025000D01*
X+2671021Y+1025000D02*
X+2765000Y+1025000D01*
X+2858979Y+1025000D02*
X+2765000Y+1025000D01*
X+3740000Y+1387919D02*
X+3740000Y+1306640D01*
X+3740000Y+1225361D02*
X+3740000Y+1306640D01*
X+3646021Y+1306640D02*
X+3740000Y+1306640D01*
X+3833979Y+1306640D02*
X+3740000Y+1306640D01*
X+2828721Y+2545000D02*
X+2910000Y+2545000D01*
X+2991279Y+2545000D02*
X+2910000Y+2545000D01*
X+2910000Y+2638979D02*
X+2910000Y+2545000D01*
X+1914671Y+2245000D02*
X+2015000Y+2245000D01*
X+1914671Y+2045000D02*
X+2015000Y+2045000D01*
X+3424671Y+3060000D02*
X+3525000Y+3060000D01*
X+3424671Y+3260000D02*
X+3525000Y+3260000D01*
X+3525000Y+3360329D02*
X+3525000Y+3260000D01*
X+3074351Y+3275000D02*
X+3195000Y+3275000D01*
X+3315649Y+3275000D02*
X+3195000Y+3275000D01*
X+3195000Y+3131491D02*
X+3195000Y+3275000D01*
X+2549351Y+3275000D02*
X+2670000Y+3275000D01*
X+2670000Y+3131491D02*
X+2670000Y+3275000D01*
X+2670000Y+3418509D02*
X+2670000Y+3275000D01*
D15*
X+6356000Y+4880000D03*
D16*
X+6737000Y+4880000D03*
X+6356000Y+4626000D03*
X+6737000Y+4626000D03*
X+6356000Y+4372000D03*
X+6737000Y+4372000D03*
X+6356000Y+4118000D03*
X+6737000Y+4118000D03*
X+6356000Y+3864000D03*
X+6737000Y+3864000D03*
X+6356000Y+3610000D03*
X+6737000Y+3610000D03*
X+6356000Y+3356000D03*
X+6737000Y+3356000D03*
X+6356000Y+3102000D03*
X+6737000Y+3102000D03*
X+6356000Y+2848000D03*
X+6737000Y+2848000D03*
X+6356000Y+2594000D03*
X+6737000Y+2594000D03*
X+6356000Y+2340000D03*
X+6737000Y+2340000D03*
X+6356000Y+2086000D03*
X+6737000Y+2086000D03*
X+6356000Y+1832000D03*
X+6737000Y+1832000D03*
X+6356000Y+1578000D03*
X+6737000Y+1578000D03*
X+6356000Y+1324000D03*
X+6737000Y+1324000D03*
X+6356000Y+1070000D03*
X+6737000Y+1070000D03*
X+6356000Y+816000D03*
X+6737000Y+816000D03*
X+6356000Y+562000D03*
X+6737000Y+562000D03*
X+6356000Y+308000D03*
X+6737000Y+308000D03*
D15*
X+2547768Y+1750944D03*
D17*
X+2547768Y+1496944D03*
X+2547768Y+1242944D03*
X+2547768Y+988944D03*
X+2547768Y+734944D03*
X+2547768Y+480944D03*
X+2547768Y+226944D03*
X+2547768Y-27056D03*
X+3309768Y-27056D03*
X+3309768Y+226944D03*
X+3309768Y+480944D03*
X+3309768Y+734944D03*
X+3309768Y+988944D03*
X+3309768Y+1242944D03*
X+3309768Y+1496944D03*
X+3309768Y+1750944D03*
D15*
X+3559768Y+1750944D03*
D17*
X+3559768Y+1496944D03*
X+3559768Y+1242944D03*
X+3559768Y+988944D03*
X+3559768Y+734944D03*
X+3559768Y+480944D03*
X+3559768Y+226944D03*
X+3559768Y-27056D03*
X+4321768Y-27056D03*
X+4321768Y+226944D03*
X+4321768Y+480944D03*
X+4321768Y+734944D03*
X+4321768Y+988944D03*
X+4321768Y+1242944D03*
X+4321768Y+1496944D03*
X+4321768Y+1750944D03*
D18*
X+1065000Y+745000D03*
X+875000Y+745000D03*
X+970000Y+515000D03*
X+5725000Y+725000D03*
X+5535000Y+725000D03*
X+5630000Y+495000D03*
X+5330000Y+1545000D03*
X+5140000Y+1545000D03*
X+5235000Y+1315000D03*
D19*
X+5625000Y+125000D03*
X+5625000Y+325000D03*
X+970000Y+145000D03*
X+970000Y+345000D03*
X+1360000Y+145000D03*
X+1360000Y+345000D03*
D70*
X+975000Y+2280000D03*
X+1040000Y+2280000D03*
X+1105000Y+2280000D03*
X+1170000Y+2280000D03*
X+1170000Y+2540000D03*
X+1105000Y+2540000D03*
X+1040000Y+2540000D03*
X+975000Y+2540000D03*
D19*
X+970000Y+2090000D03*
X+970000Y+1890000D03*
X+1170000Y+1890000D03*
X+1170000Y+2090000D03*
X+5622301Y+950000D03*
X+5622301Y+1150000D03*
X+2140000Y+145000D03*
X+2140000Y+345000D03*
X+5235000Y+949000D03*
X+5235000Y+1149000D03*
X+1750000Y+145000D03*
X+1750000Y+345000D03*
X+6010000Y+945000D03*
X+6010000Y+1145000D03*
X+5240000Y+125000D03*
X+5240000Y+325000D03*
X+6020000Y+125000D03*
X+6020000Y+325000D03*
D18*
X+6105000Y+1545000D03*
X+5915000Y+1545000D03*
X+6010000Y+1315000D03*
X+5335000Y+725000D03*
X+5145000Y+725000D03*
X+5240000Y+495000D03*
X+6115000Y+725000D03*
X+5925000Y+725000D03*
X+6020000Y+495000D03*
X+1455000Y+745000D03*
X+1265000Y+745000D03*
X+1360000Y+515000D03*
D71*
X+5309500Y+2310000D03*
X+5436500Y+2310000D03*
X+5563500Y+2310000D03*
X+5690500Y+2310000D03*
X+5690500Y+2850000D03*
X+5563500Y+2850000D03*
X+5436500Y+2850000D03*
X+5309500Y+2850000D03*
D20*
X+5500000Y+2580000D03*
D71*
X+4759500Y+2310000D03*
X+4886500Y+2310000D03*
X+5013500Y+2310000D03*
X+5140500Y+2310000D03*
X+5140500Y+2850000D03*
X+5013500Y+2850000D03*
X+4886500Y+2850000D03*
X+4759500Y+2850000D03*
D20*
X+4950000Y+2580000D03*
D21*
X+1405000Y+5255000D03*
X+1405000Y+5455000D03*
X+1605000Y+5255000D03*
X+1605000Y+5455000D03*
X+1805000Y+5255000D03*
X+1805000Y+5455000D03*
D22*
X+1675000Y+5660000D03*
X+1875000Y+5660000D03*
X+1525000Y+5660000D03*
X+1325000Y+5660000D03*
X+970000Y+1690000D03*
X+1170000Y+1690000D03*
D15*
X+2555768Y+1984944D03*
D17*
X+2809768Y+1984944D03*
X+3063768Y+1984944D03*
X+3317768Y+1984944D03*
X+3571768Y+1984944D03*
X+3825768Y+1984944D03*
X+4079768Y+1984944D03*
X+4333768Y+1984944D03*
X+4333768Y+2746944D03*
X+4079768Y+2746944D03*
X+3825768Y+2746944D03*
X+3571768Y+2746944D03*
X+3317768Y+2746944D03*
X+3063768Y+2746944D03*
X+2809768Y+2746944D03*
X+2555768Y+2746944D03*
D19*
X+5700000Y+2080000D03*
X+5700000Y+1880000D03*
X+5150000Y+2080000D03*
X+5150000Y+1880000D03*
D23*
X+1139620Y+4455000D03*
X+1640000Y+4455000D03*
D24*
X+1664768Y+2449944D03*
X+1664768Y+2663304D03*
D25*
X+970000Y+2770000D03*
X+1150000Y+2770000D03*
X+970000Y+2960000D03*
X+1150000Y+2960000D03*
D26*
X+950000Y+3625000D03*
X+950000Y+3445000D03*
D21*
X+1249056Y+3629056D03*
X+1249056Y+3429056D03*
D19*
X+1449056Y+3429056D03*
X+1449056Y+3629056D03*
D24*
X+1649056Y+3642416D03*
X+1649056Y+3429056D03*
D18*
X+1845000Y+745000D03*
X+1655000Y+745000D03*
X+1750000Y+515000D03*
X+2235000Y+745000D03*
X+2045000Y+745000D03*
X+2140000Y+515000D03*
X+4940000Y+1545000D03*
X+4750000Y+1545000D03*
X+4845000Y+1315000D03*
D19*
X+4845000Y+950000D03*
X+4845000Y+1150000D03*
D18*
X+5720000Y+1545000D03*
X+5530000Y+1545000D03*
X+5625000Y+1315000D03*
D27*
X+950000Y+1490000D03*
X+950000Y+1300000D03*
X+1180000Y+1395000D03*
D22*
X+5170000Y+4725000D03*
X+5370000Y+4725000D03*
D27*
X+5150000Y+4530000D03*
X+5150000Y+4340000D03*
X+5380000Y+4435000D03*
X+5530000Y+4530000D03*
X+5530000Y+4340000D03*
X+5760000Y+4435000D03*
X+5915000Y+4530000D03*
X+5915000Y+4340000D03*
X+6145000Y+4435000D03*
D18*
X+6580000Y+5090000D03*
X+6770000Y+5090000D03*
X+6675000Y+5320000D03*
D22*
X+5550000Y+4725000D03*
X+5750000Y+4725000D03*
X+5930000Y+4725000D03*
X+6130000Y+4725000D03*
X+6775000Y+5510000D03*
X+6575000Y+5510000D03*
D15*
X+260000Y+4876000D03*
D16*
X+641000Y+4876000D03*
X+260000Y+4622000D03*
X+641000Y+4622000D03*
X+260000Y+4368000D03*
X+641000Y+4368000D03*
X+260000Y+4114000D03*
X+641000Y+4114000D03*
X+260000Y+3860000D03*
X+641000Y+3860000D03*
X+260000Y+3606000D03*
X+641000Y+3606000D03*
X+260000Y+3352000D03*
X+641000Y+3352000D03*
X+260000Y+3098000D03*
X+641000Y+3098000D03*
X+260000Y+2844000D03*
X+641000Y+2844000D03*
X+260000Y+2590000D03*
X+641000Y+2590000D03*
X+260000Y+2336000D03*
X+641000Y+2336000D03*
X+260000Y+2082000D03*
X+641000Y+2082000D03*
X+260000Y+1828000D03*
X+641000Y+1828000D03*
X+260000Y+1574000D03*
X+641000Y+1574000D03*
X+260000Y+1320000D03*
X+641000Y+1320000D03*
X+260000Y+1066000D03*
X+641000Y+1066000D03*
X+260000Y+812000D03*
X+641000Y+812000D03*
X+260000Y+558000D03*
X+641000Y+558000D03*
X+260000Y+304000D03*
X+641000Y+304000D03*
D21*
X+1455000Y+1210000D03*
X+1455000Y+1410000D03*
D28*
X+1615000Y+1990000D03*
X+230000Y+5405000D03*
D24*
X+2765000Y+1238360D03*
X+2765000Y+1025000D03*
X+3740000Y+1520000D03*
X+3740000Y+1306640D03*
D29*
X+2696640Y+2545000D03*
X+2910000Y+2545000D03*
D21*
X+5355000Y+5570000D03*
X+5355000Y+5770000D03*
X+5555000Y+5570000D03*
X+5555000Y+5770000D03*
X+5755000Y+5570000D03*
X+5755000Y+5770000D03*
X+5955000Y+5570000D03*
X+5955000Y+5770000D03*
X+2015000Y+2445000D03*
X+2215000Y+2445000D03*
X+2015000Y+2245000D03*
X+2215000Y+2245000D03*
X+2015000Y+2045000D03*
X+2215000Y+2045000D03*
X+2015000Y+1845000D03*
X+2215000Y+1845000D03*
X+2015000Y+1645000D03*
X+2215000Y+1645000D03*
D28*
X+230000Y+5740000D03*
X+595000Y+5740000D03*
X+960000Y+5740000D03*
D21*
X+3525000Y+3060000D03*
X+3525000Y+3260000D03*
X+3725000Y+3060000D03*
X+3725000Y+3260000D03*
X+3925000Y+3060000D03*
X+3925000Y+3260000D03*
X+4125000Y+3060000D03*
X+4125000Y+3260000D03*
X+4325000Y+3060000D03*
X+4325000Y+3260000D03*
X+4525000Y+3060000D03*
X+4525000Y+3260000D03*
D72*
X+2905000Y+3275000D03*
X+3195000Y+3275000D03*
X+2380000Y+3275000D03*
X+2670000Y+3275000D03*
D28*
X+1645000Y+2925000D03*
X+2020000Y+2925000D03*
M02*
